<?xml version="1.0" encoding="utf-8"?>
<!-- Generator: Adobe Illustrator 24.3.0, SVG Export Plug-In . SVG Version: 6.00 Build 0)  -->
<svg version="1.1" id="Calque_1" xmlns="http://www.w3.org/2000/svg" xmlns:xlink="http://www.w3.org/1999/xlink" x="0px" y="0px"
	 viewBox="0 0 167.2 122.5" style="enable-background:new 0 0 167.2 122.5;" xml:space="preserve">
<style type="text/css">
	.st0{enable-background:new    ;}
	.st1{fill:#868686;}
	.st2{fill:#DA0B2C;}
</style>
<g>
	<g class="st0">
		<path d="M56.6,118.2l0.1-0.4h1.1l3-11.8h-1.4l0.1-0.4h3.4l3.2,9.5l0,0l2.3-9.1H67l0.1-0.4h3l-0.1,0.3h-1.1l-3.2,12.6h-0.4l-4-12.2
			l0,0l-2.9,11.5h1.4l-0.1,0.4H56.6z"/>
		<path d="M74.1,115.6c-0.5,1.7-1.4,2.8-2.9,2.8c-0.6,0-1.2-0.3-1.2-1c0-0.2,0.1-0.8,0.2-1.1l1.4-5.3h-1.5l0.1-0.4h0.4
			c0.5,0,1.8-0.1,2.5-0.2l-1.7,6.2c-0.1,0.2-0.2,0.5-0.2,0.7s0.3,0.4,0.5,0.4c0.8,0,1.5-1.3,1.9-2.3L74.1,115.6z M72.3,106.6
			c0-0.5,0.4-0.9,0.9-0.9s0.9,0.4,0.9,0.9s-0.4,0.9-0.9,0.9C72.7,107.6,72.3,107.2,72.3,106.6z"/>
		<path d="M84.1,111.1c0,0.3-0.3,0.6-0.6,0.6c-0.3,0-0.5-0.2-0.7-0.3c-0.2,0.1,0,0.3-0.8,2.2c-0.5,1.3-1.6,2.2-3.2,2.2
			c-0.5,0-1-0.1-1.4-0.4c-0.4,0-1.1,0.5-1.1,0.9c0,0.7,1.2,0.7,2.8,0.9c2,0.2,2.9,0.5,2.9,2c0,2.5-2.7,3.3-4.8,3.3
			c-1.3,0-2.9-0.5-2.9-2.1c0-1.1,1-1.7,1.9-2l0,0c-0.6-0.1-1-0.5-1-1.2c0-0.8,0.8-1.5,1.8-2.1c-0.3-0.3-0.6-1-0.6-1.4
			c0-1.8,1.7-3.1,3.3-3.1c1,0,1.8,0.7,2.2,1.6l0,0c0.2-0.7,0.5-1.7,1.4-1.7C83.8,110.3,84.1,110.7,84.1,111.1z M76.6,118.4
			c-0.8,0.5-1.2,1.1-1.2,2.1c0,0.2,0.1,1.6,2.1,1.6c1.3,0,3.7-0.5,3.7-2.2c0-0.9-0.8-1-1.5-1.1C78.9,118.6,77.4,118.6,76.6,118.4z
			 M80.8,112c0-1.1-0.8-1.1-1.1-1.1c-1.8,0-2,3.3-2,3.5c0,0.7,0.6,1.1,1.2,1.1C80.3,115.4,80.8,113.1,80.8,112z"/>
		<path d="M90.3,116.3c-0.7,1.3-1.5,2.1-3,2.1c-1.7,0-2.9-1.5-2.9-3c0-2.4,2.4-4.9,4.6-4.9c1,0,1.8,0.6,1.8,1.6
			c0,1.2-1.2,2.5-4.7,2.5c-0.1,0.5-0.3,1.1-0.3,1.7c0,1,0.4,1.8,1.4,1.8c1.4,0,2-0.8,2.6-1.9L90.3,116.3z M89.5,111.8
			c0-0.5-0.4-0.9-0.8-0.9c-1.3,0-2.1,2.1-2.4,3.2C88.5,114.1,89.5,113.1,89.5,111.8z"/>
		<path d="M93.7,111.1h-1.5l0.1-0.4h0.4c0.5,0,1.8-0.1,2.5-0.2l-0.5,1.9l0,0c0.5-0.9,1.3-1.9,2.3-1.9c0.4,0,0.9,0.3,0.9,0.8
			c0,0.4-0.3,0.8-0.8,0.8s-0.8-0.5-1.1-0.5c-0.4,0-1.5,1.3-2,3.2l-0.9,3.6h-1.4L93.7,111.1z"/>
		<path d="M102.6,115.6c-0.5,1.7-1.4,2.8-2.9,2.8c-0.6,0-1.2-0.3-1.2-1c0-0.2,0.1-0.8,0.2-1.1l1.4-5.3h-1.5l0.1-0.4h0.4
			c0.5,0,1.8-0.1,2.5-0.2l-1.7,6.2c-0.1,0.2-0.2,0.5-0.2,0.7s0.3,0.4,0.5,0.4c0.8,0,1.5-1.3,1.9-2.3L102.6,115.6z M100.9,106.6
			c0-0.5,0.4-0.9,0.9-0.9s0.9,0.4,0.9,0.9s-0.4,0.9-0.9,0.9C101.2,107.6,100.9,107.2,100.9,106.6z"/>
		<path d="M111.4,110.7l-1.8,6.5c-0.2,0.5,0.2,0.6,0.4,0.6c0.6,0,1.7-1.6,1.9-2.4l0.4,0.1c-0.7,2.1-1.8,2.9-2.6,2.9
			c-0.7,0-1.3-0.5-1.3-1.2l0,0c-0.5,0.7-1.4,1.2-2.2,1.2c-1.5,0-2.4-1.2-2.4-2.9c0-2.2,2.4-5,4.5-5c0.8,0,1.3,0.5,1.5,1.2l0,0l0.3-1
			L111.4,110.7L111.4,110.7z M105,116.6c0,0.8,0.4,1.5,1.3,1.5c0.5,0,1.5-0.4,2.2-2.3c0.3-1,0.8-2.5,0.8-3.5c0-0.8-0.4-1.3-1.2-1.3
			c-1,0-1.6,1-2,1.8C105.6,113.6,105,115.5,105,116.6z"/>
	</g>
	<g>
		<g>
			<g>
				<g>
					<path d="M8.4,71.1h-1L2,87.4H0V88h4.8v-0.6H2.7l1.8-5.5h4.7l1.7,5.5h-2V88h6.2v-0.6h-1.7L8.4,71.1z M4.8,81.2L7,74.5l0,0l2,6.7
						H4.8z"/>
					<path d="M20.4,70.6c-0.9,0.2-1.9,0.2-2.8,0.2h-1.1v0.6h1.9v15.9h-1.9v0.6h5.8v-0.6h-1.9V70.6z"/>
					<path d="M27.3,70.6c-0.9,0.2-1.9,0.2-2.8,0.2h-1.1v0.6h1.9v15.9h-1.9v0.6h5.8v-0.6h-1.9V70.6z"/>
					<path d="M33.2,74.1c0.7,0,1.3-0.5,1.3-1.3c0-0.6-0.7-1.2-1.3-1.2S32,72.1,32,72.8C32,73.5,32.5,74.1,33.2,74.1z"/>
					<path d="M34.2,77.9c-0.9,0.2-1.9,0.2-2.8,0.2h-0.8v0.6h1.7v8.7h-1.7V88h5.1v-0.6h-1.5C34.2,87.4,34.2,77.9,34.2,77.9z"/>
					<path d="M45.4,87.3c-0.5,0-0.5-0.4-0.5-1.1v-5.9c0-1,0-2.4-3.4-2.4c-3,0-4,1.5-4,2.4c0,0.7,0.4,1.2,1,1.2s1-0.4,1-1
						c0-0.8-0.7-0.9-0.7-1.1c0-0.7,1.8-0.9,2.3-0.9c0.9,0,1.8,0.3,1.8,1.5v2.4c-3.8,0-6.1,1.3-6.2,3.6c0,1.8,1.3,2.4,2.9,2.4
						c1.3,0,2.5-0.5,3.3-1.5c0.2,0.9,0.7,1.5,1.6,1.5c1.1,0,2-0.9,2.1-2h-0.4C46.2,86.6,45.9,87.3,45.4,87.3z M43,85
						c0,1-0.3,1.3-0.5,1.5c-0.6,0.5-1.1,0.7-1.9,0.7c-1.1,0-1.9-0.7-1.9-2c0-2.3,2.8-2.6,4.4-2.6L43,85L43,85z"/>
					<path d="M57.4,80.3c0-2.3-2.1-2.5-3-2.5c-1.8,0-2.8,1.1-3.5,2.6l0,0v-2.5c-0.4,0.1-0.9,0.2-1.4,0.2c-0.4,0.1-0.9,0.1-1.4,0.1
						h-0.5v0.6H49v8.7h-1.4v0.6h4.6v-0.6h-1.3v-4.6c0-1.9,1.3-4.2,3-4.2c1,0,1.6,0.3,1.6,2.1v6.7h-1.3v0.6h4.6v-0.6h-1.3L57.4,80.3
						L57.4,80.3z"/>
					<path d="M64.5,87.7c-1.3-0.1-2.1-0.6-2.4-1.4c-0.1-0.3-0.5-1.5-0.5-3c0-3.2,0.6-5,3-5c0.5,0,2.1,0.3,2.1,0.9
						c0,0.3-0.8,0.4-0.8,1.4c0,0.7,0.5,1.2,1.2,1.2s1.1-0.6,1.1-1.3c0-1.9-2.3-2.7-3.9-2.7c-1.4,0-5,1.1-5,5.5c0,1.7,1.2,4.9,5,4.9
						c2.6-0.1,3.6-1.6,4.1-3.4h-0.5C67.3,86.6,66,87.8,64.5,87.7z"/>
					<path d="M75,87.7c-2.7,0-3-2-3-4.4v-1h7c0-2.7-1.9-4.4-4.5-4.4c-3,0-4.9,2.7-4.9,5.6c0,2.8,2.4,4.8,5,4.8
						c2.2,0,3.9-1.1,4.4-3.4h-0.5C78.1,86.5,76.5,87.7,75,87.7z M72.3,79.9c0-0.2,0.7-1.6,2.2-1.6c1.2,0,2.3,0.6,2.3,2.4v0.8h-4.7
						C72.1,80.9,72.1,80.4,72.3,79.9z"/>
				</g>
			</g>
		</g>
		<g>
			<g>
				<path class="st1" d="M80.5,87.9v-0.6h2V71.9h-2v-0.6h12.1l0.2,4.4h-0.4c-0.8-3-1.2-3.8-4.3-3.8H85v7.2c2.2,0,3.2-0.1,3.4-2.6H89
					v6.1h-0.5c-0.2-2.5-1.2-2.9-3.5-2.9v7.6h2.1v0.6C87.1,87.9,80.5,87.9,80.5,87.9z"/>
			</g>
		</g>
		<g>
			<g>
				<path class="st1" d="M95.3,80.2L95.3,80.2c0.5-1.1,1.5-2.3,2.8-2.3c0.8,0,1.5,0.4,1.5,1.4c0,0.6-0.6,0.9-1.2,0.9
					c-0.4,0-1-0.5-1-1c0-0.2,0.1-0.4,0.1-0.5s-0.1-0.1-0.2-0.1c0,0-0.9,0.3-1.4,1.5c-0.3,0.7-0.6,1.7-0.6,2.7v4.7h1.9v0.6h-5.5v-0.6
					h1.7v-8.7h-1.7v-0.6h0.8c0.9,0,1.9,0,2.8-0.2L95.3,80.2L95.3,80.2z"/>
			</g>
		</g>
		<g>
			<g>
				<path class="st1" d="M106.4,85c0,1-0.3,1.3-0.5,1.5c-0.6,0.5-1.1,0.7-1.9,0.7c-1.1,0-1.9-0.7-1.9-2c0-2.3,2.8-2.6,4.4-2.6V85
					H106.4z M109.7,86.2c-0.1,0.4-0.4,1.1-0.9,1.1s-0.5-0.4-0.5-1.1v-5.9c0-1,0-2.4-3.4-2.4c-3,0-4,1.5-4,2.4c0,0.7,0.4,1.2,1,1.2
					s1-0.4,1-1c0-0.8-0.7-0.9-0.7-1.1c0-0.7,1.8-0.9,2.3-0.9c0.9,0,1.8,0.3,1.8,1.5v2.4c-3.8,0-6.1,1.3-6.2,3.6
					c0,1.8,1.3,2.4,2.9,2.4c1.3,0,2.5-0.5,3.3-1.5c0.2,0.9,0.7,1.5,1.6,1.5c1.1,0,2-0.9,2.1-2h-0.3L109.7,86.2L109.7,86.2z"/>
			</g>
		</g>
		<g>
			<g>
				<path class="st1" d="M112.2,78.7h-1.4v-0.6h0.5c0.5,0,0.9,0,1.4-0.1c0.5,0,0.9-0.1,1.4-0.2v2.6l0,0c0.7-1.6,1.7-2.6,3.5-2.6
					c0.9,0,2.9,0.2,2.9,2.5v7h1.3v0.6h-4.6v-0.6h1.3v-6.7c0-1.8-0.6-2.1-1.6-2.1c-1.7,0-3,2.3-3,4.2v4.6h1.3v0.6h-4.6v-0.6h1.4v-8.6
					C112,78.7,112.2,78.7,112.2,78.7z"/>
			</g>
		</g>
		<g>
			<g>
				<path class="st1" d="M127.2,88.2c2.6-0.1,3.6-1.6,4.1-3.4h-0.5c-0.6,1.8-2,2.9-3.4,2.9c-1.3-0.1-2.1-0.6-2.4-1.4
					c-0.1-0.3-0.5-1.5-0.5-3c0-3.2,0.6-5,3-5c0.5,0,2.1,0.3,2.1,0.9c0,0.3-0.8,0.4-0.8,1.4c0,0.7,0.5,1.2,1.2,1.2s1.1-0.6,1.1-1.3
					c0-1.9-2.3-2.7-3.9-2.7c-1.4,0-5,1.1-5,5.5c0,1.6,1,4.3,4,4.8l-0.9,2l0.4,0.1c0.5-0.1,0.3-0.1,0.7-0.1s1,0.2,1,0.9
					c0,0.7-0.8,0.9-1.4,0.9c-0.4,0-0.9-0.2-1.3-0.3l-0.3,0.7c0.5,0.2,1.3,0.3,1.8,0.3c1.2,0,2.7-0.4,2.7-1.9c0-1.1-1.1-1.5-1.6-1.5
					c-0.3,0-0.6,0.1-0.8,0.1l0.5-1.1C127.1,88.2,127.1,88.2,127.2,88.2"/>
			</g>
		</g>
		<g>
			<g>
				<path class="st1" d="M138.5,85c0,1-0.3,1.3-0.5,1.5c-0.6,0.5-1.1,0.7-1.9,0.7c-1.1,0-1.9-0.7-1.9-2c0-2.3,2.8-2.6,4.4-2.6V85
					H138.5z M141.8,86.2c-0.1,0.4-0.4,1.1-0.9,1.1s-0.5-0.4-0.5-1.1v-5.9c0-1,0-2.4-3.4-2.4c-2.9,0-4,1.5-4,2.4c0,0.7,0.4,1.2,1,1.2
					s1-0.4,1-1c0-0.8-0.7-0.9-0.7-1.1c0-0.7,1.8-0.9,2.3-0.9c0.9,0,1.8,0.3,1.8,1.5v2.4c-3.8,0-6.1,1.3-6.2,3.6
					c0,1.8,1.3,2.4,2.9,2.4c1.3,0,2.5-0.5,3.3-1.5c0.2,0.9,0.7,1.5,1.6,1.5c1.1,0,2-0.9,2.1-2h-0.3L141.8,86.2L141.8,86.2z"/>
			</g>
		</g>
		<g>
			<g>
				<path class="st1" d="M142.8,87.9v-0.6h1.7v-8.7h-1.7V78h0.8c0.9,0,1.9,0,2.8-0.2v9.5h1.5v0.6C147.9,87.9,142.8,87.9,142.8,87.9z
					 M145.4,71.6c0.6,0,1.3,0.5,1.3,1.2c0,0.8-0.5,1.3-1.3,1.3c-0.7,0-1.2-0.6-1.2-1.3C144.2,72.1,144.8,71.6,145.4,71.6"/>
			</g>
		</g>
		<g>
			<g>
				<path class="st1" d="M155.7,78.1v2.8h-0.5c-0.4-1.4-1.2-2.5-2.7-2.5c-2,0-2.3,1.5-2.3,1.8c0,0.7,0.2,1.1,4,1.9
					c1.9,0.4,2.6,1.3,2.6,2.8c0,2.1-1.6,3.4-3.6,3.4c-1,0-2.1-0.4-2.9-1.2l-0.5,0.9h-0.5v-3.3h0.6c0.5,1.8,1.7,3.1,3.5,3.1
					c1.1,0,2.4-0.8,2.4-2.1c0-1-1.4-1.4-3.4-1.9c-1.6-0.4-3.1-0.6-3.1-2.8c0-1,0.6-3,3.3-3c0.8,0,1.5,0.3,2.3,0.9l0.4-0.7h0.4V78.1z
					"/>
			</g>
		</g>
		<g>
			<g>
				<path class="st1" d="M160.2,81.6c0-0.6,0.1-1.2,0.2-1.6c0-0.2,0.7-1.6,2.2-1.6c1.2,0,2.3,0.6,2.3,2.4v0.8
					C164.9,81.6,160.2,81.6,160.2,81.6z M166.6,84.8c-0.3,1.6-2,2.9-3.4,2.9c-2.7,0-3-2-3-4.4v-1h7c0-2.7-1.9-4.4-4.5-4.4
					c-2.9,0-4.9,2.7-4.9,5.6c0,2.8,2.4,4.8,5,4.8c2.2,0,3.9-1.1,4.4-3.4L166.6,84.8L166.6,84.8z"/>
			</g>
		</g>
		<g>
			<g>
				<path class="st2" d="M105,0c-2.9,0-5.6,1.5-8.9,4.8c-3.7,3.8-6.7,9.7-8.5,16.7h-5.5H82v0.2l-0.3,1L81.6,23h0.3h5.4
					c-1.4,5.2-3.2,13.4-3.7,16.2c-0.1,0.5-0.2,0.9-0.2,1c-0.4,1.7-2,2.9-3.2,2.9s-1.7-0.8-1.7-2.6V23.4c0-2.4-1.3-4.4-3.6-5.8
					c-2-1.2-4.7-1.9-7.3-1.9c-3.8,0-6.2,1.2-7.5,2.3c-1.7,1.3-2.6,3.1-2.6,4.9c0,2.4,1.2,3.8,3.1,3.8c1.8,0,3.2-1.3,3.2-2.9
					c0-1.8-0.8-2.3-1.4-2.7c-0.4-0.3-0.7-0.5-0.7-1c0-2.1,4.2-2.8,6.1-2.8c4.2,0,5.1,1.9,5.1,3.5v7.7h-1c-2.4,0-6.9,0.2-10.7,1.8
					c-3.8,1.6-5.8,4.1-5.8,7.4c0,4.5,3.1,7.1,8.3,7.1c4.4,0,7.2-1.2,9.4-3.9c0.6,2.3,3,3.9,5.8,3.9c1.6,0,3-0.5,4.1-1.4
					c-1.2,5.5-2.2,9.5-3.1,12.3c-0.8,2.3-1.7,4-2.9,5.1c-1.1,1-2,1.1-2.3,1.1c-0.5,0-0.8-0.1-0.8-0.4c0-0.2,0.1-0.3,0.4-0.6
					c0.4-0.4,0.9-0.9,0.9-2.1c0-1.7-1.3-2.9-3.1-2.9c-0.8,0-1.6,0.3-2.2,1c-0.6,0.6-1,1.5-1,2.5s0.4,1.9,1.2,2.7
					c0.8,0.8,1.8,1.3,2.9,1.3c4,0,6.7-1.6,11.2-10.8c2.1-4.2,3.8-10.7,6.1-19c0.9-3.4,1.9-6.9,3-10.6h6.6h0.2v-0.2l0.2-1v-0.3H100
					h-6.5l1.9-7.1c1.1-4.2,4.6-12.9,8-12.9c0.5,0,0.7,0.1,0.7,0.3c0,0.1-0.1,0.3-0.3,0.5c-0.3,0.4-0.8,1-0.8,2.2c0,1.9,1.7,3,3.3,3
					c1.9,0,3.3-1.4,3.3-3.2C109.6,1.8,107.6,0,105,0 M72.6,29.9v8.2c0,1.1-2,4.7-6.8,4.7c-3.8,0-4.5-2.2-4.5-6.1
					c0-3,1.1-4.9,3.4-5.9c2.1-0.9,4.9-0.9,7-0.9C71.7,29.9,72.6,29.9,72.6,29.9z"/>
			</g>
		</g>
	</g>
</g>
</svg>
