<?xml version="1.0" encoding="utf-8"?>
<!-- Generator: Adobe Illustrator 24.0.3, SVG Export Plug-In . SVG Version: 6.00 Build 0)  -->
<svg version="1.1" id="Layer_1" xmlns="http://www.w3.org/2000/svg" xmlns:xlink="http://www.w3.org/1999/xlink" x="0px" y="0px"
	 viewBox="0 0 283.5 192.8" style="enable-background:new 0 0 283.5 192.8;" xml:space="preserve">
<style type="text/css">
	.st0{fill:#6EB444;}
	.st1{fill:#FFC313;stroke:#FFC313;stroke-width:2;stroke-miterlimit:10;}
	.st2{fill:#EC135F;}
	.st3{fill:#FFFFFF;}
	.st4{fill:#2395D2;}
	.st5{fill:#6FB544;}
	.st6{fill:#FFC116;}
	.st7{fill:#F26F21;}
</style>
<path class="st0" d="M251.5,88.3c-0.4,0.4-0.8,0.7-1.2,1.1c0,0.4,0.1,0.9,0.1,1.3c0.3,0.2,0.7,0.4,1.1,0.6c0.5-0.8,2.1-1.4,1.5-2.3
	C252.5,88.8,252,88.5,251.5,88.3z"/>
<path class="st1" d="M175.9,74.6c0.4-0.1,0.6,0,0.8,0.1C176.4,74.7,176.2,74.6,175.9,74.6z"/>
<path class="st1" d="M207.7,49.4c0.6-0.1,1.2-0.2,1.6-0.3c0.2,0.1,0.4,0.2,0.6,0.4C209.2,49.4,208.5,49.4,207.7,49.4z"/>
<path class="st2" d="M281,133.4l-3.2-2.5c1.1,1.6-0.7,2.2-1.4,3.1c-0.3-0.1-0.5-0.2-0.8-0.4c0,0.3-0.1,0.6-0.1,0.9
	c-0.1,0.3-0.2,0.6-0.3,0.9c-0.1,0.2-0.2,0.4-0.3,0.6c-0.2,0.5-0.3,1-0.4,1.5c-0.1,0-0.1,0-0.2-0.1c0-0.3,0.1-0.6,0.1-1.1
	c-2.1,2.8-5,3.4-7.8,4.2c-0.2,0.7-0.4,1.4-0.7,2c-0.5,0.8-0.9,1.6-0.6,2.5c0.4,1.2,0.8,2.4,1,3.6c0.1,0.7,0.3,1.4-0.1,2.1
	c-0.8,1.3-1.7,2.6-2.5,4c-0.7,1.2-0.5,2.4,0.3,3.5c0.3,0.4,0.7,0.9,0.4,1.7c-0.3,0.8,0.6,3.2,1.4,3.7c0.7,0.4,1.4,0.6,2.1,1
	c0.7,0.4,1.2,0.3,1.9,0c0.7-0.3,1.5-0.5,2.2-0.7c0.6-0.2,1.2-0.3,1.5-1c0.4-1.1,0.9-2.2,1.3-3.4c0.3-0.9,0.4-1.8,0.7-2.7
	c1.2-3.4,2.4-6.8,3.5-10.1c0.3-0.8,0.5-1.6,0.5-2.4c0-0.7,0-1.3,0.5-1.9c0.4-0.5,0.6-1.2,0.2-1.9c-0.2-0.4-0.6-1.2,0.1-1.8
	c0.4,0.6,0.7,1,1,1.5c0.1,0,0.3,0,0.4-0.1c0.1-0.7,0.3-1.4,0.3-2.1c-0.1-0.7-0.4-1.4-0.6-2.1C281.2,134.8,281.1,134.1,281,133.4z"/>
<path class="st3" d="M245.2,146.9c1.5-2,3.4-3.4,5.8-4.1c1.5-0.4,2.6-1.3,3.6-2.4c0.2-0.2,0.4-0.4,0.5-0.6c0.3-0.6,0.5-1.1,0.7-1.7
	c-0.4-0.6-0.6-1-1.1-0.9c-0.6,0.2-1.3,0.5-1.9,0.8c-0.7,0.1-1.4,0.2-2.1-0.2l-1.8,1l-2.1,0.4c-0.5,0.1-0.9,0.2-1.4,0.3
	c-0.5,0-1,0.1-1.6,0.1l-2.1,0.4c-0.5,0-1.1-0.1-1.7-0.1c-0.3,0.5-0.7,1.1-1.1,1.6l-1.9,0.9c-1.2,0.7-2.9,0.2-3.7,1.5
	c-0.4,0.3-0.8,0.6-1.2,0.9c-0.5,0-1,0.1-1.5,0.2c-0.8,0.5-1.6,1-2.4,1.4c-0.7,0.4-1.6-0.5-2.4,1.3c-0.1,0-0.1,0.1-0.2,0.1
	c-0.2,0-0.3,0-0.5,0c-0.5-0.3-0.8-1-1.2-0.4c-1.5,0.9-3,1.8-4.5,2.8c-0.5-0.2-1,0.3-1.6,1.4c-0.7,0-1.3,0-1.9,0c0,0-0.1-0.1-0.3-0.4
	c-0.6-0.5-1.5,0.1-1.3,0.8c0.2,0.4,0.3,0.8,0.4,1.2c-1.3-0.1-2.9,1-2.8,2.6c-0.6,0.2-1.1,0.3-1.7,0.4c-0.8,0.3-1.6,0.6-2.4,0.9
	c-2.3,0.3-3.1,1-3.8,2.4c0,0-0.1,0.1-0.1,0.1c-0.6,0.3-1.3,0.6-1.9,1c-0.1-0.2-0.6-0.4-0.5-0.3c0.1,0.4-1,0.8-0.9,1.3
	c-0.9,0.5-1.7,0.9-2.8,1.2c0.1,0.2,0.3,0.4,0.7,1.3c-0.2,0.1-0.5,0.3-0.7,0.5c-0.4,0.2-0.8,0.4-1.2,0.6c-0.8-0.6-0.1-1.7-0.6-0.7
	l-1.8,1c-0.6,0.4-1.4,0.8-1.9,1.1c-0.4,1.4-1.7,0.3-2.2,1.6c0.3,1.4,1,2.6,2.1,3.6c1.3,1.1,2.3,2.4,2.9,4.1c0.7,1.6,1.8,3.1,2.6,4.7
	c0.4,0.7,0.5,1.6,0.6,2.4c0,0.2-0.3,0.4-0.6,0.5c0,0.1,0,0.2,0,0.4c0,0.1-0.2,0.3-0.3,0.4c0,0,0,0.1,0.1,0.1
	c0.2,0.9,1.6,1.3,0.9,2.5c-0.1,0.1,0.1,0.5,0.1,0.6c0.3-0.2,0.5-0.4,0.7-0.4c0.1,0,0.3,0.3,0.4,0.4c0.1,0.1,0.2,0.2,0.4,0.3
	c0.3,0.1,0.7,0.2,0.9,0.4c1,0.9,1.5,0.9,2.7,0.3c0.6-0.3,1.3-0.6,1.9-0.5c1,0,1.8,0.1,2.6-0.6c0.4-0.3,1.2-0.4,1.8-0.4
	c1,0,1.9,0.1,2.9,0.2c-0.2-0.2-0.4-0.4-0.7-0.1c-0.7-0.6-0.4-1.1-0.5-1.7c0.6-0.2,1-1.2,1.7-0.6c0.3-0.5,2-0.1,0.9-1.1
	c-2.5-1.7,1.2-1.6-0.1-3.2c0.6-0.8,1.1-1.1,1.4-2.1c0-0.5,0-1,0-1.4c0.5-0.1,0.9-0.2,0.7-1.4c-0.4,0.2-0.9,0.4-1.3,0.6
	c-2.1-0.9,1.2-1.5-0.9-2.7c0.5-0.8,1.3-1.3,2.3-1.8c1-0.5,2.1-0.9,3.1-1.6l0.7,1c-0.6,1.1-1.7,0-2.3,0.8c1.2,1.3-0.4,1.5-0.2,3.3
	c1.2,2.4,3,0.6,4,2.6c-0.1,0.8-1.9,0.7-1,1.9c-1.1,0.2-1.5,1.6-0.8,2.9c0.8-0.4,2-0.2,2.4-1.2c0.4,0,0.8,0,1.2,0.1
	c0.1-0.2,0.2-0.3,0.3-0.5c0.3-0.5,0.5-1,0.8-1.6c0.1-0.1,0.2-0.1,0.3-0.2c0.1,0,0.1-0.1,0.2-0.1c0.7-0.7,1.5-1.4,2.1-2.1
	c-0.2-0.7,0.6-0.6,0.3-1.6c-0.6-0.7-1.6,0.8-2.1-1.6c0.1-0.8,0.9-1.2,1.5-1.5c-0.9-1.7,1.7-1.3,1.7-2.8c0.8-0.8,1.6-1.5,2.3-2.3
	c0.2,0.1,0.4,0.2,0.6,0.2c0.8,1,0.3,2.4,1.8,2.6l1.2-0.6c0.1-0.9-0.2-1.2-0.1-2.1c0.4-0.6,0.8-1.2,1.2-1.8c0.2,0.2,0.3,0.3,0.5,0.4
	c0-0.1,0-0.1,0.1-0.2c0.5-0.6,1.1-1.2,1.7-1.5l-0.1-0.2c1-0.2,1.7-0.5,2.4-0.9c0,0.1,0,0.1,0.1,0.2c0.5-0.2,1.1-0.4,1.6-0.6
	c0.3-0.1,0.6-0.3,0.8-0.5c0.1-0.2,0.1-0.3,0.2-0.5c0-0.1-0.2-0.3-0.4-0.6c0.1-0.4,0.3-1.1,0.4-1.7c0.1-0.6,0.1-1.3,0-1.9
	c0-0.2,0-0.4-0.1-0.5c-0.9-0.6-0.8-1.7-1-2.5c-0.1-0.6-0.2-1.1-0.7-1.4c-0.5-0.3-0.3-1.7,0.1-2c0.1-0.1,0.2-0.2,0.3-0.2
	c0.1-0.3,0.2-0.7,0.4-0.8c0.7-0.5,1.3-1.1,1.9-1.6c0.4-0.3,0.8-0.6,1.2-0.9C244.6,147.3,245,147.2,245.2,146.9z M218.9,152.6
	c0.1,0.2,0.3,0.4,0.4,0.7C219.2,153.1,219.1,152.9,218.9,152.6z M228.9,148.1c0.4-0.2,0.7-0.3,1.6-0.1
	C229.9,148,229.4,148,228.9,148.1z M233.8,147.1c0.7-0.3,1.4-0.5,1.8-0.9C235.3,146.7,234.6,146.9,233.8,147.1z"/>
<path class="st4" d="M255.2,97.1c-0.5,0.2-1.4,0.7-2.4,1.5c-0.8,0.4-1.7,0.7-2.4,1.1c-0.7-0.2-1.4-0.3-2.2-0.3
	c-3.2,0-5.3,1.9-6.7,3.2c0,0-0.1,0.1-0.1,0.1c-2.3,0.3-4,1.5-4.9,2.3c-0.2,0.1-0.3,0.3-0.4,0.3c0,0-1.1,0.5-1.5,0.7l-2.8,0.8
	c0,0-0.7,0.4-0.7,0.4c-0.7,0.1-1.4,0.2-1.9,0.4l-1.2,0l-4,2.7l-2.1,0.4l-0.9,1l-0.4,0.1l-1.1-0.3l-2.6,2.8c-1.6,0.3-3.1,0.9-4.4,1.9
	l-2.5,1.8l-1.6,0.8c-2.5,1.2-3.8,3.1-4.6,4.8l-0.3,0.2c-1.8,0.3-3.7,1.2-5.1,3c-1.6,0.2-3.1,0.9-4.3,2c-1,0.8-2,1.9-2.5,3.6
	c-0.4,0.4-0.9,0.8-1.4,1.3c-0.1,0-0.3,0.1-0.4,0.1l-0.9-1.5l-0.6,0.6l-2,1l-3.4,0.6c-0.3,1.1-0.5,2.1-0.8,3.2
	c-0.2,0.9-0.7,1.7-0.8,2.6c-0.2,1.1-0.1,2.2-0.2,3.3c-0.1,1.2,0.4,2.1,1,3.1c1,1.5,2.1,3,2.8,4.6c0.7,1.6,1.6,3,2.6,4.4
	c0.5,0.7,0.9,1.4,0.7,2.4c-0.2,1.1,0.1,2.4,0.3,3.6c0.1,0.7,0.5,1.3,0.7,2c0.1,0.5,0.1,1,0.2,1.5c2.5-1.2,5.4-2.5,5.6-3
	c1-0.6,2-0.2,2.8-1.6c0.5-0.4,0.9,0.3,1.2-0.2c0.4-0.3,0.7-0.6,0.9-0.8l1.6-1.4l0.4-1.4c0.1-0.2,0.3-0.3,0.5-0.5
	c0.8-0.8,1.9-1.9,2.7-3.4c0.1-0.1,0.3-0.2,0.4-0.4c0.3-0.3,0.7-0.6,0.9-0.8l3.3-0.8l1.1-3c0.2-0.1,0.4-0.2,0.6-0.3
	c1.7-0.7,4.5-2,6.7-5c1.4-0.7,2.5-1.7,3.1-2.4c2.1-0.7,3.8-2,5.2-3.1c0.6-0.4,1.4-1,1.8-1.3l2.5,0l1.5-1.6c0.6-0.3,1.1-0.7,1.5-1.1
	c0.3-0.1,0.5-0.2,0.8-0.3l1.8-0.3c0.5-0.1,1-0.2,1.5-0.2l1.6-0.2l1.8-1.1c1.5-0.3,2.9-1,4-2.1c1.9-0.6,3.3-1.9,4.1-2.9
	c0,0,0,0,0.1,0c1.8,0,3.2-0.6,4-1.1l1-0.3c-0.4-0.4-0.6-0.8-0.8-1.4c-0.2-0.6-0.5-1.3-0.6-1.9c-0.1-0.6-0.1-1.2-0.2-1.8
	c0-0.3,0.2-0.7,0-0.9c-0.5-0.6-0.3-1,0.1-1.5c0.4-0.5,0.4-0.7-0.2-1.1c-1.6-1.1-1.6-1.6-1-3.4c0.4-1.3,1.3-2.3,1.8-3.5
	c0.5-1.1,0.9-2.3,1.4-3.5c0.1-0.2,0.3-0.5,0.5-0.5c1.5-0.4,2.3-1.6,3.3-2.6c1.6-1.8,2.9-3.7,4.5-5.4c0.7-0.7,1.5-1.3,2.3-1.9
	c0.3-1.8,0.5-3,0.6-3L255.2,97.1z"/>
<path class="st5" d="M269.6,71.8c-0.5-0.2-1.1-0.1-1.6,0.2c-2.8,1.4-3.6,0.6-4.8-1c-0.6-0.8-1.2-1.5-2.3-1.4
	c0.3-0.2,0.6-0.3,0.8-0.4c0.3-0.2,0.7-0.6,0.9-0.8c-0.3-0.1-0.5-0.2-0.9-0.2c0.3-0.2,0.6-0.3,0.8-0.4c-0.2-0.5-0.5-0.9-0.9-1.3
	c-0.5-0.5-1.1-0.8-1.6-1.3c-0.4-0.3-0.6-0.8-0.9-1.2c-0.3-0.3-0.5-0.5-0.8-0.8c-0.9,0.3-1.7,0.6-2.6,1c-1.4,0.3-2.7,0.7-4.1,1
	c-0.9,0.3-1.9,0.5-2.8,0.8c-1,0.2-2,0.4-3,0.6l-4,1.2c-1,0.1-2,0.3-3,0.5c-0.8,0.7-1.8,1.5-2.7,2.3l-3.8,1.8
	c-2.5,1.3-5.2,1.3-7.2,3.2c-0.8,0.5-1.7,1.1-2.5,1.6c-0.9,0.3-1.8,0.6-2.8,0.9c-1.6,0.9-3.2,1.8-4.7,2.8c-1.4,0.8-2.6,0.1-4.7,2.6
	c-0.1,0.1-0.2,0.1-0.4,0.2c-0.3,0-0.5,0.1-0.9,0.2c-0.7-0.2-1-0.9-1.9-0.1c-3,1.8-5.9,3.7-8.8,5.5c-0.8-0.1-1.7,0.8-3.3,2.6
	c-1.1,0.3-2.1,0.6-3.2,0.9c0,0-0.1-0.1-0.3-0.4c-0.7-0.4-2.5,0.7-2.5,1.6c0.2,0.4,0.2,0.8,0.3,1.3c-2.2,0.4-5.1,2.6-5.7,4.7
	c-1,0.5-0.9-1.7-1.9-1.3c-1.5,0.8-1.9-0.5-3.3,0.3c-0.4,0.2-4.2,1.9-4.6,2c0.3,0.9,2,3.5,4.7,6.9c1.1,1.4,2.5,2.6,3.3,4.2
	c0.1,0.2,0.2,0.4,0.3,0.7c0.2,0.8,0.3,1.7,0.6,2.4c0.2,0.5,0.6,0.8,0.9,1.3c0.3,0.7,0.6,1.3,0.9,2c1.6-1,3.3-2,4.9-3.2l0.6,1
	c-1.4,1.7-2.8,0.9-4.2,2.3c0.9,0.7,0.2,1.4-0.6,2.3c0,0.2-0.2,0.4-0.4,0.6c0,0,0,0.1-0.1,0.1c0.1,0.4,0.1,0.8-0.3,1
	c0.2,0.5,0.4,1,0.6,1.5c1.5,0.4,3.9-1.2,4.6,0.5c-0.5,1.2-3.5,1.9-2.6,3.1c-0.2,0.1-0.4,0.2-0.6,0.3c0,0.2,0,0.4,0,0.6
	c-0.1,0.7-0.2,1.4-0.6,1.9c-0.1,0.3-0.2,0.6-0.3,0.9c1.2-0.6,2.5-1.1,3.4-2.3c0.7-0.2,1.3-0.3,2-0.5c0.3-0.3,0.5-0.5,0.8-0.9
	c0.7-0.9,1.4-1.7,2-2.6c0.3-0.2,0.5-0.3,0.7-0.5c0.1-0.1,0.2-0.1,0.3-0.2c1.5-1.3,3.3-2.7,4.5-3.8c-0.1-0.9,1.3-1.2,1.3-2.3
	c-0.7-0.7-3,1.9-2.9-1c0.6-1.1,2.1-2,3.3-2.8c-0.7-1.8,3.6-2.6,4.2-4.4c1.6-1.4,3.3-2.8,4.9-4.2c0.4,0,0.7,0,0.9,0
	c0.9,0.9-0.5,3,1.9,2.6c0.8-0.5,1.5-0.9,2.3-1.4c0.5-1.2,0.1-1.4,0.8-2.7c1-0.9,1.9-1.9,2.9-2.8c0.6,0.4,1.4,0.2,1.4,0.9
	c0.8-0.1,1.6-0.3,2.4-0.5l4-2.2c0.1-1.5-1.8,0.1-2.6,0c-0.3-0.3-0.6-0.6-0.8-0.9c1.9-0.6,3.2-1.4,4.5-2.2c0,2.5,3.6-0.9,5.4-1.4
	c0.4-0.6,0.7-1.1,0.9-1.6c1.2,0.4,3.2-1.2,4.1-1.4c0.6-0.2,1.2-0.4,1.9-0.6c0.7-0.3,1.4-0.7,2.1-1c0.9-0.5,1.8-1.1,2.7-1.6
	c0.6-0.3,1.5-0.4,2.3-1.6c0.7-0.1,1.3-0.2,2-0.3c0.4-0.1,0.8-0.2,1.1-0.2c0.3-0.3,0.7-0.5,1-0.7c0.6-0.1,1.3-0.2,2-0.3
	c0.1,0.2,0.2,0.4,0.2,0.7c1.2,0.9,2.5-1.4,4.1-1.1c0-0.6,0.1-1.3,0.1-1.9c1.2-0.6,3-0.7,3.3-2.3c0.3-0.1,0.5-0.2,0.8-0.3
	c0.9,0,2.5-0.5,3.1-1.8c0.4-0.4,0.8-0.9,1.2-1.4c0.7-0.7,1.6-1.3,1.5-1.8c0.1-0.4,0.1-0.9,0.1-1.3c0.2-0.2,0.4-0.4,0.7-0.7
	c1.5-0.6,2.8-1.1,3.8-2.7C271.2,71.7,270.5,72.2,269.6,71.8z M196.4,92.1c0.1,0.2,0.2,0.4,0.4,0.6C196.7,92.6,196.6,92.4,196.4,92.1
	z"/>
<path class="st6" d="M247.7,49c-0.1-0.2-0.2-0.4-0.2-0.6c-0.1-1.1-0.2-2.2-0.3-3.3c0-0.4,0-0.9-0.1-1.3c-0.1-0.2-0.2-0.4-0.2-0.7
	c-0.3-0.4-0.4-0.8-0.5-1.3c-0.3-0.5-0.8-1.1-1.6-1.4c-0.1,0-0.3-0.2-0.4-0.3l-0.2-0.1c-0.1-0.1-0.2-0.1-0.3-0.2
	c-0.1-0.1-0.2-0.2-0.2-0.1c-0.1-0.2-0.2-0.5-0.2-0.7l0,0c-0.1-0.1-0.2-0.2-0.2-0.3c-0.3-0.7-0.4-1.5-0.6-2.3c0.1,0,0.2,0,0.3,0
	c-0.3-0.3-0.6-0.5-0.7-0.8c-0.5-0.9-1-1.9-1.4-2.8c-0.4-0.9-0.9-1.8-1.3-2.7l0-0.1c-0.4-0.7-0.8-1.5-1.2-2.2c-0.6-1-0.9-2.2-1.8-3.1
	c-0.9-0.9-1.3-2.1-1.9-3.2c0.1-0.2,0.3-0.5,0.4-0.6c0.5,0.7,1.1,1.5,1.6,2.3c0,0,0,0.1,0.1,0.2c0.2,1.7,1.6,2.3,2.9,3.3
	c0.6-1.7,1.5-3.3,1.5-4.9c0-0.6-0.2-1.2-0.4-1.9c0-0.1,0-0.1-0.1-0.2c-0.2-0.4-0.4-0.8-0.5-1.2l0,0c-0.1-0.3-0.3-0.6-0.4-0.9
	l-0.9,0.1c-0.3,0-0.6,0.1-0.8,0.1c-0.4,0.1-0.7,0.1-0.9,0.1c-0.6-0.1-1.1,0-1.5,0.1c-0.6,0.1-0.7,0.1-0.7,0l-0.7-0.5
	c-0.1,0-0.2,0-0.3,0l-0.1,0.1l0-0.1c-0.1,0-0.1-0.1-0.2-0.1l-1-0.2c-0.3-0.1-0.6-0.1-1-0.2c-0.3-0.1-1-0.2-1.5,0.2
	c-0.1,0-0.2,0-0.2,0c-0.2,0-0.4,0-0.6,0c0,0.1-0.1,0.1-0.1,0.2c-0.2,0.3-0.9,0.4-1.4,0.5c-0.1,0.1-0.1,0.1-0.2,0.2
	c-0.1,0-0.2,0-0.3,0.1l-0.5,0.1l-0.2,0.1c-0.6,0.4-1.2,0.8-1.8,1.1c-1.9,1.1-3.8,2.3-5.4,4.4c-0.7,0.7-1.5,0.9-2.3,1.2
	c-1.1,0.3-2.4,0.7-3.3,2.2c-1.8,1.1-3.6,2.3-5.3,3.4c-0.9,0.6-1.8,1.1-2.7,1.6c-0.7,0.4-1.3,0.8-2,1.2c-0.9,0.6-1.3,0.7-1.8,0.8
	c-0.7,0.1-1.5,0.3-2.7,1.1l-0.3,0.2l-0.1,0.4c0,0.1-0.1,0.1-0.2,0.2c-0.3,0.3-0.8,1-0.8,1.9c-0.1,0-0.1,0.1-0.2,0.1
	c-0.8,0.3-1.9,0.8-2.3,2.3c-3.3,2.5-6.4,4.9-9.4,7.2c-2.3,0.1-3.7,1.7-5,3.1c-0.5,0.6-1.1,1.2-1.6,1.7l-1.8,1.4
	c-1.3,1-2.6,2.1-3.8,3.1l-3,1.9c-3.5,2.2-4.5,4-5.9,7l-1.5,1.5l-4.6,4c-1.2,1.3-2.5,2.6-3.8,3.8l-0.2,0.3c-0.2,0.4-0.6,0.8-1,1.3
	c-0.8,0.9-1.7,1.9-1.9,3.1c-0.8,1-1.6,1.9-2.3,2.8c-0.9,0.9-1.7,1.7-2.5,2.6c0.1-0.1,0.3-0.1,0.4-0.2c0.7-0.3,1.4-0.4,2-0.7
	c1-0.5,2-1.2,3.2-1c0.2,0,0.5-0.1,0.6-0.2c0.4-1,1.4-1,2.2-1.1c1.5-0.2,3.1-0.3,4.6-0.4c1.8-0.2,3.2,0.4,4,2.1
	c0.3,0.6,0.5,1.1,0.8,1.7c0.5,1.3,1.2,1.8,2.6,1.6c1.5-0.2,3.1-0.4,4.6-0.6c0.2,0,0.4-0.3,0.5-0.3c0.4,0.2,0.8,0.3,1.3,0.5
	c0.3,1.1,0.7,1.5,1.8,1.4c0,0.3,0,0.6,0.2,0.8c1.1,0.9,0.5,2,0.5,3c-0.1,1-0.2,2-0.9,2.8c-0.2,0.2-0.4,0.5,0.1,0.8
	c0.2,0.1,0.2,0.5,0.2,0.8l0.3,0.2c1-1,1.9-1.8,2.7-2.5l0.7-0.6l-0.4-0.9c-0.1-0.2-0.2-0.4-0.3-0.6c0,0,0,0,0,0l3-3.8
	c1.9-0.3,3.9-2.6,4.7-4.1c1.1-0.9,1.8-1.2,2.1-1.2l0.7,0.8l0.9-0.8c1.2-1,2.2-2.3,3.1-3.6c0.5-0.7,1-1.4,1.6-2
	c0.2,0.5,0.5,0.7,0.6,0.9c1.3,0.9,3.3-0.3,4.7-1.8l0.3-0.4l0-0.6c0-0.4,0-0.8,0-1.2c1.2-1,1.7-0.9,2.3-0.8c0.5,0.1,1.2,0.2,2-0.1
	c2.5-0.9,3.9-2.8,5.1-4.3c0.3-0.4,0.7-0.9,1-1.2c0.7,0.1,1.3,0,1.9-0.2c0.3-0.1,0.6-0.1,1-0.2c1.5,0,3.2-1.1,5.3-2.4
	c1.4-0.9,2.9-1.8,4-2.2l0.5-0.2l0.2-0.5c0.8-1.6,1.5-1.8,2.7-2.1c1.3-0.3,2.9-0.8,4.7-2.8c0.1-0.1,0.2-0.1,0.3-0.2
	c-0.3,0.5-0.7,1-1.7,1.5l-1.7,1l1,0.7c-0.2,0.1-0.3,0.2-0.5,0.3c-0.8,0.6-1.6,1.2-2,2.1c-0.2,0.5-0.4,1.1-0.6,1.7
	c-0.6,0.7-1.1,1.3-1.7,2l-0.2,0.2l-0.1,0.3c-0.1,0.3-0.5,1-0.8,1.5c-0.8,1.3-1.7,2.6-1.1,3.8c0.4,0.7,1.1,1.1,2.2,1.2l0.4,0l0.4-0.3
	c0.8-0.5,1.6-1.1,2.4-1.6l1.2-0.8l0.1-0.5c0.1-0.3,0.1-0.6,0.2-0.9c0.1-0.5,0.2-0.9,0.3-1.4l0-0.2l0-0.2c0-0.4,0-0.9,0-1.4
	c0.6-0.2,1.3-0.5,2.3-0.8l1.6-1l-0.7-1.2c0.9-0.8,1.9-1.6,2.8-2.4c2.9-2.4,5.6-4.6,6.7-7.1C244.1,52.3,246.6,50.8,247.7,49z"/>
<path class="st7" d="M198.9,19.2c-1.9-1.3-3.9-1.9-6.1-2c-1.4,0-2.1-0.8-2.3-2.2c-0.1-0.6-0.4-0.9-1-0.9c-0.5,0-1-0.1-1.4-0.3
	c-1.4-0.7-2.8-1.1-4.4-0.7c-0.5,0.1-1-0.1-1.5-0.3c-0.5-0.2-1-0.5-1.6-0.6c-1.1,0-1.2-0.8-1.5-1.5c-0.2-0.5-0.4-0.6-0.7-0.3
	c-0.7,0.6-1.1,0.5-1.6-0.2c-0.5-0.7,0.1-1,0.6-1.2c0.3-0.2,0.6-0.3,0.9-0.6c0,0,0,0,0,0c0,0,0,0,0,0l-2.2-3c0,0-2.7,4.9-2.7,4.9
	l-1.8,1.3l-0.2,0.2c-1,1-1.9,2-2.8,3c-0.8,0.8-1.6,1.6-2.4,2.5l-1.6,1.8c-0.3,0.3-0.5,0.6-0.8,0.9c-0.6,0.6-1.2,1.3-1.8,2l-4.3,5
	l-1.5,1.6c-1.4,1-2.1,2.7-2.7,4.2l-2.6,3.5l0.5,1.4c0,0.1-0.1,0.2-0.1,0.3l-0.9,1.8l1.2,1.6c0.1,0.1,0.2,0.2,0.2,0.4
	c0.2,0.5,0.5,0.9,0.8,1.3l1.4,2.1c-0.3,0.5-0.6,1.1-0.7,1.8l-0.3,0.4l-2.5,3.8l-0.8,1.3c-2.8,0.2-3.8,2.9-4.5,4.7
	c-0.1,0.4-0.3,0.7-0.4,1.1l-0.5,1.3c-1.6,0.9-2.3,2.5-2.8,3.6c-0.2,0.5-0.5,1.1-0.7,1.5l-1.3,2c-0.4,0.4-0.7,0.9-1.1,1.3
	c-0.3,0.4-0.6,0.8-0.9,1.1l-0.2,0.2l-0.2,0.3c-0.3,0.5-0.6,0.9-0.9,1.4c-0.8,0.6-1.3,1.3-1.7,1.8c0,0.1-0.1,0.1-0.1,0.2l-0.5,0.3
	l-0.4,0.7c-0.7,1.3-1.3,2.5-1.9,3.7l-1.2,1.3l-0.2,0.8l-0.1,0.2c0,0-0.1,0.3-0.8,1l-0.2,0.3l-0.2,0.3c-0.2,0.4-0.4,0.7-0.5,1.1
	l-0.4,0.2l-0.8,2.6l0,0c0.5,0.3,1.1,0.7,1.7,0.9c1.2,0.5,2.2,0.8,3.5,0c1.2-0.7,2.7-1,4.1-1.3c0.7-0.2,1.4-0.2,2-0.2
	c2.1-0.2,4.1,0.2,6,0.9c0.5-0.7,1-1.4,1.4-2.1h-0.8l3.5-3.6l1.2-2.2c1-0.7,2.5-1.7,2.7-2.9l0-0.3l0-0.2c1.8-1.3,2.3-3.6,2.5-4.5
	l0.2-0.7l0,0c0.3-0.4,0.8-0.9,1.1-1.7c0,0,0,0,0.1,0c1.5-0.6,2.3-1.9,2.7-2.6c0-0.1,0.1-0.2,0.1-0.2l4-5.3l-0.7,0
	c0.6-0.7,1.7-1.9,1.7-3.7c0-0.1,0-0.1,0-0.2c0,0,0-0.1,0.1-0.1c0.1-0.1,0.2-0.2,0.3-0.4c0.1-0.2,0.3-0.4,0.4-0.5l0.8-0.1l0.9-1
	c1-1.1,1.5-2.1,1.5-3.2c0.8-0.8,1.2-1.7,1.3-2.4l0.1-0.3l0-0.3c0-0.1,0-0.2,0-0.2c0.2,0,0.4,0.1,0.7,0.1c2.4,0,3.6-2,4.3-3.1
	c0.1-0.1,0.2-0.3,0.3-0.4l0.5-0.3l0.5-0.9c0.3-0.5,0.9-1.1,1.6-1.7c1.3-1.2,3-2.7,3.7-5.3l0.7-0.4l0.2-0.2c0.9-0.7,1.5-1.5,1.9-2.1
	l0.9-1.2c1.1-0.6,2-1.7,2.5-2.7l0.2-0.4c0,0,0.5,0,0.5,0l0.1,0c2.3-0.2,3.7-2,4.5-3.2l0.3,0.1l1.5-1.1c1-0.8,1.5-1.6,1.8-2.3
	c0.2-0.1,0.4-0.3,0.5-0.5l2.4-2.2C199.2,19.3,199,19.3,198.9,19.2z"/>
<path class="st2" d="M160.9,4.1c-0.4,0-0.8,0.1-1.2,0.2c-1,0.2-2.1-0.1-3,0.6c-0.1,0-0.2,0-0.3,0c-2.2,0.2-4.6,0-6.2,1.9
	C150.2,6.9,150,7,149.9,7c-0.7-0.5-1.3,0.3-2,0.2c-0.3,0-0.7,0.3-0.8,0.5c-0.9,1.3-3.7,1.5-4.4,0.7c-1.8-0.2-3.4,0.6-5-0.1
	c-0.6-0.3-1.1-1-1.6-1.5c-1.3-0.2-1.5,0.9-1.8,1.8c-0.8,2.2-2.1,3.8-4.5,4.3c-0.7,0.1-1.2,0.5-1.7,0.9c-0.1,0.6-0.2,1-0.2,1.3
	c-0.3,0.4-0.5,0.8-0.8,1.2c-0.1,0.3-0.5,1.4-0.6,1.7c-0.3,0.5-0.7,0.9-1,1.3c0.2,0.5,0.1,0.9-0.2,1.3c0,0-0.1,0.1-0.1,0.1
	c0.4,0.5,0.2,1-0.1,1.5c-0.4,0.6-0.9,1.3-1.5,1.8c-0.7,0.6-1.5,1-2.1,1.6c-1,1-2.2,1.5-3.5,1.6c-0.2,0-0.3,0-0.5,0.1
	c-0.4,0.5-0.9,1.1-1.3,1.7c-0.2,0.3-0.5,0.6-0.7,0.9c-0.1,0.4-0.4,0.7-0.7,1c-0.9,1.2-1.7,2.3-2.6,3.4c-0.1,0.1-0.1,0.2-0.2,0.3
	c0,0.2-0.1,0.4-0.1,0.5c-0.1,0.4-0.4,0.8-0.7,1.2c-0.5,0.7-1.2,1.3-1.7,1.9c-1.1,1.2-1,3.2-2.6,4.2c-0.2,0.1-0.3,0.5-0.4,0.7
	c-0.1,0.4-0.1,0.8-0.2,1.2c0,0,0,0,0.1,0c0.1-0.2,0.2-0.4,0.2-0.5c0.5,0.4,0.9,0.8,1.4,1.2c0.5,0.5,0.7,1.8,0.3,2.1c0,0,0,0-0.1,0.1
	c0.2,0.6,0.2,1.2-0.1,1.4c0,0-0.1,0.1-0.1,0.1c0.9,1.3,1,2.6,0.7,4c0,0.9-0.2,1.8-0.5,2.8c-0.3,0.7-0.7,1.4-0.7,2.2
	c0,1.3-0.5,2.3-1.4,3.1c0.4,0.5,0.7,1.3,1.2,2.6c-0.2,0.3-0.3,0.6-0.3,0.8c0.1,0.2,0.1,0.4,0.2,0.6c-0.1,0.2-0.2,0.5-0.3,0.7
	c0,0.7,0.2,1.3,1.1,1.6c0,0,0,0.1,0,0.2c0.1,0.7,0.7,0.7,1.2,0.7c0.3,0,0.5-0.1,0.8-0.1c0.1,0.4,0.1,0.9,0.3,1.2
	c0.3,0.5,0.7,1,1.2,1.4c0.2,0.1,0.6-0.1,0.8,0.3c0.5,0.7,1,1.3,1.6,1.8c1.1,0.8,2.1,1.9,2.1,3.1c0,1.4,1.1,2,1.3,3.1
	c0,0-0.1,0.1-0.3,0.2c0.8,0.3,1.6,0.6,2.2,0.9c0.6,0.3,1.1,0.8,1.7,1.2c0.7,0.5,1.5,1,2.3,1.5c0.4,0.3,0.8,0.5,1.1,0.8
	c0.6,0.6,1.2,1.1,1.9,1.7c0.2-0.5-0.7-1.5-0.5-2.8c0.4-1.9,2-4.5,2-7.6c0.9-1.2,1.5-4.2,1.8-6.4c0.5-3.4-1.3-7,0.1-10.5
	c0.8-2,2.9-3.9,3.8-5.8c0.5-0.9-0.3-1.8,0.2-2.7c0.5-0.9,2.3-1.7,2.9-2.6c0.8-1.2,5.2-6.6,6.7-5.7c1.2,0.7,5.4-7.9,4.7-9
	c0.4-2.4,0.1-5.2,1.8-7.3c0.8-1,0.8-2.5,1.3-3.7c0.5-1.3,1.1-2.5,1.7-3.8c1.1-1.7,2.7-2.9,4-4.7c0.3-0.6,0.7-1.1,1-1.7
	c0.3-0.5,0.6-1.1,0.9-1.6c0.6-1.1,1-2.1,1.5-3.1C160.4,5.3,160.6,4.7,160.9,4.1z"/>
<path class="st3" d="M45.9,155c0.1-0.1,0.1-0.3,0.1-0.7c0-0.4,0-0.6-0.1-0.7c0,0,0-0.1-0.1-0.3c-0.1-0.1-0.1-0.2-0.2-0.3
	c-0.4-0.7-0.6-1.3-0.7-1.8c-0.1-0.5-0.1-1.1-0.1-1.8c-0.1,0-0.2,0-0.4,0.1c-0.2,0-0.3,0-0.3-0.2v-0.8c0,0,0-0.2-0.1-0.4
	c-0.1-0.2-0.1-0.3-0.2-0.4c0,0,0-0.2,0-0.4c0-0.2-0.1-0.4-0.1-0.6c0-0.2-0.1-0.4-0.1-0.6c0-0.2,0-0.3,0-0.4
	c-0.1-0.3-0.3-0.5-0.5-0.7c-0.2-0.2-0.4-0.4-0.5-0.7c-0.1-0.4-0.2-0.9-0.4-1.4c-0.2-0.5-0.3-1-0.5-1.6c-0.2-0.5-0.3-1-0.5-1.5
	c-0.2-0.5-0.4-0.9-0.6-1.3c0-0.1-0.1-0.2-0.3-0.2h-0.2h-0.2c-1.5,0.3-3.2,0.4-5.1,0.3c-1.9-0.1-3.6,0-5.2,0.2c-0.1,0-0.4,0-0.8,0.1
	c-0.4,0.1-0.8,0.1-1.3,0.2c-0.5,0.1-0.9,0.1-1.3,0.2c-0.4,0.1-0.7,0.1-0.8,0.1c-0.2,0-0.5,0.1-0.9,0.1c-0.5,0-1,0.1-1.6,0.1
	c-0.6,0-1.1,0-1.6,0.1c-0.5,0-0.8,0.1-0.9,0.1c-0.4,0.1-0.8,0.2-1.3,0.3c-0.5,0.2-0.8,0.4-1,0.6c-0.2,0.3-0.4,0.7-0.7,1.3
	c-0.3,0.6-0.5,1.2-0.8,1.8c-0.3,0.6-0.5,1.2-0.7,1.8c-0.2,0.6-0.4,1-0.4,1.3c-0.2,0.8-0.5,1.7-0.8,2.6c-0.4,0.9-0.6,1.8-0.7,2.6v0.8
	c-0.1,0.1-0.1,0.2-0.2,0.4c-0.1,0.2-0.1,0.3-0.1,0.4v0.6c-0.6,0.7-1.3,1.1-2.1,1.3S10.1,156,9,156c-0.4,0-0.9-0.1-1.5-0.3
	c-0.6-0.2-1.2-0.4-1.7-0.7c-0.6-0.3-1.1-0.6-1.5-0.9c-0.5-0.3-0.8-0.6-1-0.8v-0.2l-0.5-1.9V151v-0.2c0.2-0.7,0.4-1.5,0.7-2.4
	c0.3-0.9,0.6-1.9,0.9-2.8c0.3-1,0.6-1.9,0.9-2.8c0.3-0.9,0.5-1.7,0.6-2.4c0-0.1,0-0.3,0.1-0.6c0.1-0.2,0.1-0.4,0.1-0.4
	c0-0.1,0.2-0.1,0.3-0.2c0.2,0,0.3-0.1,0.3-0.1c-0.2,0-0.2-0.1-0.3-0.2c0-0.1,0-0.2,0-0.3c0-0.3,0.1-0.5,0.2-0.5c0.2,0,0.3,0,0.4-0.1
	c0.4-0.4,0.5-0.8,0.4-1.2c-0.1-0.4,0-0.8,0.2-1.2c0,0,0.1-0.1,0.3-0.3c0.2-0.2,0.3-0.2,0.3-0.3c0-0.1,0.1-0.2,0.2-0.5
	c0.1-0.3,0.1-0.4,0.1-0.5c-0.2,0-0.3-0.1-0.3-0.2c0-0.2,0.2-0.4,0.5-0.6c0.4-0.2,0.6-0.4,0.7-0.6c0.5-1,0.8-2,1.1-2.9
	c0.3-1,0.7-1.9,1.2-2.9c0.1-0.1,0.2-0.2,0.5-0.5c0.3-0.3,0.4-0.4,0.5-0.5c0-0.1,0-0.3,0-0.6c-0.1-0.3-0.1-0.5,0-0.6
	c0.1-0.5,0.3-0.9,0.7-1.4c0.4-0.4,0.7-0.9,1-1.3c0.4-0.6,0.6-1.2,0.7-1.6c0-0.5,0.3-1,0.8-1.6c0,0,0.1-0.1,0.3-0.2
	c0.2-0.1,0.3-0.2,0.3-0.2c0.6-0.7,1.1-1.4,1.6-2.2c0.4-0.8,0.9-1.5,1.3-2.2c0.3-0.4,0.6-0.8,1.1-1.1c0.5-0.3,0.7-0.7,0.7-1.2
	c0,0-0.1-0.1-0.2-0.2c-0.1-0.1-0.2-0.2-0.2-0.2c0-0.3,0.2-0.7,0.6-1.2c0.4-0.5,0.9-0.9,1.5-1.4c0.6-0.5,1.2-0.9,1.8-1.3
	c0.6-0.4,1.2-0.7,1.6-0.9c0.4-0.2,0.8-0.3,1.3-0.4c0.5-0.1,0.9-0.1,1.3-0.2c0.3-0.1,0.7-0.1,1.4-0.2c0.7-0.1,1.1-0.1,1.3-0.2h0.5
	c0.6,0,1.1,0.1,1.6,0.2c0.4,0.1,0.9,0.3,1.5,0.4c0.4,0.1,0.8,0.2,1.3,0.2c0.5,0.1,0.9,0.2,1.3,0.3c0.6,0.3,1.1,0.5,1.5,0.8
	c0.4,0.3,0.8,0.6,1.2,1c0.5,0.4,1,0.9,1.5,1.3c0.5,0.4,1,0.9,1.4,1.4c0.4,0.5,0.8,1.1,1.1,1.7c0.4,0.7,0.7,1.3,0.9,1.7
	c0.1,0.1,0.1,0.3,0.3,0.7c0.1,0.4,0.3,0.8,0.5,1.2c0.2,0.4,0.3,0.8,0.5,1.1c0.1,0.4,0.2,0.6,0.3,0.7c0,0.1,0.2,0.3,0.3,0.6
	c0.2,0.3,0.3,0.5,0.3,0.6c0.1,0.3,0.2,0.6,0.4,1.1c0.2,0.5,0.3,0.9,0.5,1.4c0.2,0.5,0.3,0.9,0.4,1.3c0.1,0.4,0.2,0.6,0.2,0.7
	c0,0.1,0.1,0.4,0.2,0.9c0.1,0.5,0.3,1,0.4,1.5c0.2,0.5,0.3,1,0.4,1.5c0.1,0.5,0.2,0.7,0.2,0.8c0,0.1,0,0.3,0.1,0.6
	c0.1,0.3,0.1,0.5,0.2,0.6c0,0.1,0,0.3,0.1,0.5c0.1,0.2,0.2,0.4,0.3,0.7c0.1,0.2,0.2,0.4,0.3,0.6c0.1,0.2,0.1,0.3,0.1,0.3v0.8
	c0,0.1,0.1,0.3,0.3,0.6c0.1,0.3,0.3,0.6,0.4,1c0.2,0.3,0.3,0.7,0.4,1c0.1,0.3,0.2,0.5,0.3,0.6v0.2c0,0.1-0.1,0.2-0.2,0.3
	c-0.1,0-0.2,0.1-0.2,0.2c0,0.2,0.1,0.4,0.4,0.5c0.3,0.1,0.6,0.2,0.9,0.2l-0.4,1.1c0.2,0.2,0.4,0.5,0.5,0.9c0.1,0.4,0.2,0.8,0.3,1.2
	c0.1,0.4,0.1,0.8,0.2,1.2c0.1,0.4,0.1,0.7,0.2,1c0,0.5,0.2,0.9,0.5,1.3c0.3,0.4,0.5,0.8,0.6,1.3c0.3,0.9,0.5,1.9,0.7,2.7
	c0.2,0.9,0.5,1.8,0.7,2.7c0,0.1,0,0.2,0.2,0.5c0.1,0.3,0.2,0.5,0.3,0.8c0.1,0.3,0.2,0.5,0.3,0.8c0.1,0.3,0.2,0.4,0.2,0.5v0.6
	c0,0.1-0.1,0.2-0.2,0.3c-0.1,0.1-0.3,0.3-0.4,0.4c-0.2,0.2-0.4,0.4-0.5,0.6l-0.2,0.1l-0.2,0.1c0,0-0.1,0.1-0.4,0.1
	c-0.3,0-0.5,0.1-0.8,0.1c-0.3,0-0.6,0-0.8,0.1c-0.3,0-0.4,0.1-0.4,0.1l-0.3,0.2c-0.1,0-0.4,0-0.9,0.1c-0.5,0.1-0.8,0.1-0.9,0.1
	c-0.1,0-0.1,0.1-0.3,0.2c-0.1,0.1-0.2,0.2-0.3,0.2h-0.5c-0.3,0-0.5,0-0.6-0.1c-0.2-0.1-0.3-0.1-0.5-0.1h-0.2c-0.1,0-0.2,0.1-0.5,0.1
	c-0.3,0.1-0.4,0.1-0.5,0.1c-0.1,0-0.1-0.1-0.1-0.2c0.1-0.1,0-0.2-0.1-0.3c-0.1,0-0.3-0.1-0.5-0.3c-0.2-0.2-0.4-0.3-0.5-0.3H47h-0.2
	c-0.1,0-0.3-0.1-0.5-0.1C46.1,155,46,155,45.9,155z M31.7,114.8c-0.5,0.4-1,1-1.5,1.6c-0.5,0.7-0.9,1.4-1.4,2.2
	c-0.5,0.8-0.9,1.5-1.3,2.2c-0.4,0.7-0.7,1.3-1,1.8c-0.7,1.2-1.4,2.3-2.2,3.5c-0.7,1.1-1.4,2.3-1.9,3.5c-0.2,0.4-0.4,0.8-0.6,1.2
	c-0.2,0.4-0.3,0.8-0.3,1.2c0.1,0,0.3,0,0.6,0s0.5,0,0.6-0.1c0.2,0,0.7,0,1.5-0.1c0.8-0.1,1.6-0.1,2.5-0.2c0.9-0.1,1.8-0.1,2.6-0.2
	c0.8-0.1,1.3-0.1,1.5-0.1c0.2,0,0.6,0,1.3-0.1c0.7-0.1,1.4-0.2,2.2-0.3c0.8-0.1,1.5-0.2,2.1-0.2c0.7-0.1,1.1-0.1,1.4-0.1
	c0.3-0.2,0.6-0.3,1-0.3c-0.3-0.1-0.4-0.3-0.5-0.4c-0.1-0.2-0.1-0.3-0.2-0.5c0-0.2-0.1-0.3-0.1-0.5c-0.1-0.2-0.2-0.4-0.4-0.6
	c-0.1,0-0.1,0-0.1,0c0,0.1-0.1,0.1-0.1,0.1c0,0,0-0.1,0-0.2c0-0.1,0-0.2,0-0.2l0.2-0.1l0.2-0.1v-0.2v-0.2c-0.1,0-0.1-0.1-0.2-0.2
	c-0.1-0.1-0.1-0.2-0.1-0.2c-0.1-0.1-0.1-0.3-0.2-0.6c-0.1-0.3-0.2-0.5-0.2-0.6v0.8c-0.1-0.1-0.1-0.2-0.2-0.4
	c-0.1-0.2-0.2-0.3-0.2-0.4v-0.1v-0.1l0.3-0.2l0.1-0.1c0,0,0-0.1-0.1-0.1c0-0.1-0.1-0.2-0.3-0.4c-0.2-0.2-0.3-0.3-0.3-0.4
	c-0.1-0.1-0.1-0.2,0-0.5c0-0.3,0-0.4,0-0.5c-0.1,0-0.1-0.1-0.2-0.2l-0.2-0.2l-0.3-0.2v-1.2c-0.2-0.4-0.4-0.8-0.5-1
	c-0.2-0.3-0.3-0.5-0.5-0.8c-0.2-0.3-0.3-0.4-0.3-0.5c-0.1-0.2-0.2-0.4-0.3-0.8c-0.1-0.4-0.2-0.7-0.2-1.1c-0.1-0.4-0.2-0.7-0.2-1.1
	c-0.1-0.3-0.1-0.5-0.2-0.6c-0.1-0.2-0.3-0.4-0.5-0.7c-0.2-0.3-0.5-0.5-0.9-0.5c-0.1,0-0.1,0-0.2,0C31.8,114.8,31.7,114.8,31.7,114.8
	z"/>
<path class="st3" d="M58.3,143c0-0.2,0-0.5,0-0.9c0-0.4,0.1-0.8,0.1-1.3c0-0.5,0-0.9,0-1.3c0-0.4,0-0.7,0-0.8c0,0,0-0.1,0-0.3
	c0-0.1,0-0.3,0-0.4c0-0.2-0.1-0.3-0.1-0.4c-0.1-0.1-0.1-0.2-0.1-0.3c0-0.2,0.1-0.4,0.1-0.5c0-0.1-0.1-0.3-0.3-0.4
	c0.1-0.9,0.1-1.8,0-2.7c-0.1-0.8-0.1-1.7,0-2.6c0-0.2,0.1-0.4,0.2-0.5c0.1-0.2,0.2-0.3,0.2-0.5l0.1-0.1l-0.2-0.1
	c-0.1,0-0.1-0.1-0.1-0.1v-0.1c0-0.1,0-0.3,0.1-0.4c0.1-0.1,0.1-0.3,0.1-0.4c0-0.1,0-0.2,0.1-0.3c-0.1-1.7-0.2-3.4-0.2-5.2
	c0-1.7,0-3.5,0.1-5.2c0-0.2,0-0.4,0-0.7c0-0.3,0.1-0.6,0.1-0.8c0-0.3,0.1-0.6,0.1-1c0-0.1,0-0.3,0.2-0.6c0.1-0.3,0.2-0.5,0.2-0.6
	c0.1-0.6,0.1-1.3,0.1-2.1c-0.1-0.8,0.1-1.5,0.4-2.2c-0.3,0-0.5-0.1-0.6-0.3c-0.1-0.2-0.2-0.3-0.2-0.5c0-0.1,0.1-0.3,0.3-0.4
	c0.2-0.2,0.4-0.3,0.6-0.4c0.2-0.1,0.4-0.3,0.5-0.4c0.2-0.1,0.2-0.2,0.2-0.3c0,0-0.1-0.1-0.3-0.2c-0.2-0.1-0.3-0.1-0.3-0.2v-0.1v-0.1
	c0.1-0.1,0.2-0.3,0.4-0.5c0.2-0.3,0.3-0.4,0.3-0.4c0.2-0.2,0.4-0.3,0.7-0.4c0.3-0.1,0.6-0.2,0.9-0.2c0.3-0.1,0.7-0.1,1-0.1
	c0.3,0,0.6-0.1,0.9-0.3l3.3,0.2c0.2,0,0.4,0.1,0.5,0.2c1.6,0.8,2.7,1.6,3.1,2.5c0.5,0.9,0.7,2,0.6,3.4v0.9c0,0,0,0.1-0.1,0.3
	c-0.1,0.2-0.2,0.3-0.2,0.5c-0.1,0.2-0.2,0.3-0.2,0.5c-0.1,0.2-0.1,0.2-0.1,0.3c0,0,0,0.1,0,0.3c0,0.2,0,0.3,0,0.3c0,0.1,0,0.2,0,0.5
	c0,0.3-0.1,0.5-0.1,0.8c-0.1,0.3-0.1,0.5-0.1,0.8c0,0.3,0,0.4,0,0.5c-0.1,0.5-0.1,0.9-0.1,1.2c0,0.3-0.1,0.6-0.1,0.9
	c0,0.3,0,0.5,0,0.7c0,0.2,0,0.5,0,0.8c0,0.3,0,0.7,0,1c0,0.3,0,0.6,0,0.9c0,0.3,0,0.4,0,0.5c0,0.2,0,0.8,0,1.6
	c0,0.8-0.1,1.8-0.1,2.8c0,1-0.1,1.9-0.1,2.8c0,0.8,0,1.4,0,1.6c0,0,0,0.1,0,0.3c0,0.1,0,0.3,0,0.4c0,0.2,0,0.3,0,0.4
	c0,0.1,0,0.2,0,0.3c0.1,0.2,0.1,0.8,0.1,1.8c0,0.9,0,2,0,3c0,1.1,0,2.1,0,3c0,0.9,0,1.5,0,1.8c0,0.1,0,0.3-0.1,0.6
	c-0.1,0.3-0.1,0.5,0,0.6c0,0,0,0.3,0.1,0.7c0.1,0.5,0.2,1,0.2,1.5c0.1,0.6,0.2,1.1,0.2,1.6c0.1,0.5,0.1,0.8,0.2,1
	c0.1,0.1,0.1,0.3,0,0.6c0,0.3-0.1,0.5-0.1,0.8c0,0.3-0.1,0.6-0.1,0.8c-0.1,0.3-0.1,0.5-0.1,0.6c-0.1,0.6-0.1,1.1-0.2,1.4
	c-0.1,0.3-0.4,0.8-0.9,1.3c0,0.1-0.1,0.2-0.3,0.2c-0.1,0-0.2,0-0.4,0.1c-0.2,0.1-0.5,0.1-0.7,0.2c-0.3,0.1-0.5,0.1-0.7,0.2
	c-0.2,0.1-0.4,0.1-0.4,0.1c-0.5,0.1-0.9,0.3-1.3,0.4c-0.4,0.1-0.9,0.2-1.5,0.2H63c-0.1,0-0.2-0.1-0.4-0.3c-0.2-0.2-0.3-0.3-0.4-0.3
	c-0.1-0.1-0.3-0.1-0.6-0.2c-0.3-0.1-0.5-0.1-0.5-0.2c-0.1,0-0.1-0.1-0.2-0.3c-0.1-0.2-0.1-0.4-0.2-0.6c-0.1-0.2-0.1-0.5-0.2-0.9
	c-0.1,0-0.2,0-0.3,0c-0.2,0-0.3,0-0.3,0c-0.4-0.1-0.6-0.2-0.7-0.5c-0.1-0.3-0.2-0.5-0.3-0.8c-0.2-0.5-0.3-1.2-0.4-1.9
	c-0.1-0.7-0.1-1.5-0.1-2.2s0-1.5,0-2.2c0-0.7,0-1.4,0-1.9L58.3,143z"/>
<path class="st3" d="M86.4,155.6c-0.1,0-0.2-0.1-0.4-0.2c-0.2-0.1-0.5-0.2-0.8-0.3c-0.3-0.1-0.6-0.2-0.8-0.3
	c-0.3-0.1-0.4-0.1-0.5-0.2c-0.1,0-0.3-0.1-0.5-0.3c-0.2-0.2-0.4-0.3-0.4-0.3c-0.1-0.1-0.2-0.1-0.6-0.2c-0.3-0.1-0.5-0.1-0.6-0.2
	c-0.1,0-0.1-0.1,0-0.2c0-0.1,0-0.2,0-0.2l-0.3-0.2c-0.1,0-0.2,0-0.3-0.1c-0.2-0.1-0.3-0.1-0.3-0.1c-0.1-0.1-0.2-0.2-0.3-0.5
	c-0.2-0.3-0.2-0.4-0.2-0.5c-0.1-0.1-0.2-0.2-0.3-0.4c-0.1-0.2-0.2-0.3-0.3-0.4c-0.1,0-0.2-0.1-0.3-0.2c-0.2-0.1-0.3-0.2-0.3-0.2
	c0-0.1,0-0.2,0-0.5c0-0.3,0-0.4,0-0.5c0-0.1-0.1-0.2-0.4-0.4c-0.3-0.2-0.4-0.3-0.5-0.4c-0.1-0.1-0.1-0.2,0-0.4c0-0.2,0-0.3,0-0.4
	c-0.1,0-0.2-0.1-0.3-0.1c-0.2,0-0.3-0.1-0.3-0.1c0,0,0-0.1,0-0.1c0,0,0-0.1,0-0.1h0.3c0-0.3-0.1-0.5-0.3-0.8
	c-0.2-0.3-0.3-0.5-0.3-0.8c0.3,0,0.6,0.1,1,0.3v-0.1v-0.1c-0.1,0-0.1-0.2-0.2-0.4c-0.1-0.2-0.1-0.3-0.1-0.4c0-0.1,0-0.3-0.1-0.6
	c-0.1-0.4-0.1-0.6-0.2-0.7v-0.1V144c0,0,0.1,0.1,0.2,0.1c0.1,0,0.1,0.1,0.1,0.1c0,0.1,0.2,0.3,0.6,0.7c0.3,0.4,0.5,0.6,0.6,0.7
	c0,0,0.2,0.1,0.3,0.3c0.2,0.1,0.3,0.3,0.5,0.4s0.3,0.3,0.5,0.4c0.2,0.1,0.2,0.2,0.2,0.3c0.1,0,0.1,0.1,0.2,0.2
	c0.1,0.1,0.1,0.1,0.1,0.2v-1.2c0,0,0.1,0.1,0.2,0.1c0.1,0,0.1,0.1,0.1,0.1c0.1,0.1,0.2,0.3,0.3,0.6c0.1,0.3,0.2,0.5,0.3,0.6
	c0.1,0,0.1,0.1,0.2,0.1h0.2c0.4,0,0.6-0.1,0.8-0.4c0.1,0.3,0.4,0.5,0.8,0.6v-0.8H84c0,0.2,0,0.3,0,0.4c0,0.1,0.1,0.2,0.4,0.3
	c0.2,0.1,0.5,0.2,0.8,0.3c0.4,0.2,0.6,0.2,0.6,0.3c0.1,0,0.3,0,0.5,0c0.2,0,0.4,0,0.4,0c0.1,0,0.3,0.2,0.6,0.4
	c0.3,0.2,0.5,0.3,0.6,0.4c0.1,0,0.2,0,0.5-0.1c0.3-0.1,0.5-0.1,0.7-0.1c0.1,0,0.4-0.1,0.8-0.2c0.5-0.1,0.8-0.2,0.9-0.2
	c0,0,0.1,0,0.2-0.1l0.3-0.1c0.1,0,0.3,0,0.7,0c0.4,0,0.6,0,0.7,0c0.1,0,0.2,0,0.3-0.1c0.1-0.1,0.2-0.1,0.3-0.1
	c0.1-0.1,0.3-0.2,0.6-0.4c0.3-0.2,0.5-0.3,0.5-0.4c1.2-0.6,2.3-1.1,3.4-1.5c1-0.4,2.1-1,3.1-1.8c0.1-0.1,0.2-0.3,0.4-0.7
	c0.2-0.4,0.4-0.8,0.6-1.2c0.2-0.4,0.5-0.8,0.7-1.1c0.2-0.3,0.4-0.5,0.6-0.5h0.2c0.1,0,0.1-0.2,0.2-0.5c0.1-0.3,0.1-0.5,0.2-0.5
	c0.2,0,0.2-0.1,0.3-0.3c0-0.2,0-0.3,0-0.3v-0.2c-0.4-0.2-0.8-0.4-1.2-0.6c-0.4-0.1-0.8-0.2-1.3-0.3c-0.5-0.1-0.9-0.1-1.4-0.2
	c-0.5-0.1-0.9-0.2-1.4-0.3c-2.7-0.1-5.3-0.3-7.7-0.6c-2.4-0.3-5-0.6-7.6-1c-0.2-0.2-0.4-0.3-0.8-0.4c-0.4-0.1-0.7-0.1-0.9-0.2
	c-0.7-0.2-1.3-0.5-2-0.7c-0.7-0.3-1.3-0.5-1.9-0.8c-0.6-0.3-1.2-0.6-1.7-0.9c-0.5-0.4-1-0.8-1.3-1.2c0,0,0-0.1-0.1-0.3
	s-0.1-0.3-0.2-0.3c-0.1-0.1-0.1-0.3-0.3-0.5c-0.1-0.2-0.2-0.4-0.3-0.5c-0.1-0.1-0.1-0.4-0.1-0.8c0.1-0.4,0.1-0.6,0-0.6h-0.3
	c-0.1-0.1-0.2-0.2-0.2-0.3c-0.1-0.1-0.2-0.2-0.2-0.3c0-0.1-0.1-0.2-0.1-0.3c-0.4-0.6-0.5-1.2-0.6-1.8c0-0.6,0-1.2,0-1.8
	c0-0.3,0-0.7,0.2-1.1c0.1-0.4,0.3-0.9,0.5-1.3c0.2-0.5,0.4-0.9,0.6-1.3c0.2-0.4,0.5-0.7,0.8-1c0,0,0.2-0.1,0.5-0.3
	c0.3-0.2,0.4-0.3,0.4-0.3c0.1,0,0.1-0.1,0-0.3c0-0.2,0-0.2,0-0.3c0.1-0.1,0.3-0.3,0.6-0.6c0.3-0.3,0.6-0.6,1-0.9
	c0.4-0.3,0.7-0.6,1-0.9c0.3-0.3,0.6-0.5,0.7-0.6c0.2-0.2,0.6-0.5,1.1-0.9c0.5-0.4,1-0.9,1.6-1.4c0.6-0.5,1.2-1,1.8-1.5
	c0.6-0.5,1.2-0.9,1.6-1.2c0,0,0-0.1,0.1-0.2C85,110,85,110,85,109.9c0.1-0.1,0.3-0.2,0.5-0.3c0.2-0.1,0.4-0.2,0.5-0.3l0.8,0.4
	c0.2,0,0.3,0,0.5-0.1c0.2-0.1,0.4-0.3,0.5-0.4c0.2-0.2,0.3-0.3,0.4-0.4c0.1-0.1,0.2-0.2,0.3-0.2l1-0.6c0-0.1,0.1-0.2,0.2-0.3
	c0.2-0.1,0.3-0.2,0.4-0.2l0.5-0.2c0.1,0,0.1,0,0.2-0.1c0-0.1,0.1-0.1,0.2-0.1c0.2,0,0.5-0.1,0.9-0.2c0.5-0.1,0.7-0.1,0.8-0.2
	c0.1,0,0.2,0,0.4,0c0.2,0,0.4,0,0.5,0c0,0,0.1-0.1,0.2-0.1l0.3-0.1c0,0,0.2,0,0.3,0.1c0.2,0.1,0.3,0.1,0.3,0.1H95h0.3v-0.1
	c0-0.1,0-0.1,0.1-0.2l0.2-0.2c0.1-0.1,0.3-0.1,0.6-0.2c0.3-0.1,0.5-0.1,0.6-0.2l0.5,0.2c0,0,0.2,0,0.3,0c0.2,0,0.3,0,0.4,0h0.3
	c0.1,0,0.1,0,0.2-0.1c0.1,0,0.1-0.1,0.2-0.2l0.2-0.2c0,0,0.2,0,0.5,0c0.3,0,0.5,0,0.6,0c0,0,0.1-0.1,0.3-0.2
	c0.1-0.1,0.2-0.2,0.3-0.2h0.7c0.4,0,0.8,0,1.1,0.1c0.4,0.1,0.7,0.1,1.1,0.1c0.2,0,0.3,0,0.4-0.1c0.1-0.1,0.2-0.1,0.3-0.1h0.2
	l0.2,0.1l0.2,0.1h1.1c0.2,0,0.5,0,1,0.1c0.5,0.1,0.7,0.1,0.8,0.1c0.4,0.1,0.8,0.2,1.1,0.5c0.4,0.3,0.7,0.5,0.9,0.7
	c0.1,0,0.3,0.1,0.6,0.2c0.3,0.1,0.5,0.1,0.6,0.2c0.6,0.3,0.9,0.8,1,1.5c0.1,0.6,0.2,1.2,0.2,1.7c0,0.1,0,0.3,0,0.6
	c0,0.2,0,0.4,0,0.4c-0.2,0.2-0.3,0.4-0.5,0.6c-0.2,0.2-0.3,0.3-0.5,0.5c-0.2,0.1-0.3,0.3-0.4,0.4l-0.2,0.1c-0.1,0-0.1,0.1-0.2,0.1
	c-0.1,0-0.2,0-0.4,0c-0.2,0-0.4,0-0.5,0c-0.1,0-0.4,0.1-0.9,0.2c-0.5,0.1-0.8,0.2-0.9,0.2c-0.1,0-0.2,0-0.4-0.1
	c-0.2-0.1-0.4-0.1-0.4-0.1c-0.1,0-0.2,0-0.4,0c-0.2,0-0.4,0-0.5,0c-0.5-0.1-0.8-0.2-1.2-0.3c-0.3-0.1-0.6-0.2-0.9-0.3
	c-0.3-0.1-0.6-0.2-1-0.3c-0.4-0.1-0.8-0.1-1.4-0.1c-0.8,0-1.5,0-2.1,0.1c-0.6,0.1-1.3,0.3-2,0.6c-0.1,0-0.2,0.1-0.5,0.3
	c-0.3,0.1-0.6,0.3-0.9,0.5c-0.4,0.2-0.7,0.4-1,0.6c-0.3,0.2-0.6,0.4-0.8,0.5c-0.1,0-0.2,0.1-0.3,0.2c-0.2,0.1-0.2,0.2-0.2,0.2
	c-0.6,0.4-1.2,0.9-1.8,1.4c-0.7,0.5-1.3,1.1-2,1.6c-0.7,0.6-1.3,1.1-2,1.6c-0.6,0.5-1.2,1.1-1.6,1.6c-0.1,0.1-0.1,0.2-0.3,0.4
	c-0.1,0.2-0.2,0.3-0.3,0.4c-0.3,0.4-0.5,0.7-0.7,1c-0.2,0.3-0.4,0.5-0.6,0.8c-0.2,0.3-0.3,0.6-0.4,0.9c-0.1,0.3-0.2,0.7-0.2,1.1v0.5
	c0,0.1,0,0.3,0.1,0.4c0,0,0.2,0.2,0.5,0.6c0.3,0.4,0.5,0.6,0.7,0.8c0,0.1,0.1,0.2,0.3,0.2c0.2,0.1,0.5,0.2,1.1,0.4
	c0.6,0.2,1,0.3,1.1,0.4c0.4,0.1,0.8,0.2,1.2,0.2c0.4,0.1,0.8,0.1,1.2,0.2c0.6,0.1,1.1,0.2,1.6,0.4c0.5,0.2,1,0.3,1.6,0.3
	c0.3,0,0.4,0,0.6-0.1c0.1-0.1,0.3-0.1,0.5-0.1c0.1,0,0.3,0.1,0.8,0.2c0.5,0.1,0.7,0.2,0.8,0.2c0.1,0,0.2,0,0.4,0c0.2,0,0.5,0,0.7,0
	c0.3,0,0.5,0,0.7,0c0.2,0,0.4,0,0.4,0c0.1,0,0.2,0,0.3,0.1c0.1,0.1,0.2,0.1,0.3,0.1c0.2,0,0.4,0,0.7,0c0.3,0,0.7,0,1,0
	c0.4,0,0.7,0,1,0c0.3,0,0.6,0,0.7,0c0.1,0,0.3,0.1,0.7,0.2c0.4,0.1,0.6,0.2,0.7,0.2c0.1,0,0.3,0,0.7,0c0.4,0,0.6,0,0.7,0
	c0,0,0.2,0,0.3,0.1c0.2,0.1,0.3,0.1,0.3,0.1c0.1,0,0.4,0,0.9,0.1c0.5,0.1,0.8,0.1,0.9,0.1c0.1,0,0.2,0.1,0.3,0.1
	c0.2,0.1,0.3,0.1,0.3,0.1c0.1,0,0.4,0.1,1,0.3c0.6,0.2,1,0.3,1.3,0.3c0.5,0.1,1,0.3,1.6,0.5c0.6,0.3,1.3,0.5,1.9,0.8
	c0.6,0.3,1.2,0.6,1.7,1c0.5,0.3,0.8,0.7,1,1c0,0.1,0,0.3,0.1,0.6c0.1,0.3,0.1,0.5,0.2,0.6c0,0,0,0.1,0.1,0.3
	c0.1,0.2,0.1,0.2,0.1,0.3c0.1,0.1,0.1,0.2,0.2,0.4c0.1,0.2,0.1,0.3,0.1,0.4v0.1c0,0.3-0.1,0.8-0.4,1.5c-0.3,0.7-0.6,1.4-0.9,2.1
	c-0.4,0.7-0.7,1.4-1.1,2.1c-0.4,0.7-0.6,1.1-0.8,1.4c-0.5,0.9-1.1,1.6-1.9,2.3c-0.8,0.7-1.6,1.3-2.5,2c-0.1,0-0.2,0.2-0.4,0.4
	c-0.2,0.2-0.4,0.3-0.5,0.4c-0.1,0.1-0.3,0.2-0.5,0.3c-0.3,0.2-0.5,0.3-0.8,0.5c-0.3,0.2-0.5,0.3-0.8,0.5c-0.3,0.2-0.4,0.2-0.5,0.3
	c-0.1,0-0.3,0.1-0.6,0.2c-0.3,0.1-0.5,0.1-0.6,0.2c-0.1,0-0.2,0.1-0.5,0.3c-0.3,0.2-0.5,0.3-0.6,0.3c-0.1,0-0.2,0-0.3,0
	c-0.2,0-0.3,0-0.3,0c-0.5,0.2-1,0.4-1.4,0.7c-0.5,0.3-0.9,0.5-1.4,0.7c-0.1,0-0.2,0-0.4,0.1c-0.2,0.1-0.4,0.1-0.4,0.1
	c-0.2,0.1-0.4,0.1-0.7,0.2c-0.3,0.1-0.6,0.2-0.9,0.3c-0.3,0.1-0.6,0.2-0.8,0.2c-0.3,0.1-0.4,0.1-0.5,0.1l-0.2,0.2
	c-1.1,0.2-2.2,0.3-3.4,0.4c-1.2,0.1-2.3,0.2-3.4,0.2c-0.6,0-1,0-1.4-0.1C87.5,155.7,87,155.7,86.4,155.6z"/>
<path class="st3" d="M158.6,155c0-0.1,0.1-0.3,0.1-0.7c0-0.4,0-0.6-0.1-0.7c0,0,0-0.1-0.1-0.3c-0.1-0.1-0.1-0.2-0.2-0.3
	c-0.4-0.7-0.6-1.3-0.7-1.8s-0.1-1.1-0.1-1.8c-0.1,0-0.2,0-0.4,0.1c-0.2,0-0.3,0-0.3-0.2v-0.8c0,0,0-0.2-0.1-0.4
	c-0.1-0.2-0.1-0.3-0.2-0.4c0,0,0-0.2,0-0.4s-0.1-0.4-0.1-0.6c0-0.2-0.1-0.4-0.1-0.6c0-0.2,0-0.3,0-0.4c-0.1-0.3-0.3-0.5-0.5-0.7
	c-0.2-0.2-0.4-0.4-0.5-0.7c-0.1-0.4-0.2-0.9-0.4-1.4c-0.2-0.5-0.3-1-0.5-1.6c-0.2-0.5-0.3-1-0.5-1.5c-0.2-0.5-0.4-0.9-0.6-1.3
	c0-0.1-0.1-0.2-0.3-0.2H153h-0.2c-1.5,0.3-3.2,0.4-5.1,0.3c-1.9-0.1-3.6,0-5.2,0.2c-0.1,0-0.4,0-0.8,0.1c-0.4,0.1-0.8,0.1-1.3,0.2
	c-0.5,0.1-0.9,0.1-1.3,0.2c-0.4,0.1-0.7,0.1-0.8,0.1c-0.2,0-0.5,0.1-0.9,0.1c-0.5,0-1,0.1-1.6,0.1c-0.6,0-1.1,0-1.6,0.1
	c-0.5,0-0.8,0.1-0.9,0.1c-0.4,0.1-0.8,0.2-1.3,0.3c-0.5,0.2-0.8,0.4-1,0.6c-0.2,0.3-0.4,0.7-0.7,1.3c-0.3,0.6-0.5,1.2-0.8,1.8
	c-0.3,0.6-0.5,1.2-0.7,1.8c-0.2,0.6-0.4,1-0.4,1.3c-0.2,0.8-0.5,1.7-0.8,2.6c-0.4,0.9-0.6,1.8-0.7,2.6v0.8c-0.1,0.1-0.1,0.2-0.2,0.4
	c-0.1,0.2-0.1,0.3-0.1,0.4v0.6c-0.6,0.7-1.3,1.1-2.1,1.3s-1.8,0.2-2.9,0.2c-0.4,0-0.9-0.1-1.5-0.3c-0.6-0.2-1.2-0.4-1.7-0.7
	c-0.6-0.3-1.1-0.6-1.5-0.9c-0.5-0.3-0.8-0.6-1-0.8v-0.2l-0.5-1.9V151v-0.2c0.2-0.7,0.4-1.5,0.7-2.4c0.3-0.9,0.6-1.9,0.9-2.8
	c0.3-1,0.6-1.9,0.9-2.8c0.3-0.9,0.5-1.7,0.6-2.4c0-0.1,0-0.3,0.1-0.6c0.1-0.2,0.1-0.4,0.1-0.4c0-0.1,0.2-0.1,0.3-0.2
	c0.2,0,0.3-0.1,0.3-0.1c-0.2,0-0.2-0.1-0.3-0.2c0-0.1,0-0.2,0-0.3c0-0.3,0.1-0.5,0.2-0.5c0.2,0,0.3,0,0.4-0.1
	c0.4-0.4,0.5-0.8,0.4-1.2c-0.1-0.4,0-0.8,0.2-1.2c0,0,0.1-0.1,0.3-0.3c0.2-0.2,0.3-0.2,0.3-0.3c0-0.1,0.1-0.2,0.2-0.5
	c0.1-0.3,0.1-0.4,0.1-0.5c-0.2,0-0.3-0.1-0.3-0.2c0-0.2,0.2-0.4,0.5-0.6c0.4-0.2,0.6-0.4,0.7-0.6c0.5-1,0.8-2,1.1-2.9
	c0.3-1,0.7-1.9,1.2-2.9c0.1-0.1,0.2-0.2,0.5-0.5c0.3-0.3,0.4-0.4,0.5-0.5c0-0.1,0-0.3,0-0.6c-0.1-0.3-0.1-0.5,0-0.6
	c0.1-0.5,0.3-0.9,0.7-1.4c0.4-0.4,0.7-0.9,1-1.3c0.4-0.6,0.6-1.2,0.7-1.6c0-0.5,0.3-1,0.8-1.6c0,0,0.1-0.1,0.3-0.2
	c0.2-0.1,0.3-0.2,0.3-0.2c0.6-0.7,1.1-1.4,1.6-2.2c0.4-0.8,0.9-1.5,1.3-2.2c0.3-0.4,0.6-0.8,1.1-1.1c0.5-0.3,0.7-0.7,0.7-1.2
	c0,0-0.1-0.1-0.2-0.2c-0.1-0.1-0.2-0.2-0.2-0.2c0-0.3,0.2-0.7,0.6-1.2c0.4-0.5,0.9-0.9,1.5-1.4c0.6-0.5,1.2-0.9,1.8-1.3
	c0.6-0.4,1.2-0.7,1.6-0.9c0.4-0.2,0.8-0.3,1.3-0.4c0.5-0.1,0.9-0.1,1.3-0.2c0.3-0.1,0.7-0.1,1.4-0.2c0.7-0.1,1.1-0.1,1.3-0.2h0.5
	c0.6,0,1.1,0.1,1.6,0.2c0.4,0.1,0.9,0.3,1.5,0.4c0.4,0.1,0.8,0.2,1.3,0.2c0.5,0.1,0.9,0.2,1.3,0.3c0.6,0.3,1.1,0.5,1.5,0.8
	c0.4,0.3,0.8,0.6,1.2,1c0.5,0.4,1,0.9,1.5,1.3c0.5,0.4,1,0.9,1.4,1.4c0.4,0.5,0.8,1.1,1.1,1.7c0.4,0.7,0.7,1.3,0.9,1.7
	c0,0.1,0.1,0.3,0.3,0.7c0.1,0.4,0.3,0.8,0.5,1.2c0.2,0.4,0.3,0.8,0.5,1.1c0.1,0.4,0.2,0.6,0.3,0.7c0.1,0.1,0.2,0.3,0.3,0.6
	c0.2,0.3,0.3,0.5,0.3,0.6c0.1,0.3,0.2,0.6,0.4,1.1s0.3,0.9,0.5,1.4c0.2,0.5,0.3,0.9,0.4,1.3c0.1,0.4,0.2,0.6,0.2,0.7
	c0,0.1,0.1,0.4,0.2,0.9c0.1,0.5,0.3,1,0.4,1.5c0.2,0.5,0.3,1,0.4,1.5c0.1,0.5,0.2,0.7,0.2,0.8c0,0.1,0,0.3,0.1,0.6
	c0.1,0.3,0.1,0.5,0.2,0.6c0,0.1,0,0.3,0.1,0.5c0.1,0.2,0.2,0.4,0.3,0.7c0.1,0.2,0.2,0.4,0.3,0.6c0.1,0.2,0.1,0.3,0.1,0.3v0.8
	c0,0.1,0.1,0.3,0.3,0.6c0.1,0.3,0.3,0.6,0.4,1c0.2,0.3,0.3,0.7,0.4,1c0.1,0.3,0.2,0.5,0.3,0.6v0.2c0,0.1-0.1,0.2-0.2,0.3
	c-0.1,0-0.2,0.1-0.2,0.2c0,0.2,0.1,0.4,0.4,0.5c0.3,0.1,0.6,0.2,0.9,0.2l-0.4,1.1c0.2,0.2,0.4,0.5,0.5,0.9c0.1,0.4,0.2,0.8,0.3,1.2
	c0.1,0.4,0.1,0.8,0.2,1.2c0.1,0.4,0.1,0.7,0.2,1c0,0.5,0.2,0.9,0.5,1.3c0.3,0.4,0.5,0.8,0.6,1.3c0.3,0.9,0.5,1.9,0.7,2.7
	c0.2,0.9,0.5,1.8,0.7,2.7c0,0.1,0,0.2,0.2,0.5c0.1,0.3,0.2,0.5,0.3,0.8c0.1,0.3,0.2,0.5,0.3,0.8c0.1,0.3,0.2,0.4,0.2,0.5v0.6
	c0,0.1-0.1,0.2-0.2,0.3c-0.1,0.1-0.3,0.3-0.4,0.4c-0.2,0.2-0.4,0.4-0.5,0.6l-0.2,0.1l-0.2,0.1c0,0-0.1,0.1-0.4,0.1
	c-0.3,0-0.5,0.1-0.8,0.1c-0.3,0-0.6,0-0.8,0.1c-0.3,0-0.4,0.1-0.4,0.1l-0.3,0.2c-0.1,0-0.4,0-0.9,0.1c-0.5,0.1-0.8,0.1-0.9,0.1
	c-0.1,0-0.1,0.1-0.3,0.2c-0.1,0.1-0.2,0.2-0.3,0.2h-0.5c-0.3,0-0.5,0-0.6-0.1s-0.3-0.1-0.5-0.1H162c-0.1,0-0.2,0.1-0.5,0.1
	c-0.3,0.1-0.4,0.1-0.5,0.1c-0.1,0-0.1-0.1-0.1-0.2c0-0.1,0-0.2-0.1-0.3c-0.1,0-0.3-0.1-0.5-0.3c-0.2-0.2-0.4-0.3-0.5-0.3h-0.3h-0.2
	c-0.1,0-0.3-0.1-0.5-0.1C158.8,155,158.7,155,158.6,155z M144.4,114.8c-0.5,0.4-1,1-1.5,1.6c-0.5,0.7-0.9,1.4-1.4,2.2
	c-0.5,0.8-0.9,1.5-1.3,2.2s-0.7,1.3-1,1.8c-0.7,1.2-1.4,2.3-2.2,3.5c-0.7,1.1-1.4,2.3-1.9,3.5c-0.2,0.4-0.4,0.8-0.6,1.2
	c-0.2,0.4-0.3,0.8-0.3,1.2c0.1,0,0.3,0,0.6,0c0.3,0,0.5,0,0.6-0.1c0.2,0,0.7,0,1.5-0.1c0.8-0.1,1.6-0.1,2.5-0.2
	c0.9-0.1,1.8-0.1,2.6-0.2c0.8-0.1,1.3-0.1,1.5-0.1c0.2,0,0.6,0,1.3-0.1c0.7-0.1,1.4-0.2,2.2-0.3c0.8-0.1,1.5-0.2,2.1-0.2
	c0.7-0.1,1.1-0.1,1.4-0.1c0.3-0.2,0.6-0.3,1-0.3c-0.3-0.1-0.4-0.3-0.5-0.4c-0.1-0.2-0.1-0.3-0.2-0.5c0-0.2-0.1-0.3-0.1-0.5
	c-0.1-0.2-0.2-0.4-0.4-0.6c-0.1,0-0.1,0-0.1,0c0,0.1-0.1,0.1-0.1,0.1c0,0,0-0.1,0-0.2c0-0.1,0-0.2,0-0.2l0.2-0.1l0.2-0.1v-0.2v-0.2
	c-0.1,0-0.1-0.1-0.2-0.2c-0.1-0.1-0.1-0.2-0.1-0.2c-0.1-0.1-0.1-0.3-0.2-0.6c-0.1-0.3-0.2-0.5-0.2-0.6v0.8c-0.1-0.1-0.1-0.2-0.2-0.4
	c-0.1-0.2-0.2-0.3-0.2-0.4v-0.1v-0.1l0.3-0.2l0.1-0.1c0,0,0-0.1-0.1-0.1c0-0.1-0.1-0.2-0.3-0.4c-0.2-0.2-0.3-0.3-0.3-0.4
	c-0.1-0.1-0.1-0.2,0-0.5c0-0.3,0-0.4,0-0.5c-0.1,0-0.1-0.1-0.2-0.2l-0.2-0.2l-0.3-0.2v-1.2c-0.2-0.4-0.4-0.8-0.5-1
	c-0.2-0.3-0.3-0.5-0.5-0.8c-0.2-0.3-0.3-0.4-0.3-0.5c-0.1-0.2-0.2-0.4-0.3-0.8c-0.1-0.4-0.2-0.7-0.2-1.1c-0.1-0.4-0.2-0.7-0.2-1.1
	c-0.1-0.3-0.1-0.5-0.2-0.6c-0.1-0.2-0.3-0.4-0.5-0.7c-0.2-0.3-0.5-0.5-0.9-0.5c-0.1,0-0.1,0-0.2,0
	C144.5,114.8,144.4,114.8,144.4,114.8z"/>
<path class="st3" d="M4.4,171.4l-1.1,3.1c0,0.1,0,0.2-0.1,0.4H2.7c0.1-0.2,0.1-0.3,0.2-0.4l3.4-9.6c0-0.1,0-0.2,0.1-0.3h0.9
	c0,0.1,0,0.2,0.1,0.3l3.5,9.6c0,0.1,0.1,0.2,0.2,0.4H9.9c0-0.1,0-0.3-0.1-0.4l-1.1-3.1H4.4z M4.6,171h3.9l-2-5.4L4.6,171z"/>
<path class="st3" d="M11.6,174.4l0.2-0.8c0.4,0.4,0.8,0.6,1.1,0.7c0.3,0.1,0.7,0.2,1.1,0.2c0.6,0,1.1-0.2,1.4-0.5
	c0.3-0.3,0.5-0.7,0.5-1.1c0-0.4-0.1-0.7-0.4-0.9c-0.3-0.2-0.8-0.5-1.5-0.8c-0.8-0.3-1.4-0.6-1.6-1c-0.3-0.4-0.4-0.7-0.4-1.2
	c0-0.7,0.3-1.3,1-1.7c0.4-0.3,0.9-0.4,1.5-0.4c0.7,0,1.4,0.2,2.2,0.5l-0.2,0.7c-0.7-0.5-1.3-0.7-1.9-0.7c-0.5,0-0.9,0.1-1.2,0.4
	c-0.3,0.3-0.5,0.6-0.5,1c0,0.3,0.1,0.6,0.3,0.8c0.2,0.2,0.7,0.4,1.3,0.7c0.9,0.4,1.5,0.7,1.9,1c0.3,0.3,0.5,0.7,0.5,1.2
	c0,0.7-0.3,1.3-0.9,1.8c-0.5,0.4-1.1,0.5-1.9,0.5C13.1,175,12.3,174.8,11.6,174.4z"/>
<path class="st3" d="M17.5,174.4l0.2-0.8c0.4,0.4,0.8,0.6,1.1,0.7c0.3,0.1,0.7,0.2,1.1,0.2c0.6,0,1.1-0.2,1.4-0.5
	c0.3-0.3,0.5-0.7,0.5-1.1c0-0.4-0.1-0.7-0.4-0.9c-0.3-0.2-0.8-0.5-1.5-0.8c-0.8-0.3-1.4-0.6-1.6-1c-0.3-0.4-0.4-0.7-0.4-1.2
	c0-0.7,0.3-1.3,1-1.7c0.4-0.3,0.9-0.4,1.5-0.4c0.7,0,1.4,0.2,2.2,0.5l-0.2,0.7c-0.7-0.5-1.3-0.7-1.9-0.7c-0.5,0-0.9,0.1-1.2,0.4
	c-0.3,0.3-0.5,0.6-0.5,1c0,0.3,0.1,0.6,0.3,0.8c0.2,0.2,0.7,0.4,1.3,0.7c0.9,0.4,1.5,0.7,1.9,1c0.3,0.3,0.5,0.7,0.5,1.2
	c0,0.7-0.3,1.3-0.9,1.8c-0.5,0.4-1.1,0.5-1.9,0.5C19.1,175,18.3,174.8,17.5,174.4z"/>
<path class="st3" d="M27.2,167c1.1,0,2,0.4,2.7,1.3c0.5,0.7,0.8,1.6,0.8,2.8c0,1.2-0.3,2.2-0.9,2.9c-0.6,0.7-1.5,1.1-2.5,1.1
	c-0.7,0-1.4-0.2-1.9-0.5c-0.6-0.4-1-1-1.3-1.7c-0.2-0.6-0.3-1.2-0.3-1.9c0-1.1,0.3-2,0.9-2.7C25.2,167.4,26.1,167,27.2,167z
	 M27.2,167.3c-0.7,0-1.3,0.3-1.8,0.9c-0.5,0.7-0.8,1.6-0.8,2.7c0,1.2,0.3,2.1,0.8,2.8c0.5,0.6,1.1,0.9,1.8,0.9
	c0.7,0,1.3-0.3,1.8-0.9c0.5-0.7,0.8-1.6,0.8-2.8c0-1.2-0.3-2.1-0.8-2.8C28.5,167.6,27.9,167.3,27.2,167.3z"/>
<path class="st3" d="M37.5,174.4c-0.4,0.2-0.7,0.4-1.1,0.5c-0.3,0.1-0.7,0.1-1.1,0.1c-1.1,0-1.9-0.3-2.4-1c-0.6-0.7-0.8-1.6-0.8-2.8
	c0-1.5,0.4-2.6,1.2-3.3c0.6-0.6,1.4-0.9,2.5-0.9c0.6,0,1.2,0.1,1.8,0.3v0.8c-0.4-0.3-0.7-0.5-1-0.6s-0.6-0.2-0.9-0.2
	c-0.8,0-1.4,0.3-1.9,1c-0.5,0.7-0.7,1.6-0.7,2.7c0,0.9,0.2,1.7,0.5,2.3c0.4,0.8,1.1,1.2,1.9,1.2c0.4,0,0.7-0.1,1-0.2
	c0.3-0.1,0.6-0.4,1-0.7V174.4z"/>
<path class="st3" d="M39.6,165c0.2,0,0.4,0.1,0.5,0.2c0.1,0.1,0.2,0.3,0.2,0.4c0,0.2-0.1,0.3-0.2,0.4c-0.1,0.1-0.3,0.2-0.5,0.2
	c-0.2,0-0.4-0.1-0.5-0.2c-0.1-0.1-0.2-0.3-0.2-0.4c0-0.2,0.1-0.3,0.2-0.4C39.2,165.1,39.4,165,39.6,165z M39.1,167.1H40
	c0,0.2,0,0.3,0,0.5v6.8c0,0.2,0,0.3,0,0.5h-0.9c0-0.2,0-0.3,0-0.5v-6.8C39.1,167.4,39.1,167.3,39.1,167.1z"/>
<path class="st3" d="M46.5,173.6c-0.4,0.5-0.7,0.8-1,1c-0.5,0.3-1.1,0.5-1.7,0.5c-0.6,0-1.1-0.2-1.5-0.5c-0.5-0.4-0.7-1-0.7-1.7
	c0-0.9,0.4-1.5,1.1-2c0.3-0.2,0.6-0.3,0.8-0.4c0.2-0.1,0.9-0.3,1.9-0.6c0.4-0.1,0.7-0.3,0.8-0.4c0.2-0.2,0.2-0.4,0.2-0.7
	c0-0.4-0.1-0.7-0.4-0.9c-0.3-0.2-0.7-0.4-1.2-0.4c-0.4,0-0.7,0.1-1,0.2c-0.3,0.1-0.7,0.4-1.1,0.7l-0.2-0.7c0.5-0.3,1-0.5,1.3-0.6
	c0.3-0.1,0.8-0.2,1.2-0.2c0.7,0,1.3,0.1,1.7,0.4c0.4,0.3,0.6,0.7,0.6,1.2v5c0,0.5,0.2,0.8,0.5,0.8c0.1,0,0.3-0.1,0.6-0.3v0.6
	c-0.3,0.2-0.6,0.3-0.9,0.3c-0.4,0-0.6-0.1-0.8-0.4C46.6,174.4,46.5,174.1,46.5,173.6z M46.5,169.9c-0.4,0.3-1.1,0.5-2.1,0.8
	c-0.7,0.2-1.2,0.5-1.5,0.8c-0.3,0.4-0.4,0.7-0.4,1.2c0,0.5,0.1,0.9,0.4,1.2c0.3,0.3,0.7,0.5,1.2,0.5c0.8,0,1.5-0.3,1.9-1
	c0.3-0.4,0.4-0.9,0.4-1.3V169.9z"/>
<path class="st3" d="M49.9,167.5h-1.3v-0.4h1.3v-1.8l0.8-0.1v0.3v0.3v1.3h1.4v0.4h-1.4v6.1c0,0.5,0.2,0.8,0.6,0.8
	c0.2,0,0.5-0.1,0.8-0.2v0.5c-0.3,0.2-0.7,0.3-1.1,0.3c-0.4,0-0.7-0.1-0.9-0.4c-0.1-0.1-0.2-0.3-0.2-0.4s0-0.4,0-0.7V167.5z"/>
<path class="st3" d="M54.4,165c0.2,0,0.4,0.1,0.5,0.2c0.1,0.1,0.2,0.3,0.2,0.4c0,0.2-0.1,0.3-0.2,0.4c-0.1,0.1-0.3,0.2-0.5,0.2
	c-0.2,0-0.4-0.1-0.5-0.2c-0.1-0.1-0.2-0.3-0.2-0.4c0-0.2,0.1-0.3,0.2-0.4C54,165.1,54.2,165,54.4,165z M53.9,167.1h0.9
	c0,0.2,0,0.3,0,0.5v6.8c0,0.2,0,0.3,0,0.5h-0.9c0-0.2,0-0.3,0-0.5v-6.8C53.9,167.4,53.9,167.3,53.9,167.1z"/>
<path class="st3" d="M60.2,167c1.1,0,2,0.4,2.7,1.3c0.5,0.7,0.8,1.6,0.8,2.8c0,1.2-0.3,2.2-0.9,2.9c-0.6,0.7-1.5,1.1-2.5,1.1
	c-0.7,0-1.4-0.2-1.9-0.5c-0.6-0.4-1-1-1.3-1.7c-0.2-0.6-0.3-1.2-0.3-1.9c0-1.1,0.3-2,0.9-2.7C58.2,167.4,59.1,167,60.2,167z
	 M60.2,167.3c-0.7,0-1.3,0.3-1.8,0.9c-0.5,0.7-0.8,1.6-0.8,2.7c0,1.2,0.3,2.1,0.8,2.8c0.5,0.6,1.1,0.9,1.8,0.9
	c0.7,0,1.3-0.3,1.8-0.9c0.5-0.7,0.8-1.6,0.8-2.8c0-1.2-0.3-2.1-0.8-2.8C61.5,167.6,60.9,167.3,60.2,167.3z"/>
<path class="st3" d="M65.4,167.1h0.9v1.3c0.2-0.4,0.4-0.7,0.7-0.9c0.5-0.4,1.1-0.5,1.8-0.5c0.9,0,1.7,0.3,2.2,0.9
	c0.3,0.4,0.5,0.8,0.5,1.5v5.1c0,0.2,0,0.3,0,0.5h-0.9c0-0.1,0-0.3,0-0.5v-5.1c0-0.5-0.2-0.9-0.5-1.2c-0.3-0.3-0.8-0.4-1.4-0.4
	c-0.8,0-1.3,0.2-1.7,0.6c-0.4,0.4-0.6,1-0.6,1.7v4.5c0,0.2,0,0.3,0,0.5h-0.9c0-0.2,0-0.3,0-0.5v-6.8
	C65.4,167.4,65.4,167.3,65.4,167.1z"/>
<path class="st3" d="M80.5,167c1.1,0,2,0.4,2.7,1.3c0.5,0.7,0.8,1.6,0.8,2.8c0,1.2-0.3,2.2-0.9,2.9c-0.6,0.7-1.5,1.1-2.5,1.1
	c-0.7,0-1.4-0.2-1.9-0.5c-0.6-0.4-1-1-1.3-1.7c-0.2-0.6-0.3-1.2-0.3-1.9c0-1.1,0.3-2,0.9-2.7C78.5,167.4,79.3,167,80.5,167z
	 M80.5,167.3c-0.7,0-1.3,0.3-1.8,0.9c-0.5,0.7-0.8,1.6-0.8,2.7c0,1.2,0.3,2.1,0.8,2.8c0.5,0.6,1.1,0.9,1.8,0.9
	c0.7,0,1.3-0.3,1.8-0.9c0.5-0.7,0.8-1.6,0.8-2.8c0-1.2-0.3-2.1-0.8-2.8C81.8,167.6,81.2,167.3,80.5,167.3z"/>
<path class="st3" d="M86,167.5h-1v-0.4h1v-1.7c0-0.6,0.2-1,0.5-1.3c0.4-0.3,0.9-0.5,1.6-0.5c0.4,0,0.9,0.1,1.6,0.3l-0.2,0.7
	c-0.6-0.3-1.1-0.4-1.5-0.4c-0.4,0-0.7,0.1-0.9,0.3c-0.2,0.2-0.3,0.5-0.3,0.9v1.7h2.6v0.4h-2.6v6.9c0,0.2,0,0.3,0,0.5h-0.9
	c0-0.2,0-0.3,0-0.5V167.5z"/>
<path class="st3" d="M94.5,164.6h1.1c0,0.1-0.1,0.3-0.1,0.5v9.3c0,0.2,0,0.4,0.1,0.5h-1.1c0-0.2,0.1-0.3,0.1-0.5v-9.3
	C94.6,164.9,94.5,164.8,94.5,164.6z"/>
<path class="st3" d="M98,167.1h0.9v1.3c0.2-0.4,0.4-0.7,0.7-0.9c0.5-0.4,1.1-0.5,1.8-0.5c0.9,0,1.7,0.3,2.2,0.9
	c0.3,0.4,0.5,0.8,0.5,1.5v5.1c0,0.2,0,0.3,0,0.5h-0.9c0-0.1,0-0.3,0-0.5v-5.1c0-0.5-0.2-0.9-0.5-1.2c-0.3-0.3-0.8-0.4-1.4-0.4
	c-0.8,0-1.3,0.2-1.7,0.6c-0.4,0.4-0.6,1-0.6,1.7v4.5c0,0.2,0,0.3,0,0.5H98c0-0.2,0-0.3,0-0.5v-6.8C98,167.4,98,167.3,98,167.1z"/>
<path class="st3" d="M106.6,167.5h-1.3v-0.4h1.3v-1.8l0.8-0.1v0.3v0.3v1.3h1.4v0.4h-1.4v6.1c0,0.5,0.2,0.8,0.6,0.8
	c0.2,0,0.5-0.1,0.8-0.2v0.5c-0.3,0.2-0.7,0.3-1.1,0.3c-0.4,0-0.7-0.1-0.9-0.4c-0.1-0.1-0.2-0.3-0.2-0.4c0-0.1,0-0.4,0-0.7V167.5z"/>
<path class="st3" d="M116,174.4c-0.8,0.4-1.7,0.6-2.5,0.6c-1.3,0-2.3-0.4-2.9-1.2c-0.6-0.7-0.8-1.6-0.8-2.8c0-1.3,0.3-2.3,1-3.1
	c0.6-0.7,1.4-1,2.4-1c0.7,0,1.3,0.2,1.8,0.6c0.9,0.6,1.3,1.6,1.4,3h-5.8c0,0.7,0,1.3,0.1,1.6c0.2,0.8,0.5,1.3,0.9,1.7
	c0.5,0.4,1.1,0.6,1.9,0.6c0.8,0,1.6-0.3,2.3-0.8L116,174.4z M110.6,170.1h4.9c-0.1-0.4-0.1-0.8-0.2-1.1c-0.2-0.5-0.5-0.9-0.9-1.2
	c-0.3-0.2-0.7-0.4-1.2-0.4c-0.6,0-1.1,0.2-1.6,0.6C111.1,168.5,110.7,169.2,110.6,170.1z"/>
<path class="st3" d="M118,167.1h0.9v1.2c0.2-0.5,0.4-0.8,0.7-1c0.3-0.2,0.7-0.3,1.3-0.3v0.8c-0.7,0-1.2,0.2-1.5,0.5
	c-0.3,0.3-0.5,0.9-0.5,1.6v4.6c0,0.2,0,0.3,0,0.5H118c0-0.2,0-0.3,0-0.5v-6.8C118.1,167.4,118.1,167.3,118,167.1z"/>
<path class="st3" d="M122.4,167.1h0.9v1.3c0.2-0.4,0.4-0.7,0.7-0.9c0.5-0.4,1.1-0.5,1.8-0.5c0.9,0,1.7,0.3,2.2,0.9
	c0.3,0.4,0.5,0.8,0.5,1.5v5.1c0,0.2,0,0.3,0,0.5h-0.9c0-0.1,0-0.3,0-0.5v-5.1c0-0.5-0.2-0.9-0.5-1.2c-0.3-0.3-0.8-0.4-1.4-0.4
	c-0.8,0-1.3,0.2-1.7,0.6c-0.4,0.4-0.6,1-0.6,1.7v4.5c0,0.2,0,0.3,0,0.5h-0.9c0-0.2,0-0.3,0-0.5v-6.8
	C122.4,167.4,122.4,167.3,122.4,167.1z"/>
<path class="st3" d="M134.8,173.6c-0.4,0.5-0.7,0.8-1,1c-0.5,0.3-1.1,0.5-1.7,0.5c-0.6,0-1.1-0.2-1.5-0.5c-0.5-0.4-0.7-1-0.7-1.7
	c0-0.9,0.4-1.5,1.1-2c0.3-0.2,0.6-0.3,0.8-0.4c0.2-0.1,0.9-0.3,1.9-0.6c0.4-0.1,0.7-0.3,0.8-0.4c0.2-0.2,0.2-0.4,0.2-0.7
	c0-0.4-0.1-0.7-0.4-0.9c-0.3-0.2-0.7-0.4-1.2-0.4c-0.4,0-0.7,0.1-1,0.2c-0.3,0.1-0.7,0.4-1.1,0.7l-0.2-0.7c0.5-0.3,1-0.5,1.3-0.6
	c0.3-0.1,0.8-0.2,1.2-0.2c0.7,0,1.3,0.1,1.7,0.4c0.4,0.3,0.6,0.7,0.6,1.2v5c0,0.5,0.2,0.8,0.5,0.8c0.1,0,0.3-0.1,0.6-0.3v0.6
	c-0.3,0.2-0.6,0.3-0.9,0.3c-0.4,0-0.6-0.1-0.8-0.4C134.9,174.4,134.8,174.1,134.8,173.6z M134.8,169.9c-0.4,0.3-1.1,0.5-2.1,0.8
	c-0.7,0.2-1.2,0.5-1.5,0.8c-0.3,0.4-0.4,0.7-0.4,1.2c0,0.5,0.1,0.9,0.4,1.2c0.3,0.3,0.7,0.5,1.2,0.5c0.8,0,1.5-0.3,1.9-1
	c0.3-0.4,0.4-0.9,0.4-1.3V169.9z"/>
<path class="st3" d="M138.3,167.5h-1.3v-0.4h1.3v-1.8l0.8-0.1v0.3v0.3v1.3h1.4v0.4h-1.4v6.1c0,0.5,0.2,0.8,0.6,0.8
	c0.2,0,0.5-0.1,0.8-0.2v0.5c-0.3,0.2-0.7,0.3-1.1,0.3c-0.4,0-0.7-0.1-0.9-0.4c-0.1-0.1-0.2-0.3-0.2-0.4c0-0.1,0-0.4,0-0.7V167.5z"/>
<path class="st3" d="M142.7,165c0.2,0,0.4,0.1,0.5,0.2c0.1,0.1,0.2,0.3,0.2,0.4c0,0.2-0.1,0.3-0.2,0.4c-0.1,0.1-0.3,0.2-0.5,0.2
	c-0.2,0-0.4-0.1-0.5-0.2c-0.1-0.1-0.2-0.3-0.2-0.4c0-0.2,0.1-0.3,0.2-0.4C142.3,165.1,142.5,165,142.7,165z M142.2,167.1h0.9
	c0,0.2,0,0.3,0,0.5v6.8c0,0.2,0,0.3,0,0.5h-0.9c0-0.2,0-0.3,0-0.5v-6.8C142.3,167.4,142.2,167.3,142.2,167.1z"/>
<path class="st3" d="M148.5,167c1.1,0,2,0.4,2.7,1.3c0.5,0.7,0.8,1.6,0.8,2.8c0,1.2-0.3,2.2-0.9,2.9c-0.6,0.7-1.5,1.1-2.5,1.1
	c-0.7,0-1.4-0.2-1.9-0.5c-0.6-0.4-1-1-1.3-1.7c-0.2-0.6-0.3-1.2-0.3-1.9c0-1.1,0.3-2,0.9-2.7C146.5,167.4,147.4,167,148.5,167z
	 M148.5,167.3c-0.7,0-1.3,0.3-1.8,0.9c-0.5,0.7-0.8,1.6-0.8,2.7c0,1.2,0.3,2.1,0.8,2.8c0.5,0.6,1.1,0.9,1.8,0.9
	c0.7,0,1.3-0.3,1.8-0.9c0.5-0.7,0.8-1.6,0.8-2.8c0-1.2-0.3-2.1-0.8-2.8C149.8,167.6,149.2,167.3,148.5,167.3z"/>
<path class="st3" d="M153.7,167.1h0.9v1.3c0.2-0.4,0.4-0.7,0.7-0.9c0.5-0.4,1.1-0.5,1.8-0.5c0.9,0,1.7,0.3,2.2,0.9
	c0.3,0.4,0.5,0.8,0.5,1.5v5.1c0,0.2,0,0.3,0,0.5h-0.9c0-0.1,0-0.3,0-0.5v-5.1c0-0.5-0.2-0.9-0.5-1.2c-0.3-0.3-0.8-0.4-1.4-0.4
	c-0.8,0-1.3,0.2-1.7,0.6c-0.4,0.4-0.6,1-0.6,1.7v4.5c0,0.2,0,0.3,0,0.5h-0.9c0-0.2,0-0.3,0-0.5v-6.8
	C153.8,167.4,153.8,167.3,153.7,167.1z"/>
<path class="st3" d="M166.2,173.6c-0.4,0.5-0.7,0.8-1,1c-0.5,0.3-1.1,0.5-1.7,0.5c-0.6,0-1.1-0.2-1.5-0.5c-0.5-0.4-0.7-1-0.7-1.7
	c0-0.9,0.4-1.5,1.1-2c0.3-0.2,0.6-0.3,0.8-0.4c0.2-0.1,0.9-0.3,1.9-0.6c0.4-0.1,0.7-0.3,0.8-0.4c0.2-0.2,0.2-0.4,0.2-0.7
	c0-0.4-0.1-0.7-0.4-0.9c-0.3-0.2-0.7-0.4-1.2-0.4c-0.4,0-0.7,0.1-1,0.2c-0.3,0.1-0.7,0.4-1.1,0.7l-0.2-0.7c0.5-0.3,1-0.5,1.3-0.6
	c0.3-0.1,0.8-0.2,1.2-0.2c0.7,0,1.3,0.1,1.7,0.4c0.4,0.3,0.6,0.7,0.6,1.2v5c0,0.5,0.2,0.8,0.5,0.8c0.1,0,0.3-0.1,0.6-0.3v0.6
	c-0.3,0.2-0.6,0.3-0.9,0.3c-0.4,0-0.6-0.1-0.8-0.4C166.3,174.4,166.2,174.1,166.2,173.6z M166.2,169.9c-0.4,0.3-1.1,0.5-2.1,0.8
	c-0.7,0.2-1.2,0.5-1.5,0.8c-0.3,0.4-0.4,0.7-0.4,1.2c0,0.5,0.1,0.9,0.4,1.2c0.3,0.3,0.7,0.5,1.2,0.5c0.8,0,1.5-0.3,1.9-1
	c0.3-0.4,0.4-0.9,0.4-1.3V169.9z"/>
<path class="st3" d="M170.2,163.8c0,0.2,0,0.3,0,0.5v10.1c0,0.2,0,0.3,0,0.5h-0.9c0-0.2,0-0.3,0-0.5v-10.1c0-0.2,0-0.3,0-0.5H170.2z
	"/>
<path class="st3" d="M70.1,187.9l0.3-0.8c0.2,0.2,0.4,0.4,0.6,0.5c0.5,0.4,1.1,0.5,1.7,0.5c0.7,0,1.3-0.2,1.7-0.7
	c0.4-0.4,0.5-0.9,0.5-1.4c0-0.7-0.3-1.2-0.8-1.6c-0.2-0.2-0.7-0.5-1.6-0.9c-0.8-0.4-1.4-0.8-1.8-1.2c-0.4-0.5-0.7-1-0.7-1.6
	c0-0.5,0.1-1,0.4-1.4c0.6-0.8,1.4-1.2,2.6-1.2c0.7,0,1.4,0.2,2.2,0.5l-0.3,0.7c-0.7-0.5-1.4-0.7-2-0.7c-0.7,0-1.2,0.2-1.5,0.6
	c-0.3,0.3-0.5,0.7-0.5,1.2c0,0.5,0.2,0.9,0.5,1.2c0.3,0.3,0.9,0.7,1.7,1.1c0.6,0.3,1,0.5,1.2,0.7s0.5,0.3,0.7,0.5
	c0.5,0.5,0.7,1.1,0.7,1.8c0,0.5-0.1,1-0.4,1.5c-0.6,0.9-1.5,1.4-2.8,1.4C71.8,188.7,70.9,188.4,70.1,187.9z"/>
<path class="st3" d="M82.5,188c-0.4,0.2-0.7,0.4-1.1,0.5c-0.3,0.1-0.7,0.1-1.1,0.1c-1.1,0-1.9-0.3-2.4-1c-0.6-0.7-0.8-1.6-0.8-2.8
	c0-1.5,0.4-2.6,1.2-3.3c0.6-0.6,1.4-0.9,2.5-0.9c0.6,0,1.2,0.1,1.8,0.3v0.8c-0.4-0.3-0.7-0.5-1-0.6c-0.3-0.1-0.6-0.2-0.9-0.2
	c-0.8,0-1.4,0.3-1.9,1c-0.5,0.7-0.7,1.6-0.7,2.7c0,0.9,0.2,1.7,0.5,2.3c0.4,0.8,1.1,1.2,1.9,1.2c0.4,0,0.7-0.1,1-0.2
	c0.3-0.1,0.6-0.4,1-0.7V188z"/>
<path class="st3" d="M84,188.5c0-0.2,0-0.3,0-0.5v-10.1c0-0.2,0-0.3,0-0.5h0.9c0,0.2,0,0.3,0,0.5v4c0.3-0.5,0.7-0.8,1-1.1
	c0.4-0.2,0.9-0.3,1.5-0.3c0.8,0,1.5,0.2,1.9,0.6c0.5,0.4,0.7,1,0.7,1.7v5.1c0,0.2,0,0.3,0,0.5h-0.9c0-0.2,0-0.3,0-0.5v-4.7
	c0-0.4,0-0.7-0.1-0.9c-0.1-0.2-0.2-0.4-0.4-0.6c-0.3-0.3-0.8-0.5-1.5-0.5c-0.8,0-1.4,0.2-1.8,0.6c-0.4,0.5-0.6,1-0.6,1.7v4.5
	c0,0.2,0,0.3,0,0.5H84z"/>
<path class="st3" d="M95.3,180.6c1.1,0,2,0.4,2.7,1.3c0.5,0.7,0.8,1.6,0.8,2.8c0,1.2-0.3,2.2-0.9,2.9c-0.6,0.7-1.5,1.1-2.5,1.1
	c-0.7,0-1.4-0.2-1.9-0.5c-0.6-0.4-1-1-1.3-1.7c-0.2-0.6-0.3-1.2-0.3-1.9c0-1.1,0.3-2,0.9-2.7C93.3,181,94.1,180.6,95.3,180.6z
	 M95.3,181c-0.7,0-1.3,0.3-1.8,0.9c-0.5,0.7-0.8,1.6-0.8,2.7c0,1.2,0.3,2.1,0.8,2.8c0.5,0.6,1.1,0.9,1.8,0.9c0.7,0,1.3-0.3,1.8-0.9
	c0.5-0.7,0.8-1.6,0.8-2.8c0-1.2-0.3-2.1-0.8-2.8C96.6,181.3,96,181,95.3,181z"/>
<path class="st3" d="M103.6,180.6c1.1,0,2,0.4,2.7,1.3c0.5,0.7,0.8,1.6,0.8,2.8c0,1.2-0.3,2.2-0.9,2.9c-0.6,0.7-1.5,1.1-2.5,1.1
	c-0.7,0-1.4-0.2-1.9-0.5c-0.6-0.4-1-1-1.3-1.7c-0.2-0.6-0.3-1.2-0.3-1.9c0-1.1,0.3-2,0.9-2.7C101.6,181,102.5,180.6,103.6,180.6z
	 M103.6,181c-0.7,0-1.3,0.3-1.8,0.9c-0.5,0.7-0.8,1.6-0.8,2.7c0,1.2,0.3,2.1,0.8,2.8c0.5,0.6,1.1,0.9,1.8,0.9c0.7,0,1.3-0.3,1.8-0.9
	c0.5-0.7,0.8-1.6,0.8-2.8c0-1.2-0.3-2.1-0.8-2.8C104.9,181.3,104.3,181,103.6,181z"/>
<path class="st3" d="M109.7,177.5c0,0.2,0,0.3,0,0.5v10.1c0,0.2,0,0.3,0,0.5h-0.9c0-0.2,0-0.3,0-0.5v-10.1c0-0.2,0-0.3,0-0.5H109.7z
	"/>
<path class="st3" d="M111.2,188l0.2-0.8c0.4,0.4,0.8,0.6,1.1,0.7c0.3,0.1,0.7,0.2,1.1,0.2c0.6,0,1.1-0.2,1.4-0.5
	c0.3-0.3,0.5-0.7,0.5-1.1c0-0.4-0.1-0.7-0.4-0.9c-0.3-0.2-0.8-0.5-1.5-0.8c-0.8-0.3-1.4-0.6-1.6-1c-0.3-0.4-0.4-0.7-0.4-1.2
	c0-0.7,0.3-1.3,1-1.7c0.4-0.3,0.9-0.4,1.5-0.4c0.7,0,1.4,0.2,2.2,0.5l-0.2,0.7c-0.7-0.5-1.3-0.7-1.9-0.7c-0.5,0-0.9,0.1-1.2,0.4
	c-0.3,0.3-0.5,0.6-0.5,1c0,0.3,0.1,0.6,0.3,0.8c0.2,0.2,0.7,0.4,1.3,0.7c0.9,0.4,1.5,0.7,1.9,1c0.3,0.3,0.5,0.7,0.5,1.2
	c0,0.7-0.3,1.3-0.9,1.8c-0.5,0.4-1.1,0.5-1.9,0.5C112.8,188.7,112,188.5,111.2,188z"/>
<path class="st3" d="M122.2,178.7c0.2,0,0.4,0.1,0.5,0.2c0.1,0.1,0.2,0.3,0.2,0.4c0,0.2-0.1,0.3-0.2,0.4c-0.1,0.1-0.3,0.2-0.5,0.2
	c-0.2,0-0.4-0.1-0.5-0.2c-0.1-0.1-0.2-0.3-0.2-0.4c0-0.2,0.1-0.3,0.2-0.4C121.8,178.7,122,178.7,122.2,178.7z M121.7,180.8h0.9
	c0,0.2,0,0.3,0,0.5v6.8c0,0.2,0,0.3,0,0.5h-0.9c0-0.2,0-0.3,0-0.5v-6.8C121.7,181.1,121.7,180.9,121.7,180.8z"/>
<path class="st3" d="M124.9,180.8h0.9v1.3c0.2-0.4,0.4-0.7,0.7-0.9c0.5-0.4,1.1-0.5,1.8-0.5c0.9,0,1.7,0.3,2.2,0.9
	c0.3,0.4,0.5,0.8,0.5,1.5v5.1c0,0.2,0,0.3,0,0.5H130c0-0.1,0-0.3,0-0.5v-5.1c0-0.5-0.2-0.9-0.5-1.2c-0.3-0.3-0.8-0.4-1.4-0.4
	c-0.8,0-1.3,0.2-1.7,0.6c-0.4,0.4-0.6,1-0.6,1.7v4.5c0,0.2,0,0.3,0,0.5h-0.9c0-0.2,0-0.3,0-0.5v-6.8
	C124.9,181.1,124.9,180.9,124.9,180.8z"/>
<path class="st3" d="M137.6,185l-1.1,3.1c0,0.1,0,0.2-0.1,0.4h-0.6c0.1-0.2,0.1-0.3,0.2-0.4l3.4-9.6c0-0.1,0-0.2,0.1-0.3h0.9
	c0,0.1,0,0.2,0.1,0.3l3.5,9.6c0,0.1,0.1,0.2,0.2,0.4h-1.2c0-0.1,0-0.3-0.1-0.4l-1.1-3.1H137.6z M137.8,184.6h3.9l-2-5.4L137.8,184.6
	z"/>
<path class="st3" d="M145.6,181.2h-1v-0.4h1v-1.7c0-0.6,0.2-1,0.5-1.3c0.4-0.3,0.9-0.5,1.6-0.5c0.4,0,0.9,0.1,1.6,0.3l-0.2,0.7
	c-0.6-0.3-1.1-0.4-1.5-0.4c-0.4,0-0.7,0.1-0.9,0.3c-0.2,0.2-0.3,0.5-0.3,0.9v1.7h2.6v0.4h-2.6v6.9c0,0.2,0,0.3,0,0.5h-0.9
	c0-0.2,0-0.3,0-0.5V181.2z"/>
<path class="st3" d="M149.9,180.8h0.9v1.2c0.2-0.5,0.4-0.8,0.7-1c0.3-0.2,0.7-0.3,1.3-0.3v0.8c-0.7,0-1.2,0.2-1.5,0.5
	c-0.3,0.3-0.5,0.9-0.5,1.6v4.6c0,0.2,0,0.3,0,0.5h-0.9c0-0.2,0-0.3,0-0.5v-6.8C150,181.1,149.9,180.9,149.9,180.8z"/>
<path class="st3" d="M154.8,178.7c0.2,0,0.4,0.1,0.5,0.2c0.1,0.1,0.2,0.3,0.2,0.4c0,0.2-0.1,0.3-0.2,0.4c-0.1,0.1-0.3,0.2-0.5,0.2
	c-0.2,0-0.4-0.1-0.5-0.2c-0.1-0.1-0.2-0.3-0.2-0.4c0-0.2,0.1-0.3,0.2-0.4C154.4,178.7,154.6,178.7,154.8,178.7z M154.3,180.8h0.9
	c0,0.2,0,0.3,0,0.5v6.8c0,0.2,0,0.3,0,0.5h-0.9c0-0.2,0-0.3,0-0.5v-6.8C154.4,181.1,154.3,180.9,154.3,180.8z"/>
<path class="st3" d="M162.6,188c-0.4,0.2-0.7,0.4-1.1,0.5c-0.3,0.1-0.7,0.1-1.1,0.1c-1.1,0-1.9-0.3-2.4-1c-0.6-0.7-0.8-1.6-0.8-2.8
	c0-1.5,0.4-2.6,1.2-3.3c0.6-0.6,1.4-0.9,2.5-0.9c0.6,0,1.2,0.1,1.8,0.3v0.8c-0.4-0.3-0.7-0.5-1-0.6s-0.6-0.2-0.9-0.2
	c-0.8,0-1.4,0.3-1.9,1c-0.5,0.7-0.7,1.6-0.7,2.7c0,0.9,0.2,1.7,0.5,2.3c0.4,0.8,1.1,1.2,1.9,1.2c0.4,0,0.7-0.1,1.1-0.2
	c0.3-0.1,0.6-0.4,1-0.7V188z"/>
<path class="st3" d="M168.3,187.2c-0.4,0.5-0.7,0.8-1,1c-0.5,0.3-1.1,0.5-1.7,0.5c-0.6,0-1.1-0.2-1.5-0.5c-0.5-0.4-0.7-1-0.7-1.7
	c0-0.9,0.4-1.5,1.1-2c0.3-0.2,0.6-0.3,0.8-0.4c0.2-0.1,0.9-0.3,1.9-0.6c0.4-0.1,0.7-0.3,0.8-0.4c0.2-0.2,0.2-0.4,0.2-0.7
	c0-0.4-0.1-0.7-0.4-0.9c-0.3-0.2-0.7-0.4-1.2-0.4c-0.4,0-0.7,0.1-1,0.2c-0.3,0.1-0.7,0.4-1.1,0.7l-0.2-0.7c0.5-0.3,1-0.5,1.3-0.6
	c0.3-0.1,0.8-0.2,1.2-0.2c0.7,0,1.3,0.1,1.7,0.4c0.4,0.3,0.6,0.7,0.6,1.2v5c0,0.5,0.2,0.8,0.5,0.8c0.1,0,0.3-0.1,0.6-0.3v0.6
	c-0.3,0.2-0.6,0.3-0.9,0.3c-0.4,0-0.6-0.1-0.8-0.4C168.4,188.1,168.3,187.7,168.3,187.2z M168.3,183.6c-0.4,0.3-1.1,0.5-2.1,0.8
	c-0.7,0.2-1.2,0.5-1.5,0.8c-0.3,0.4-0.4,0.7-0.4,1.2c0,0.5,0.1,0.9,0.4,1.2c0.3,0.3,0.7,0.5,1.2,0.5c0.8,0,1.5-0.3,1.9-1
	c0.3-0.4,0.4-0.9,0.4-1.3V183.6z"/>
</svg>
