<svg width="264" height="58" viewBox="0 0 264 58" fill="none" xmlns="http://www.w3.org/2000/svg">
<g clip-path="url(#clip0)">
<path d="M135.916 23.4376H134.866V52.1521H135.916V23.4376Z" fill="#ED1C26"/>
<path d="M120.435 50.987C122.494 50.987 124.23 50.6443 125.663 49.9362C127.096 49.228 128.165 48.2914 128.892 47.0807C129.598 45.8929 129.962 44.5679 129.962 43.1059C129.962 41.4155 129.578 40.0677 128.791 39.0855C128.004 38.1032 127.075 37.3722 125.986 36.9153C124.896 36.4584 123.503 36.0016 121.787 35.5447C120.132 35.1335 118.921 34.7223 118.114 34.2883C117.307 33.8543 116.903 33.2146 116.903 32.3466C116.903 31.4785 117.246 30.7704 117.952 30.245C118.639 29.7196 119.729 29.4454 121.182 29.4454C123.261 29.4454 125.319 30.1079 127.398 31.4328L128.993 26.9783C127.963 26.2473 126.773 25.6991 125.4 25.3107C124.028 24.9224 122.635 24.7396 121.202 24.7396C119.143 24.7396 117.408 25.0823 115.995 25.7904C114.582 26.4986 113.512 27.4352 112.806 28.6459C112.099 29.8338 111.756 31.1815 111.756 32.6435C111.756 34.334 112.14 35.6817 112.927 36.7097C113.714 37.7148 114.642 38.4687 115.732 38.9255C116.822 39.3824 118.215 39.8393 119.93 40.2962C121.041 40.5931 121.929 40.8444 122.575 41.0957C123.22 41.347 123.765 41.6668 124.169 42.0551C124.593 42.4435 124.795 42.946 124.795 43.5628C124.795 44.3852 124.452 45.0476 123.745 45.5502C123.039 46.0528 121.949 46.304 120.475 46.304C119.143 46.304 117.831 46.0528 116.499 45.573C115.167 45.0933 114.037 44.4537 113.068 43.6542L111.312 48.0859C112.321 48.9539 113.653 49.6621 115.308 50.2103C116.963 50.7129 118.679 50.987 120.435 50.987ZM102.29 50.553H107.477V25.1737H102.29V50.553ZM88.8075 46.1213H82.7525V39.8393H88.8075C91.5727 39.8393 92.9451 40.8901 92.9451 42.9917C92.9451 44.0654 92.602 44.8421 91.8956 45.3446C91.1892 45.87 90.1598 46.1213 88.8075 46.1213ZM87.8993 29.6053C89.1708 29.6053 90.1598 29.8566 90.8057 30.3592C91.4717 30.8617 91.7947 31.5927 91.7947 32.5979C91.7947 33.5801 91.4717 34.334 90.8057 34.8365C90.1396 35.3391 89.1708 35.5904 87.8993 35.5904H82.7323V29.6053H87.8993ZM94.0552 37.3493C95.0039 36.8011 95.7305 36.0244 96.2552 35.065C96.78 34.1055 97.0424 33.009 97.0424 31.7755C97.0424 29.7424 96.3158 28.1433 94.8424 26.9555C93.3892 25.7676 91.2901 25.1737 88.5451 25.1737H77.5855V50.553H89.191C92.1176 50.553 94.3378 49.959 95.8717 48.7483C97.4057 47.5604 98.1727 45.8472 98.1727 43.6085C98.1727 42.0323 97.8094 40.7074 97.0828 39.6337C96.336 38.5829 95.3268 37.8062 94.0552 37.3493ZM62.3873 45.9842C61.0552 45.9842 59.8644 45.6416 58.7947 44.9563C57.725 44.271 56.8974 43.3115 56.2717 42.078C55.6662 40.8444 55.3635 39.451 55.3635 37.8747C55.3635 36.2985 55.6662 34.9051 56.2717 33.6715C56.8772 32.4379 57.725 31.4785 58.7947 30.7932C59.8644 30.1079 61.0552 29.7652 62.3873 29.7652C63.7195 29.7652 64.9103 30.1079 65.98 30.7932C67.0497 31.4785 67.8772 32.4379 68.5029 33.6715C69.1084 34.9051 69.4112 36.2985 69.4112 37.8747C69.4112 39.451 69.1084 40.8444 68.5029 42.078C67.8974 43.3115 67.0497 44.271 65.98 44.9563C64.9103 45.6416 63.7195 45.9842 62.3873 45.9842ZM62.3873 50.987C64.7084 50.987 66.8075 50.4159 68.6644 49.2737C70.5213 48.1315 71.9947 46.5782 73.0442 44.5679C74.1139 42.5805 74.6387 40.3419 74.6387 37.8519C74.6387 35.3619 74.1139 33.1233 73.0442 31.1359C71.9745 29.1485 70.5213 27.5723 68.6644 26.4301C66.8075 25.2879 64.7084 24.7168 62.3873 24.7168C60.0662 24.7168 57.9672 25.2879 56.0901 26.4301C54.213 27.5723 52.7598 29.1256 51.7103 31.1359C50.6607 33.1233 50.1158 35.3619 50.1158 37.8519C50.1158 40.3419 50.6406 42.5805 51.7103 44.5679C52.7598 46.5553 54.2332 48.1315 56.0901 49.2737C57.9672 50.4159 60.0662 50.987 62.3873 50.987ZM39.358 50.987C41.2956 50.987 43.0717 50.5987 44.6461 49.822C46.2204 49.0453 47.5525 47.9259 48.6222 46.4411L45.2919 42.9689C43.7782 44.9791 41.9011 45.9842 39.6607 45.9842C38.2681 45.9842 37.0369 45.6416 35.947 44.9563C34.8571 44.271 34.0094 43.3115 33.4039 42.078C32.7983 40.8444 32.4956 39.451 32.4956 37.8747C32.4956 36.2985 32.7983 34.9051 33.4039 33.6715C34.0094 32.4379 34.8571 31.4785 35.947 30.7932C37.0369 30.1079 38.2681 29.7652 39.6607 29.7652C41.9011 29.7652 43.7782 30.7475 45.2919 32.7349L48.6222 29.2627C47.5525 27.8235 46.2405 26.7042 44.6662 25.9275C43.0919 25.1508 41.336 24.7625 39.3983 24.7625C37.0974 24.7625 35.0185 25.3336 33.1616 26.4529C31.3048 27.5723 29.8516 29.1256 28.802 31.1359C27.7525 33.1233 27.2075 35.3848 27.2075 37.8976C27.2075 40.4104 27.7323 42.6719 28.802 44.6593C29.8516 46.6467 31.3048 48.2229 33.1616 49.3423C34.9983 50.4387 37.0772 50.987 39.358 50.987Z" fill="#012169"/>
<path d="M13.0789 22.638C13.0789 22.638 20.9101 13.7062 12.0899 0C12.0899 0 15.6018 7.83537 11.4239 14.5514C8.94129 18.549 13.0789 22.638 13.0789 22.638Z" fill="#ED1C26"/>
<path d="M1.02954 50.2788C1.02954 50.2788 2.62404 51.4667 3.73413 51.1697C3.73413 51.1697 2.18 52.883 1.95798 52.8144C1.95798 52.8373 1.29193 51.9464 1.02954 50.2788Z" fill="#012169"/>
<path d="M4.27889 52.746C4.58165 54.0481 4.84403 55.6014 5.85321 56.9492C5.85321 56.9492 3.83486 56.0355 2.82568 54.3907L4.27889 52.746Z" fill="#012169"/>
<path d="M2.11938 53.2485C2.11938 53.2485 3.45149 52.449 3.67351 52.1292C3.67351 52.1292 3.31021 53.3399 2.72489 53.911C2.72489 53.9338 2.3414 53.8196 2.11938 53.2485Z" fill="#ED1C26"/>
<path d="M15.9653 56.538C16.2882 56.3553 16.591 56.1268 16.8735 55.9212C16.9946 55.807 17.1157 55.6928 17.2368 55.5557C17.2368 55.5557 13.3414 54.9161 9.95061 50.2789C9.52676 49.7078 11.1818 55.3958 14.4112 57.3147C14.9561 57.0863 15.4607 56.835 15.9653 56.538Z" fill="#012169"/>
<path d="M18.4479 54.4592C18.8314 54.0252 19.1543 53.5683 19.4571 53.0658C18.8718 52.9516 18.1452 52.883 17.3378 52.9059C14.936 52.9744 12.8975 51.9008 12.8975 51.9008C12.8975 51.9008 15.3598 54.4592 18.4479 54.4592Z" fill="#ED1C26"/>
<path d="M17.9029 39.3824C17.9029 39.3824 15.6424 35.3391 20.5469 27.4124C20.5469 27.4124 16.7323 32.141 14.613 39.1768C14.5928 39.1768 16.1066 38.2859 17.9029 39.3824Z" fill="#ED1C26"/>
<path d="M1.4128 45.1162C2.03849 45.2075 2.54308 45.0019 2.54308 45.0019C1.47335 43.9283 1.27152 41.8038 1.33207 40.1134C1.33207 40.1134 0.221975 42.0551 0.322892 43.974C0.322892 43.9968 0.787113 45.0476 1.4128 45.1162Z" fill="#012169"/>
<path d="M2.24053 42.3521C1.79649 42.3521 1.37264 39.3139 3.49191 35.2249C3.49191 35.2249 1.95796 39.2225 2.17998 41.7125C2.22035 42.1465 2.24053 42.3521 2.24053 42.3521Z" fill="#ED1C26"/>
<path d="M6.03504 31.7526C2.32128 37.0524 2.56348 42.0551 2.6644 43.1516C2.72495 43.6313 2.86624 44.1339 3.14881 44.6364C3.43137 44.5222 3.41119 43.8598 3.41119 43.8598C3.0277 36.8696 6.68092 31.8669 10.0314 27.0925L9.99101 27.1382L6.03504 31.7526Z" fill="#012169"/>
<path d="M15.3194 4.18042C22.3231 20.4451 11.6258 23.8488 6.47906 34.334C3.79465 40.3419 4.64236 45.4132 4.64236 45.4132C4.64236 45.4132 3.51208 46.1213 2.13961 46.03C0.363461 45.9157 0.181809 44.0654 0.0405248 44.7964C-0.221861 48.9311 1.15062 50.1647 4.82401 50.6215C4.82401 50.6215 5.4497 55.5558 7.1653 57.3604C8.98181 58.0457 10.98 58.2056 12.8974 57.7716C10.7378 55.9898 9.89007 53.477 9.89007 53.477C8.96163 51.1241 9.08273 49.5022 9.08273 49.5022C15.6424 46.9894 19.1139 47.1721 21.0112 48.063C21.0919 46.6467 20.8699 45.2076 20.3653 43.837C18.4479 41.9181 15.2185 42.078 13.402 42.3293C10.657 42.7176 8.45704 43.8598 8.45704 43.8598C8.45704 43.8598 7.06438 37.5321 14.7947 28.2576C23.9983 17.2013 18.1249 7.53843 15.3194 4.18042Z" fill="#ED1C26"/>
<path d="M20.1029 51.8094C20.4864 50.9185 20.769 49.959 20.8901 48.9996C18.024 47.7204 12.5139 48.9311 10.9194 49.5935C10.9194 49.5935 11.0607 49.8448 11.3029 49.9362C14.391 51.9693 18.2864 52.2663 20.1029 51.8094Z" fill="#012169"/>
<path d="M19.5175 42.1237C19.3358 41.8267 19.1743 41.5526 18.9725 41.3013C18.9725 41.3013 18.8312 41.0957 18.7505 41.0272C17.923 40.3876 17.0551 40.0906 16.3285 39.9992C15.178 39.8393 13.0587 40.4561 13.0587 40.4561C13.0587 40.4561 13.967 35.8874 18.5285 29.3541C22.8881 23.1178 20.4863 16.4017 20.4863 16.4017C20.567 20.4451 19.3762 24.8767 15.7431 28.8515C9.8092 35.499 10.1725 40.4332 10.2532 41.9866C14.6331 40.7987 17.6808 41.0729 19.5175 42.1237Z" fill="#012169"/>
<path d="M261.295 50.5073C262.123 50.5073 262.789 50.3246 263.273 49.9363C263.758 49.5479 264 49.0454 264 48.4286C264 47.9489 263.899 47.5834 263.677 47.3092C263.455 47.058 263.193 46.8524 262.89 46.761C262.587 46.6468 262.183 46.5554 261.719 46.464C261.235 46.3726 260.892 46.2813 260.67 46.1671C260.448 46.0528 260.327 45.8929 260.327 45.6188C260.327 45.3904 260.427 45.2076 260.649 45.0706C260.872 44.9335 261.174 44.865 261.578 44.865C262.204 44.865 262.789 45.0249 263.294 45.3675L263.838 44.1568C263.576 43.9741 263.233 43.837 262.829 43.7228C262.426 43.6086 262.002 43.5629 261.598 43.5629C260.791 43.5629 260.145 43.7456 259.681 44.134C259.216 44.5223 258.974 45.0249 258.974 45.6645C258.974 46.1442 259.095 46.5326 259.317 46.8067C259.539 47.0808 259.822 47.2636 260.125 47.3778C260.427 47.492 260.831 47.5834 261.336 47.6747C261.8 47.7661 262.143 47.8575 262.365 47.9489C262.587 48.0402 262.688 48.2001 262.688 48.4514C262.688 48.954 262.264 49.2053 261.437 49.2053C261.073 49.2053 260.71 49.1367 260.327 49.0225C259.943 48.9083 259.62 48.7484 259.358 48.5428L258.813 49.7535C259.095 49.9819 259.459 50.1647 259.923 50.3018C260.327 50.4388 260.811 50.5073 261.295 50.5073ZM256.048 50.4388H257.44V41.0501H256.048V50.4388ZM251.446 49.1596C250.941 49.1596 250.517 48.9768 250.174 48.5885C249.851 48.2001 249.67 47.6976 249.67 47.058C249.67 46.4183 249.831 45.9158 250.174 45.5274C250.497 45.1391 250.921 44.9563 251.446 44.9563C251.95 44.9563 252.394 45.1391 252.717 45.5274C253.061 45.9158 253.222 46.4183 253.222 47.058C253.222 47.6976 253.061 48.2001 252.717 48.5885C252.374 48.9768 251.95 49.1596 251.446 49.1596ZM251.446 50.5073C252.051 50.5073 252.596 50.3703 253.081 50.0733C253.565 49.7764 253.949 49.3652 254.211 48.8398C254.473 48.3144 254.615 47.7204 254.615 47.058C254.615 46.3955 254.473 45.8016 254.211 45.2762C253.949 44.7508 253.565 44.3396 253.081 44.0426C252.596 43.7456 252.051 43.6086 251.446 43.6086C250.84 43.6086 250.295 43.7456 249.811 44.0426C249.327 44.3396 248.943 44.7508 248.681 45.2762C248.418 45.8016 248.277 46.3955 248.277 47.058C248.277 47.7204 248.418 48.3144 248.681 48.8398C248.943 49.3652 249.327 49.7764 249.811 50.0733C250.295 50.3703 250.84 50.5073 251.446 50.5073ZM244.079 49.1596C243.574 49.1596 243.15 48.9768 242.807 48.5885C242.484 48.2001 242.303 47.6976 242.303 47.058C242.303 46.4183 242.464 45.9158 242.807 45.5274C243.13 45.1391 243.554 44.9563 244.079 44.9563C244.583 44.9563 245.027 45.1391 245.35 45.5274C245.694 45.9158 245.855 46.4183 245.855 47.058C245.855 47.6976 245.694 48.2001 245.35 48.5885C245.027 48.9768 244.604 49.1596 244.079 49.1596ZM244.079 50.5073C244.684 50.5073 245.229 50.3703 245.714 50.0733C246.198 49.7764 246.582 49.3652 246.844 48.8398C247.106 48.3144 247.248 47.7204 247.248 47.058C247.248 46.3955 247.106 45.8016 246.844 45.2762C246.582 44.7508 246.198 44.3396 245.714 44.0426C245.229 43.7456 244.684 43.6086 244.079 43.6086C243.473 43.6086 242.928 43.7456 242.444 44.0426C241.96 44.3396 241.576 44.7508 241.314 45.2762C241.051 45.8016 240.91 46.3955 240.91 47.058C240.91 47.7204 241.051 48.3144 241.314 48.8398C241.576 49.3652 241.96 49.7764 242.444 50.0733C242.928 50.3703 243.473 50.5073 244.079 50.5073ZM237.055 43.5857C236.631 43.5857 236.268 43.6543 235.925 43.8142C235.582 43.9512 235.299 44.1797 235.077 44.4538V41.0272H233.684V50.416H235.077V46.9894C235.077 46.327 235.218 45.8244 235.521 45.4818C235.824 45.1391 236.227 44.9563 236.732 44.9563C237.196 44.9563 237.539 45.1163 237.782 45.4132C238.024 45.7102 238.145 46.1671 238.145 46.7382V50.416H239.538V46.5554C239.538 45.5731 239.316 44.8421 238.851 44.3396C238.407 43.837 237.802 43.5857 237.055 43.5857ZM229.829 50.5073C230.415 50.5073 230.919 50.3703 231.363 50.0962C231.807 49.822 232.15 49.4337 232.372 48.9311L231.303 48.223C231.141 48.5428 230.919 48.7712 230.657 48.9311C230.394 49.091 230.112 49.1596 229.809 49.1596C229.284 49.1596 228.84 48.9768 228.497 48.5885C228.154 48.2001 227.993 47.6976 227.993 47.058C227.993 46.4183 228.154 45.9158 228.497 45.5274C228.84 45.1391 229.264 44.9563 229.789 44.9563C230.092 44.9563 230.374 45.0249 230.637 45.1848C230.899 45.3447 231.101 45.5731 231.283 45.8929L232.352 45.1848C232.13 44.6822 231.787 44.2939 231.343 44.0198C230.899 43.7456 230.374 43.6086 229.789 43.6086C229.163 43.6086 228.598 43.7456 228.114 44.0426C227.629 44.3396 227.246 44.7508 226.963 45.2762C226.681 45.8016 226.56 46.3955 226.56 47.058C226.56 47.7204 226.701 48.3144 226.963 48.8398C227.246 49.3652 227.629 49.7764 228.114 50.0733C228.659 50.3703 229.224 50.5073 229.829 50.5073ZM222.442 50.553C223.128 50.553 223.714 50.4388 224.178 50.2104C224.662 49.9819 225.005 49.6621 225.248 49.2509C225.49 48.8626 225.591 48.4057 225.591 47.926C225.591 47.3549 225.45 46.8981 225.187 46.5554C224.925 46.2127 224.602 45.9615 224.239 45.8016C223.875 45.6417 223.391 45.4817 222.805 45.3218C222.382 45.2076 222.039 45.0934 221.796 45.002C221.554 44.9107 221.352 44.7736 221.191 44.6137C221.029 44.4538 220.949 44.2482 220.949 43.9969C220.949 43.6314 221.09 43.3344 221.372 43.1289C221.655 42.9004 222.079 42.809 222.644 42.809C222.987 42.809 223.35 42.8776 223.734 42.9918C224.097 43.106 224.461 43.2888 224.804 43.5172L225.268 42.238C224.925 41.9867 224.541 41.7811 224.077 41.6669C223.613 41.5298 223.149 41.4613 222.664 41.4613C221.978 41.4613 221.393 41.5755 220.928 41.8268C220.464 42.0552 220.101 42.375 219.859 42.7862C219.616 43.1974 219.516 43.6314 219.516 44.1111C219.516 44.6822 219.657 45.1619 219.919 45.5046C220.182 45.8472 220.505 46.0985 220.868 46.2584C221.231 46.4183 221.716 46.5782 222.321 46.7382C222.745 46.8524 223.088 46.9666 223.33 47.058C223.572 47.1493 223.774 47.2864 223.936 47.4463C224.097 47.6062 224.178 47.8118 224.178 48.0631C224.178 48.4057 224.037 48.6799 223.754 48.9083C223.472 49.1139 223.027 49.2281 222.442 49.2281C221.978 49.2281 221.514 49.1367 221.049 48.954C220.585 48.7712 220.182 48.5428 219.879 48.2458L219.374 49.5251C219.697 49.8449 220.141 50.0962 220.706 50.3018C221.251 50.4617 221.837 50.553 222.442 50.553ZM213.218 50.4388H214.611V41.0501H213.218V50.4388ZM208.516 49.3652C208.152 49.3652 207.87 49.2738 207.668 49.1139C207.466 48.954 207.365 48.7255 207.365 48.4286C207.365 47.8346 207.769 47.5377 208.576 47.5377H210.009V48.3144C209.888 48.657 209.706 48.9083 209.424 49.091C209.182 49.2738 208.859 49.3652 208.516 49.3652ZM208.697 43.5857C208.213 43.5857 207.749 43.6543 207.305 43.7913C206.861 43.9284 206.497 44.134 206.174 44.4081L206.719 45.5503C206.941 45.3447 207.224 45.1848 207.547 45.0477C207.87 44.9335 208.193 44.865 208.536 44.865C209.02 44.865 209.404 45.002 209.646 45.2533C209.888 45.5046 210.029 45.8701 210.029 46.3498V46.4412H208.495C207.648 46.4412 207.002 46.6239 206.618 46.9894C206.215 47.3549 206.013 47.8346 206.013 48.4514C206.013 48.8398 206.114 49.1824 206.295 49.5022C206.477 49.7992 206.739 50.0505 207.062 50.2332C207.405 50.416 207.789 50.4845 208.233 50.4845C208.677 50.4845 209.061 50.416 209.383 50.2561C209.706 50.0962 209.949 49.8677 210.11 49.5708V50.3931H211.422V46.4412C211.422 45.4818 211.18 44.7508 210.716 44.2939C210.251 43.837 209.585 43.5857 208.697 43.5857ZM202.117 43.5857C201.673 43.5857 201.29 43.6771 200.927 43.837C200.583 43.9969 200.281 44.2253 200.059 44.5452V43.6771H198.727V50.4388H200.119V47.0123C200.119 46.3498 200.261 45.8472 200.563 45.5046C200.866 45.1619 201.27 44.9792 201.774 44.9792C202.239 44.9792 202.582 45.1391 202.824 45.4361C203.066 45.733 203.187 46.1899 203.187 46.761V50.4388H204.58V46.5782C204.58 45.596 204.358 44.865 203.894 44.3624C203.47 43.837 202.864 43.5857 202.117 43.5857ZM194.125 49.1596C193.62 49.1596 193.196 48.9768 192.853 48.5885C192.53 48.2001 192.349 47.6976 192.349 47.058C192.349 46.4183 192.51 45.9158 192.853 45.5274C193.176 45.1391 193.6 44.9563 194.125 44.9563C194.629 44.9563 195.073 45.1391 195.396 45.5274C195.739 45.9158 195.901 46.4183 195.901 47.058C195.901 47.6976 195.739 48.2001 195.396 48.5885C195.053 48.9768 194.629 49.1596 194.125 49.1596ZM194.125 50.5073C194.73 50.5073 195.275 50.3703 195.76 50.0733C196.244 49.7764 196.628 49.3652 196.89 48.8398C197.152 48.3144 197.294 47.7204 197.294 47.058C197.294 46.3955 197.152 45.8016 196.89 45.2762C196.628 44.7508 196.244 44.3396 195.76 44.0426C195.275 43.7456 194.73 43.6086 194.125 43.6086C193.519 43.6086 192.974 43.7456 192.49 44.0426C192.005 44.3396 191.622 44.7508 191.36 45.2762C191.097 45.8016 190.956 46.3955 190.956 47.058C190.956 47.7204 191.097 48.3144 191.36 48.8398C191.622 49.3652 192.005 49.7764 192.49 50.0733C192.974 50.3703 193.519 50.5073 194.125 50.5073ZM188.857 42.5578C189.119 42.5578 189.341 42.4664 189.503 42.2836C189.664 42.1009 189.745 41.8496 189.745 41.5755C189.745 41.3242 189.664 41.0958 189.483 40.913C189.321 40.7303 189.099 40.6617 188.837 40.6617C188.574 40.6617 188.372 40.7531 188.191 40.9359C188.029 41.1186 187.928 41.3471 187.928 41.6212C187.928 41.8953 188.009 42.1237 188.191 42.3065C188.393 42.4664 188.594 42.5578 188.857 42.5578ZM188.15 50.4388H189.543V43.6771H188.15V50.4388ZM186.616 48.9311C186.415 49.1139 186.152 49.2053 185.829 49.2053C185.567 49.2053 185.365 49.1139 185.224 48.954C185.083 48.7712 185.002 48.52 185.002 48.2001V44.9792H186.596V43.7228H185.002V42.1694H183.609V43.7228H182.62V44.9792H183.609V48.223C183.609 48.954 183.791 49.5251 184.154 49.9134C184.517 50.3018 185.022 50.4845 185.668 50.4845C185.93 50.4845 186.172 50.4388 186.415 50.3703C186.657 50.3018 186.859 50.1875 187.02 50.0276L186.616 48.9311ZM178.745 49.3652C178.382 49.3652 178.099 49.2738 177.897 49.1139C177.695 48.954 177.594 48.7255 177.594 48.4286C177.594 47.8346 177.998 47.5377 178.805 47.5377H180.239V48.3144C180.117 48.657 179.936 48.9083 179.653 49.091C179.411 49.2738 179.088 49.3652 178.745 49.3652ZM178.927 43.5857C178.442 43.5857 177.978 43.6543 177.534 43.7913C177.09 43.9284 176.727 44.134 176.404 44.4081L176.949 45.5503C177.171 45.3447 177.453 45.1848 177.776 45.0477C178.099 44.9335 178.422 44.865 178.765 44.865C179.25 44.865 179.633 45.002 179.875 45.2533C180.117 45.5046 180.259 45.8701 180.259 46.3498V46.4412H178.725C177.877 46.4412 177.231 46.6239 176.848 46.9894C176.444 47.3549 176.242 47.8346 176.242 48.4514C176.242 48.8398 176.343 49.1824 176.525 49.5022C176.706 49.7992 176.969 50.0505 177.292 50.2332C177.635 50.416 178.018 50.4845 178.462 50.4845C178.906 50.4845 179.29 50.416 179.613 50.2561C179.936 50.0962 180.178 49.8677 180.339 49.5708V50.3931H181.651V46.4412C181.651 45.4818 181.409 44.7508 180.945 44.2939C180.481 43.837 179.815 43.5857 178.927 43.5857ZM172.347 43.5857C171.903 43.5857 171.519 43.6771 171.156 43.837C170.813 43.9969 170.51 44.2253 170.288 44.5452V43.6771H168.956V50.4388H170.349V47.0123C170.349 46.3498 170.49 45.8472 170.793 45.5046C171.095 45.1619 171.499 44.9792 172.004 44.9792C172.468 44.9792 172.811 45.1391 173.053 45.4361C173.295 45.733 173.417 46.1899 173.417 46.761V50.4388H174.809V46.5782C174.809 45.596 174.587 44.865 174.123 44.3624C173.699 43.837 173.094 43.5857 172.347 43.5857ZM165.626 44.6594V43.6771H164.294V50.4388H165.686V47.1722C165.686 46.4869 165.848 45.9843 166.15 45.6188C166.453 45.2533 166.877 45.0706 167.422 45.0706C167.523 45.0706 167.624 45.0934 167.745 45.1163V43.6086C166.736 43.5857 166.029 43.9512 165.626 44.6594ZM159.873 44.865C160.338 44.865 160.701 45.0249 161.004 45.3218C161.306 45.6188 161.488 46.03 161.549 46.5097H158.158C158.218 46.0072 158.42 45.6188 158.723 45.3218C159.046 45.002 159.429 44.865 159.873 44.865ZM162.881 47.0808C162.881 46.3955 162.76 45.7787 162.497 45.2533C162.235 44.7279 161.892 44.3167 161.428 44.0198C160.963 43.7228 160.459 43.5857 159.873 43.5857C159.288 43.5857 158.763 43.7228 158.279 44.0198C157.815 44.3167 157.451 44.7279 157.169 45.2533C156.906 45.7787 156.765 46.3726 156.765 47.0351C156.765 47.6976 156.906 48.2915 157.169 48.8169C157.431 49.3423 157.835 49.7535 158.319 50.0505C158.824 50.3474 159.389 50.4845 160.055 50.4845C160.56 50.4845 161.024 50.3931 161.448 50.2104C161.851 50.0276 162.194 49.7535 162.457 49.388L161.71 48.4057C161.286 48.8854 160.741 49.1367 160.095 49.1367C159.591 49.1367 159.147 48.9997 158.804 48.7027C158.461 48.4057 158.239 48.0174 158.158 47.5148H162.84C162.881 47.3549 162.881 47.195 162.881 47.0808ZM155.857 48.9311C155.655 49.1139 155.393 49.2053 155.07 49.2053C154.807 49.2053 154.605 49.1139 154.464 48.954C154.323 48.7712 154.242 48.52 154.242 48.2001V44.9792H155.837V43.7228H154.242V42.1694H152.85V43.7228H151.861V44.9792H152.85V48.223C152.85 48.954 153.031 49.5251 153.394 49.9134C153.758 50.3018 154.262 50.4845 154.908 50.4845C155.171 50.4845 155.413 50.4388 155.655 50.3703C155.897 50.3018 156.099 50.1875 156.261 50.0276L155.857 48.9311ZM148.409 43.5857C147.965 43.5857 147.582 43.6771 147.218 43.837C146.875 43.9969 146.572 44.2253 146.35 44.5452V43.6771H145.018V50.4388H146.411V47.0123C146.411 46.3498 146.552 45.8472 146.855 45.5046C147.158 45.1619 147.561 44.9792 148.066 44.9792C148.53 44.9792 148.873 45.1391 149.116 45.4361C149.358 45.733 149.479 46.1899 149.479 46.761V50.4388H150.872V46.5782C150.872 45.596 150.65 44.865 150.185 44.3624C149.782 43.837 149.176 43.5857 148.409 43.5857ZM141.587 50.4388H143.04V41.5755H141.587V50.4388Z" fill="#012169"/>
<path d="M237.439 27.7779C237.015 27.7779 236.651 27.8464 236.308 28.0063C235.965 28.1434 235.683 28.3718 235.461 28.6459V25.2194H234.068V34.6081H235.461V31.1816C235.461 30.5191 235.602 30.0165 235.905 29.6739C236.207 29.3312 236.611 29.1485 237.116 29.1485C237.58 29.1485 237.923 29.3084 238.165 29.6054C238.407 29.9023 238.528 30.3592 238.528 30.9303V34.6081H239.921V30.7475C239.921 29.7653 239.699 29.0343 239.235 28.5317C238.811 28.0292 238.206 27.7779 237.439 27.7779ZM230.011 34.6995C230.839 34.6995 231.505 34.5167 231.989 34.1284C232.473 33.7401 232.716 33.2375 232.716 32.6207C232.716 32.141 232.615 31.7755 232.393 31.5014C232.171 31.2501 231.908 31.0445 231.606 30.9531C231.303 30.8389 230.899 30.7475 230.435 30.6562C229.95 30.5648 229.607 30.4734 229.385 30.3592C229.163 30.245 229.042 30.0851 229.042 29.811C229.042 29.5825 229.143 29.3998 229.365 29.2627C229.587 29.1256 229.89 29.0571 230.294 29.0571C230.919 29.0571 231.505 29.217 232.009 29.5597L232.554 28.349C232.292 28.1662 231.949 28.0291 231.545 27.9149C231.141 27.8007 230.717 27.755 230.314 27.755C229.506 27.755 228.861 27.9378 228.396 28.3261C227.932 28.7145 227.69 29.217 227.69 29.8566C227.69 30.3364 227.811 30.7247 228.033 30.9988C228.255 31.2729 228.538 31.4557 228.84 31.5699C229.143 31.6841 229.547 31.7755 230.051 31.8669C230.516 31.9583 230.859 32.0496 231.081 32.141C231.303 32.2324 231.404 32.3923 231.404 32.6436C231.404 33.1461 230.98 33.3974 230.152 33.3974C229.789 33.3974 229.426 33.3289 229.042 33.2147C228.659 33.1004 228.336 32.9405 228.073 32.7349L227.528 33.9457C227.811 34.1741 228.174 34.3568 228.639 34.4939C229.042 34.631 229.527 34.6995 230.011 34.6995ZM225.49 26.7499C225.752 26.7499 225.974 26.6585 226.136 26.4758C226.297 26.293 226.378 26.0418 226.378 25.7676C226.378 25.5163 226.297 25.2879 226.116 25.1052C225.954 24.9224 225.732 24.8539 225.47 24.8539C225.207 24.8539 225.006 24.9453 224.824 25.128C224.642 25.3108 224.561 25.5392 224.561 25.8133C224.561 26.0874 224.642 26.3159 224.824 26.4986C225.026 26.6585 225.228 26.7499 225.49 26.7499ZM224.783 34.6081H226.176V27.8692H224.783V34.6081ZM223.229 33.1233C223.028 33.306 222.765 33.3974 222.442 33.3974C222.18 33.3974 221.978 33.306 221.837 33.1461C221.695 32.9634 221.615 32.7121 221.615 32.3923V29.1713H223.209V27.9149H221.615V26.3616H220.222V27.9149H219.233V29.1713H220.222V32.438C220.222 33.169 220.404 33.7401 220.767 34.1284C221.13 34.5167 221.635 34.6995 222.281 34.6995C222.543 34.6995 222.785 34.6538 223.028 34.5853C223.27 34.5167 223.472 34.4025 223.633 34.2426L223.229 33.1233ZM217.457 26.7499C217.719 26.7499 217.941 26.6585 218.103 26.4758C218.264 26.293 218.345 26.0418 218.345 25.7676C218.345 25.5163 218.264 25.2879 218.083 25.1052C217.921 24.9224 217.699 24.8539 217.437 24.8539C217.174 24.8539 216.972 24.9453 216.791 25.128C216.629 25.3108 216.528 25.5392 216.528 25.8133C216.528 26.0874 216.609 26.3159 216.791 26.4986C216.993 26.6585 217.215 26.7499 217.457 26.7499ZM216.75 34.6081H218.143V27.8692H216.75V34.6081ZM213.44 28.8515V27.8692H212.108V34.631H213.501V31.3643C213.501 30.679 213.662 30.1765 213.965 29.811C214.268 29.4455 214.692 29.2627 215.237 29.2627C215.338 29.2627 215.439 29.2856 215.56 29.3084V27.8007C214.55 27.7779 213.844 28.1434 213.44 28.8515ZM207.385 33.3289H205.044V30.7704H207.385C208.516 30.7704 209.081 31.2044 209.081 32.0496C209.081 32.8949 208.516 33.3289 207.385 33.3289ZM207.103 27.0469C207.607 27.0469 207.991 27.1611 208.273 27.3667C208.536 27.5723 208.677 27.8692 208.677 28.2804C208.677 28.6688 208.536 28.9886 208.273 29.1942C208.011 29.3998 207.607 29.514 207.103 29.514H205.044V27.0697H207.103V27.0469ZM209.141 30.0165C209.464 29.8338 209.706 29.5597 209.888 29.2399C210.07 28.8972 210.15 28.5089 210.15 28.0748C210.15 27.3667 209.908 26.7956 209.404 26.3844C208.899 25.9732 208.193 25.7676 207.264 25.7676H203.591V34.631H207.486C208.475 34.631 209.242 34.4254 209.767 34.0142C210.292 33.603 210.554 33.0091 210.554 32.2324C210.554 31.6841 210.433 31.2044 210.171 30.8389C209.908 30.4277 209.565 30.1765 209.141 30.0165ZM198.343 26.4072C198.626 26.4072 198.868 26.4986 199.11 26.6814L199.494 25.4935C199.191 25.2422 198.767 25.128 198.222 25.128C197.536 25.128 197.011 25.3336 196.648 25.7448C196.284 26.156 196.083 26.7271 196.083 27.4581V27.8921H195.094V29.1485H196.083V34.5853H197.475V29.1485H199.07V27.8921H197.435V27.4809C197.455 26.7727 197.758 26.4072 198.343 26.4072ZM191.339 33.3517C190.835 33.3517 190.411 33.169 190.068 32.7806C189.745 32.3923 189.563 31.8897 189.563 31.2501C189.563 30.6105 189.725 30.1079 190.068 29.7196C190.391 29.3312 190.815 29.1485 191.339 29.1485C191.844 29.1485 192.288 29.3312 192.611 29.7196C192.954 30.1079 193.116 30.6105 193.116 31.2501C193.116 31.8897 192.954 32.3923 192.611 32.7806C192.268 33.169 191.844 33.3517 191.339 33.3517ZM191.339 34.6995C191.945 34.6995 192.49 34.5624 192.974 34.2655C193.459 33.9685 193.842 33.5573 194.105 33.0319C194.367 32.5065 194.508 31.9126 194.508 31.2501C194.508 30.5876 194.367 29.9937 194.105 29.4683C193.842 28.9429 193.459 28.5317 192.974 28.2347C192.49 27.9378 191.945 27.8007 191.339 27.8007C190.734 27.8007 190.189 27.9378 189.705 28.2347C189.22 28.5317 188.837 28.9429 188.574 29.4683C188.312 29.9937 188.171 30.5876 188.171 31.2501C188.171 31.9126 188.312 32.5065 188.574 33.0319C188.837 33.5573 189.22 33.9685 189.705 34.2655C190.189 34.5624 190.734 34.6995 191.339 34.6995ZM181.995 34.6081H183.387V25.2194H181.995V34.6081ZM179.472 26.7499C179.734 26.7499 179.956 26.6585 180.117 26.4758C180.279 26.293 180.36 26.0418 180.36 25.7676C180.36 25.5163 180.279 25.2879 180.097 25.1052C179.936 24.9224 179.714 24.8539 179.451 24.8539C179.189 24.8539 178.987 24.9453 178.806 25.128C178.644 25.3108 178.543 25.5392 178.543 25.8133C178.543 26.0874 178.624 26.3159 178.806 26.4986C179.007 26.6585 179.209 26.7499 179.472 26.7499ZM178.765 34.6081H180.158V27.8692H178.765V34.6081ZM174.95 34.6995C175.536 34.6995 176.04 34.5624 176.484 34.2883C176.928 34.0142 177.272 33.6258 177.494 33.1233L176.424 32.4151C176.262 32.7349 176.04 32.9634 175.778 33.1233C175.516 33.2832 175.233 33.3517 174.93 33.3517C174.406 33.3517 173.961 33.169 173.618 32.7806C173.275 32.3923 173.114 31.8897 173.114 31.2501C173.114 30.6105 173.275 30.1079 173.618 29.7196C173.961 29.3312 174.385 29.1485 174.91 29.1485C175.213 29.1485 175.495 29.217 175.758 29.3769C176.02 29.5368 176.222 29.7653 176.404 30.0851L177.473 29.3769C177.251 28.8744 176.908 28.486 176.464 28.2119C176.02 27.9378 175.495 27.8007 174.91 27.8007C174.284 27.8007 173.719 27.9378 173.235 28.2347C172.75 28.5317 172.367 28.9429 172.084 29.4683C171.802 29.9937 171.681 30.5876 171.681 31.2501C171.681 31.9126 171.822 32.5065 172.084 33.0319C172.367 33.5573 172.75 33.9685 173.235 34.2655C173.78 34.5624 174.325 34.6995 174.95 34.6995ZM167.866 27.7779C167.422 27.7779 167.039 27.8692 166.675 28.0291C166.332 28.1891 166.029 28.4175 165.807 28.7373V27.8692H164.475V34.631H165.868V31.2044C165.868 30.542 166.009 30.0394 166.312 29.6967C166.615 29.3541 167.018 29.1713 167.523 29.1713C167.987 29.1713 168.33 29.3312 168.573 29.6282C168.815 29.9252 168.936 30.382 168.936 30.9531V34.631H170.328V30.7704C170.328 29.7881 170.106 29.0571 169.642 28.5546C169.218 28.0292 168.613 27.7779 167.866 27.7779ZM161.226 27.8692V31.2958C161.226 31.9583 161.084 32.4608 160.782 32.8035C160.479 33.1461 160.095 33.3289 159.591 33.3289C159.147 33.3289 158.804 33.169 158.561 32.872C158.319 32.575 158.198 32.1182 158.198 31.5014V27.8692H156.806V31.7298C156.806 32.7121 157.028 33.4659 157.492 33.9685C157.956 34.4711 158.582 34.7223 159.369 34.7223C159.752 34.7223 160.116 34.631 160.459 34.4711C160.802 34.3112 161.064 34.0827 161.306 33.7629V34.631H162.639V27.8692H161.226ZM152.264 33.3517C151.76 33.3517 151.336 33.169 150.993 32.7806C150.67 32.3923 150.488 31.8897 150.488 31.2501C150.488 30.6105 150.65 30.1079 150.993 29.7196C151.316 29.3312 151.739 29.1485 152.264 29.1485C152.769 29.1485 153.213 29.3312 153.536 29.7196C153.879 30.1079 154.04 30.6105 154.04 31.2501C154.04 31.8897 153.879 32.3923 153.536 32.7806C153.193 33.169 152.789 33.3517 152.264 33.3517ZM152.264 34.6995C152.87 34.6995 153.415 34.5624 153.899 34.2655C154.384 33.9685 154.767 33.5573 155.029 33.0319C155.292 32.5065 155.433 31.9126 155.433 31.2501C155.433 30.5876 155.292 29.9937 155.029 29.4683C154.767 28.9429 154.384 28.5317 153.899 28.2347C153.415 27.9378 152.87 27.8007 152.264 27.8007C151.659 27.8007 151.114 27.9378 150.629 28.2347C150.145 28.5317 149.762 28.9429 149.499 29.4683C149.237 29.9937 149.095 30.5876 149.095 31.2501C149.095 31.9126 149.237 32.5065 149.499 33.0319C149.762 33.5573 150.145 33.9685 150.629 34.2655C151.134 34.5624 151.659 34.6995 152.264 34.6995ZM145.2 34.7452C145.846 34.7452 146.431 34.6081 146.956 34.3568C147.481 34.1056 147.945 33.7401 148.308 33.2603L147.36 32.2552C146.795 32.9634 146.088 33.306 145.261 33.306C144.716 33.306 144.251 33.169 143.828 32.9177C143.404 32.6436 143.081 32.2781 142.839 31.8212C142.596 31.3415 142.475 30.8161 142.475 30.2221C142.475 29.6282 142.596 29.08 142.839 28.6231C143.081 28.1434 143.404 27.7779 143.828 27.5266C144.251 27.2525 144.736 27.1382 145.261 27.1382C146.088 27.1382 146.774 27.4809 147.36 28.1662L148.308 27.1611C147.945 26.6814 147.501 26.3159 146.976 26.0646C146.451 25.8133 145.866 25.6763 145.22 25.6763C144.433 25.6763 143.727 25.8818 143.081 26.2702C142.435 26.6585 141.95 27.2068 141.587 27.8921C141.224 28.5774 141.042 29.3541 141.042 30.2221C141.042 31.0902 141.224 31.8669 141.587 32.5522C141.95 33.2375 142.455 33.7858 143.081 34.1741C143.706 34.5396 144.413 34.7452 145.2 34.7452Z" fill="#012169"/>
</g>
<defs>
<clipPath id="clip0">
<rect width="264" height="58" fill="white"/>
</clipPath>
</defs>
</svg>
