<svg xmlns="http://www.w3.org/2000/svg" width="110.26" height="36.22" viewBox="0 0 110.26 36.22"><defs><style>.a,.d{fill:#6c7ba0;}.a,.c,.d{fill-rule:evenodd;}.a,.b{opacity:0.5;}.c{fill:#b9c4dd;}</style></defs><path class="a" d="M0,36.22H36.22V0H0Z"/><g class="b" transform="translate(2.399 14.708)"><path class="c" d="M33.506,5.785H31.58a.119.119,0,0,0-.1.053A2.011,2.011,0,0,1,29.71,6.914a2.209,2.209,0,0,1-2.125-2.337A2.179,2.179,0,0,1,29.7,2.284a2,2,0,0,1,1.787,1.1l.012.022a.121.121,0,0,0,.1.051h1.929a.119.119,0,0,0,.118-.118.121.121,0,0,0,0-.03L33.637,3.3a4.085,4.085,0,1,0-.022,2.655l0-.01a.115.115,0,0,0,.006-.037.119.119,0,0,0-.118-.119" transform="translate(-17.884 -0.517)"/><path class="c" d="M61.19,5.785H59.264a.119.119,0,0,0-.1.053,2.011,2.011,0,0,1-1.77,1.076,2.209,2.209,0,0,1-2.125-2.337,2.179,2.179,0,0,1,2.115-2.294,2,2,0,0,1,1.787,1.1l.012.022a.12.12,0,0,0,.1.051h1.929a.119.119,0,0,0,.118-.118.1.1,0,0,0,0-.03L61.321,3.3A4.085,4.085,0,1,0,61.3,5.951a.06.06,0,0,0,0-.01.116.116,0,0,0,.007-.037.119.119,0,0,0-.118-.119" transform="translate(-36.998 -0.517)"/><path class="c" d="M5.463,6.047l0-.014L4.732,3.608a.073.073,0,0,0-.071-.054.069.069,0,0,0-.068.052L3.861,6.036l0,.01a.052.052,0,0,0,0,.014.07.07,0,0,0,.07.07H5.393a.07.07,0,0,0,.071-.07A.1.1,0,0,0,5.463,6.047ZM6.047,7.8a.119.119,0,0,0-.11-.073H3.362a.121.121,0,0,0-.11.073l-.363.991h0a.118.118,0,0,1-.108.072H.87a.119.119,0,0,1-.12-.118A.109.109,0,0,1,.759,8.7l0-.005L3.834,1.079l0-.009A.119.119,0,0,1,3.946,1H5.377a.118.118,0,0,1,.106.067l.006.015L8.528,8.689l.006.016a.1.1,0,0,1,.006.036.118.118,0,0,1-.118.118H6.493a.119.119,0,0,1-.11-.072v0Z" transform="translate(-0.75 -0.849)"/><path class="c" d="M83.894,6.047l0-.014-.727-2.425a.073.073,0,0,0-.071-.054.069.069,0,0,0-.068.052l-.732,2.431,0,.01a.053.053,0,0,0,0,.014.07.07,0,0,0,.07.07h1.467a.07.07,0,0,0,.07-.07A.1.1,0,0,0,83.894,6.047ZM84.479,7.8a.119.119,0,0,0-.11-.073H81.793a.121.121,0,0,0-.11.073l-.363.991h0a.119.119,0,0,1-.109.072H79.3a.119.119,0,0,1-.12-.118A.109.109,0,0,1,79.19,8.7l0-.005,3.073-7.614,0-.009A.119.119,0,0,1,82.377,1h1.431a.118.118,0,0,1,.106.067l.006.015L86.96,8.689l.006.016a.1.1,0,0,1,.006.036.118.118,0,0,1-.118.118H84.924a.119.119,0,0,1-.11-.072v0Z" transform="translate(-54.901 -0.849)"/><path class="d" d="M138.82,9.6h.748l.041-5.538h-1.694l-.042,1.054h-1.039l.041-1.9h6.6l.042,1.9h-1.04l-.041-1.054h-1.662L140.732,9.6h.842v.847H138.82Z" transform="translate(-94.707 -2.375)"/><path class="d" d="M159.643,8.008h.613l.042-6.251h-.78V.909H161.5l-.031,2.573a7.682,7.682,0,0,1-.135,1.189h.021a1.863,1.863,0,0,1,1.9-1.312c1.268,0,1.881.8,1.881,2.077,0,.858-.031,1.716-.042,2.573h.707v.847h-2.484V8.008h.613c.01-.785.042-1.58.042-2.366,0-.754-.354-1.312-1.091-1.312a1.482,1.482,0,0,0-1.423,1.632l-.041,2.046h.727v.847h-2.5Z" transform="translate(-110.368 -0.785)"/><path class="d" d="M183.1.508a.8.8,0,1,1-.8.8A.792.792,0,0,1,183.1.508ZM181.79,7.731h.707l.021-3.678h-.82V3.205h1.985l-.021,4.526h.727v.848h-2.6Z" transform="translate(-125.681 -0.508)"/><path class="d" d="M192.589,13.47h.613l.021-3.678h-.759V8.944h1.923a7.337,7.337,0,0,1-.1,1.189h.021a1.863,1.863,0,0,1,1.9-1.312c1.268,0,1.881.8,1.881,2.077,0,.858-.031,1.716-.042,2.573h.707v.847h-2.484V13.47h.613c.01-.785.042-1.58.042-2.366,0-.754-.354-1.312-1.092-1.312a1.482,1.482,0,0,0-1.423,1.632l-.041,2.046h.727v.847h-2.5Z" transform="translate(-133.115 -6.247)"/><path class="d" d="M214.558,8.008h.655l.042-6.251h-.945V.909h2.11l-.042,4.909,1.912-1.467V4.329h-.769V3.482h2.536v.848h-.54L217.583,5.92l2.089,2.087h.613v.847h-2.6V8.008h.634l-1.943-1.881V8.008h.655v.847h-2.474Z" transform="translate(-148.197 -0.785)"/><path class="d" d="M247.235,4.845a4.343,4.343,0,0,1-.187-.661h-.021a3.872,3.872,0,0,1-.2.661l-.8,2.046h1.922Zm-4,4.753h.624l2.64-6.385h1.289L250.227,9.6h.644v.848h-2.66V9.6h.665l-.623-1.8H245.7l-.675,1.8h.748v.848h-2.536Z" transform="translate(-168.167 -2.375)"/><path class="d" d="M269.629,8.008h.613l.041-6.251H269.5V.909h1.985l-.031,2.573a7.675,7.675,0,0,1-.135,1.189h.021a1.863,1.863,0,0,1,1.9-1.312c1.268,0,1.881.8,1.881,2.077,0,.858-.031,1.716-.042,2.573h.707v.847h-2.484V8.008h.613c.01-.785.042-1.58.042-2.366,0-.754-.354-1.312-1.092-1.312a1.482,1.482,0,0,0-1.423,1.632l-.041,2.046h.727v.847h-2.5Z" transform="translate(-186.305 -0.785)"/><path class="d" d="M295.749,11.031v-.1a1.234,1.234,0,0,0-1.278-1.261,1.3,1.3,0,0,0-1.361,1.364Zm.883,3.038a5.22,5.22,0,0,1-1.9.372,2.624,2.624,0,0,1-2.847-2.79,2.565,2.565,0,0,1,2.65-2.831c1.622,0,2.442,1.178,2.442,2.842v.155H293.11a1.706,1.706,0,0,0,1.85,1.715,3.843,3.843,0,0,0,1.735-.413Z" transform="translate(-201.756 -6.247)"/><path class="d" d="M313.3,13.531a1.338,1.338,0,0,0,1.393-1.364v-.216c-1.205.01-2.255.061-2.255.857C312.441,13.212,312.753,13.531,313.3,13.531Zm-1.8-4.226a4.673,4.673,0,0,1,2.141-.486c1.6,0,2.109.785,2.109,2.056,0,.868-.031,1.726-.042,2.594h.727v.848h-1.714a6.908,6.908,0,0,1,.094-1.116H314.8a1.734,1.734,0,0,1-1.8,1.24,1.531,1.531,0,0,1-1.725-1.54c0-1.416,1.445-1.6,2.328-1.643l1.112-.062v-.4c0-.661-.239-1.126-1.195-1.126a2.841,2.841,0,0,0-.977.186v.785h-1.039Z" transform="translate(-215.146 -6.247)"/><path class="d" d="M334.363,4.494a2.054,2.054,0,0,0-1.029-.227,1.779,1.779,0,0,0-1.673,1.984c0,1,.436,1.756,1.309,1.756.935,0,1.393-.765,1.393-2.015Zm1.87,4.361H334.4a6.877,6.877,0,0,1,.1-1.1h-.021a1.814,1.814,0,0,1-1.8,1.219,2.276,2.276,0,0,1-2.255-2.552,2.8,2.8,0,0,1,2.9-3.069,4.914,4.914,0,0,1,1.07.124l.021-1.725h-.987V.909h2.11l-.042,7.1h.727Z" transform="translate(-228.373 -0.785)"/></g></svg>