<svg xmlns="http://www.w3.org/2000/svg" width="77.348" height="51.183" viewBox="0 0 77.348 51.183"><defs><style>.a{opacity:0.5;mix-blend-mode:luminosity;isolation:isolate;}.b{fill:#6eb444;}.c{fill:#ffc313;stroke:#ffc313;stroke-miterlimit:10;stroke-width:2px;}.d{fill:#ec135f;}.e{fill:#fff;}.f{fill:#2395d2;}.g{fill:#6fb544;}.h{fill:#ffc116;}.i{fill:#f26f21;}</style></defs><g class="a" transform="translate(-2.7 -4.1)"><path class="b" d="M250.632,88.3c-.111.111-.222.194-.332.3,0,.111.028.249.028.36a3.02,3.02,0,0,0,.3.166c.138-.222.582-.388.415-.637C250.909,88.438,250.771,88.355,250.632,88.3Z" transform="translate(-179.031 -60.882)"/><path class="c" d="M175.9,74.57a.274.274,0,0,1,.222.028C176.038,74.6,175.983,74.57,175.9,74.57Z" transform="translate(-125.235 -50.946)"/><path class="c" d="M207.7,49.183c.166-.028.332-.055.443-.083a.579.579,0,0,1,.166.111A4.288,4.288,0,0,0,207.7,49.183Z" transform="translate(-148.228 -32.538)"/><path class="d" d="M268.182,131.592l-.886-.692c.3.443-.194.609-.388.858a.829.829,0,0,1-.222-.111c0,.083-.028.166-.028.249l-.083.249-.083.166a2.309,2.309,0,0,0-.111.415c-.028,0-.028,0-.055-.028,0-.083.028-.166.028-.3a3.568,3.568,0,0,1-2.16,1.163,3.254,3.254,0,0,1-.194.554.8.8,0,0,0-.166.692,6.692,6.692,0,0,1,.277,1,.843.843,0,0,1-.028.582c-.222.36-.471.72-.692,1.108a.836.836,0,0,0,.083.969.448.448,0,0,1,.111.471,1.331,1.331,0,0,0,.388,1.025c.194.111.388.166.582.277a.513.513,0,0,0,.526,0,5.161,5.161,0,0,1,.609-.194c.166-.055.332-.083.415-.277.111-.3.249-.609.36-.942.083-.249.111-.5.194-.748.332-.942.665-1.883.969-2.8a1.9,1.9,0,0,0,.138-.665.726.726,0,0,1,.138-.526.454.454,0,0,0,.055-.526.381.381,0,0,1,.028-.5c.111.166.194.277.277.415a.166.166,0,0,0,.111-.028,4.2,4.2,0,0,0,.083-.582,4.587,4.587,0,0,0-.166-.582C268.237,131.98,268.209,131.786,268.182,131.592Z" transform="translate(-188.411 -91.685)"/><path class="e" d="M205.359,139.875a3.028,3.028,0,0,1,1.606-1.135,2.054,2.054,0,0,0,1-.665.734.734,0,0,0,.138-.166,3.379,3.379,0,0,0,.194-.471c-.111-.166-.166-.277-.3-.249a4.261,4.261,0,0,0-.526.222.851.851,0,0,1-.582-.055l-.5.277-.582.111c-.138.028-.249.055-.388.083-.138,0-.277.028-.443.028l-.582.111c-.138,0-.3-.028-.471-.028a4.227,4.227,0,0,1-.3.443l-.526.249c-.332.194-.8.055-1.025.415l-.332.249a2.138,2.138,0,0,0-.415.055c-.222.138-.443.277-.665.388-.194.111-.443-.138-.665.36-.028,0-.028.028-.055.028h-.138c-.138-.083-.222-.277-.332-.111-.415.249-.831.5-1.246.775-.138-.055-.277.083-.443.388h-.526a.818.818,0,0,1-.083-.111.224.224,0,0,0-.36.222,1.561,1.561,0,0,1,.111.332.727.727,0,0,0-.775.72,2.9,2.9,0,0,1-.471.111L195,142.7a1.123,1.123,0,0,0-1.052.665l-.028.028a4.816,4.816,0,0,0-.526.277c-.028-.055-.166-.111-.138-.083.028.111-.277.222-.249.36a3.274,3.274,0,0,1-.775.332,2.539,2.539,0,0,1,.194.36.842.842,0,0,0-.194.138l-.332.166c-.222-.166-.028-.471-.166-.194l-.5.277c-.166.111-.388.222-.526.3-.111.388-.471.083-.609.443a1.843,1.843,0,0,0,.582,1,2.584,2.584,0,0,1,.8,1.135c.194.443.5.859.72,1.3a1.808,1.808,0,0,1,.166.665c0,.055-.083.111-.166.138v.111c0,.028-.055.083-.083.111a.027.027,0,0,0,.028.028c.055.249.443.36.249.692-.028.028.028.138.028.166.083-.055.138-.111.194-.111.028,0,.083.083.111.111a.382.382,0,0,0,.111.083.684.684,0,0,1,.249.111c.277.249.415.249.748.083a.94.94,0,0,1,.526-.138.942.942,0,0,0,.72-.166.948.948,0,0,1,.5-.111,7.823,7.823,0,0,1,.8.055c-.055-.055-.111-.111-.194-.028-.194-.166-.111-.3-.138-.471.166-.055.277-.332.471-.166.083-.138.554-.028.249-.3-.692-.471.332-.443-.028-.886a1.649,1.649,0,0,0,.388-.582v-.388c.138-.028.249-.055.194-.388-.111.055-.249.111-.36.166-.582-.249.332-.415-.249-.748a1.471,1.471,0,0,1,.637-.5,6.328,6.328,0,0,0,.859-.443l.194.277c-.166.3-.471,0-.637.222.332.36-.111.415-.055.914.332.665.831.166,1.108.72-.028.222-.526.194-.277.526-.3.055-.415.443-.222.8.222-.111.554-.055.665-.332a1.347,1.347,0,0,1,.332.028c.028-.055.055-.083.083-.138.083-.138.138-.277.222-.443.028-.028.055-.028.083-.055.028,0,.028-.028.055-.028.194-.194.415-.388.582-.582-.055-.194.166-.166.083-.443-.166-.194-.443.222-.582-.443.028-.222.249-.332.415-.415-.249-.471.471-.36.471-.775.222-.222.443-.415.637-.637a.394.394,0,0,0,.166.055c.222.277.083.665.5.72l.332-.166c.028-.249-.055-.332-.028-.582l.332-.5a.486.486,0,0,0,.138.111c0-.028,0-.028.028-.055a1.642,1.642,0,0,1,.471-.415l-.028-.055a2.08,2.08,0,0,0,.665-.249c0,.028,0,.028.028.055.138-.055.3-.111.443-.166a.6.6,0,0,0,.222-.138c.028-.055.028-.083.055-.138,0-.028-.055-.083-.111-.166.028-.111.083-.3.111-.471a1.677,1.677,0,0,0,0-.526.207.207,0,0,0-.028-.138c-.249-.166-.222-.471-.277-.692a.485.485,0,0,0-.194-.388c-.138-.083-.083-.471.028-.554.028-.028.055-.055.083-.055.028-.083.055-.194.111-.222.194-.138.36-.3.526-.443l.332-.249C205.193,139.986,205.3,139.958,205.359,139.875Zm-7.283,1.579a1.2,1.2,0,0,1,.111.194A1.587,1.587,0,0,0,198.076,141.454Zm2.769-1.246a.549.549,0,0,1,.443-.028A2.239,2.239,0,0,0,200.845,140.208Zm1.357-.277a1.672,1.672,0,0,0,.5-.249A.776.776,0,0,1,202.2,139.931Z" transform="translate(-135.502 -96.229)"/><path class="f" d="M201.612,93.557a2.929,2.929,0,0,0-.665.415c-.222.111-.471.194-.665.3a2.16,2.16,0,0,0-.609-.083,2.685,2.685,0,0,0-1.855.886l-.028.028a2.584,2.584,0,0,0-1.357.637c-.055.028-.083.083-.111.083,0,0-.3.138-.415.194l-.775.222-.194.111a2.5,2.5,0,0,0-.526.111h-.332l-1.108.748-.582.111-.249.277-.111.028-.3-.083-.72.775a2.824,2.824,0,0,0-1.218.526l-.692.5-.443.222a2.654,2.654,0,0,0-1.274,1.329l-.083.055a2.233,2.233,0,0,0-1.412.831,2.159,2.159,0,0,0-1.191.554,1.956,1.956,0,0,0-.692,1c-.111.111-.249.222-.388.36-.028,0-.083.028-.111.028l-.249-.415-.166.166-.554.277-.942.166c-.083.3-.138.582-.222.886a7.155,7.155,0,0,0-.222.72c-.055.3-.028.609-.055.914a1.384,1.384,0,0,0,.277.859,8.7,8.7,0,0,1,.775,1.274,6.716,6.716,0,0,0,.72,1.219.8.8,0,0,1,.194.665,3.1,3.1,0,0,0,.083,1,4.4,4.4,0,0,0,.194.554c.028.138.028.277.055.415a7.356,7.356,0,0,0,1.551-.831c.277-.166.554-.055.775-.443.138-.111.249.083.332-.055a2.266,2.266,0,0,0,.249-.222l.443-.388.111-.388c.028-.055.083-.083.138-.138a3.984,3.984,0,0,0,.748-.942c.028-.028.083-.055.111-.111.083-.083.194-.166.249-.222l.914-.222.3-.831.166-.083a4.156,4.156,0,0,0,1.855-1.385,2.881,2.881,0,0,0,.858-.665,4.844,4.844,0,0,0,1.44-.858c.166-.111.388-.277.5-.36h.692l.415-.443a1.613,1.613,0,0,0,.415-.3c.083-.028.138-.055.222-.083l.5-.083a2.138,2.138,0,0,1,.415-.055l.443-.055.5-.3a2.153,2.153,0,0,0,1.108-.582,2.448,2.448,0,0,0,1.135-.8h.028a2.118,2.118,0,0,0,1.108-.3l.277-.083a.892.892,0,0,1-.222-.388,3.847,3.847,0,0,1-.166-.526c-.028-.166-.028-.332-.055-.5,0-.083.055-.194,0-.249-.138-.166-.083-.277.028-.415s.111-.194-.055-.3c-.443-.3-.443-.443-.277-.942a10.622,10.622,0,0,1,.5-.969c.138-.3.249-.637.388-.969.028-.055.083-.138.138-.138a2.127,2.127,0,0,0,.914-.72c.443-.5.8-1.025,1.246-1.5a5.843,5.843,0,0,1,.637-.526,4.441,4.441,0,0,1,.166-.831Z" transform="translate(-128.986 -63.702)"/><path class="g" d="M200.4,65.582a.509.509,0,0,0-.443.055c-.775.388-1,.166-1.329-.277-.166-.222-.332-.415-.637-.388a1.635,1.635,0,0,1,.222-.111,2.014,2.014,0,0,0,.249-.222.662.662,0,0,0-.249-.055,1.633,1.633,0,0,1,.222-.111,1.054,1.054,0,0,0-.249-.36c-.138-.138-.3-.222-.443-.36a1.491,1.491,0,0,1-.249-.332l-.222-.222a7.678,7.678,0,0,0-.72.277c-.388.083-.748.194-1.135.277-.249.083-.526.138-.775.222l-.831.166-1.108.332c-.277.028-.554.083-.831.138-.222.194-.5.415-.748.637l-1.052.5c-.692.36-1.44.36-1.994.886-.222.138-.471.3-.692.443-.249.083-.5.166-.775.249-.443.249-.886.5-1.3.775-.388.222-.72.028-1.3.72-.028.028-.055.028-.111.055a1.028,1.028,0,0,0-.249.055c-.194-.055-.277-.249-.526-.028-.831.5-1.634,1.025-2.437,1.523-.222-.028-.471.222-.914.72-.3.083-.582.166-.886.249a.818.818,0,0,1-.083-.111c-.194-.111-.692.194-.692.443a1.375,1.375,0,0,1,.083.36,2.283,2.283,0,0,0-1.579,1.3c-.277.138-.249-.471-.526-.36-.415.222-.526-.138-.914.083-.111.055-1.163.526-1.274.554a10.151,10.151,0,0,0,1.3,1.911,7.346,7.346,0,0,1,.914,1.163,1.352,1.352,0,0,1,.083.194,4.662,4.662,0,0,0,.166.665,2.809,2.809,0,0,0,.249.36c.083.194.166.36.249.554.443-.277.914-.554,1.357-.886l.166.277c-.388.471-.775.249-1.163.637.249.194.055.388-.166.637,0,.055-.055.111-.111.166a.027.027,0,0,1-.028.028c.028.111.028.222-.083.277l.166.415c.415.111,1.08-.332,1.274.138-.138.332-.969.526-.72.858l-.166.083v.166a1.075,1.075,0,0,1-.166.526l-.083.249a2.373,2.373,0,0,0,.942-.637c.194-.055.36-.083.554-.138a2.011,2.011,0,0,0,.222-.249c.194-.249.388-.471.554-.72a1.172,1.172,0,0,0,.194-.138c.028-.028.055-.028.083-.055.415-.36.914-.748,1.246-1.052-.028-.249.36-.332.36-.637-.194-.194-.831.526-.8-.277a2.829,2.829,0,0,1,.914-.775c-.194-.5,1-.72,1.163-1.219.443-.388.914-.775,1.357-1.163h.249c.249.249-.138.831.526.72.222-.138.415-.249.637-.388.138-.332.028-.388.222-.748.277-.249.526-.526.8-.775.166.111.388.055.388.249a5.675,5.675,0,0,0,.665-.138l1.108-.609c.028-.415-.5.028-.72,0a1.792,1.792,0,0,1-.222-.249,5.225,5.225,0,0,0,1.246-.609c0,.692,1-.249,1.5-.388a2.475,2.475,0,0,0,.249-.443c.332.111.886-.332,1.135-.388.166-.055.332-.111.526-.166.194-.083.388-.194.582-.277.249-.138.5-.3.748-.443a1.157,1.157,0,0,0,.637-.443c.194-.028.36-.055.554-.083a1.429,1.429,0,0,1,.3-.055,1.68,1.68,0,0,1,.277-.194c.166-.028.36-.055.554-.083a.4.4,0,0,1,.055.194c.332.249.692-.388,1.135-.3,0-.166.028-.36.028-.526.332-.166.831-.194.914-.637.083-.028.138-.055.222-.083a.991.991,0,0,0,.859-.5,4.821,4.821,0,0,0,.332-.388c.194-.194.443-.36.415-.5a1.578,1.578,0,0,0,.028-.36l.194-.194a1.872,1.872,0,0,0,1.052-.748C200.846,65.554,200.652,65.692,200.4,65.582ZM180.131,71.2a.579.579,0,0,0,.111.166A1.643,1.643,0,0,1,180.131,71.2Z" transform="translate(-123.789 -42.733)"/><path class="h" d="M175.032,25.8a.394.394,0,0,1-.055-.166l-.083-.914a1.579,1.579,0,0,0-.028-.36.4.4,0,0,1-.055-.194.816.816,0,0,1-.138-.36.888.888,0,0,0-.443-.388c-.028,0-.083-.055-.111-.083l-.055-.028c-.028-.028-.055-.028-.083-.055s-.055-.055-.055-.028a.514.514,0,0,1-.055-.194h0c-.028-.028-.055-.055-.055-.083a4.281,4.281,0,0,1-.166-.637h.083c-.083-.083-.166-.138-.194-.222-.138-.249-.277-.526-.388-.775s-.249-.5-.36-.748v-.028c-.111-.194-.222-.415-.332-.609a3.845,3.845,0,0,0-.5-.858,3.57,3.57,0,0,1-.526-.886.862.862,0,0,1,.111-.166c.138.194.3.415.443.637a.086.086,0,0,0,.028.055c.055.471.443.637.8.914a4.474,4.474,0,0,0,.415-1.357,1.991,1.991,0,0,0-.111-.526c0-.028,0-.028-.028-.055a1.7,1.7,0,0,1-.138-.332h0c-.028-.083-.083-.166-.111-.249l-.249.028c-.083,0-.166.028-.222.028a.954.954,0,0,1-.249.028.983.983,0,0,0-.415.028c-.166.028-.194.028-.194,0l-.194-.138h-.083l-.028.028v-.028c-.028,0-.028-.028-.055-.028l-.277-.055c-.083-.028-.166-.028-.277-.055a.468.468,0,0,0-.415.055h-.222c0,.028-.028.028-.028.055-.055.083-.249.111-.388.138l-.055.055a.1.1,0,0,0-.083.028l-.138.028-.055.028a4.819,4.819,0,0,1-.5.3,4.684,4.684,0,0,0-1.5,1.219,1.569,1.569,0,0,1-.637.332,1.356,1.356,0,0,0-.914.609c-.5.3-1,.637-1.468.942-.249.166-.5.3-.748.443-.194.111-.36.222-.554.332a1.176,1.176,0,0,1-.5.222,1.673,1.673,0,0,0-.748.3l-.083.055-.028.111c0,.028-.028.028-.055.055a.779.779,0,0,0-.222.526c-.028,0-.028.028-.055.028a.909.909,0,0,0-.637.637c-.914.692-1.772,1.357-2.6,1.994a2.042,2.042,0,0,0-1.385.858c-.138.166-.3.332-.443.471l-.5.388c-.36.277-.72.582-1.052.858l-.831.526a3.745,3.745,0,0,0-1.634,1.939l-.415.415L150.44,32c-.332.36-.692.72-1.052,1.052l-.055.083a2.531,2.531,0,0,1-.277.36,1.86,1.86,0,0,0-.526.858c-.222.277-.443.526-.637.775-.249.249-.471.471-.692.72.028-.028.083-.028.111-.055.194-.083.388-.111.554-.194a1.463,1.463,0,0,1,.886-.277.3.3,0,0,0,.166-.055c.111-.277.388-.277.609-.3.415-.055.859-.083,1.274-.111a.989.989,0,0,1,1.108.582c.083.166.138.3.222.471a.583.583,0,0,0,.72.443c.415-.055.859-.111,1.274-.166.055,0,.111-.083.138-.083.111.055.222.083.36.138.083.3.194.415.5.388a.3.3,0,0,0,.055.222c.3.249.138.554.138.831a1.3,1.3,0,0,1-.249.775c-.055.055-.111.138.028.222.055.028.055.138.055.222l.083.055c.277-.277.526-.5.748-.692l.194-.166-.111-.249-.083-.166h0l.831-1.052a2.291,2.291,0,0,0,1.3-1.135,1.254,1.254,0,0,1,.582-.332l.194.222.249-.222a4.946,4.946,0,0,0,.859-1,4.315,4.315,0,0,1,.443-.554,1.246,1.246,0,0,0,.166.249c.36.249.914-.083,1.3-.5l.083-.111v-.5c.332-.277.471-.249.637-.222a.969.969,0,0,0,.554-.028,3.221,3.221,0,0,0,1.412-1.191,3.517,3.517,0,0,1,.277-.332,1.106,1.106,0,0,0,.526-.055c.083-.028.166-.028.277-.055a3.321,3.321,0,0,0,1.468-.665,6.524,6.524,0,0,1,1.108-.609l.138-.055.055-.138a.907.907,0,0,1,.748-.582,2.287,2.287,0,0,0,1.3-.775c.028-.028.055-.028.083-.055a1.019,1.019,0,0,1-.471.415l-.471.277.277.194c-.055.028-.083.055-.138.083a1.589,1.589,0,0,0-.554.582c-.055.138-.111.3-.166.471-.166.194-.3.36-.471.554l-.055.055-.028.083a3.2,3.2,0,0,1-.222.415c-.222.36-.471.72-.3,1.052a.712.712,0,0,0,.609.332h.111l.111-.083c.222-.138.443-.3.665-.443l.332-.222.028-.138c.028-.083.028-.166.055-.249.028-.138.055-.249.083-.388v-.5c.166-.055.36-.138.637-.222l.443-.277-.194-.332c.249-.222.526-.443.775-.665a6.407,6.407,0,0,0,1.855-1.966A4.286,4.286,0,0,0,175.032,25.8Z" transform="translate(-104.483 -9.263)"/><path class="i" d="M147.056,9.222a3.147,3.147,0,0,0-1.689-.554c-.388,0-.582-.222-.637-.609a.255.255,0,0,0-.277-.249.885.885,0,0,1-.388-.083,1.7,1.7,0,0,0-1.219-.194.749.749,0,0,1-.415-.083,2.1,2.1,0,0,0-.443-.166c-.3,0-.332-.222-.415-.415-.055-.138-.111-.166-.194-.083-.194.166-.3.138-.443-.055s.028-.277.166-.332a1.3,1.3,0,0,0,.249-.166h0l-.609-.831-.748,1.357-.5.36-.055.055c-.277.277-.526.554-.775.831-.222.222-.443.443-.665.692l-.443.5c-.083.083-.138.166-.222.249-.166.166-.332.36-.5.554l-1.191,1.385-.415.443a2.488,2.488,0,0,0-.748,1.163l-.72.969.138.388c0,.028-.028.055-.028.083l-.249.5.332.443a.144.144,0,0,1,.055.111,1.57,1.57,0,0,0,.222.36l.388.582a1.341,1.341,0,0,0-.194.5l-.083.111-.692,1.052-.222.36c-.775.055-1.052.8-1.246,1.3-.028.111-.083.194-.111.3l-.138.36a1.976,1.976,0,0,0-.775,1c-.055.138-.138.3-.194.415l-.36.554c-.111.111-.194.249-.3.36a2.941,2.941,0,0,1-.249.3L130,23.1l-.055.083c-.083.138-.166.249-.249.388a2.531,2.531,0,0,0-.471.5c0,.028-.028.028-.028.055l-.138.083-.111.194c-.194.36-.36.692-.526,1.025l-.332.36-.055.222-.028.055a.936.936,0,0,1-.222.277l-.055.083-.055.083a1.484,1.484,0,0,0-.138.3l-.111.055-.222.72h0a2.533,2.533,0,0,0,.471.249.937.937,0,0,0,.969,0,3.889,3.889,0,0,1,1.135-.36,1.979,1.979,0,0,1,.554-.055,3.742,3.742,0,0,1,1.662.249c.138-.194.277-.388.388-.582h-.222l.969-1,.332-.609c.277-.194.692-.471.748-.8v-.138a2.042,2.042,0,0,0,.692-1.246l.055-.194h0a1.726,1.726,0,0,0,.3-.471h.028a1.566,1.566,0,0,0,.748-.72.1.1,0,0,1,.028-.055l1.108-1.468h-.194a1.549,1.549,0,0,0,.471-1.025V19.3a.027.027,0,0,1,.028-.028.382.382,0,0,0,.083-.111.6.6,0,0,1,.111-.138L137.89,19l.249-.277a1.311,1.311,0,0,0,.415-.886,1.225,1.225,0,0,0,.36-.665l.028-.083v-.138c.055,0,.111.028.194.028a1.46,1.46,0,0,0,1.191-.858c.028-.028.055-.083.083-.111l.138-.083.138-.249a2.243,2.243,0,0,1,.443-.471,3.024,3.024,0,0,0,1.025-1.468l.194-.111.055-.055a2.425,2.425,0,0,0,.526-.582l.249-.332a1.792,1.792,0,0,0,.692-.748l.055-.111h.166a1.747,1.747,0,0,0,1.246-.886l.083.028.415-.3a1.607,1.607,0,0,0,.5-.637.334.334,0,0,0,.138-.138l.665-.609A.137.137,0,0,1,147.056,9.222Z" transform="translate(-90.022 -0.94)"/><path class="d" d="M121.276,4.1a1.39,1.39,0,0,0-.332.055c-.277.055-.582-.028-.831.166h-.083c-.609.055-1.274,0-1.717.526,0,.028-.055.055-.083.055-.194-.138-.36.083-.554.055a.312.312,0,0,0-.222.138,1,1,0,0,1-1.219.194c-.5-.055-.942.166-1.385-.028a2.082,2.082,0,0,1-.443-.415c-.36-.055-.415.249-.5.5a1.653,1.653,0,0,1-1.246,1.191.971.971,0,0,0-.471.249,2.909,2.909,0,0,0-.055.36c-.083.111-.138.222-.222.332-.028.083-.138.388-.166.471a4.068,4.068,0,0,1-.277.36.34.34,0,0,1-.055.36l-.028.028c.111.138.055.277-.028.415a2.339,2.339,0,0,1-.415.5c-.194.166-.415.277-.582.443a1.5,1.5,0,0,1-.969.443.25.25,0,0,0-.138.028c-.111.138-.249.3-.36.471-.055.083-.138.166-.194.249a.633.633,0,0,1-.194.277c-.249.332-.471.637-.72.942-.028.028-.028.055-.055.083a1.2,1.2,0,0,1-.028.138,1.037,1.037,0,0,1-.194.332c-.138.194-.332.36-.471.526-.3.332-.277.886-.72,1.163-.055.028-.083.138-.111.194-.028.111-.028.222-.055.332h.028a.468.468,0,0,0,.055-.138c.138.111.249.222.388.332.138.138.194.5.083.582l-.028.028c.055.166.055.332-.028.388l-.028.028a1.331,1.331,0,0,1,.194,1.108,2.7,2.7,0,0,1-.138.775,1.573,1.573,0,0,0-.194.609,1.094,1.094,0,0,1-.388.858,2.984,2.984,0,0,1,.332.72.442.442,0,0,0-.083.222c.028.055.028.111.055.166-.028.055-.055.138-.083.194a.408.408,0,0,0,.3.443V21.6c.028.194.194.194.332.194.083,0,.138-.028.222-.028a1.169,1.169,0,0,0,.083.332,1.458,1.458,0,0,0,.332.388c.055.028.166-.028.222.083a2.588,2.588,0,0,0,.443.5,1.2,1.2,0,0,1,.582.858c0,.388.3.554.36.858a.343.343,0,0,1-.083.055c.222.083.443.166.609.249a4.9,4.9,0,0,1,.471.332c.194.138.415.277.637.415a2.9,2.9,0,0,1,.3.222c.166.166.332.3.526.471.055-.138-.194-.415-.138-.775a8.188,8.188,0,0,0,.554-2.1,4.815,4.815,0,0,0,.5-1.772c.138-.942-.36-1.939.028-2.908.222-.554.8-1.08,1.052-1.606.138-.249-.083-.5.055-.748s.637-.471.8-.72c.222-.332,1.44-1.828,1.855-1.579.332.194,1.5-2.188,1.3-2.492a3.981,3.981,0,0,1,.5-2.022c.222-.277.222-.692.36-1.025.138-.36.3-.692.471-1.052.3-.471.748-.8,1.108-1.3.083-.166.194-.3.277-.471.083-.138.166-.3.249-.443.166-.3.277-.582.415-.858A5.751,5.751,0,0,1,121.276,4.1Z" transform="translate(-74.765)"/><path class="e" d="M14.736,119.136c.028-.028.028-.083.028-.194s0-.166-.028-.194a.214.214,0,0,0-.028-.083c-.028-.028-.028-.055-.055-.083a1.652,1.652,0,0,1-.194-.5,2.693,2.693,0,0,1-.028-.5.209.209,0,0,0-.111.028c-.055,0-.083,0-.083-.055v-.222a.276.276,0,0,0-.028-.111c-.028-.055-.028-.083-.055-.111V117c0-.055-.028-.111-.028-.166s-.028-.111-.028-.166v-.111a.5.5,0,0,0-.138-.194.5.5,0,0,1-.138-.194,2.841,2.841,0,0,0-.111-.388c-.055-.138-.083-.277-.138-.443-.055-.138-.083-.277-.138-.415s-.111-.249-.166-.36c0-.028-.028-.055-.083-.055h-.111a5.7,5.7,0,0,1-1.412.083,8.033,8.033,0,0,0-1.44.055.89.89,0,0,0-.222.028c-.111.028-.222.028-.36.055s-.249.028-.36.055a.891.891,0,0,1-.222.028c-.055,0-.138.028-.249.028-.138,0-.277.028-.443.028a2.238,2.238,0,0,0-.443.028,1.531,1.531,0,0,0-.249.028c-.111.028-.222.055-.36.083a.8.8,0,0,0-.277.166,3.624,3.624,0,0,0-.194.36c-.083.166-.138.332-.222.5a3.7,3.7,0,0,0-.194.5,1.6,1.6,0,0,0-.111.36c-.055.222-.138.471-.222.72a2.546,2.546,0,0,0-.194.72v.222c-.028.028-.028.055-.055.111a.209.209,0,0,0-.028.111v.166a1.088,1.088,0,0,1-.582.36,2.623,2.623,0,0,1-.72.111,1.367,1.367,0,0,1-.415-.083,2.4,2.4,0,0,1-.471-.194,2.734,2.734,0,0,1-.415-.249,1.349,1.349,0,0,1-.277-.222v-.055l-.138-.526v-.111c.055-.194.111-.415.194-.665s.166-.526.249-.775c.083-.277.166-.526.249-.775a3.869,3.869,0,0,0,.166-.665.487.487,0,0,1,.028-.166.276.276,0,0,0,.028-.111c0-.028.055-.028.083-.055a.121.121,0,0,0,.083-.028c-.055,0-.055-.028-.083-.055v-.083c0-.083.028-.138.055-.138.055,0,.083,0,.111-.028a.334.334,0,0,0,.111-.332.477.477,0,0,1,.055-.332l.083-.083c.055-.055.083-.055.083-.083s.028-.055.055-.138a.371.371,0,0,0,.028-.138c-.055,0-.083-.028-.083-.055,0-.055.055-.111.138-.166a.4.4,0,0,0,.194-.166,5.859,5.859,0,0,0,.3-.8,4.928,4.928,0,0,1,.332-.8l.138-.138.138-.138v-.166q-.042-.125,0-.166a.853.853,0,0,1,.194-.388,3.135,3.135,0,0,0,.277-.36,1.432,1.432,0,0,0,.194-.443.743.743,0,0,1,.222-.443.343.343,0,0,1,.083-.055.343.343,0,0,0,.083-.055,4.9,4.9,0,0,0,.443-.609c.111-.222.249-.415.36-.609a1.063,1.063,0,0,1,.3-.3.362.362,0,0,0,.194-.332l-.055-.055-.055-.055a.61.61,0,0,1,.166-.332,2.847,2.847,0,0,1,.415-.388,5.619,5.619,0,0,1,.5-.36,4.032,4.032,0,0,1,.443-.249,1.371,1.371,0,0,1,.36-.111c.138-.028.249-.028.36-.055a3.123,3.123,0,0,1,.388-.055,1.937,1.937,0,0,0,.36-.055h.138a2.153,2.153,0,0,1,.443.055,4.282,4.282,0,0,0,.415.111,1.4,1.4,0,0,0,.36.055c.138.028.249.055.36.083a2.822,2.822,0,0,1,.415.222,2.935,2.935,0,0,1,.332.277c.138.111.277.249.415.36a2.566,2.566,0,0,1,.388.388,2.744,2.744,0,0,1,.3.471c.111.194.194.36.249.471.028.028.028.083.083.194a1.694,1.694,0,0,0,.138.332,3.25,3.25,0,0,0,.138.3.427.427,0,0,0,.083.194c0,.028.055.083.083.166a.428.428,0,0,1,.083.166c.028.083.055.166.111.3s.083.249.138.388a2.572,2.572,0,0,1,.111.36c.028.111.055.166.055.194s.028.111.055.249.083.277.111.415a2.307,2.307,0,0,1,.111.415c.028.138.055.194.055.222a.487.487,0,0,0,.028.166c.028.083.028.138.055.166a.3.3,0,0,0,.028.138,1.35,1.35,0,0,1,.083.194l.083.166a.214.214,0,0,1,.028.083v.222a.428.428,0,0,0,.083.166,2.873,2.873,0,0,1,.111.277,1.157,1.157,0,0,1,.111.277.451.451,0,0,0,.083.166v.055c0,.028-.028.055-.055.083a.06.06,0,0,0-.055.055.141.141,0,0,0,.111.138.808.808,0,0,0,.249.055l-.111.3a.535.535,0,0,1,.138.249l.083.332c.028.111.028.222.055.332s.028.194.055.277a.583.583,0,0,0,.138.36.858.858,0,0,1,.166.36c.083.249.138.526.194.748.055.249.138.5.194.748,0,.028,0,.055.055.138.028.083.055.138.083.222s.055.138.083.222.055.111.055.138v.166c0,.028-.028.055-.055.083l-.111.111a.734.734,0,0,0-.138.166l-.055.028-.055.028a.162.162,0,0,1-.111.028c-.083,0-.138.028-.222.028a.54.54,0,0,0-.222.028.162.162,0,0,0-.111.028l-.083.055a1.217,1.217,0,0,0-.249.028,1.217,1.217,0,0,1-.249.028c-.028,0-.028.028-.083.055-.028.028-.055.055-.083.055h-.138c-.083,0-.138,0-.166-.028a.25.25,0,0,0-.138-.028h-.055a.564.564,0,0,1-.138.028.37.37,0,0,1-.138.028c-.028,0-.028-.028-.028-.055.028-.028,0-.055-.028-.083a.253.253,0,0,1-.138-.083.253.253,0,0,0-.138-.083h-.166a1.2,1.2,0,0,0-.138-.028C14.791,119.136,14.764,119.136,14.736,119.136ZM10.8,108a3.245,3.245,0,0,0-.415.443c-.138.194-.249.388-.388.609s-.249.415-.36.609-.194.36-.277.5c-.194.332-.388.637-.609.969a6.562,6.562,0,0,0-.526.969l-.166.332a.737.737,0,0,0-.083.332h.166c.083,0,.138,0,.166-.028a3.171,3.171,0,0,0,.415-.028c.222-.028.443-.028.692-.055s.5-.028.72-.055a3.171,3.171,0,0,1,.415-.028,2.344,2.344,0,0,0,.36-.028c.194-.028.388-.055.609-.083a5.073,5.073,0,0,1,.582-.055,2.438,2.438,0,0,1,.388-.028.468.468,0,0,1,.277-.083.3.3,0,0,1-.138-.111c-.028-.055-.028-.083-.055-.138,0-.055-.028-.083-.028-.138a.58.58,0,0,0-.111-.166H12.41a.027.027,0,0,1-.028.028v-.111l.055-.028.055-.028v-.111c-.028,0-.028-.028-.055-.055a.086.086,0,0,1-.028-.055c-.028-.028-.028-.083-.055-.166a1.089,1.089,0,0,1-.055-.166v.222c-.028-.028-.028-.055-.055-.111s-.055-.083-.055-.111v-.055l.083-.055.028-.028a.027.027,0,0,0-.028-.028c0-.028-.028-.055-.083-.111s-.083-.083-.083-.111c-.028-.028-.028-.055,0-.138v-.138c-.028,0-.028-.028-.055-.055l-.055-.055-.083-.055v-.332l-.138-.277c-.055-.083-.083-.138-.138-.222s-.083-.111-.083-.138a.937.937,0,0,1-.083-.222,3215414809946.741,3215414809946.741,0,0,1-.111-.609c-.028-.083-.028-.138-.055-.166-.028-.055-.083-.111-.138-.194a.291.291,0,0,0-.249-.138h-.055C10.831,108,10.8,108,10.8,108Z" transform="translate(-0.072 -73.247)"/><path class="e" d="M58.029,115.813v-.249c0-.111.028-.222.028-.36v-.775c0-.055-.028-.083-.028-.111a.1.1,0,0,1-.028-.083,1.2,1.2,0,0,1,.028-.138.148.148,0,0,0-.083-.111,3.375,3.375,0,0,0,0-.748,3.128,3.128,0,0,1,0-.72.212.212,0,0,1,.055-.138c.028-.055.055-.083.055-.138l.028-.028-.055-.028a.027.027,0,0,1-.028-.028v-.028a.166.166,0,0,1,.028-.111.166.166,0,0,0,.028-.111.1.1,0,0,1,.028-.083c-.028-.471-.055-.942-.055-1.44,0-.471,0-.969.028-1.44v-.194c0-.083.028-.166.028-.222,0-.083.028-.166.028-.277a.274.274,0,0,1,.055-.166,1.089,1.089,0,0,0,.055-.166,3.717,3.717,0,0,0,.028-.582,1.143,1.143,0,0,1,.111-.609.167.167,0,0,1-.166-.083c-.028-.055-.055-.083-.055-.138a.148.148,0,0,1,.083-.111.579.579,0,0,1,.166-.111.6.6,0,0,0,.138-.111c.055-.028.055-.055.055-.083a.343.343,0,0,0-.083-.055c-.055-.028-.083-.028-.083-.055v-.055c.028-.028.055-.083.111-.138a.82.82,0,0,1,.083-.111.446.446,0,0,1,.194-.111.809.809,0,0,1,.249-.055.942.942,0,0,1,.277-.028.447.447,0,0,0,.249-.083l.914.055a.212.212,0,0,1,.138.055,1.76,1.76,0,0,1,.858.692,1.648,1.648,0,0,1,.166.942v.249a.214.214,0,0,1-.028.083c-.028.055-.055.083-.055.138-.028.055-.055.083-.055.138-.028.055-.028.055-.028.083v.3c0,.083-.028.138-.028.222a.61.61,0,0,0-.028.222v.138a1.589,1.589,0,0,0-.028.332c0,.083-.028.166-.028.249v1.523c0,.222-.028.5-.028.775s-.028.526-.028.775v.831a1.863,1.863,0,0,1,.028.5v2.16a.487.487,0,0,1-.028.166q-.042.125,0,.166a.885.885,0,0,0,.028.194,2.138,2.138,0,0,1,.055.415,2.761,2.761,0,0,1,.055.443,1.559,1.559,0,0,0,.055.277q.042.042,0,.166c0,.083-.028.138-.028.222s-.028.166-.028.222a.487.487,0,0,0-.028.166c-.028.166-.028.3-.055.388a1.048,1.048,0,0,1-.249.36c0,.028-.028.055-.083.055a.209.209,0,0,0-.111.028c-.055.028-.138.028-.194.055a1.766,1.766,0,0,0-.194.055.276.276,0,0,1-.111.028c-.138.028-.249.083-.36.111a1.676,1.676,0,0,1-.415.055H59.33c-.028,0-.055-.028-.111-.083s-.083-.083-.111-.083c-.028-.028-.083-.028-.166-.055s-.138-.028-.138-.055c-.028,0-.028-.028-.055-.083s-.028-.111-.055-.166a1.763,1.763,0,0,1-.055-.249h-.166c-.111-.028-.166-.055-.194-.138s-.055-.138-.083-.222a2.5,2.5,0,0,1-.111-.526,4.487,4.487,0,0,1-.028-.609v-1.135Z" transform="translate(-39.931 -73.247)"/><path class="e" d="M76.349,119.085c-.028,0-.055-.028-.111-.055a1.908,1.908,0,0,0-.222-.083,1.9,1.9,0,0,1-.222-.083c-.083-.028-.111-.028-.138-.055a.253.253,0,0,1-.138-.083.478.478,0,0,0-.111-.083c-.028-.028-.055-.028-.166-.055-.083-.028-.138-.028-.166-.055-.028,0-.028-.028,0-.055v-.055l-.083-.055a.1.1,0,0,1-.083-.028.214.214,0,0,0-.083-.028.3.3,0,0,1-.083-.138c-.055-.083-.055-.111-.055-.138a.382.382,0,0,1-.083-.111.382.382,0,0,0-.083-.111c-.028,0-.055-.028-.083-.055a.343.343,0,0,1-.083-.055v-.277c0-.028-.028-.055-.111-.111a.758.758,0,0,1-.138-.111c-.028-.028-.028-.055,0-.111v-.111c-.028,0-.055-.028-.083-.028a.121.121,0,0,1-.083-.028v-.055h.083a.368.368,0,0,0-.083-.222.368.368,0,0,1-.083-.222.619.619,0,0,1,.277.083v-.055c-.028,0-.028-.055-.055-.111a.209.209,0,0,1-.028-.111.487.487,0,0,0-.028-.166c-.028-.111-.028-.166-.055-.194v0a.1.1,0,0,0,.055.028.027.027,0,0,1,.028.028c0,.028.055.083.166.194a1.658,1.658,0,0,0,.166.194.207.207,0,0,1,.083.083c.055.028.083.083.138.111s.083.083.138.111.055.055.055.083c.028,0,.028.028.055.055s.028.028.028.055v-.332a.1.1,0,0,0,.055.028.027.027,0,0,1,.028.028.451.451,0,0,1,.083.166.451.451,0,0,0,.083.166c.028,0,.028.028.055.028h.055a.225.225,0,0,0,.222-.111.287.287,0,0,0,.222.166v-.222h0v.111c0,.028.028.055.111.083a1.9,1.9,0,0,0,.222.083c.111.055.166.055.166.083h.249c.028,0,.083.055.166.111a1.64,1.64,0,0,1,.166.111.371.371,0,0,0,.138-.028.541.541,0,0,1,.194-.028c.028,0,.111-.028.222-.055.138-.028.222-.055.249-.055a.086.086,0,0,0,.055-.028l.083-.028h.388a.1.1,0,0,0,.083-.028.1.1,0,0,1,.083-.028,1.643,1.643,0,0,1,.166-.111c.083-.055.138-.083.138-.111a8.932,8.932,0,0,1,.942-.415,3.442,3.442,0,0,0,.859-.5.891.891,0,0,0,.111-.194l.166-.332a2.919,2.919,0,0,1,.194-.3c.055-.083.111-.138.166-.138h.055c.028,0,.028-.055.055-.138s.028-.138.055-.138c.055,0,.055-.028.083-.083v-.138l-.332-.166c-.111-.028-.222-.055-.36-.083s-.249-.028-.388-.055-.249-.055-.388-.083c-.748-.028-1.468-.083-2.132-.166s-1.385-.166-2.1-.277a.417.417,0,0,0-.222-.111,1.765,1.765,0,0,1-.249-.055c-.194-.055-.36-.138-.554-.194-.194-.083-.36-.138-.526-.222s-.332-.166-.471-.249a2.128,2.128,0,0,1-.36-.332.214.214,0,0,0-.028-.083c-.028-.055-.028-.083-.055-.083-.028-.028-.028-.083-.083-.138a.605.605,0,0,0-.083-.138c-.028-.028-.028-.111-.028-.222q.042-.166,0-.166H72.8c-.028-.028-.055-.055-.055-.083-.028-.028-.055-.055-.055-.083s-.028-.055-.028-.083a1.181,1.181,0,0,1-.166-.5v-.5a.649.649,0,0,1,.055-.3,1.922,1.922,0,0,1,.138-.36c.055-.138.111-.249.166-.36a1.084,1.084,0,0,1,.222-.277,1.441,1.441,0,0,0,.138-.083.819.819,0,0,0,.111-.083q.042,0,0-.083v-.083l.166-.166a2.5,2.5,0,0,1,.277-.249,2.5,2.5,0,0,0,.277-.249c.083-.083.166-.138.194-.166.055-.055.166-.138.3-.249s.277-.249.443-.388l.5-.415c.166-.138.332-.249.443-.332a.086.086,0,0,1,.028-.055v-.028a.606.606,0,0,1,.138-.083.605.605,0,0,0,.138-.083l.222.111a.25.25,0,0,0,.138-.028.6.6,0,0,0,.138-.111l.111-.111c.028-.028.055-.055.083-.055l.277-.166c0-.028.028-.055.055-.083.055-.028.083-.055.111-.055l.138-.055c.028,0,.028,0,.055-.028,0-.028.028-.028.055-.028a1.4,1.4,0,0,0,.249-.055c.138-.028.194-.028.222-.055h.249a.1.1,0,0,1,.055-.028l.083-.028a.137.137,0,0,1,.083.028.214.214,0,0,0,.083.028h.166v-.028c0-.028,0-.028.028-.055l.055-.055c.028-.028.083-.028.166-.055s.138-.028.166-.055l.138.055h.277c.028,0,.028,0,.055-.028.028,0,.028-.028.055-.055l.055-.055h.3a.343.343,0,0,1,.083-.055c.028-.028.055-.055.083-.055h.194a1.038,1.038,0,0,1,.3.028,1.136,1.136,0,0,0,.3.028c.055,0,.083,0,.111-.028a.1.1,0,0,1,.083-.028h.055l.055.028.055.028h.3a1.272,1.272,0,0,1,.277.028,1.037,1.037,0,0,0,.222.028.615.615,0,0,1,.3.138,2.685,2.685,0,0,1,.249.194,1.089,1.089,0,0,1,.166.055c.083.028.138.028.166.055a.5.5,0,0,1,.277.415,3.084,3.084,0,0,1,.055.471v.277c-.055.055-.083.111-.138.166l-.138.138c-.055.028-.083.083-.111.111l-.055.028c-.028,0-.028.028-.055.028h-.249c-.028,0-.111.028-.249.055s-.222.055-.249.055a.209.209,0,0,1-.111-.028.276.276,0,0,0-.111-.028H81.75c-.138-.028-.222-.055-.332-.083l-.249-.083c-.083-.028-.166-.055-.277-.083a1.585,1.585,0,0,0-.388-.028,3.719,3.719,0,0,0-.582.028,2.473,2.473,0,0,0-.554.166c-.028,0-.055.028-.138.083a1.123,1.123,0,0,0-.249.138,2.436,2.436,0,0,0-.277.166,2.554,2.554,0,0,1-.222.138c-.028,0-.055.028-.083.055-.055.028-.055.055-.055.055a6.083,6.083,0,0,0-.5.388c-.194.138-.36.3-.554.443-.194.166-.36.3-.554.443a3.342,3.342,0,0,0-.443.443c-.028.028-.028.055-.083.111a.382.382,0,0,1-.083.111c-.083.111-.138.194-.194.277s-.111.138-.166.222a.984.984,0,0,0-.111.249,1,1,0,0,0-.055.3v.138a.167.167,0,0,0,.028.111,1.7,1.7,0,0,1,.138.166,1.808,1.808,0,0,0,.194.222c0,.028.028.055.083.055a2.755,2.755,0,0,0,.3.111,1.478,1.478,0,0,1,.3.111,1.391,1.391,0,0,0,.332.055c.111.028.222.028.332.055a2.074,2.074,0,0,1,.443.111,1.148,1.148,0,0,0,.443.083.3.3,0,0,0,.166-.028.207.207,0,0,1,.138-.028c.028,0,.083.028.222.055s.194.055.222.055h.609a.1.1,0,0,1,.083.028.1.1,0,0,0,.083.028h.942c.028,0,.083.028.194.055s.166.055.194.055h.388a.137.137,0,0,1,.083.028.214.214,0,0,0,.083.028,1.217,1.217,0,0,1,.249.028,1.217,1.217,0,0,0,.249.028c.028,0,.055.028.083.028a.214.214,0,0,0,.083.028,1.793,1.793,0,0,1,.277.083,1.25,1.25,0,0,0,.36.083,3.947,3.947,0,0,1,.443.138c.166.083.36.138.526.222a2.629,2.629,0,0,1,.471.277.871.871,0,0,1,.277.277.487.487,0,0,0,.028.166c.028.083.028.138.055.166a.214.214,0,0,0,.028.083c.028.055.028.055.028.083.028.028.028.055.055.111a.209.209,0,0,1,.028.111v.028a1.142,1.142,0,0,1-.111.415l-.249.582c-.111.194-.194.388-.3.582s-.166.3-.222.388a2.309,2.309,0,0,1-.526.637c-.222.194-.443.36-.692.554-.028,0-.055.055-.111.111s-.111.083-.138.111a.605.605,0,0,1-.138.083c-.083.055-.138.083-.222.138s-.138.083-.222.138-.111.055-.138.083a1.089,1.089,0,0,0-.166.055c-.083.028-.138.028-.166.055-.028,0-.055.028-.138.083a.428.428,0,0,1-.166.083h-.166a1.692,1.692,0,0,0-.388.194,2.532,2.532,0,0,1-.388.194.209.209,0,0,0-.111.028.276.276,0,0,1-.111.028,1.765,1.765,0,0,1-.194.055l-.249.083a.856.856,0,0,1-.222.055.371.371,0,0,1-.138.028l-.055.055c-.3.055-.609.083-.942.111s-.637.055-.942.055a1.584,1.584,0,0,1-.388-.028A.815.815,0,0,0,76.349,119.085Z" transform="translate(-50.47 -73.03)"/><path class="e" d="M127.364,119.136a.982.982,0,0,0,.028-.194c0-.111,0-.166-.028-.194a.214.214,0,0,0-.028-.083c-.028-.028-.028-.055-.055-.083a1.652,1.652,0,0,1-.194-.5,2.692,2.692,0,0,1-.028-.5.209.209,0,0,0-.111.028c-.055,0-.083,0-.083-.055v-.222a.276.276,0,0,0-.028-.111c-.028-.055-.028-.083-.055-.111V117c0-.055-.028-.111-.028-.166s-.028-.111-.028-.166v-.111a.5.5,0,0,0-.138-.194.5.5,0,0,1-.138-.194,2.844,2.844,0,0,0-.111-.388c-.055-.138-.083-.277-.138-.443-.055-.138-.083-.277-.138-.415s-.111-.249-.166-.36c0-.028-.028-.055-.083-.055h-.055a5.7,5.7,0,0,1-1.412.083,8.033,8.033,0,0,0-1.44.055.89.89,0,0,0-.222.028c-.111.028-.222.028-.36.055s-.249.028-.36.055a.891.891,0,0,1-.222.028c-.055,0-.138.028-.249.028-.138,0-.277.028-.443.028a2.238,2.238,0,0,0-.443.028,1.531,1.531,0,0,0-.249.028c-.111.028-.222.055-.36.083a.8.8,0,0,0-.277.166,3.626,3.626,0,0,0-.194.36c-.083.166-.138.332-.222.5a3.7,3.7,0,0,0-.194.5,1.6,1.6,0,0,0-.111.36c-.055.222-.138.471-.222.72a2.546,2.546,0,0,0-.194.72v.222c-.028.028-.028.055-.055.111a.209.209,0,0,0-.028.111v.166a1.088,1.088,0,0,1-.582.36,3.535,3.535,0,0,1-.8.055,1.367,1.367,0,0,1-.415-.083,2.394,2.394,0,0,1-.471-.194,2.737,2.737,0,0,1-.415-.249,1.349,1.349,0,0,1-.277-.222v-.055l-.138-.526h0v-.055c.055-.194.111-.415.194-.665s.166-.526.249-.775c.083-.277.166-.526.249-.775a3.868,3.868,0,0,0,.166-.665.487.487,0,0,1,.028-.166.276.276,0,0,0,.028-.111c0-.028.055-.028.083-.055a.121.121,0,0,0,.083-.028c-.055,0-.055-.028-.083-.055v-.083c0-.083.028-.138.055-.138.055,0,.083,0,.111-.028a.334.334,0,0,0,.111-.332.477.477,0,0,1,.055-.332l.083-.083c.055-.055.083-.055.083-.083s.028-.055.055-.138a.371.371,0,0,0,.028-.138c-.055,0-.083-.028-.083-.055,0-.055.055-.111.138-.166a.4.4,0,0,0,.194-.166,5.859,5.859,0,0,0,.3-.8,4.927,4.927,0,0,1,.332-.8l.138-.138.138-.138v-.166q-.042-.125,0-.166a.853.853,0,0,1,.194-.388,3.135,3.135,0,0,0,.277-.36,1.432,1.432,0,0,0,.194-.443.743.743,0,0,1,.222-.443.343.343,0,0,1,.083-.055.343.343,0,0,0,.083-.055,4.9,4.9,0,0,0,.443-.609c.111-.222.249-.415.36-.609a1.063,1.063,0,0,1,.3-.3.362.362,0,0,0,.194-.332l-.055-.055-.055-.055a.61.61,0,0,1,.166-.332,2.846,2.846,0,0,1,.415-.388,5.619,5.619,0,0,1,.5-.36,4.032,4.032,0,0,1,.443-.249,1.371,1.371,0,0,1,.36-.111c.138-.028.249-.028.36-.055a3.123,3.123,0,0,1,.388-.055,1.937,1.937,0,0,0,.36-.055h.138a2.153,2.153,0,0,1,.443.055,4.281,4.281,0,0,0,.415.111,1.4,1.4,0,0,0,.36.055c.138.028.249.055.36.083a2.822,2.822,0,0,1,.415.222,2.935,2.935,0,0,1,.332.277c.138.111.277.249.415.36a2.566,2.566,0,0,1,.388.388,2.744,2.744,0,0,1,.3.471c.111.194.194.36.249.471a.721.721,0,0,0,.083.194,1.694,1.694,0,0,0,.138.332,3.246,3.246,0,0,0,.138.3.427.427,0,0,0,.083.194.451.451,0,0,1,.083.166.428.428,0,0,1,.083.166c.028.083.055.166.111.3s.083.249.138.388a2.572,2.572,0,0,1,.111.36c.028.111.055.166.055.194s.028.111.055.249.083.277.111.415a2.307,2.307,0,0,1,.111.415c.028.138.055.194.055.222a.487.487,0,0,0,.028.166c.028.083.028.138.055.166a.3.3,0,0,0,.028.138,1.35,1.35,0,0,1,.083.194l.083.166a.214.214,0,0,1,.028.083v.222a.428.428,0,0,0,.083.166,2.869,2.869,0,0,1,.111.277,1.157,1.157,0,0,1,.111.277.451.451,0,0,0,.083.166v.055c0,.028-.028.055-.055.083a.06.06,0,0,0-.055.055.141.141,0,0,0,.111.138.808.808,0,0,0,.249.055l-.111.3a.535.535,0,0,1,.138.249l.083.332c.028.111.028.222.055.332s.028.194.055.277a.583.583,0,0,0,.138.36.858.858,0,0,1,.166.36c.083.249.138.526.194.748.055.249.138.5.194.748,0,.028,0,.055.055.138.028.083.055.138.083.222s.055.138.083.222.055.111.055.138v.166c0,.028-.028.055-.055.083l-.111.111a.734.734,0,0,0-.138.166l-.055.028-.055.028a.162.162,0,0,1-.111.028c-.083,0-.138.028-.222.028a.54.54,0,0,0-.222.028.162.162,0,0,0-.111.028l-.083.055a1.217,1.217,0,0,0-.249.028,1.218,1.218,0,0,1-.249.028c-.028,0-.028.028-.083.055-.028.028-.055.055-.083.055h-.138c-.083,0-.138,0-.166-.028a.208.208,0,0,0-.138-.028h-.111a.564.564,0,0,1-.138.028.37.37,0,0,1-.138.028c-.028,0-.028-.028-.028-.055a.1.1,0,0,0-.028-.083.253.253,0,0,1-.138-.083.253.253,0,0,0-.138-.083h-.138a1.2,1.2,0,0,0-.138-.028C127.419,119.136,127.391,119.136,127.364,119.136ZM123.431,108a3.245,3.245,0,0,0-.415.443c-.138.194-.249.388-.388.609s-.249.415-.36.609-.194.36-.277.5c-.194.332-.388.637-.609.969a6.562,6.562,0,0,0-.526.969l-.166.332a.737.737,0,0,0-.083.332h.166c.083,0,.138,0,.166-.028a3.171,3.171,0,0,0,.415-.028c.222-.028.443-.028.692-.055s.5-.028.72-.055a3.171,3.171,0,0,1,.415-.028,2.344,2.344,0,0,0,.36-.028c.194-.028.388-.055.609-.083a5.073,5.073,0,0,1,.582-.055,2.437,2.437,0,0,1,.388-.028.468.468,0,0,1,.277-.083.3.3,0,0,1-.138-.111c-.028-.055-.028-.083-.055-.138,0-.055-.028-.083-.028-.138a.58.58,0,0,0-.111-.166h-.028a.027.027,0,0,1-.028.028v-.111l.055-.028.055-.028v-.111c-.028,0-.028-.028-.055-.055a.086.086,0,0,1-.028-.055c-.028-.028-.028-.083-.055-.166a1.088,1.088,0,0,1-.055-.166v.222c-.028-.028-.028-.055-.055-.111s-.055-.083-.055-.111v-.055l.083-.055.028-.028a.027.027,0,0,0-.028-.028c0-.028-.028-.055-.083-.111s-.083-.083-.083-.111c-.028-.028-.028-.055,0-.138v-.138c-.028,0-.028-.028-.055-.055l-.055-.055-.083-.055v-.332l-.138-.277c-.055-.083-.083-.138-.138-.222s-.083-.111-.083-.138a.937.937,0,0,1-.083-.222,12771.19,12771.19,0,0,0-.111-.609c-.028-.083-.028-.138-.055-.166-.028-.055-.083-.111-.138-.194a.291.291,0,0,0-.249-.138h-.055C123.459,108,123.431,108,123.431,108Z" transform="translate(-81.489 -73.247)"/><path class="e" d="M3.171,166.483l-.3.858a.209.209,0,0,1-.028.111H2.7c.028-.055.028-.083.055-.111l.942-2.659a.1.1,0,0,1,.028-.083h.249a.1.1,0,0,0,.028.083l.969,2.659c0,.028.028.055.055.111H4.694a.166.166,0,0,0-.028-.111l-.3-.858Zm.055-.111h1.08l-.554-1.5Z" transform="translate(0 -116.052)"/><path class="e" d="M11.6,168.977l.055-.222a.782.782,0,0,0,.3.194,1,1,0,0,0,.3.055.548.548,0,0,0,.388-.138.445.445,0,0,0,.138-.3.27.27,0,0,0-.111-.249,2.588,2.588,0,0,0-.415-.222.811.811,0,0,1-.443-.277.483.483,0,0,1-.111-.332.514.514,0,0,1,.277-.471.667.667,0,0,1,.415-.111,1.747,1.747,0,0,1,.609.138l-.055.194a.885.885,0,0,0-.526-.194.441.441,0,0,0-.332.111.385.385,0,0,0-.138.277.314.314,0,0,0,.083.222,1.9,1.9,0,0,0,.36.194,2.87,2.87,0,0,1,.526.277.459.459,0,0,1,.138.332.629.629,0,0,1-.249.5.79.79,0,0,1-.526.138A.955.955,0,0,1,11.6,168.977Z" transform="translate(-6.435 -117.715)"/><path class="e" d="M17.5,168.977l.055-.222a.782.782,0,0,0,.3.194,1,1,0,0,0,.3.055.548.548,0,0,0,.388-.138.445.445,0,0,0,.138-.3.27.27,0,0,0-.111-.249,2.588,2.588,0,0,0-.415-.222.811.811,0,0,1-.443-.277.483.483,0,0,1-.111-.332.514.514,0,0,1,.277-.471.667.667,0,0,1,.415-.111,1.747,1.747,0,0,1,.609.138l-.055.194a.885.885,0,0,0-.526-.194.441.441,0,0,0-.332.111.385.385,0,0,0-.138.277.314.314,0,0,0,.083.222,1.9,1.9,0,0,0,.36.194,2.87,2.87,0,0,1,.526.277.459.459,0,0,1,.138.332.629.629,0,0,1-.249.5.79.79,0,0,1-.526.138A1,1,0,0,1,17.5,168.977Z" transform="translate(-10.701 -117.715)"/><path class="e" d="M24.742,167a.893.893,0,0,1,.748.36,1.289,1.289,0,0,1,.222.775,1.211,1.211,0,0,1-.249.8.9.9,0,0,1-.692.3,1.061,1.061,0,0,1-.526-.138,1.027,1.027,0,0,1-.36-.471,1.613,1.613,0,0,1-.083-.526,1.108,1.108,0,0,1,.249-.748A.737.737,0,0,1,24.742,167Zm0,.083a.629.629,0,0,0-.5.249,1.26,1.26,0,0,0-.222.748,1.289,1.289,0,0,0,.222.775.623.623,0,0,0,1,0,1.468,1.468,0,0,0,0-1.551A.693.693,0,0,0,24.742,167.083Z" transform="translate(-15.257 -117.787)"/><path class="e" d="M33.6,169.049a1.485,1.485,0,0,1-.3.138,1.039,1.039,0,0,1-.3.028.753.753,0,0,1-.665-.277,1.126,1.126,0,0,1-.222-.775,1.153,1.153,0,0,1,.332-.914.921.921,0,0,1,.692-.249,1.568,1.568,0,0,1,.5.083v.222a1.037,1.037,0,0,0-.277-.166.808.808,0,0,0-.249-.055.6.6,0,0,0-.526.277,1.254,1.254,0,0,0-.194.748,1.444,1.444,0,0,0,.138.637.57.57,0,0,0,.526.332.819.819,0,0,0,.277-.055,1.278,1.278,0,0,0,.277-.194Z" transform="translate(-21.258 -117.787)"/><path class="e" d="M39.094,165a.192.192,0,0,1,.194.166.144.144,0,0,1-.055.111.2.2,0,0,1-.332-.111.144.144,0,0,1,.055-.111A.212.212,0,0,1,39.094,165Zm-.138.582H39.2v2.16h-.249v-2.16Z" transform="translate(-26.175 -116.341)"/><path class="e" d="M42.957,168.755a1.284,1.284,0,0,1-.277.277.934.934,0,0,1-.471.138.68.68,0,0,1-.415-.138.57.57,0,0,1-.194-.471.638.638,0,0,1,.3-.554,1.632,1.632,0,0,1,.222-.111c.055-.028.249-.083.526-.166a.53.53,0,0,0,.222-.111.234.234,0,0,0,.055-.194.27.27,0,0,0-.111-.249.594.594,0,0,0-.332-.111.819.819,0,0,0-.277.055,1.354,1.354,0,0,0-.3.194l-.055-.194a1.9,1.9,0,0,1,.36-.166,1.19,1.19,0,0,1,.332-.055.792.792,0,0,1,.471.111.4.4,0,0,1,.166.332v1.385c0,.138.055.222.138.222a.428.428,0,0,0,.166-.083v.166a.447.447,0,0,1-.249.083.225.225,0,0,1-.222-.111A.4.4,0,0,1,42.957,168.755Zm0-1.025a2.117,2.117,0,0,1-.582.222.962.962,0,0,0-.415.222.483.483,0,0,0-.111.332.441.441,0,0,0,.111.332.459.459,0,0,0,.332.138.57.57,0,0,0,.526-.277.609.609,0,0,0,.111-.36v-.609Z" transform="translate(-28.127 -117.715)"/><path class="e" d="M48.96,165.837H48.6v-.111h.36v-.5l.222-.028v.526h.388v.111h-.388v1.689c0,.138.055.222.166.222a.856.856,0,0,0,.222-.055v.138a.558.558,0,0,1-.3.083.27.27,0,0,1-.249-.111.21.21,0,0,1-.055-.111v-1.855Z" transform="translate(-33.189 -116.486)"/><path class="e" d="M53.894,165a.192.192,0,0,1,.194.166.144.144,0,0,1-.055.111.2.2,0,0,1-.332-.111.144.144,0,0,1,.055-.111A.212.212,0,0,1,53.894,165Zm-.138.582H54v2.16h-.249v-2.16Z" transform="translate(-36.876 -116.341)"/><path class="e" d="M57.742,167a.893.893,0,0,1,.748.36,1.289,1.289,0,0,1,.222.775,1.211,1.211,0,0,1-.249.8.9.9,0,0,1-.692.3,1.061,1.061,0,0,1-.526-.138,1.027,1.027,0,0,1-.36-.471,1.613,1.613,0,0,1-.083-.526,1.108,1.108,0,0,1,.249-.748A.737.737,0,0,1,57.742,167Zm0,.083a.629.629,0,0,0-.5.249,1.26,1.26,0,0,0-.222.748,1.289,1.289,0,0,0,.222.775.623.623,0,0,0,1,0,1.468,1.468,0,0,0,0-1.551A.693.693,0,0,0,57.742,167.083Z" transform="translate(-39.118 -117.787)"/><path class="e" d="M65.4,167.028h.249v.36a.6.6,0,0,1,.194-.249.756.756,0,0,1,.5-.138.773.773,0,0,1,.609.249.623.623,0,0,1,.138.415v1.551H66.84v-1.551a.459.459,0,0,0-.138-.332.541.541,0,0,0-.388-.111.609.609,0,0,0-.471.166.651.651,0,0,0-.166.471v1.385h-.249v-2.022A.624.624,0,0,1,65.4,167.028Z" transform="translate(-45.336 -117.787)"/><path class="e" d="M78.042,167a.893.893,0,0,1,.748.36,1.289,1.289,0,0,1,.222.775,1.211,1.211,0,0,1-.249.8.9.9,0,0,1-.692.3,1.061,1.061,0,0,1-.526-.138,1.027,1.027,0,0,1-.36-.471,1.613,1.613,0,0,1-.083-.526,1.108,1.108,0,0,1,.249-.748A.71.71,0,0,1,78.042,167Zm0,.083a.629.629,0,0,0-.5.249,1.26,1.26,0,0,0-.222.748,1.289,1.289,0,0,0,.222.775.623.623,0,0,0,1,0,1.468,1.468,0,0,0,0-1.551A.693.693,0,0,0,78.042,167.083Z" transform="translate(-53.796 -117.787)"/><path class="e" d="M85.277,164.68H85v-.111h.277V164.1a.478.478,0,0,1,.138-.36.7.7,0,0,1,.443-.138,1.7,1.7,0,0,1,.443.083l-.055.194a.93.93,0,0,0-.415-.111.294.294,0,0,0-.332.332v.471h.72v.111H85.5v2.049h-.249V164.68Z" transform="translate(-59.508 -115.329)"/><path class="e" d="M94.5,164.6h.3a1.2,1.2,0,0,0-.028.138v2.576a.207.207,0,0,0,.028.138h-.3c0-.055.028-.083.028-.138v-2.576C94.528,164.683,94.5,164.655,94.5,164.6Z" transform="translate(-66.377 -116.052)"/><path class="e" d="M98,167.028h.249v.36a.6.6,0,0,1,.194-.249.756.756,0,0,1,.5-.138.773.773,0,0,1,.609.249.623.623,0,0,1,.138.415v1.551H99.44v-1.551a.459.459,0,0,0-.138-.332.541.541,0,0,0-.388-.111.609.609,0,0,0-.471.166.651.651,0,0,0-.166.471v1.385H98v-2.215Z" transform="translate(-68.908 -117.787)"/><path class="e" d="M105.66,165.837h-.36v-.111h.36v-.5l.222-.028v.526h.388v.111h-.388v1.689c0,.138.055.222.166.222a.856.856,0,0,0,.222-.055v.138a.558.558,0,0,1-.3.083.27.27,0,0,1-.249-.111.21.21,0,0,1-.055-.111v-1.855Z" transform="translate(-74.186 -116.486)"/><path class="e" d="M111.517,168.977a1.588,1.588,0,0,1-.692.166.95.95,0,0,1-.8-.332,1.126,1.126,0,0,1-.222-.775,1.233,1.233,0,0,1,.277-.859.821.821,0,0,1,.665-.277.773.773,0,0,1,.5.166,1,1,0,0,1,.388.831h-1.606a1.844,1.844,0,0,0,.028.443.948.948,0,0,0,.249.471.8.8,0,0,0,.526.166,1.11,1.11,0,0,0,.637-.222Zm-1.5-1.191h1.357c-.028-.111-.028-.222-.055-.3a.756.756,0,0,0-.249-.332.594.594,0,0,0-.332-.111.679.679,0,0,0-.443.166A.961.961,0,0,0,110.022,167.786Z" transform="translate(-77.44 -117.715)"/><path class="e" d="M118,167.028h.249v.332a.548.548,0,0,1,.194-.277.628.628,0,0,1,.36-.083v.222a.573.573,0,0,0-.415.138.65.65,0,0,0-.138.443v1.412H118v-2.022A.174.174,0,0,0,118,167.028Z" transform="translate(-83.369 -117.787)"/><path class="e" d="M122.4,167.028h.249v.36a.6.6,0,0,1,.194-.249.756.756,0,0,1,.5-.138.773.773,0,0,1,.609.249.623.623,0,0,1,.138.415v1.551h-.249v-1.551a.459.459,0,0,0-.138-.332.541.541,0,0,0-.388-.111.609.609,0,0,0-.471.166.651.651,0,0,0-.166.471v1.385h-.249v-2.022A.624.624,0,0,1,122.4,167.028Z" transform="translate(-86.551 -117.787)"/><path class="e" d="M131.257,168.755a1.284,1.284,0,0,1-.277.277.934.934,0,0,1-.471.138.68.68,0,0,1-.415-.138.57.57,0,0,1-.194-.471.638.638,0,0,1,.3-.554,1.633,1.633,0,0,1,.222-.111c.055-.028.249-.083.526-.166a.53.53,0,0,0,.222-.111.234.234,0,0,0,.055-.194.27.27,0,0,0-.111-.249.594.594,0,0,0-.332-.111.819.819,0,0,0-.277.055,1.354,1.354,0,0,0-.3.194l-.055-.194a1.9,1.9,0,0,1,.36-.166,1.19,1.19,0,0,1,.332-.055.792.792,0,0,1,.471.111.4.4,0,0,1,.166.332v1.385c0,.138.055.222.138.222a.428.428,0,0,0,.166-.083v.166a.447.447,0,0,1-.249.083.225.225,0,0,1-.222-.111A.4.4,0,0,1,131.257,168.755Zm0-1.025a2.117,2.117,0,0,1-.582.222.962.962,0,0,0-.415.222.483.483,0,0,0-.111.332.441.441,0,0,0,.111.332.459.459,0,0,0,.332.138.57.57,0,0,0,.526-.277.609.609,0,0,0,.111-.36v-.609Z" transform="translate(-91.974 -117.715)"/><path class="e" d="M137.36,165.837H137v-.111h.36v-.5l.222-.028v.526h.388v.111h-.388v1.689c0,.138.055.222.166.222a.856.856,0,0,0,.222-.055v.138a.558.558,0,0,1-.3.083.27.27,0,0,1-.249-.111.21.21,0,0,1-.055-.111v-1.855Z" transform="translate(-97.108 -116.486)"/><path class="e" d="M142.194,165a.192.192,0,0,1,.194.166.144.144,0,0,1-.055.111.2.2,0,0,1-.332-.111.144.144,0,0,1,.055-.111A.212.212,0,0,1,142.194,165Zm-.138.582h.249v2.16h-.249V165.72C142.083,165.665,142.055,165.637,142.055,165.582Z" transform="translate(-100.723 -116.341)"/><path class="e" d="M146.042,167a.893.893,0,0,1,.748.36,1.289,1.289,0,0,1,.222.775,1.211,1.211,0,0,1-.249.8.9.9,0,0,1-.692.3,1.061,1.061,0,0,1-.526-.138,1.027,1.027,0,0,1-.36-.471,1.613,1.613,0,0,1-.083-.526,1.108,1.108,0,0,1,.249-.748A.737.737,0,0,1,146.042,167Zm0,.083a.629.629,0,0,0-.5.249,1.26,1.26,0,0,0-.222.748,1.289,1.289,0,0,0,.222.775.623.623,0,0,0,1,0,1.468,1.468,0,0,0,0-1.551A.693.693,0,0,0,146.042,167.083Z" transform="translate(-102.965 -117.787)"/><path class="e" d="M153.7,167.028h.249v.36a.6.6,0,0,1,.194-.249.756.756,0,0,1,.5-.138.773.773,0,0,1,.609.249.623.623,0,0,1,.138.415v1.551h-.249v-1.551a.459.459,0,0,0-.138-.332.541.541,0,0,0-.388-.111.609.609,0,0,0-.471.166.651.651,0,0,0-.166.471v1.385h-.249v-2.022A.356.356,0,0,0,153.7,167.028Z" transform="translate(-109.183 -117.787)"/><path class="e" d="M162.657,168.755a1.284,1.284,0,0,1-.277.277.934.934,0,0,1-.471.138.68.68,0,0,1-.415-.138.57.57,0,0,1-.194-.471.638.638,0,0,1,.3-.554,1.633,1.633,0,0,1,.222-.111c.055-.028.249-.083.526-.166a.53.53,0,0,0,.222-.111.234.234,0,0,0,.055-.194.27.27,0,0,0-.111-.249.594.594,0,0,0-.332-.111.819.819,0,0,0-.277.055,1.354,1.354,0,0,0-.3.194l-.055-.194a1.9,1.9,0,0,1,.36-.166,1.19,1.19,0,0,1,.332-.055.792.792,0,0,1,.471.111.4.4,0,0,1,.166.332v1.385c0,.138.055.222.138.222a.428.428,0,0,0,.166-.083v.166a.447.447,0,0,1-.249.083.225.225,0,0,1-.222-.111A.4.4,0,0,1,162.657,168.755Zm0-1.025a2.117,2.117,0,0,1-.582.222.962.962,0,0,0-.415.222.483.483,0,0,0-.111.332.441.441,0,0,0,.111.332.459.459,0,0,0,.332.138.57.57,0,0,0,.526-.277.609.609,0,0,0,.111-.36v-.609Z" transform="translate(-114.678 -117.715)"/><path class="e" d="M169.549,163.8v3.074H169.3V163.8Z" transform="translate(-120.463 -115.474)"/><path class="e" d="M70.028,180.814l.083-.222a.734.734,0,0,0,.166.138.725.725,0,0,0,.471.138.57.57,0,0,0,.471-.194.518.518,0,0,0,.138-.388.538.538,0,0,0-.222-.443,1.7,1.7,0,0,0-.443-.249,1.933,1.933,0,0,1-.5-.332A.713.713,0,0,1,70,178.82a.636.636,0,0,1,.111-.388.823.823,0,0,1,.72-.332,1.747,1.747,0,0,1,.609.138l-.083.194a.96.96,0,0,0-.554-.194.486.486,0,0,0-.415.166.468.468,0,0,0,0,.665,1.965,1.965,0,0,0,.471.3,1.484,1.484,0,0,1,.332.194c.055.055.138.083.194.138a.667.667,0,0,1,.194.5.782.782,0,0,1-.111.415.865.865,0,0,1-.775.388A1.075,1.075,0,0,1,70.028,180.814Z" transform="translate(-48.662 -125.813)"/><path class="e" d="M78.6,182.649a1.483,1.483,0,0,1-.3.138,1.038,1.038,0,0,1-.3.028.753.753,0,0,1-.665-.277,1.126,1.126,0,0,1-.222-.775,1.153,1.153,0,0,1,.332-.914.921.921,0,0,1,.692-.249,1.568,1.568,0,0,1,.5.083v.222a1.037,1.037,0,0,0-.277-.166.809.809,0,0,0-.249-.055.6.6,0,0,0-.526.277,1.253,1.253,0,0,0-.194.748,1.444,1.444,0,0,0,.138.637.57.57,0,0,0,.526.332.82.82,0,0,0,.277-.055,1.278,1.278,0,0,0,.277-.194Z" transform="translate(-53.796 -127.621)"/><path class="e" d="M84,180.474V177.4h.249v1.246a1.515,1.515,0,0,1,.277-.3.925.925,0,0,1,.415-.083.75.75,0,0,1,.526.166.57.57,0,0,1,.194.471v1.551h-.249v-1.44a.615.615,0,0,0-.028-.249.58.58,0,0,0-.111-.166.573.573,0,0,0-.415-.138.677.677,0,0,0-.5.166.7.7,0,0,0-.166.471v1.385Z" transform="translate(-58.785 -125.307)"/><path class="e" d="M92.842,180.6a.893.893,0,0,1,.748.36,1.289,1.289,0,0,1,.222.775,1.211,1.211,0,0,1-.249.8.9.9,0,0,1-.692.3,1.06,1.06,0,0,1-.526-.138,1.027,1.027,0,0,1-.36-.471,1.612,1.612,0,0,1-.083-.526,1.108,1.108,0,0,1,.249-.748A.71.71,0,0,1,92.842,180.6Zm0,.111a.629.629,0,0,0-.5.249,1.26,1.26,0,0,0-.222.748,1.289,1.289,0,0,0,.222.775.623.623,0,0,0,1,0,1.468,1.468,0,0,0,0-1.551A.693.693,0,0,0,92.842,180.711Z" transform="translate(-64.497 -127.621)"/><path class="e" d="M101.142,180.6a.893.893,0,0,1,.748.36,1.289,1.289,0,0,1,.222.775,1.211,1.211,0,0,1-.249.8.9.9,0,0,1-.692.3,1.061,1.061,0,0,1-.526-.138,1.027,1.027,0,0,1-.36-.471,1.613,1.613,0,0,1-.083-.526,1.108,1.108,0,0,1,.249-.748A.737.737,0,0,1,101.142,180.6Zm0,.111a.629.629,0,0,0-.5.249,1.26,1.26,0,0,0-.222.748,1.289,1.289,0,0,0,.222.775.623.623,0,0,0,1,0,1.468,1.468,0,0,0,0-1.551A.693.693,0,0,0,101.142,180.711Z" transform="translate(-70.499 -127.621)"/><path class="e" d="M109.049,177.5v3.074H108.8V177.5Z" transform="translate(-76.717 -125.38)"/><path class="e" d="M111.2,182.577l.055-.222a.782.782,0,0,0,.3.194,1,1,0,0,0,.3.055.548.548,0,0,0,.388-.138.445.445,0,0,0,.138-.3.27.27,0,0,0-.111-.249,2.591,2.591,0,0,0-.415-.222.811.811,0,0,1-.443-.277.483.483,0,0,1-.111-.332.514.514,0,0,1,.277-.471A.667.667,0,0,1,112,180.5a1.747,1.747,0,0,1,.609.138l-.055.194a.885.885,0,0,0-.526-.194.441.441,0,0,0-.332.111.385.385,0,0,0-.138.277.314.314,0,0,0,.083.222,1.9,1.9,0,0,0,.36.194,2.869,2.869,0,0,1,.526.277.459.459,0,0,1,.138.332.629.629,0,0,1-.249.5.79.79,0,0,1-.526.138A.776.776,0,0,1,111.2,182.577Z" transform="translate(-78.453 -127.549)"/><path class="e" d="M121.694,178.7a.192.192,0,0,1,.194.166.144.144,0,0,1-.055.111.2.2,0,0,1-.332-.111.144.144,0,0,1,.055-.111C121.583,178.7,121.638,178.7,121.694,178.7Zm-.138.582h.249v2.16h-.249v-2.16Z" transform="translate(-85.9 -126.247)"/><path class="e" d="M124.9,180.728h.249v.36a.6.6,0,0,1,.194-.249.756.756,0,0,1,.5-.138.773.773,0,0,1,.609.249.623.623,0,0,1,.138.415v1.551h-.277v-1.551a.459.459,0,0,0-.138-.332.541.541,0,0,0-.388-.111.609.609,0,0,0-.471.166.651.651,0,0,0-.166.471v1.385H124.9v-2.215Z" transform="translate(-88.359 -127.693)"/><path class="e" d="M136.3,180.083l-.3.858a.209.209,0,0,1-.028.111H135.8c.028-.055.028-.083.055-.111l.942-2.659a.1.1,0,0,1,.028-.083h.249a.1.1,0,0,0,.028.083l.969,2.659c0,.028.028.055.055.111h-.332a.166.166,0,0,0-.028-.111l-.3-.858Zm.055-.111h1.08l-.554-1.5Z" transform="translate(-96.24 -125.886)"/><path class="e" d="M144.877,178.38H144.6v-.111h.277V177.8a.478.478,0,0,1,.138-.36.7.7,0,0,1,.443-.138,1.7,1.7,0,0,1,.443.083l-.055.194a.93.93,0,0,0-.415-.111.294.294,0,0,0-.332.332v.471h.72v.111h-.72v2.049h-.249V178.38Z" transform="translate(-102.603 -125.235)"/><path class="e" d="M149.9,180.728h.249v.332a.548.548,0,0,1,.194-.277.628.628,0,0,1,.36-.083v.222a.573.573,0,0,0-.415.138.65.65,0,0,0-.138.443v1.412H149.9v-2.022A.318.318,0,0,0,149.9,180.728Z" transform="translate(-106.435 -127.693)"/><path class="e" d="M154.294,178.7a.192.192,0,0,1,.194.166.144.144,0,0,1-.055.111.2.2,0,0,1-.332-.111.144.144,0,0,1,.055-.111C154.183,178.7,154.238,178.7,154.294,178.7Zm-.138.582h.249v2.16h-.249V179.42C154.183,179.365,154.155,179.309,154.155,179.282Z" transform="translate(-109.472 -126.247)"/><path class="e" d="M158.7,182.649a1.483,1.483,0,0,1-.3.138,1.038,1.038,0,0,1-.3.028.753.753,0,0,1-.665-.277,1.126,1.126,0,0,1-.222-.775,1.153,1.153,0,0,1,.332-.914.921.921,0,0,1,.692-.249,1.568,1.568,0,0,1,.5.083v.222a1.037,1.037,0,0,0-.277-.166.809.809,0,0,0-.249-.055.6.6,0,0,0-.526.277,1.253,1.253,0,0,0-.194.748,1.444,1.444,0,0,0,.138.637.57.57,0,0,0,.526.332,1.178,1.178,0,0,0,.3-.055,1.278,1.278,0,0,0,.277-.194v.222Z" transform="translate(-111.714 -127.621)"/><path class="e" d="M164.757,182.355a1.283,1.283,0,0,1-.277.277.934.934,0,0,1-.471.138.68.68,0,0,1-.415-.138.57.57,0,0,1-.194-.471.638.638,0,0,1,.3-.554,1.634,1.634,0,0,1,.222-.111c.055-.028.249-.083.526-.166a.53.53,0,0,0,.222-.111.234.234,0,0,0,.055-.194.27.27,0,0,0-.111-.249.594.594,0,0,0-.332-.111.819.819,0,0,0-.277.055,1.353,1.353,0,0,0-.3.194l-.055-.194a1.9,1.9,0,0,1,.36-.166,1.19,1.19,0,0,1,.332-.055.792.792,0,0,1,.471.111.4.4,0,0,1,.166.332v1.385c0,.138.055.222.138.222a.428.428,0,0,0,.166-.083v.166a.447.447,0,0,1-.249.083.225.225,0,0,1-.222-.111C164.785,182.6,164.757,182.494,164.757,182.355Zm0-1a2.118,2.118,0,0,1-.582.222.962.962,0,0,0-.415.222.483.483,0,0,0-.111.332.441.441,0,0,0,.111.332.459.459,0,0,0,.332.138.57.57,0,0,0,.526-.277.609.609,0,0,0,.111-.36v-.609Z" transform="translate(-116.197 -127.549)"/></g></svg>