<svg xmlns="http://www.w3.org/2000/svg" width="92.098" height="51.006" viewBox="0 0 92.098 51.006"><defs><style>.a{fill:#3b4e81;}.b{isolation:isolate;}</style></defs><g transform="translate(0 38.888)"><path class="a" d="M4.627,71.1H4.076L1.1,80.078H0v.33H2.644v-.33H1.487l.991-3.03H5.068L6,80.078H4.9v.33H8.317v-.33H7.381ZM2.644,76.663l1.212-3.691h0l1.1,3.691Z" transform="translate(0 -70.825)"/><path class="a" d="M18.648,70.6a7.273,7.273,0,0,1-1.542.11H16.5v.33h1.047V79.8H16.5v.33h3.195V79.8H18.648Z" transform="translate(-7.411 -70.6)"/><path class="a" d="M25.548,70.6a7.273,7.273,0,0,1-1.542.11H23.4v.33h1.047V79.8H23.4v.33h3.195V79.8H25.548Z" transform="translate(-10.511 -70.6)"/><path class="a" d="M32.661,72.977a.694.694,0,0,0,.716-.716.765.765,0,0,0-.716-.661.67.67,0,0,0-.661.661A.683.683,0,0,0,32.661,72.977Z" transform="translate(-14.374 -71.049)"/><path class="a" d="M32.583,77.9a7.274,7.274,0,0,1-1.542.11H30.6v.33h.936v4.792H30.6v.331h2.809v-.331h-.826Z" transform="translate(-13.745 -73.879)"/><path class="a" d="M41.492,83.078c-.275,0-.275-.22-.275-.606v-3.25c0-.551,0-1.322-1.873-1.322-1.652,0-2.2.826-2.2,1.322,0,.386.22.661.551.661a.52.52,0,0,0,.551-.551c0-.441-.386-.5-.386-.606,0-.386.991-.5,1.267-.5.5,0,.991.165.991.826v1.322c-2.093,0-3.36.716-3.415,1.983,0,.991.716,1.322,1.6,1.322a2.275,2.275,0,0,0,1.818-.826c.11.5.386.826.881.826a1.192,1.192,0,0,0,1.157-1.1h-.22C41.933,82.692,41.768,83.078,41.492,83.078ZM40.17,81.811a.98.98,0,0,1-.275.826,1.454,1.454,0,0,1-1.047.386,1,1,0,0,1-1.047-1.1c0-1.267,1.542-1.432,2.424-1.432l-.055,1.322Z" transform="translate(-16.485 -73.879)"/><path class="a" d="M53,79.177c0-1.267-1.157-1.377-1.652-1.377a2.069,2.069,0,0,0-1.928,1.432h0V77.855a3.251,3.251,0,0,1-.771.11,3.388,3.388,0,0,1-.771.055H47.6v.331h.771v4.792H47.6v.33h2.534v-.33h-.716V80.609c0-1.047.716-2.313,1.652-2.313.551,0,.881.165.881,1.157v3.691h-.716v.33h2.534v-.33h-.716L53,79.177Z" transform="translate(-21.381 -73.834)"/><path class="a" d="M62.164,83.253a1.373,1.373,0,0,1-1.322-.771,5.3,5.3,0,0,1-.275-1.652c0-1.763.33-2.754,1.652-2.754.275,0,1.157.165,1.157.5,0,.165-.441.22-.441.771a.636.636,0,1,0,1.267-.055c0-1.047-1.267-1.487-2.148-1.487A2.853,2.853,0,0,0,59.3,80.83a2.68,2.68,0,0,0,2.754,2.7,2.232,2.232,0,0,0,2.258-1.873h-.275A2,2,0,0,1,62.164,83.253Z" transform="translate(-26.636 -73.834)"/><path class="a" d="M72.574,83.3c-1.487,0-1.652-1.1-1.652-2.424v-.551h3.856A2.327,2.327,0,0,0,72.3,77.9a2.869,2.869,0,0,0-2.7,3.085,2.7,2.7,0,0,0,2.754,2.644,2.281,2.281,0,0,0,2.424-1.873H74.5A2.1,2.1,0,0,1,72.574,83.3ZM71.087,79A1.31,1.31,0,0,1,72.3,78.12a1.172,1.172,0,0,1,1.267,1.322v.441H70.977A2.283,2.283,0,0,1,71.087,79Z" transform="translate(-31.263 -73.879)"/></g><g transform="translate(44.341 39.274)"><path class="a" d="M80.5,80.444v-.33h1.1V71.631H80.5V71.3h6.665l.11,2.424h-.22c-.441-1.652-.661-2.093-2.369-2.093H82.979V75.6c1.212,0,1.763-.055,1.873-1.432h.33v3.36h-.275c-.11-1.377-.661-1.6-1.928-1.6v4.186h1.157v.33Z" transform="translate(-80.5 -71.3)"/></g><g transform="translate(50.511 42.909)"><path class="a" d="M93.683,79.167h0A1.915,1.915,0,0,1,95.225,77.9a.737.737,0,0,1,.826.771c0,.33-.33.5-.661.5a.642.642,0,0,1-.551-.551,2.385,2.385,0,0,1,.055-.275c0-.055-.055-.055-.11-.055a1.436,1.436,0,0,0-.771.826,3.947,3.947,0,0,0-.33,1.487v2.589H94.73v.331H91.7v-.331h.936V78.4H91.7v-.33h.441a7.274,7.274,0,0,0,1.542-.11v1.212Z" transform="translate(-91.7 -77.9)"/></g><g transform="translate(55.138 42.909)"><path class="a" d="M103.57,81.811a.98.98,0,0,1-.275.826,1.454,1.454,0,0,1-1.047.386,1,1,0,0,1-1.047-1.1c0-1.267,1.542-1.432,2.424-1.432v1.322Zm1.818.661c-.055.22-.22.606-.5.606s-.275-.22-.275-.606v-3.25c0-.551,0-1.322-1.873-1.322-1.652,0-2.2.826-2.2,1.322a.585.585,0,0,0,.551.661.52.52,0,0,0,.551-.551c0-.441-.386-.5-.386-.606,0-.386.991-.5,1.267-.5.5,0,.991.165.991.826v1.322c-2.093,0-3.36.716-3.415,1.983,0,.991.716,1.322,1.6,1.322a2.275,2.275,0,0,0,1.818-.826c.11.5.386.826.881.826a1.192,1.192,0,0,0,1.157-1.1h-.165v-.11Z" transform="translate(-100.1 -77.9)"/></g><g transform="translate(60.921 42.854)"><path class="a" d="M111.481,78.3h-.771v-.331h.275a3.637,3.637,0,0,0,.771-.055,3.719,3.719,0,0,0,.771-.11v1.432h0a2,2,0,0,1,1.928-1.432c.5,0,1.6.11,1.6,1.377v3.856h.716v.33h-2.534v-.33h.716V79.342c0-.991-.33-1.157-.881-1.157-.936,0-1.652,1.267-1.652,2.313v2.534h.716v.33H110.6v-.33h.771V78.3Z" transform="translate(-110.6 -77.8)"/></g><g transform="translate(67.311 42.854)"><path class="a" d="M124.954,83.529a2.232,2.232,0,0,0,2.258-1.873h-.275a2.122,2.122,0,0,1-1.873,1.6,1.373,1.373,0,0,1-1.322-.771,5.3,5.3,0,0,1-.275-1.652c0-1.763.331-2.754,1.652-2.754.275,0,1.157.165,1.157.5,0,.165-.441.22-.441.771a.636.636,0,1,0,1.267-.055c0-1.047-1.267-1.487-2.148-1.487a2.853,2.853,0,0,0-2.754,3.03,2.663,2.663,0,0,0,2.2,2.644l-.5,1.1.22.055a1.075,1.075,0,0,1,.386-.055.5.5,0,0,1,.551.5c0,.386-.441.5-.771.5a3.364,3.364,0,0,1-.716-.165l-.165.386a3.119,3.119,0,0,0,.991.165c.661,0,1.487-.22,1.487-1.047a.88.88,0,0,0-.881-.826c-.165,0-.331.055-.441.055l.275-.606h.11" transform="translate(-122.2 -77.8)"/></g><g transform="translate(72.819 42.909)"><path class="a" d="M135.67,81.811a.98.98,0,0,1-.275.826,1.454,1.454,0,0,1-1.047.386,1,1,0,0,1-1.047-1.1c0-1.267,1.542-1.432,2.424-1.432v1.322Zm1.818.661c-.055.22-.22.606-.5.606s-.275-.22-.275-.606v-3.25c0-.551,0-1.322-1.873-1.322-1.6,0-2.2.826-2.2,1.322,0,.386.22.661.551.661a.52.52,0,0,0,.551-.551c0-.441-.386-.5-.386-.606,0-.386.992-.5,1.267-.5.5,0,.991.165.991.826v1.322c-2.093,0-3.36.716-3.415,1.983,0,.991.716,1.322,1.6,1.322a2.275,2.275,0,0,0,1.818-.826c.11.5.386.826.881.826a1.192,1.192,0,0,0,1.157-1.1h-.165v-.11Z" transform="translate(-132.2 -77.9)"/></g><g transform="translate(78.658 39.439)"><path class="a" d="M142.8,80.578v-.33h.936V75.456H142.8v-.33h.441a7.274,7.274,0,0,0,1.542-.11v5.233h.826v.33Zm1.432-8.978a.719.719,0,0,1,.716.661.665.665,0,0,1-.716.716.683.683,0,0,1-.661-.716.67.67,0,0,1,.661-.661" transform="translate(-142.8 -71.6)"/></g><g transform="translate(82.238 42.964)"><path class="a" d="M152.825,78.055V79.6h-.275c-.22-.771-.661-1.377-1.487-1.377a1.12,1.12,0,0,0-1.267.991c0,.386.11.606,2.2,1.047,1.047.22,1.432.716,1.432,1.542a1.852,1.852,0,0,1-1.983,1.873,2.3,2.3,0,0,1-1.6-.661l-.275.5H149.3V81.691h.33a2.043,2.043,0,0,0,1.928,1.708,1.272,1.272,0,0,0,1.322-1.157c0-.551-.771-.771-1.873-1.047-.881-.22-1.708-.33-1.708-1.542A1.645,1.645,0,0,1,151.118,78a2.054,2.054,0,0,1,1.267.5l.22-.386h.22Z" transform="translate(-149.3 -78)"/></g><g transform="translate(86.92 42.909)"><path class="a" d="M159.122,79.938a3.834,3.834,0,0,1,.11-.881,1.31,1.31,0,0,1,1.212-.881,1.172,1.172,0,0,1,1.267,1.322v.441Zm3.525,1.763a2.1,2.1,0,0,1-1.873,1.6c-1.487,0-1.652-1.1-1.652-2.424v-.551h3.856A2.327,2.327,0,0,0,160.5,77.9a2.906,2.906,0,0,0-2.7,3.085,2.7,2.7,0,0,0,2.754,2.644,2.281,2.281,0,0,0,2.424-1.873l-.331-.055Z" transform="translate(-157.8 -77.9)"/></g><g class="b" transform="translate(30.516)"><path class="a" d="M82.721,0c-1.6,0-3.085.826-4.9,2.644a20.7,20.7,0,0,0-4.682,9.2H70.052v.11l-.165.551-.055.165h3.14c-.771,2.864-1.763,7.381-2.038,8.923-.055.275-.11.5-.11.551a2.077,2.077,0,0,1-1.763,1.6c-.661,0-.936-.441-.936-1.432V12.889a3.7,3.7,0,0,0-1.983-3.195A8.09,8.09,0,0,0,62.12,8.648a6.283,6.283,0,0,0-4.131,1.267,3.427,3.427,0,0,0-1.432,2.7c0,1.322.661,2.093,1.708,2.093a1.675,1.675,0,0,0,1.763-1.6,1.5,1.5,0,0,0-.771-1.487c-.22-.165-.386-.275-.386-.551,0-1.157,2.313-1.542,3.36-1.542,2.313,0,2.809,1.047,2.809,1.928V15.7h-.551a16,16,0,0,0-5.894.991c-2.093.881-3.195,2.258-3.195,4.076,0,2.479,1.708,3.911,4.572,3.911,2.424,0,3.966-.661,5.178-2.148a3.176,3.176,0,0,0,3.195,2.148,3.5,3.5,0,0,0,2.258-.771c-.661,3.03-1.212,5.233-1.708,6.775a6.738,6.738,0,0,1-1.6,2.809,1.968,1.968,0,0,1-1.267.606c-.275,0-.441-.055-.441-.22,0-.11.055-.165.22-.33a1.429,1.429,0,0,0,.5-1.157,1.593,1.593,0,0,0-1.708-1.6,1.562,1.562,0,0,0-1.212.551,1.956,1.956,0,0,0-.551,1.377,2.055,2.055,0,0,0,.661,1.487,2.262,2.262,0,0,0,1.6.716c2.2,0,3.691-.881,6.169-5.949,1.157-2.313,2.093-5.894,3.36-10.466.5-1.873,1.047-3.8,1.652-5.839h3.746v-.11l.11-.551v-.165H76.386l1.047-3.911C78.039,5.618,79.967.826,81.84.826c.275,0,.386.055.386.165a.5.5,0,0,1-.165.275,1.8,1.8,0,0,0-.441,1.212,1.727,1.727,0,0,0,1.818,1.652,1.753,1.753,0,0,0,1.818-1.763A2.392,2.392,0,0,0,82.721,0M64.874,16.47v4.517a3.58,3.58,0,0,1-3.746,2.589c-2.093,0-2.479-1.212-2.479-3.36a3.146,3.146,0,0,1,1.873-3.25,10.336,10.336,0,0,1,3.856-.5Z" transform="translate(-55.4)"/></g></svg>