<svg xmlns="http://www.w3.org/2000/svg" width="180.781" height="37.598" viewBox="0 0 180.781 37.598"><defs><style>.a,.b{fill:none;stroke-miterlimit:10;stroke-width:0.24px;}.a{stroke:#fd0;}.a,.b,.c,.d,.e,.f,.g{opacity:0.5;mix-blend-mode:luminosity;isolation:isolate;}.b{stroke:#000;}.c{fill:#131108;}.d{fill:#fff;}.e{fill:#e63329;}.f{fill:#fd0;}.h{fill:#3b4e81;}</style></defs><g transform="translate(0 0)"><path class="a" d="M75.392,66.6a17.7,17.7,0,0,1-.733,4.528,10.739,10.739,0,0,1-5.868,6.729c-.1.064-.765.383-3.891,1.945V66.6H75.392" transform="translate(-44.842 -45.872)"/><path class="a" d="M17.192,66.6V79.8c-3.157-1.563-3.795-1.913-3.89-1.945A11.875,11.875,0,0,1,9.155,74.54a11.439,11.439,0,0,1-1.722-3.412A17.469,17.469,0,0,1,6.7,66.6H17.192" transform="translate(-5.201 -45.872)"/><path class="b" d="M75.323,7.6H64.8V18.379H75.323Z" transform="translate(-44.774 -5.687)"/><path class="b" d="M17.123,7.6H6.6V18.379H17.123Z" transform="translate(-5.133 -5.687)"/><path class="c" d="M18.008,40.151l-.319-.159c-.478-.223-7.877-3.922-8.323-4.146C6.975,34.539,2,31.828,2,22.325V3H34.017V22.325c0,9.5-4.975,12.214-7.366,13.521-.446.255-7.877,3.922-8.323,4.146Z" transform="translate(-2 -2.553)"/><path class="d" d="M22.76,17.509V5.2H16.254V17.509H4.2v6.314h0v.191H16.254V39.226c1.754.861,3.253,1.626,3.253,1.626h0l3.253-1.626V24.015H34.814V17.509Z" transform="translate(-3.498 -4.052)"/><rect class="e" width="12.054" height="12.309" transform="translate(0.702 1.148)"/><rect class="e" width="12.054" height="12.309" transform="translate(19.261 1.148)"/><path class="e" d="M16.254,64.2H4.2c.064,8.833,4.592,11.384,7.016,12.692l5.039,2.519Z" transform="translate(-3.498 -44.237)"/><path class="e" d="M62.4,64.2V79.411l5.039-2.519c2.424-1.307,6.952-3.859,7.016-12.692Z" transform="translate(-43.139 -44.237)"/><path class="c" d="M73.493,52.87l.255-.287-.319-.383-.319.383.255.287c0,.159,0,1.467-.765,1.913a1.3,1.3,0,0,0,.606-.032,4,4,0,0,0,.223.733,4,4,0,0,0,.223-.733,2.207,2.207,0,0,0,.606.032C73.493,54.3,73.493,53,73.493,52.87Z" transform="translate(-50.086 -36.064)"/><path class="c" d="M79.693,45.87l.255-.287-.319-.383-.319.383.255.287c0,.159,0,1.467-.765,1.913a1.3,1.3,0,0,0,.606-.032,4,4,0,0,0,.223.733,4,4,0,0,0,.223-.733,2.207,2.207,0,0,0,.606.032C79.661,47.337,79.693,46.029,79.693,45.87Z" transform="translate(-54.309 -31.296)"/><path class="c" d="M85.793,52.87l.255-.287-.319-.383-.319.383.255.287c0,.159,0,1.467-.765,1.913a1.3,1.3,0,0,0,.606-.032,4,4,0,0,0,.223.733,4,4,0,0,0,.223-.733,2.207,2.207,0,0,0,.606.032C85.793,54.3,85.793,53,85.793,52.87Z" transform="translate(-58.464 -36.064)"/><path class="c" d="M91.993,45.87l.255-.287-.319-.383-.319.383.255.287c0,.159,0,1.467-.765,1.913a1.3,1.3,0,0,0,.606-.032,4,4,0,0,0,.223.733,4,4,0,0,0,.223-.733,2.207,2.207,0,0,0,.606.032C91.961,47.337,91.993,46.029,91.993,45.87Z" transform="translate(-62.687 -31.296)"/><path class="c" d="M67.293,45.87l.255-.287-.319-.383-.319.383.255.287c0,.159,0,1.467-.765,1.913a1.3,1.3,0,0,0,.606-.032,4,4,0,0,0,.223.733,4,4,0,0,0,.223-.733,2.207,2.207,0,0,0,.606.032C67.293,47.337,67.293,46.029,67.293,45.87Z" transform="translate(-45.863 -31.296)"/><path class="c" d="M15.193,52.87l.255-.287-.319-.383-.319.383.255.287c0,.159,0,1.467-.765,1.913a1.3,1.3,0,0,0,.606-.032,4,4,0,0,0,.223.733,4,4,0,0,0,.223-.733,2.207,2.207,0,0,0,.606.032C15.193,54.3,15.193,53,15.193,52.87Z" transform="translate(-10.378 -36.064)"/><path class="c" d="M21.393,45.87l.255-.287-.319-.383-.319.383.255.287c0,.159,0,1.467-.765,1.913a1.3,1.3,0,0,0,.606-.032,4,4,0,0,0,.223.733,4,4,0,0,0,.223-.733,2.207,2.207,0,0,0,.606.032C21.361,47.337,21.361,46.029,21.393,45.87Z" transform="translate(-14.6 -31.296)"/><path class="c" d="M27.493,52.87l.255-.287-.319-.383-.319.383.255.287c0,.159,0,1.467-.765,1.913a1.3,1.3,0,0,0,.606-.032,4,4,0,0,0,.223.733,4,4,0,0,0,.223-.733,2.207,2.207,0,0,0,.606.032C27.493,54.3,27.493,53,27.493,52.87Z" transform="translate(-18.755 -36.064)"/><path class="c" d="M33.693,45.87l.255-.287-.319-.383-.319.383.255.287c0,.159,0,1.467-.765,1.913a1.3,1.3,0,0,0,.606-.032,4,4,0,0,0,.223.733,4,4,0,0,0,.223-.733,2.207,2.207,0,0,0,.606.032C33.661,47.337,33.693,46.029,33.693,45.87Z" transform="translate(-22.978 -31.296)"/><path class="c" d="M8.993,45.87l.255-.287L8.929,45.2l-.319.383.255.287c0,.159,0,1.467-.765,1.913a1.3,1.3,0,0,0,.606-.032,4,4,0,0,0,.223.733,4,4,0,0,0,.223-.733,2.207,2.207,0,0,0,.606.032C8.993,47.337,8.993,46.029,8.993,45.87Z" transform="translate(-6.155 -31.296)"/><path class="c" d="M50.593,68.47l.255-.287-.319-.383-.319.383.255.287c0,.159,0,1.467-.765,1.913a1.3,1.3,0,0,0,.606-.032,4,4,0,0,0,.223.733,4,4,0,0,0,.223-.733,2.206,2.206,0,0,0,.606.032C50.561,69.937,50.561,68.629,50.593,68.47Z" transform="translate(-34.489 -46.689)"/><path class="c" d="M50.593,89.47l.255-.287-.319-.383-.319.383.255.287c0,.159,0,1.467-.765,1.913a1.3,1.3,0,0,0,.606-.032,4,4,0,0,0,.223.733,4,4,0,0,0,.223-.733,2.207,2.207,0,0,0,.606.032A2.228,2.228,0,0,1,50.593,89.47Z" transform="translate(-34.489 -60.992)"/><path class="c" d="M56.293,78.97l.255-.287-.319-.383-.319.383.255.287c0,.159,0,1.467-.765,1.913a1.3,1.3,0,0,0,.606-.032,4,4,0,0,0,.223.733,4,4,0,0,0,.223-.733,2.206,2.206,0,0,0,.606.032C56.261,80.437,56.293,79.129,56.293,78.97Z" transform="translate(-38.371 -53.841)"/><path class="c" d="M44.793,78.97l.255-.287-.319-.383-.319.383.255.287c0,.159,0,1.467-.765,1.913a1.3,1.3,0,0,0,.606-.032,4,4,0,0,0,.223.733,4,4,0,0,0,.223-.733,2.206,2.206,0,0,0,.606.032C44.761,80.437,44.793,79.129,44.793,78.97Z" transform="translate(-30.538 -53.841)"/><path class="c" d="M56.293,99.87l.255-.287-.319-.383-.319.383.255.287c0,.159,0,1.467-.765,1.913a1.3,1.3,0,0,0,.606-.032,4,4,0,0,0,.223.733,4,4,0,0,0,.223-.733,2.207,2.207,0,0,0,.606.032C56.261,101.337,56.293,100.029,56.293,99.87Z" transform="translate(-38.371 -68.076)"/><path class="c" d="M44.793,99.87l.255-.287-.319-.383-.319.383.255.287c0,.159,0,1.467-.765,1.913a1.3,1.3,0,0,0,.606-.032,4,4,0,0,0,.223.733,4,4,0,0,0,.223-.733,2.207,2.207,0,0,0,.606.032C44.761,101.337,44.793,100.029,44.793,99.87Z" transform="translate(-30.538 -68.076)"/><path class="c" d="M50.593,20.87l.255-.287-.319-.383-.319.383.255.287c0,.159,0,1.467-.765,1.913a1.3,1.3,0,0,0,.606-.032,4,4,0,0,0,.223.733,4,4,0,0,0,.223-.733,2.207,2.207,0,0,0,.606.032C50.561,22.337,50.561,21.029,50.593,20.87Z" transform="translate(-34.489 -14.269)"/><path class="c" d="M56.293,10.47l.255-.287L56.229,9.8l-.319.383.255.287c0,.159,0,1.467-.765,1.913a1.3,1.3,0,0,0,.606-.032,4,4,0,0,0,.223.733,4,4,0,0,0,.223-.733,2.207,2.207,0,0,0,.606.032C56.261,11.9,56.293,10.6,56.293,10.47Z" transform="translate(-38.371 -7.185)"/><path class="c" d="M44.793,10.47l.255-.287L44.729,9.8l-.319.383.255.287c0,.159,0,1.467-.765,1.913a1.3,1.3,0,0,0,.606-.032,4,4,0,0,0,.223.733,4,4,0,0,0,.223-.733,2.207,2.207,0,0,0,.606.032C44.761,11.9,44.793,10.6,44.793,10.47Z" transform="translate(-30.538 -7.185)"/><path class="c" d="M56.293,31.37l.255-.287-.319-.383-.319.383.255.287c0,.159,0,1.467-.765,1.913a1.3,1.3,0,0,0,.606-.032,4,4,0,0,0,.223.733,4,4,0,0,0,.223-.733,2.207,2.207,0,0,0,.606.032C56.261,32.8,56.293,31.529,56.293,31.37Z" transform="translate(-38.371 -21.42)"/><path class="c" d="M44.793,31.37l.255-.287-.319-.383-.319.383.255.287c0,.159,0,1.467-.765,1.913a1.3,1.3,0,0,0,.606-.032,4,4,0,0,0,.223.733,4,4,0,0,0,.223-.733,2.207,2.207,0,0,0,.606.032C44.761,32.8,44.793,31.529,44.793,31.37Z" transform="translate(-30.538 -21.42)"/><path class="c" d="M14.184,11.736l.032.159a1.98,1.98,0,0,0,.1.319c.128.574.223.733.51.733a.392.392,0,0,0,.351-.223l.064-.191c0-.032.064-.064.1-.064.1,0,.159.128.159.383,0,.064.032.255.064.51a2.258,2.258,0,0,1,.032.446.574.574,0,0,1-.064.319,4.783,4.783,0,0,1,.064.638,1.071,1.071,0,0,1-.128.606,1.6,1.6,0,0,1,.064.383,1.429,1.429,0,0,1-.032.351c-.032.255-.064.319-.064.351a.191.191,0,0,0,.032.128.242.242,0,0,1,.032.128c0,.032,0,.064-.032.064l-.191-.1-.223-.128a.539.539,0,0,1-.223-.191c-.191.191-.255.191-.765.351a.762.762,0,0,0-.223.1l-.128.064c-.1,0-.128-.128-.128-.446a2.87,2.87,0,0,1,.064-.574,1.158,1.158,0,0,0-.351-.1.558.558,0,0,0-.159.032H13.1c-.032,0-.064-.032-.064-.1a1.3,1.3,0,0,1,.064-.223l.1-.255a.692.692,0,0,1,.255-.287.8.8,0,0,1,.255-.159l.383-.064c.223-.032.351-.159.351-.319s-.1-.255-.319-.319l-.446-.159a1.556,1.556,0,0,1-.415-.191c-.255-.159-.287-.159-.351-.159s-.128.064-.128.191a.293.293,0,0,0,.287.319.118.118,0,0,0,.1-.032.246.246,0,0,1,.1-.032.07.07,0,0,1,.064.064V14.1l-.032.159a1.85,1.85,0,0,1-.319.606l-.1.128a1.438,1.438,0,0,1-.542.8.44.44,0,0,0-.128.1.552.552,0,0,1-.1.128c-.032.032-.1.128-.191.255a1.594,1.594,0,0,1-.255.223q-.191.143-.191.191l-.1.159c-.032.032-.064.064-.1.064-.1,0-.159-.1-.223-.255s-.064-.159-.159-.159a.561.561,0,0,0-.191.032l-.128.032H10.2a2.685,2.685,0,0,0-.574.1.156.156,0,0,1-.1.032c-.032,0-.032,0-.064-.064a.118.118,0,0,1-.032-.1,1.818,1.818,0,0,1,.319-.829.957.957,0,0,1,.287-.319.469.469,0,0,0-.287-.351l-.159-.064c-.032,0-.032-.032-.032-.064s.1-.128.223-.191a1.422,1.422,0,0,1,.574-.159.788.788,0,0,1,.51.223c.287.223.351.255.478.255a.421.421,0,0,0,.415-.415.957.957,0,0,0-.255-.542,1.333,1.333,0,0,1-.383-.829,1.056,1.056,0,0,1,.128-.478l.1-.159a.118.118,0,0,0,.032-.1c0-.064-.064-.128-.191-.128a2.232,2.232,0,0,0-.733.255.319.319,0,0,0-.191.223.112.112,0,0,0,.032.064l.128.064.032.032a.112.112,0,0,0-.032.064l-.191.255a2.65,2.65,0,0,1-.415.446.239.239,0,0,0-.1.1,1.658,1.658,0,0,1-.1.159,1.473,1.473,0,0,1-.446.446c-.064.064-.128.1-.128.128s-.032.064-.1.128a1.83,1.83,0,0,1-.128.223,1.553,1.553,0,0,1-.255.319l-.287.287A1.7,1.7,0,0,0,8,16.2c-.064.223-.128.351-.159.351s-.032-.032-.1-.064c-.191-.223-.383-.383-.478-.383-.032,0-.064.032-.128.064a.606.606,0,0,1-.287.1l-.383.064a.858.858,0,0,0-.574.319c-.032.032-.064.064-.1.064s-.064-.064-.064-.128v-.1L5.8,16.2a4.541,4.541,0,0,1,.191-.67l.159-.319a.539.539,0,0,0,.064-.159.58.58,0,0,0-.542-.478c-.064,0-.1-.032-.1-.064a.836.836,0,0,1,.191-.255A1.17,1.17,0,0,1,6.4,14a1.068,1.068,0,0,1,.446.128l.223.1a.81.81,0,0,0,.223.064c.223,0,.478-.223.765-.7a1.132,1.132,0,0,0,.191-.51c0-.255-.128-.415-.319-.415a.638.638,0,0,0-.446.191.507.507,0,0,0-.159.319v.159c0,.1-.032.159-.1.159s-.223-.128-.638-.638a1.317,1.317,0,0,1-.383-.893c-.351-.446-.446-.638-.446-.957v-.223a.931.931,0,0,1-.319-.7.383.383,0,0,1,.064-.255,1.049,1.049,0,0,1-.191-.383l-.064-.223A1.065,1.065,0,0,0,5.1,8.834C5,8.706,5,8.674,5,8.642c0-.128.1-.159.446-.255a1.8,1.8,0,0,0-.032-.223.9.9,0,0,1,.032-.255l.064-.383a1.464,1.464,0,0,0,.032-.319.855.855,0,0,0-.064-.319.491.491,0,0,0-.1-.223l-.064-.128a.07.07,0,0,1,.064-.064,1.594,1.594,0,0,1,.638.383,1.675,1.675,0,0,1,.8,1.276.475.475,0,0,0,.032.191.851.851,0,0,1,.415.733,1.339,1.339,0,0,1-.191.67l-.191.319a.638.638,0,0,0-.1.351A1.215,1.215,0,0,0,6.977,11c.159.287.287.383.446.383.255,0,.51-.478.51-.989v-.255a1.566,1.566,0,0,1,.032-.351A1.4,1.4,0,0,0,8,9.5V9.089A.274.274,0,0,0,7.9,8.9l-.223-.255a1.693,1.693,0,0,1-.51-.925.513.513,0,0,1,.51-.542.638.638,0,0,1,.223.032V7.144c0-.446.1-.8.223-.8h.064l.191.159.223.128.064.064c0-.128,0-.128.128-.287a1.888,1.888,0,0,0,.128-.191.29.29,0,0,0,.1-.159c.032-.032.032-.064.064-.1s.064-.064.1-.064.064.032.1.159c.032.064.032.1.223.255l.128.128c.032.032.032.1.1.191,0,.032.032.032.032.1a1.081,1.081,0,0,1,.191-.191l.159-.1c.064-.032.1-.064.128-.064l.064.064c.032.032.032.1.1.159a1.065,1.065,0,0,1,.159.383v.223c.351.1.446.287.446.638a1.276,1.276,0,0,1-.415.861c-.191.223-.191.255-.191.383,0,.765.542,1.18,1.467,1.212h.67a3.285,3.285,0,0,1,1.116.191,2.612,2.612,0,0,0,.765.191.191.191,0,0,0,.128-.032c.032-.032.064-.064.064-.1,0-.128-.255-.255-1.084-.478-1.69-.478-2.392-1.148-2.392-2.264a1.563,1.563,0,0,1,1.658-1.531,3.594,3.594,0,0,1,1.02.159l.415.159a.542.542,0,0,0,.223.032c.128,0,.223-.128.223-.351,0-.128.032-.159.128-.159s.287.159.478.383a1.457,1.457,0,0,1,.287.67.6.6,0,0,1-.351.542.992.992,0,0,1-.893.51,3.186,3.186,0,0,1-1.4-.574c-.255-.128-.351-.191-.478-.191-.191,0-.287.1-.287.255s.128.255.415.351a1.521,1.521,0,0,1,.733.415,2.573,2.573,0,0,1,1.084.415,1.83,1.83,0,0,1,1.467,1.594,1.107,1.107,0,0,1-1.116,1.18.539.539,0,0,1-.542.064" transform="translate(-4.043 -4.529)"/><path class="f" d="M17.586,17.458a.9.9,0,0,1-.032-.255v-.1l.032-.159V16.82a.8.8,0,0,0-.064-.319l-.128-.159-.1-.191c0-.032-.032-.064-.032-.1a.07.07,0,0,1,.064-.064c.032,0,.032,0,.128.064a.118.118,0,0,0,.1.032q.1,0,.1-.287a.638.638,0,0,0-.064-.351l-.159-.159-.128-.128c-.032-.032-.064-.064-.064-.1s.032-.064.1-.064a.81.81,0,0,1,.223.064h.032c.032,0,.064-.032.064-.1v-.032l-.032-.223-.064-.223c-.032-.064-.032-.1-.064-.1h-.032l-.255.064h-.032a.883.883,0,0,1-.8-.638l-.191-.67a1.594,1.594,0,0,0-.478-.638.494.494,0,0,0-.191-.1l-.191-.032a.07.07,0,0,1-.064-.064c0-.032.032-.064.128-.064l.351.032a2.529,2.529,0,0,1,.542.128,2.605,2.605,0,0,0,.7.159.733.733,0,0,0,.829-.733,1.24,1.24,0,0,0-.415-.893.957.957,0,0,0-.351-.223.07.07,0,0,0-.064.064v.128h0c0,.064-.032.1-.064.1s-.1-.064-.191-.191a.957.957,0,0,0-.829-.638c-.064,0-.1.032-.1.064s.032.064.064.159l.1.191a.246.246,0,0,1,.032.1l-.032.032a.217.217,0,0,1-.159-.1l-.159-.159-.128-.191a.931.931,0,0,0-.415-.351,1.735,1.735,0,0,0-.255-.128.191.191,0,0,0-.128-.032.07.07,0,0,0-.064.064.118.118,0,0,0,.032.1c.064.128.1.159.1.191a.07.07,0,0,1-.064.064c-.064,0-.255-.159-.383-.383a1.03,1.03,0,0,1-.191-.574.737.737,0,0,1,.765-.765,1.556,1.556,0,0,1,.765.255l.478.287a1.358,1.358,0,0,0,.574.191,1.183,1.183,0,0,0,.287-.064.242.242,0,0,0,.128-.064c.032-.032.064-.032.064-.064s0-.032-.032-.032l-.064-.032-.223-.032a.733.733,0,0,1-.287-.1l-.51-.255c-.159-.1-.287-.159-.351-.191s-.128-.064-.128-.1,0-.032.032-.032a.118.118,0,0,1,.1.032.759.759,0,0,0,.383.128l.446.159a3.422,3.422,0,0,0,.67.128.354.354,0,0,0,.351-.351.759.759,0,0,0-.191-.446l-.064-.064c-.032,0-.064.032-.064.1v.1l.032.128a.214.214,0,0,1-.191.223.348.348,0,0,1-.159-.032l-.67-.223a3.033,3.033,0,0,0-1.084-.223,1.311,1.311,0,0,0-1.4,1.276c0,.8.574,1.339,1.977,1.818s1.594.606,1.594.957a.45.45,0,0,1-.446.383.638.638,0,0,1-.255-.032c-.032,0-.287-.064-.7-.159a5.37,5.37,0,0,0-1.276-.159,2.706,2.706,0,0,0-2.041.638c-.128.128-.159.128-.287.128h-.223a.319.319,0,0,0-.287.191,1.448,1.448,0,0,0-.159.287.166.166,0,0,1-.128.064c-.1,0-.159-.064-.255-.319a1.145,1.145,0,0,0-.223-.319l-.191-.191-.064-.064a.118.118,0,0,1,.032-.1,1.419,1.419,0,0,0,.159-.255c.032-.128.032-.128.1-.128s.1.064.1.287a.733.733,0,0,0,.1.287l.128.255c0,.032.064.064.1.064.1,0,.255-.255.287-.51s.064-.287.1-.287.032,0,.032.032l.1.191a.561.561,0,0,0,.128.159c.064.032.1.064.128.064h0c.1,0,.1-.064.128-.255v-.1l-.032-.159v-.1c0-.064.032-.1.064-.1s.064,0,.064.032l.1.1a.274.274,0,0,0,.191.1c.1,0,.128-.032.128-.1s-.032-.1-.1-.223l-.064-.128c-.1-.159-.159-.223-.223-.223h-.1l-.128.064c-.032,0-.064.032-.1.032a.032.032,0,0,1-.032-.032,1.154,1.154,0,0,1,.159-.415,1.888,1.888,0,0,0,.159-.8c.032-.542.1-.893.191-.893s.064.032.064.159v.223A.386.386,0,0,0,12.8,9.8c.1,0,.191-.128.287-.351a.81.81,0,0,0,.064-.223V9.2l-.191-.383-.191-.064a.112.112,0,0,1-.064-.032V8.465l-.032-.159-.032-.1-.064-.128a1.164,1.164,0,0,0-.415.319c-.1.1-.128.159-.159.159a.07.07,0,0,1-.064-.064.348.348,0,0,1,.032-.159V8.274a.673.673,0,0,0-.351-.574l-.064.1-.064.1-.128.159a1.062,1.062,0,0,0-.1.191c0,.032-.032.1-.032.128v.064c0,.1,0,.1-.032.1h-.032l-.064-.1-.128-.128-.159-.128-.1-.064a.118.118,0,0,0-.032.1.539.539,0,0,0-.064.159V8.72c0,.1-.032.128-.064.128s-.064-.032-.128-.064a.239.239,0,0,0-.159-.032c-.159,0-.255.1-.255.287a.989.989,0,0,0,.159.542l.128.159c.032.032.1.1.1.064l.032-.223-.032-.159V9.358c0-.064.032-.1.064-.1s.1.064.128.223l.1.383.1.478a2.962,2.962,0,0,0,.128.415c.1.191.128.319.159.351.128.159.128.159.128.191a.032.032,0,0,1-.032.032.118.118,0,0,1-.1-.032c-.032-.032-.064-.032-.128-.032h-.1c-.159,0-.191.128-.191.829a4.433,4.433,0,0,0,.191,1.244l.223.542a.749.749,0,0,1,.064.255A3.74,3.74,0,0,1,9.071,16.6a.823.823,0,0,0-.574.829v.128a.593.593,0,0,1,.351-.128c.319-.064.351-.128.415-.255l.032-.128c0-.064.032-.064.287-.191a.344.344,0,0,0,.159-.128c.064-.1.1-.128.128-.128s.032,0,.032.032v.032l-.1.287v.064a.58.58,0,0,0,.351.51.9.9,0,0,1,.128-.415l.191-.287a.772.772,0,0,0,.1-.446.982.982,0,0,0-.032-.319v-.1c0-.064.032-.1.064-.1s.064,0,.064.032l.032.191c0,.032.064.064.1.064.1,0,.223-.128.351-.351a.427.427,0,0,0,.064-.255v-.128l-.032-.159v-.032c0-.064.032-.128.1-.128s.032,0,.032.032l.064.223c.032.064.064.128.128.128s.191-.128.255-.255a.883.883,0,0,0,.1-.415c0-.223.032-.287.1-.287s.032,0,.064.032l.032.128c0,.064.032.1.064.1a.609.609,0,0,0,.223-.255.118.118,0,0,0,.032-.1.172.172,0,0,0-.1-.128c-.1-.1-.128-.1-.128-.223a.593.593,0,0,1,.128-.351.957.957,0,0,0,.128-.255c.128-.255.159-.319.223-.319s.064.032.064.1a.118.118,0,0,1-.032.1.242.242,0,0,0-.032.128.07.07,0,0,0,.064.064,1.253,1.253,0,0,0,.191-.064,1.317,1.317,0,0,1,.287-.128l.351-.128a.59.59,0,0,1,.383,0,.842.842,0,0,0,.223.032.15.15,0,0,0,.159-.159.721.721,0,0,0-.159-.319c-.032-.032-.064-.064-.064-.1v-.032c0-.032.032-.032.064-.032a1.18,1.18,0,0,1,.383.415c.893,1.371,1.18,1.722,1.786,1.913s.765.319.765.67a1.365,1.365,0,0,1-.319.733c-.446.638-.542.861-.542,1.276v.064c.064-.032.1-.032.128-.064.1-.032.128-.064.159-.064l.255-.064c.064,0,.159-.128.159-.223v-.032l-.032-.223V16.98a.344.344,0,0,1,.1-.223c.032,0,.032-.032.064-.032s.064.032.1.064l.159.351c.032.128.1.223.319.319" transform="translate(-6.425 -5.755)"/><path class="f" d="M10.791,15c-.064,0-.128.064-.128.191l-.032.191a1.2,1.2,0,0,0-.032.255c0,.159.032.255.1.255s.159-.128.223-.255a.638.638,0,0,0,.032-.223c0-.064-.032-.159-.032-.223-.032-.128-.1-.191-.128-.191" transform="translate(-7.858 -10.727)"/><path class="f" d="M7.138,10.3l.128.128a1.626,1.626,0,0,1,.351,1.18,4.748,4.748,0,0,1-.032.542c0,.159-.032.319-.032.415,0,1.276.415,2.232.957,2.232.159,0,.287-.1.446-.319.032-.032.064-.064.1-.064s.064.032.064.1l.032.223.032.191.032.223.032.191v.032c0,.064-.032.1-.064.1l-.191.032a.574.574,0,0,0-.287.128c-.159.1-.255.159-.255.191l-.128.223a.07.07,0,0,1-.064.064c-.064,0-.159-.1-.255-.287a1.33,1.33,0,0,1-.159-.319c0-.032.032-.032.1-.032h.351A.07.07,0,0,0,8.35,15.4a.112.112,0,0,0-.032-.064l-.446-.191A.922.922,0,0,1,7.52,14.8a1.658,1.658,0,0,1-.191-.446.086.086,0,0,1,.1-.1c.032,0,.032,0,.064.032a.191.191,0,0,0,.128.032.07.07,0,0,0,.064-.064q0-.048-.1-.1a1.276,1.276,0,0,1-.606-.861c0-.064.032-.128.064-.128h.064l.128.032h0c.064,0,.1-.032.1-.064s-.032-.064-.1-.1a1.659,1.659,0,0,0-.159-.1.319.319,0,0,1-.128-.159,2.59,2.59,0,0,1-.159-.319l-.128-.287a1.658,1.658,0,0,1-.1-.159.4.4,0,0,1-.064-.1.615.615,0,0,1,.319-.1c.128,0,.223.1.319.351.064.159.128.255.159.255s.032-.032.032-.128A1.2,1.2,0,0,0,7.3,11.99a.638.638,0,0,1-.032-.223l-.032-.128-.128-.064c-.032,0-.064-.064-.1-.1a.424.424,0,0,1-.1-.223.475.475,0,0,1,.032-.191,3.068,3.068,0,0,0,.128-.67v-.1Z" transform="translate(-5.065 -7.526)"/><path class="f" d="M9.576,32.955a2.031,2.031,0,0,1-.287-.064.494.494,0,0,1-.191-.1,1.1,1.1,0,0,0-.383-.1.673.673,0,0,0-.415.159l.1.064.191.128.191.159c.064.032.1.064.159.064a.861.861,0,0,0,.638-.319" transform="translate(-6.291 -22.782)"/><path class="f" d="M21.7,30.377a.769.769,0,0,1,.191-.255c.287-.255.415-.415.415-.574v-.223c0-.128.032-.159.1-.159s.064,0,.064.032l.064.128c0,.032.032.032.1.032s.1-.032.159-.128l.1-.128a.233.233,0,0,0,.064-.191.242.242,0,0,0-.032-.128c0-.032-.032-.064-.064-.159a.348.348,0,0,1-.032-.159.086.086,0,0,1,.1-.1c.032,0,.064,0,.064.032l.1.1c.032.032.032.032.064.032a.1.1,0,0,0,.1-.1l.1-.159a.118.118,0,0,0,.032-.1q0-.048-.1-.1l-.128-.064a.8.8,0,0,1-.319-.67.118.118,0,0,1,.032-.1l.064-.159a.287.287,0,0,0,.032-.159.615.615,0,0,0-.1-.319c-.1-.128-.128-.191-.128-.223-.064-.159-.1-.191-.128-.191h-.064l-.064.032-.128.064-.128.159-.128.064c-.1.032-.159.223-.159.383,0,.255.032.351.383.957a1.476,1.476,0,0,1,.223.574c0,.415-.383.7-1.116.893l-.478.128a.858.858,0,0,0-.638.733.772.772,0,0,1,.446-.1h.191a.236.236,0,0,0,.255-.128.778.778,0,0,1,.351-.287l.159-.064.128-.064h.032c.032,0,.064,0,.064.032a.29.29,0,0,1-.1.159.5.5,0,0,0-.159.383c-.1.1-.064.128.032.255" transform="translate(-14.464 -18.355)"/><path class="f" d="M20.6,34.028a1.371,1.371,0,0,1,.319.287c.1.128.128.159.223.159a.348.348,0,0,0,.159-.032l.1-.032c.159-.032.223-.064.223-.1s-.032-.064-.064-.1l-.128-.1-.128-.1a.58.58,0,0,0-.351-.128.775.775,0,0,0-.351.128" transform="translate(-14.669 -23.6)"/><path class="f" d="M31,35.049h.287a.45.45,0,0,0,.446-.383q0-.1-.191-.1c-.255-.064-.415.1-.542.478" transform="translate(-21.752 -24.047)"/><path class="c" d="M18.828,12.2c0,.1.064.159.1.159s.1-.128.191-.287a1.623,1.623,0,0,0,.287-.606.07.07,0,0,0-.064-.064h0l-.128.1a2.886,2.886,0,0,1-.351.191c-.128.032-.159.1-.159.159v.1l.064.159Z" transform="translate(-13.374 -8.275)"/><path class="c" d="M16.146,11.655l.159.1c.032.032.064.064.064.1v.064a.5.5,0,0,0,0,.223.175.175,0,0,1-.191.191c-.032,0-.032-.032-.1-.128l-.223-.255A1.011,1.011,0,0,1,15.7,11.5v-.032c0-.064.032-.064.064-.064s.064.032.128.064Z" transform="translate(-11.331 -8.275)"/><path class="c" d="M17.038,15.39h-.191a.348.348,0,0,0-.128-.064.239.239,0,0,0-.159-.032.147.147,0,0,0-.159.128,1.2,1.2,0,0,0,.128.446l.128.319c.128.287.223.415.383.415s.159-.128.255-.351c.191-.51.319-.574.319-.765,0-.128-.032-.159-.128-.159l-.1-.032-.159.1Z" transform="translate(-11.808 -10.926)"/><path class="f" d="M17.823,16.5H17.7c-.032,0-.032,0-.064.032L17.6,16.6l.064.255.032.223c.032.128.064.159.159.159s.159-.064.159-.191l.032-.223a.552.552,0,0,1,.032-.223c0-.032,0-.032-.032-.064a.112.112,0,0,0-.064-.032Z" transform="translate(-12.625 -11.749)"/><path class="c" d="M74.461,11.463l.032.159a1.979,1.979,0,0,0,.1.319c.128.574.223.733.51.733a.392.392,0,0,0,.351-.223l.064-.191c0-.032.064-.064.1-.064q.143,0,.191.383c0,.1.032.255.064.51a2.414,2.414,0,0,1,.032.478.523.523,0,0,1-.064.287l.032.128a1.992,1.992,0,0,1,.032.383,1.228,1.228,0,0,1-.128.733,2.084,2.084,0,0,1,.064.351,1.717,1.717,0,0,1-.032.351l-.032.319v.191a.242.242,0,0,1,.032.128.112.112,0,0,1-.032.064l-.191-.1-.223-.128a.539.539,0,0,1-.223-.191.909.909,0,0,1-.446.255c-.351.1-.478.128-.542.191l-.128.064c-.064,0-.128-.159-.128-.383a2.58,2.58,0,0,1,.064-.638,1.292,1.292,0,0,0-.383-.1.558.558,0,0,0-.159.032h-.032c-.032,0-.032-.032-.032-.1a1.368,1.368,0,0,1,.159-.478.957.957,0,0,1,.51-.446l.383-.064c.223-.032.351-.159.351-.319s-.1-.255-.319-.319l-.415-.159c-.159-.064-.287-.128-.415-.191a1.025,1.025,0,0,1-.223-.128.118.118,0,0,0-.1-.032.15.15,0,0,0-.159.159.319.319,0,0,0,.287.319.118.118,0,0,0,.1-.032.118.118,0,0,1,.1-.032.1.1,0,0,1,.1.1,1.387,1.387,0,0,1-.223.638l-.128.159-.1.128a1.343,1.343,0,0,1-.542.8.44.44,0,0,0-.128.1.552.552,0,0,1-.1.128c-.032.032-.1.128-.191.255a1.594,1.594,0,0,1-.255.223q-.191.144-.191.191l-.1.159c-.032.032-.032.064-.1.064s-.159-.1-.223-.255-.064-.159-.159-.159a.561.561,0,0,0-.191.032l-.128.032H70.6a1.543,1.543,0,0,0-.574.1.156.156,0,0,1-.1.032c-.064,0-.064-.064-.064-.159a1.968,1.968,0,0,1,.574-1.148c-.064-.191-.159-.319-.287-.351a1.027,1.027,0,0,1-.191-.064c-.032,0-.032-.032-.032-.064s.064-.128.223-.191a1.2,1.2,0,0,1,.542-.159.8.8,0,0,1,.542.223c.287.223.351.255.478.255a.421.421,0,0,0,.415-.415.957.957,0,0,0-.255-.542,1.276,1.276,0,0,1-.383-.861.957.957,0,0,1,.223-.606.156.156,0,0,0,.032-.1c0-.064-.1-.1-.191-.1a.858.858,0,0,0-.415.128c-.319.128-.478.287-.478.351s.032.064.064.1l.1.064.032.032-.032.064a1.19,1.19,0,0,0-.191.255,2.85,2.85,0,0,1-.415.446q-.1.048-.1.1l-.1.159a1.193,1.193,0,0,1-.446.446c-.064.064-.128.1-.128.128a.44.44,0,0,0-.1.128,2.344,2.344,0,0,1-.383.542l-.287.287a2.481,2.481,0,0,0-.287.638c-.1.255-.128.351-.191.351s-.032-.032-.064-.064c-.191-.223-.383-.383-.478-.383-.032,0-.064.032-.128.064a.606.606,0,0,1-.287.1l-.383.064a.733.733,0,0,0-.574.319c-.032.032-.064.064-.1.064s-.064-.064-.064-.128v-.1a2.1,2.1,0,0,0,.064-.287,3.6,3.6,0,0,1,.191-.67L66.584,15a.539.539,0,0,0,.064-.159c0-.223-.223-.415-.542-.478-.064,0-.1-.032-.1-.064s.1-.128.191-.223a.941.941,0,0,1,1.116-.128l.223.1a.81.81,0,0,0,.223.064c.223,0,.478-.223.765-.7a1.113,1.113,0,0,0,.191-.542c0-.255-.128-.415-.319-.415a.638.638,0,0,0-.446.191.6.6,0,0,0-.159.319v.159c0,.1-.032.128-.1.128s-.159-.064-.351-.287c-.064-.1-.159-.191-.287-.351a1.081,1.081,0,0,1-.383-.893,1.535,1.535,0,0,1-.446-.957v-.223a.848.848,0,0,1-.287-.7.475.475,0,0,1,.064-.287,1.049,1.049,0,0,1-.191-.383l-.064-.223a1.381,1.381,0,0,0-.159-.383c-.1-.128-.1-.159-.1-.191,0-.1.1-.159.351-.255l.1-.032a1.8,1.8,0,0,0-.032-.223.9.9,0,0,1,.032-.255l.064-.383a1.566,1.566,0,0,0,.032-.351.692.692,0,0,0-.064-.319.762.762,0,0,0-.1-.223c-.032-.064-.064-.1-.064-.128s.032-.064.1-.064a.118.118,0,0,1,.1.032,3.4,3.4,0,0,1,.989.8,1.47,1.47,0,0,1,.351,1.052.832.832,0,0,1,.415.765,1.215,1.215,0,0,1-.191.606,1.412,1.412,0,0,0-.191.319.638.638,0,0,0-.1.351,1.317,1.317,0,0,0,.191.606c.159.255.287.383.446.383.255,0,.51-.478.51-.989V9.677l.032-.255.032-.287.032-.255V8.753c0-.1-.032-.128-.351-.478a1.483,1.483,0,0,1-.51-.989.5.5,0,0,1,.51-.51.638.638,0,0,1,.223.032V6.457l.064-.255c.064-.223.064-.255.159-.255h.064l.191.159.223.128.064.064c0-.128.032-.159.128-.287a.667.667,0,0,0,.128-.191l.1-.159.064-.1c.032-.064.064-.064.1-.064s.032.032.064.159a.172.172,0,0,0,.1.128l.128.128a.743.743,0,0,1,.223.415l.191-.191.159-.1a.4.4,0,0,0,.1-.064.112.112,0,0,1,.032.064c.032.064.064.1.1.159.128.223.128.255.128.383v.223a.555.555,0,0,1,.446.638,1.3,1.3,0,0,1-.383.861c-.159.223-.191.287-.191.446,0,.733.542,1.148,1.467,1.18h.67a3.285,3.285,0,0,1,1.116.191,2.612,2.612,0,0,0,.765.191c.1,0,.191-.064.191-.128,0-.159-.255-.255-1.084-.51C72.2,9.2,71.5,8.529,71.5,7.413a1.594,1.594,0,0,1,1.658-1.531,3.594,3.594,0,0,1,1.02.159l.415.159a.542.542,0,0,0,.223.032c.159,0,.191-.1.223-.351,0-.128.032-.159.128-.159a.909.909,0,0,1,.478.383,1.358,1.358,0,0,1,.255.67.58.58,0,0,1-.351.51.992.992,0,0,1-.893.51,3.189,3.189,0,0,1-1.4-.574.842.842,0,0,0-.478-.191c-.191,0-.287.1-.287.255s.1.255.415.351c.478.159.574.223.733.415a2.573,2.573,0,0,1,1.084.415c.925.287,1.467.861,1.467,1.626A1.072,1.072,0,0,1,75.1,11.24c-.287.287-.383.287-.638.223" transform="translate(-45.25 -4.256)"/><path class="f" d="M77.116,17.594a.475.475,0,0,1-.032-.191v-.128a1.993,1.993,0,0,0,.032-.383.453.453,0,0,0-.064-.191l-.128-.159a.389.389,0,0,1-.128-.287c0-.064,0-.064.064-.064h.032a.4.4,0,0,0,.1.064.118.118,0,0,0,.1.032q.1,0,.1-.287a.638.638,0,0,0-.191-.51l-.128-.128a.118.118,0,0,1-.032-.1c0-.064.032-.1.064-.1a.242.242,0,0,1,.128.032l.128.032h.032c.032,0,.064-.032.064-.1v-.032l-.032-.223c-.032-.223-.064-.319-.128-.319h-.032l-.255.064h-.032a.918.918,0,0,1-.8-.638l-.191-.67a1.6,1.6,0,0,0-.478-.638.424.424,0,0,0-.223-.1l-.191-.032a.07.07,0,0,1-.064-.064c0-.032.032-.064.1-.064a3.53,3.53,0,0,1,.893.159,3.084,3.084,0,0,0,.67.159c.51,0,.829-.255.829-.7a1.5,1.5,0,0,0-.191-.67,1.3,1.3,0,0,0-.478-.446.118.118,0,0,0-.1-.032.07.07,0,0,0-.064.064v.128h0c0,.064-.032.1-.064.1a.341.341,0,0,1-.191-.191.928.928,0,0,0-.8-.638c-.064,0-.1.032-.1.064s.032.064.064.128l.1.191a.118.118,0,0,1,.032.1.032.032,0,0,1-.032.032.217.217,0,0,1-.159-.1l-.159-.159-.128-.191a.909.909,0,0,0-.415-.351l-.255-.128a.242.242,0,0,0-.128-.032c-.032,0-.032,0-.032.032a.242.242,0,0,0,.032.128.494.494,0,0,1,.1.191.07.07,0,0,1-.064.064q-.1,0-.383-.383a1.03,1.03,0,0,1-.191-.574.756.756,0,0,1,.765-.765,1.661,1.661,0,0,1,.765.255l.478.287a1.518,1.518,0,0,0,.574.191.638.638,0,0,0,.287-.064.166.166,0,0,0,.128-.064c.032,0,.032-.032.032-.064s-.032-.064-.1-.064a2.87,2.87,0,0,1-1.02-.415c-.191-.128-.287-.191-.351-.191a.142.142,0,0,1-.128-.1l.032-.032h.064l.446.159.415.159a3.291,3.291,0,0,0,.7.128.3.3,0,0,0,.319-.319.762.762,0,0,0-.064-.287c-.064-.128-.159-.223-.191-.223s-.064.032-.064.1v.191c0,.128-.064.223-.191.223a.348.348,0,0,1-.159-.032l-.67-.223A3.033,3.033,0,0,0,74.692,8a1.311,1.311,0,0,0-1.4,1.276c0,.829.574,1.339,2.009,1.818s1.563.606,1.563.957a.405.405,0,0,1-.446.383.7.7,0,0,1-.255-.032c-.064,0-.287-.064-.7-.159a5.37,5.37,0,0,0-1.276-.159,2.627,2.627,0,0,0-2.041.638.319.319,0,0,1-.319.128H71.6a.319.319,0,0,0-.287.191l-.159.287a.166.166,0,0,1-.128.064c-.1,0-.159-.064-.255-.319a2.8,2.8,0,0,0-.191-.319l-.223-.191-.064-.064c0-.032.032-.064.064-.1s.064-.1.1-.128a.242.242,0,0,0,.064-.128v-.1a.07.07,0,0,1,.064-.064c.064,0,.064.032.1.287a.733.733,0,0,0,.1.287l.128.255c0,.032.064.064.1.064.1,0,.255-.255.287-.51s.064-.287.1-.287.064.032.159.191a.561.561,0,0,0,.128.159c.064.032.1.064.128.064h0c.1,0,.128-.064.128-.255v-.1l-.032-.159v-.1c0-.064.032-.1.064-.1s.064,0,.064.032l.1.1a.274.274,0,0,0,.191.1c.1,0,.128-.032.128-.1s0-.064-.1-.223l-.064-.128c-.1-.159-.128-.223-.223-.223h-.1l-.128.064c-.032,0-.064.032-.1.032a.032.032,0,0,1-.032-.032,1.154,1.154,0,0,1,.159-.415,2.181,2.181,0,0,0,.159-.8l.064-.478c.032-.287.064-.415.128-.415s.032,0,.032.032l.032.159v.128a.883.883,0,0,0,.032.255c.032,0,.1-.064.159-.128l.1-.191A.985.985,0,0,0,72.62,9.3c0-.223-.1-.351-.415-.415a.112.112,0,0,1-.064-.032V8.6l-.032-.128-.032-.1-.064-.128-.1.064c-.223.128-.255.159-.319.255s-.128.159-.159.159a.112.112,0,0,1-.064-.032l.032-.159V8.506a.765.765,0,0,0-.351-.606l-.064.1-.064.1-.128.159a.568.568,0,0,0-.128.319v.064c0,.1,0,.1-.064.1h-.032l-.1-.1-.1-.128L70.2,8.378l-.1-.064a.864.864,0,0,0-.1.51v.1c0,.1-.032.159-.064.159s-.064-.032-.128-.064a.239.239,0,0,0-.159-.032.262.262,0,0,0-.255.287.8.8,0,0,0,.159.51c.1.128.191.255.223.255a.778.778,0,0,0,.032-.223l-.032-.159V9.59c0-.064.032-.1.064-.1s.1.064.128.223l.1.383.1.478a2.963,2.963,0,0,0,.128.415c.1.191.128.319.159.351.128.159.128.159.128.191a.032.032,0,0,1-.032.032.118.118,0,0,1-.1-.032c-.032-.032-.064-.032-.128-.032H70.26c-.159,0-.191.128-.191.829a4.886,4.886,0,0,0,.191,1.276l.223.542a.75.75,0,0,1,.064.255,3.762,3.762,0,0,1-2.073,2.455c-.415.191-.542.415-.574.957a.775.775,0,0,1,.351-.128c.287-.1.351-.128.415-.255l.032-.128c.032-.064.064-.1.255-.191a.7.7,0,0,0,.159-.128c.064-.1.1-.128.128-.128s.032.032.032.064v.032l-.128.287v.064a.58.58,0,0,0,.351.51c0-.064.032-.1.032-.128a1.292,1.292,0,0,1,.1-.319l.191-.287c.064-.1.1-.159.1-.446v-.415c0-.064.032-.1.064-.1s.064,0,.064.032l.032.191c0,.032.064.064.1.064.1,0,.223-.128.351-.351a.383.383,0,0,0,.064-.255,1.2,1.2,0,0,0-.032-.319v-.064c0-.064.032-.1.064-.1s.032,0,.064.032l.064.223c.032.064.064.128.128.128.159,0,.319-.319.351-.67,0-.223.032-.287.1-.287s.032,0,.064.032l.032.128c0,.064.032.1.064.1s.064-.032.128-.128c.032-.032.064-.1.1-.128a.118.118,0,0,0,.032-.1c0-.064,0-.064-.1-.128a.319.319,0,0,1-.128-.223,1.276,1.276,0,0,1,.255-.638c.159-.287.191-.319.223-.319s.064.032.064.1a.118.118,0,0,1-.032.1.242.242,0,0,0-.032.128c0,.032.032.064.1.064a.453.453,0,0,0,.191-.064,1.317,1.317,0,0,1,.287-.128,1.7,1.7,0,0,0,.351-.128.472.472,0,0,1,.223-.032.405.405,0,0,1,.191.032.842.842,0,0,0,.223.032.15.15,0,0,0,.159-.159.66.66,0,0,0-.064-.191.958.958,0,0,0-.1-.128c-.032-.032-.064-.064-.064-.1v-.032c0-.032.032-.032.064-.032.1,0,.223.159.383.415.8,1.307,1.18,1.722,1.786,1.913s.765.319.765.67a1.365,1.365,0,0,1-.319.733,2.079,2.079,0,0,0-.542,1.276v.1c.064-.032.1-.032.128-.064.1-.032.128-.064.159-.064l.255-.064a.239.239,0,0,0,.159-.223v-.032l-.032-.223v-.032c0-.128.064-.223.128-.223a.07.07,0,0,1,.064.064l.159.351c.191,0,.255.1.478.191" transform="translate(-46.885 -5.891)"/><path class="f" d="M70.5,15.415v.255c0,.159.032.223.1.223s.159-.128.223-.255a.931.931,0,0,0,.064-.287.271.271,0,0,0-.064-.191c-.032-.128-.1-.159-.159-.159s-.128.128-.159.415" transform="translate(-48.656 -10.727)"/><path class="f" d="M67.142,10.028l.159.128a1.55,1.55,0,0,1,.351,1.052v.159l-.032.478v.415c0,1.339.383,2.232.957,2.232a.66.66,0,0,0,.446-.319c.032-.032.064-.064.1-.064s.064.032.064.1l.032.223.032.191c0,.1.032.159.032.223a.561.561,0,0,1,.032.191c0,.1-.032.128-.255.159a.574.574,0,0,0-.287.128c-.159.1-.255.159-.255.191l-.128.223a.07.07,0,0,1-.064.064c-.064,0-.128-.1-.255-.287a2.523,2.523,0,0,1-.159-.319c0-.032.032-.032.1-.032h.351a.07.07,0,0,0,.064-.064c0-.032-.032-.032-.032-.064l-.446-.191a.89.89,0,0,1-.351-.351.957.957,0,0,1-.191-.446c0-.064.032-.128.1-.128s.032,0,.064.032a.242.242,0,0,0,.128.032c.032,0,.032,0,.064-.032s.032-.032.032-.064-.032-.064-.1-.1a1.276,1.276,0,0,1-.606-.861c0-.064.032-.128.064-.128h.064a1.381,1.381,0,0,1,.159.032c.064,0,.1-.032.1-.064s-.032-.064-.1-.1c-.255-.128-.319-.191-.478-.574a3.892,3.892,0,0,0-.287-.542.615.615,0,0,1,.319-.1c.128,0,.223.1.319.351.064.159.128.255.159.255s.032-.032.032-.128a1.2,1.2,0,0,0-.032-.319.638.638,0,0,1-.032-.223l-.032-.128-.128-.064a.411.411,0,0,1-.159-.351.405.405,0,0,1,.032-.191s.032-.1.064-.223A2.972,2.972,0,0,0,67.206,10V9.9Z" transform="translate(-45.999 -7.253)"/><path class="f" d="M69.407,32.955a.957.957,0,0,1-.478-.159,1.1,1.1,0,0,0-.383-.1.845.845,0,0,0-.446.159l.1.064.191.128.191.159c.064.032.1.064.159.064a.918.918,0,0,0,.67-.319" transform="translate(-47.021 -22.782)"/><path class="f" d="M81.5,30.377a.769.769,0,0,1,.191-.255c.287-.255.415-.415.415-.574v-.223c0-.128.032-.159.1-.159s.064,0,.064.032l.064.128c0,.032.032.032.1.032s.128-.064.255-.255a.319.319,0,0,0,.064-.191.242.242,0,0,0-.032-.128c0-.032-.032-.064-.064-.159a.347.347,0,0,1-.032-.159.086.086,0,0,1,.1-.1c.032,0,.064,0,.064.032l.1.1c.032.032.032.032.064.032a.172.172,0,0,0,.128-.1l.1-.159a.118.118,0,0,0,.032-.1q0-.048-.1-.1l-.128-.064a.733.733,0,0,1-.319-.638.242.242,0,0,1,.032-.128l.064-.159a.347.347,0,0,0,.032-.159.714.714,0,0,0-.1-.319,2.472,2.472,0,0,1-.128-.223c-.064-.159-.1-.191-.159-.191s-.064,0-.128.064l-.1.064-.128.159-.159.064c-.1.032-.159.223-.159.383,0,.223.064.351.383.925a1.684,1.684,0,0,1,.223.574c0,.415-.415.765-1.116.893-.829.159-1.02.319-1.116.829a.772.772,0,0,1,.446-.1h.191a.236.236,0,0,0,.255-.128.778.778,0,0,1,.351-.287l.159-.064.128-.064h.032c.032,0,.064,0,.064.032a.29.29,0,0,1-.1.159.673.673,0,0,0-.159.351.246.246,0,0,0,.032.319" transform="translate(-55.194 -18.355)"/><path class="f" d="M80.5,34.069a1.371,1.371,0,0,1,.319.287c.1.128.1.159.223.159a.348.348,0,0,0,.159-.032l.1-.032c.159-.032.223-.064.223-.1a.112.112,0,0,0-.032-.064l-.128-.1-.128-.1a.568.568,0,0,0-.319-.128.485.485,0,0,0-.415.1" transform="translate(-55.467 -23.641)"/><path class="f" d="M90.8,35.049h.319c.1,0,.159,0,.191-.032a.692.692,0,0,0,.191-.223.191.191,0,0,0,.032-.128c0-.064-.064-.1-.159-.1-.287-.064-.446.1-.574.478" transform="translate(-62.482 -24.047)"/><path class="c" d="M78.628,12.2c0,.1.064.159.1.159s.1-.159.223-.319a1.355,1.355,0,0,0,.255-.574.07.07,0,0,0-.064-.064h0l-.128.1a1.142,1.142,0,0,1-.351.191c-.128.032-.159.1-.159.159v.1l.1.191Z" transform="translate(-54.105 -8.275)"/><path class="c" d="M75.691,11.364a.242.242,0,0,0-.128-.064.07.07,0,0,0-.064.064V11.4a1.379,1.379,0,0,0,.032.159,1.317,1.317,0,0,0,.128.287l.159.255a.319.319,0,0,0,.223.128h0a.112.112,0,0,0,.064-.032L76.138,12l.064-.191v-.032a.166.166,0,0,0-.064-.128l-.159-.1Z" transform="translate(-52.061 -8.207)"/><path class="c" d="M76.837,15.39h-.191a.347.347,0,0,0-.128-.064.239.239,0,0,0-.159-.032.15.15,0,0,0-.159.159,1.1,1.1,0,0,0,.128.415,3.309,3.309,0,0,1,.128.319c.128.287.223.415.383.415s.223-.1.319-.319l.128-.446c.064-.128.191-.191.191-.319a.246.246,0,0,0-.255-.223h-.064l-.159.1Z" transform="translate(-52.537 -10.926)"/><path class="f" d="M77.623,16.5H77.5c-.032,0-.032,0-.064.032s-.032.032-.032.064l.064.255.032.223c.032.128.032.159.128.159a.185.185,0,0,0,.191-.191l.032-.223a.552.552,0,0,1,.032-.223c0-.032,0-.032-.032-.064a.112.112,0,0,0-.064-.032Z" transform="translate(-53.355 -11.749)"/><path class="c" d="M15.4,72.236a1.18,1.18,0,0,1,.128.478l.032.415c.032.415.159.638.415.638a.373.373,0,0,0,.223-.064l.128-.128h.032c.064,0,.1.032.1.128v.159a3.651,3.651,0,0,0,.032.478,1.818,1.818,0,0,1,.032.415.957.957,0,0,1-.1.51,2.06,2.06,0,0,1,.128.606.81.81,0,0,1-.128.51,2.844,2.844,0,0,1,.064.351,1.83,1.83,0,0,1-.032.383,1.343,1.343,0,0,0-.032.478v.032c0,.064-.032.1-.064.1a.172.172,0,0,1-.128-.1c-.064-.1-.1-.1-.159-.1s-.1.032-.191.351a1.556,1.556,0,0,1-.255.383,2.161,2.161,0,0,0-.191.287c-.032.128-.064.191-.064.223s-.032.032-.064.064h0q-.239,0-.574-1.052c-.064-.191-.128-.287-.223-.287a.261.261,0,0,0-.191.128l-.064.128c0,.032-.032.032-.064.032-.1,0-.191-.159-.287-.351a1.276,1.276,0,0,1-.1-.478c0-.319.223-.574.957-.957a.9.9,0,0,0,.032-1.5.915.915,0,0,0-.446-.223.15.15,0,0,0-.159.159q0,.143.191.191c.159.064.223.128.223.191a1.356,1.356,0,0,1-.159.383,1.139,1.139,0,0,1-.319.351,1.068,1.068,0,0,1-.478.67,1.432,1.432,0,0,1-.191.383l-.223.287a2.95,2.95,0,0,0-.159.319c-.032.159-.032.191-.1.191a1.1,1.1,0,0,1-.415-.351.478.478,0,0,1-.128-.351c-.1.1-.128.1-.351.128a2.031,2.031,0,0,0-.287.064.539.539,0,0,1-.223.1c-.032,0-.064-.032-.064-.1v-.223a1.62,1.62,0,0,1,.319-.925.855.855,0,0,0-.51-.255c-.064,0-.064,0-.064-.032a.351.351,0,0,1,.1-.191.542.542,0,0,1,.191-.191,1.008,1.008,0,0,1,.606-.223,1.98,1.98,0,0,1,.574.159.75.75,0,0,0,.255.064.169.169,0,0,0,.191-.191,3.119,3.119,0,0,0-.287-.957,2.194,2.194,0,0,1-.191-.67.957.957,0,0,1,.383-.829.319.319,0,0,0-.223-.064.714.714,0,0,0-.319.1c-.159.1-.223.159-.223.223s.032.064.1.1a.147.147,0,0,1,.1.159,1.189,1.189,0,0,1-.51.8.928.928,0,0,1-.542.733.915.915,0,0,1-.223.478,2.232,2.232,0,0,0-.383.7c-.032.1-.064.159-.1.159a.475.475,0,0,1-.223-.191,2.35,2.35,0,0,1-.159-.191,2.038,2.038,0,0,1-.128-.319.287.287,0,0,1-.159.032H9.816a1.39,1.39,0,0,0-.574.128.118.118,0,0,1-.1.032c-.064,0-.128-.128-.128-.319a1.594,1.594,0,0,1,.351-1.02.548.548,0,0,1-.191-.191c-.032-.032-.064-.064-.1-.064l-.128-.064c-.032-.032-.064-.032-.064-.064a1.378,1.378,0,0,1,.319-.319.925.925,0,0,1,.51-.191c.159,0,.255.032.478.223.159.128.255.191.319.191s.1-.032.159-.1a.242.242,0,0,0,.064-.159,1.164,1.164,0,0,0-.478-.7,1.126,1.126,0,0,0-.606-.191.638.638,0,0,0-.638.383l-.128.223q-.048.1-.1.1c-.064,0-.1-.032-.319-.287l-.255-.319a.8.8,0,0,1-.159-.255c-.032-.064-.032-.128-.064-.128l-.1-.1a1.559,1.559,0,0,1-.446-.861c0-.032-.032-.064-.032-.128a1.748,1.748,0,0,1-.415-1.02.242.242,0,0,1,.032-.128c-.159-.159-.159-.191-.287-.574a2.315,2.315,0,0,0-.223-.542.1.1,0,0,1-.032-.064c0-.064.1-.1.223-.128a.682.682,0,0,1,.191-.032h.191v-.287a1.32,1.32,0,0,1,.064-.478.638.638,0,0,0,.032-.223.682.682,0,0,0-.032-.191,1.381,1.381,0,0,0-.032-.159c0-.032-.032-.064-.032-.1a.07.07,0,0,1,.064-.064.242.242,0,0,1,.128.032c.191.1.319.191.446.255a1.626,1.626,0,0,1,.638.957v.1a.638.638,0,0,1-.032.159.539.539,0,0,0,.064.159l.128.159a.749.749,0,0,1,.159.415c0,.1-.032.128-.191.383a.759.759,0,0,0-.159.446,1.32,1.32,0,0,0,.191.638c.128.223.255.319.383.319.223,0,.319-.191.351-.733a5,5,0,0,1,.1-.765v-.128c0-.064-.032-.1-.1-.191l-.319-.351c-.287-.351-.383-.51-.383-.765a.443.443,0,0,1,.446-.478h.128v-.064a1.617,1.617,0,0,1,.064-.287.753.753,0,0,1,.191-.383.4.4,0,0,0,.1.064c.032,0,.064.032.191.064a1.05,1.05,0,0,1,.191.1,1.856,1.856,0,0,1,.159-.351,1.378,1.378,0,0,1,.319-.319c.032,0,.1.032.159.128l.191.191a1.887,1.887,0,0,1,.128.191l.032.1c.064-.032.1-.064.128-.064.064-.064.128-.064.159-.1l.191-.1a.4.4,0,0,0,.1-.064c.032,0,.064.064.128.415a1.244,1.244,0,0,1,.064.446.5.5,0,0,1,.478.574,1.486,1.486,0,0,1-.51,1.02.319.319,0,0,0-.128.255c0,.893.319,1.18,1.435,1.307a6.518,6.518,0,0,1,1.722.383,3.894,3.894,0,0,0,.861.191q.287,0,.287-.191c0-.191-.128-.255-.957-.415-1.881-.383-2.647-1.052-2.647-2.3a1.524,1.524,0,0,1,1.563-1.563,2.634,2.634,0,0,1,1.307.446c.51.287.606.351.733.351s.191-.1.191-.319c0-.128.032-.223.128-.223s.191.1.319.223a.769.769,0,0,1,.223.574.718.718,0,0,1-.574.733l-.1.1a.88.88,0,0,1-.733.319,1.744,1.744,0,0,1-.893-.287l-.478-.351a.858.858,0,0,0-.51-.223.287.287,0,0,0-.319.319.469.469,0,0,0,.351.446l.446.159a4.677,4.677,0,0,1,.446.191.718.718,0,0,1,.223-.032,1.655,1.655,0,0,1,.861.223.52.52,0,0,1,.191.1l.255.064a1.556,1.556,0,0,1,1.052,1.435,1.113,1.113,0,0,1-1.212,1.18Z" transform="translate(-5.065 -45.736)"/><path class="f" d="M19.8,78.871l.064-.128.159-.159a.749.749,0,0,0,.191-.542,1.132,1.132,0,0,0-.064-.319.561.561,0,0,1-.032-.191.143.143,0,0,1,.1-.128.07.07,0,0,1,.064.064l.159.159a.437.437,0,0,0,.255.159V77.5a1.307,1.307,0,0,0-.223-.7c-.1-.1-.128-.159-.128-.191a.07.07,0,0,1,.064-.064.032.032,0,0,1,.032.032.494.494,0,0,0,.191.1c.064,0,.1-.128.1-.255a1,1,0,0,0-.223-.574c-.064-.064-.1-.128-.128-.159s-.032-.032-.032-.064.032-.064.1-.064.064,0,.128.064a.1.1,0,0,0,.064.032c.064,0,.1-.128.1-.415v-.319c0-.223-.032-.255-.128-.255h-.1c-.51,0-.733-.319-.861-1.18-.1-.606-.319-1.052-.606-1.148-.159-.064-.223-.1-.223-.128s.032-.064.1-.064a.66.66,0,0,1,.191.064,3.112,3.112,0,0,0,1.052.255.832.832,0,0,0,.861-.829,1.333,1.333,0,0,0-.478-.989,1.119,1.119,0,0,0-.255-.159h-.032l-.064.032.032.159.032.1V70.8c0,.032-.032.032-.064.032s-.064,0-.064-.032l-.191-.287a1.024,1.024,0,0,0-.7-.415c-.1,0-.128.032-.128.1a.242.242,0,0,0,.064.128.29.29,0,0,1,.1.159v.032a.032.032,0,0,1-.032.032h0c-.064,0-.064-.032-.287-.287a1.228,1.228,0,0,0-.765-.415c-.032,0-.064,0-.064.032l-.032.032c0,.032.032.064.064.128s.128.128.128.159-.032.032-.064.032a1.949,1.949,0,0,1-.446-.287,1.116,1.116,0,0,1-.542-.925.676.676,0,0,1,.638-.7,1.1,1.1,0,0,1,.67.255l.51.383a1.4,1.4,0,0,0,.8.255.405.405,0,0,0,.191-.032l.064-.064a.14.14,0,0,0-.1-.032.721.721,0,0,1-.415-.191l-.51-.383a3.372,3.372,0,0,0-.415-.287c-.255-.128-.319-.159-.319-.191A.112.112,0,0,1,18.4,68a.118.118,0,0,1,.1.032l.255.128a2.423,2.423,0,0,1,.415.255,2.124,2.124,0,0,0,1.148.478.513.513,0,0,0,.542-.51.405.405,0,0,0-.032-.191l-.064-.1-.064-.064-.032.032-.032.223a.1.1,0,0,1-.032.064c-.032.032-.032.064-.064.1a.27.27,0,0,1-.191.064c-.159,0-.351-.1-.829-.383a2.446,2.446,0,0,0-1.276-.478A1.349,1.349,0,0,0,16.9,68.986c0,1.02.638,1.5,2.583,1.913.733.159,1.084.383,1.084.7s-.255.478-.638.478a.708.708,0,0,1-.287-.032,9.789,9.789,0,0,1-1.052-.287,5.08,5.08,0,0,0-1.371-.191,1.781,1.781,0,0,0-1.626.733.239.239,0,0,1-.1.1.118.118,0,0,1-.1-.032l-.128-.128a.781.781,0,0,0-.383-.128.344.344,0,0,0-.223.1.4.4,0,0,0-.1.064c-.064,0-.159-.128-.255-.287a1.486,1.486,0,0,1-.159-.7c0-.1.032-.159.064-.159s.064.032.064.1l.1.287c.032.159.128.287.223.287.032,0,.1-.032.159-.128a.7.7,0,0,0,.1-.159c.064-.191.064-.223.128-.223s.1.032.128.223a.539.539,0,0,0,.064.159c.032.064.1.128.128.191s.064.064.1.064c.1,0,.159-.159.159-.319v-.223c0-.064,0-.1.064-.1s.032,0,.064.064a.319.319,0,0,0,.159.128.54.54,0,0,0,.159.064c.032,0,.064-.032.1-.064a.118.118,0,0,0,.032-.1c0-.032-.032-.064-.159-.191a1,1,0,0,1-.191-.415c-.032-.1-.064-.128-.1-.128a.1.1,0,0,0-.064.032l-.128.064-.1.032h-.032a.07.07,0,0,1-.064-.064.836.836,0,0,1,.191-.255.319.319,0,0,0,.128-.287c0-.159.032-.319.064-.319l.032-.351a2.784,2.784,0,0,1,.159-.7.112.112,0,0,1,.032-.064c.032,0,.064.064.064.159v.159c0,.128.032.191.064.191s.1-.064.128-.191l.1-.223a.4.4,0,0,0,.032-.191.319.319,0,0,0-.287-.351h-.064a.112.112,0,0,0-.064.032c-.064,0-.1-.064-.1-.128v-.351l-.032-.223v-.1l-.1.064-.128.1-.159.128-.128.128a.1.1,0,0,1-.064.032c-.064,0-.1-.032-.1-.191v-.032c0-.128-.064-.223-.255-.478l-.064-.064-.032.064-.128.191-.128.287-.032.191a.14.14,0,0,1-.032.1c-.032,0-.064-.032-.1-.064a.619.619,0,0,0-.446-.287l-.032.064c-.032.128-.064.191-.064.223v.351c0,.064-.032.1-.064.1h0l-.064-.064c-.032-.032-.064-.032-.128-.032-.191,0-.319.1-.319.255s.032.223.223.51c.1.128.191.223.223.223s.032-.064.032-.159l-.032-.128a.348.348,0,0,1-.032-.159c0-.064.032-.1.064-.1.1,0,.191.255.223.638l.032.383a1.04,1.04,0,0,0,.128.415,1.537,1.537,0,0,0,.255.383c.1.064.159.128.159.159a.07.07,0,0,1-.064.064,1.027,1.027,0,0,0-.191-.064h-.1c-.191,0-.287.128-.287.478a2.009,2.009,0,0,0,.606,1.307l.478.383a1.161,1.161,0,0,1,.415.733c0,.287-.319.606-.893.8l-.351.128c-.255.1-.383.255-.478.765a1.183,1.183,0,0,1,.287-.064h.191a.214.214,0,0,0,.223-.191v-.1q0-.048.1-.1a.348.348,0,0,0,.128-.064l.128-.1c.032,0,.032-.032.064-.032a.07.07,0,0,1,.064.064.118.118,0,0,1-.032.1,1.145,1.145,0,0,0-.064.351.871.871,0,0,0,.159.574.319.319,0,0,1,.032-.128,1.4,1.4,0,0,1,.159-.287,1.276,1.276,0,0,0,.255-.638v-.032l-.032-.223a.242.242,0,0,1,.064-.128c.032-.032.032-.032.064-.032s.064.032.1.1a.4.4,0,0,0,.064.1c.032,0,.1-.1.159-.191a.81.81,0,0,0,.064-.223.191.191,0,0,0-.032-.128.242.242,0,0,1-.032-.128c0-.032,0-.032.032-.064s.032-.032.064-.032.032,0,.064.032l.1.064a.118.118,0,0,0,.1.032c.032,0,.1-.032.159-.128a.89.89,0,0,0,.159-.287c0-.032-.032-.032-.064-.1a.81.81,0,0,1-.351-.542.347.347,0,0,1,.032-.159l.1-.287c.064-.128.064-.223.1-.223h.032a.07.07,0,0,1,.064.064.242.242,0,0,1-.032.128.475.475,0,0,0-.032.191c0,.064.032.128.1.128a.287.287,0,0,0,.159-.032,2.108,2.108,0,0,1,.7-.191.679.679,0,0,1,.383.128.118.118,0,0,0,.1.032c.032,0,.032,0,.064-.032s.032-.032.032-.064a.242.242,0,0,0-.064-.128.175.175,0,0,1-.064-.159.07.07,0,0,1,.064-.064c.159,0,.415.51.638,1.307.191.638.255.7.861,1.052a1.1,1.1,0,0,1,.7,1.052,6.155,6.155,0,0,1-.383,1.818,1.569,1.569,0,0,0-.128.542,2.373,2.373,0,0,0,.1.478c.032.128.064.223.064.223.191.128.223.191.255.255" transform="translate(-9.628 -46.281)"/><path class="f" d="M24.22,89.9c.064-.128.1-.159.191-.351a1.043,1.043,0,0,0,.223-.51V88.88c0-.159.032-.223.1-.223s.032,0,.064.032l.064.1c0,.032.032.032.064.032a.172.172,0,0,0,.128-.1.957.957,0,0,0,.128-.351v-.255a.086.086,0,0,1,.1-.1c.032,0,.064,0,.1.1a.4.4,0,0,0,.064.1c.032,0,.064-.032.1-.064l.1-.128.064-.1V87.86c0-.032-.032-.064-.064-.1a.8.8,0,0,1-.287-.733,1.993,1.993,0,0,0-.064-.574,3.793,3.793,0,0,0-.191-.446,2.659,2.659,0,0,1-.128-.383c-.032-.1-.064-.128-.128-.128a.488.488,0,0,0-.478.542,2.143,2.143,0,0,0,.223.829,2.653,2.653,0,0,1,.255.861c0,.383-.159.542-.67.733a1.291,1.291,0,0,0-.957,1.052.118.118,0,0,1,.1-.032c.064-.032.128-.032.128-.064l.159-.032a.5.5,0,0,0,.287-.191l.032-.128a.07.07,0,0,1,.064-.064l.1-.032.1-.032.032.032-.032.128a1.8,1.8,0,0,0-.032.223.571.571,0,0,0,.1.574" transform="translate(-16.439 -58.745)"/><path class="f" d="M8.042,69.6c0,.064.032.1.032.128a1.027,1.027,0,0,1-.032.255l-.032.223a1.489,1.489,0,0,0,.1.542.552.552,0,0,1,.064.223V71a.112.112,0,0,1-.032.064c-.032,0-.064-.032-.1-.064a.663.663,0,0,0-.383-.159.348.348,0,0,0-.159.032L7.564,71l.159.383.223.319.223.159c.032,0,.032.032.064.064a.1.1,0,0,1,.032.064.032.032,0,0,1-.032.032H8.042a.112.112,0,0,0-.064.032,2.063,2.063,0,0,0,.1.319l.1.287.159.159.191.128a.172.172,0,0,1,.1.128.112.112,0,0,1-.032.064h-.1c-.032,0-.064.032-.064.1a.816.816,0,0,0,.191.383c.159.223.255.287.446.287h.159c.064,0,.128.032.128.1s-.032.064-.1.1c-.128.032-.191.064-.191.128s.032.064.064.1l.1.128a.376.376,0,0,0,.191.159.29.29,0,0,0,.159-.1.73.73,0,0,1,.319-.223c.351-.1.415-.128.415-.223a.242.242,0,0,0-.032-.128.8.8,0,0,1-.159-.51c0-.128-.032-.223-.064-.223s-.064.032-.1.1a.482.482,0,0,1-.351.223c-.351,0-.765-.542-.989-1.276a1.492,1.492,0,0,1-.064-.542,4.783,4.783,0,0,1,.064-.638,2.593,2.593,0,0,1,.128-.51v-.128a1.977,1.977,0,0,0-.7-.829" transform="translate(-5.746 -47.915)"/><path class="f" d="M11.159,74.1a2.066,2.066,0,0,0-.159.67c0,.128.032.223.1.223s.032-.032.064-.064l.128-.191c.032-.032.032-.064.064-.128a.539.539,0,0,0,.064-.159.405.405,0,0,0-.255-.351" transform="translate(-8.13 -50.98)"/><path class="f" d="M15.1,88.242l.064.064.1.1c.191.191.223.223.319.223a1.681,1.681,0,0,0,.383-.1l.064-.064a.552.552,0,0,0-.1-.128l-.128-.1a.883.883,0,0,0-.287-.159c-.128-.032-.223.032-.415.159" transform="translate(-10.923 -60.498)"/><path class="f" d="M22.5,93.787a.52.52,0,0,1,.191.1,1.658,1.658,0,0,0,.159.1,1.383,1.383,0,0,0,.159.032.191.191,0,0,0,.128-.032l.223-.1.191-.064a.4.4,0,0,0,.1-.064.348.348,0,0,0-.128-.064.539.539,0,0,1-.159-.064c-.255-.1-.287-.128-.383-.128a.845.845,0,0,0-.478.287" transform="translate(-15.963 -64.194)"/><path class="f" d="M30.464,98.552c.064-.159.128-.191.351-.191s.51-.478.51-.8c0-.032,0-.064-.032-.064a.1.1,0,0,0-.064.032c-.064.064-.128.064-.159.1l-.287.128a.733.733,0,0,0-.383.574c0,.032.032.1.064.223" transform="translate(-21.343 -66.918)"/><path class="c" d="M16.323,71.878l.1.159a.957.957,0,0,0,.223.159c.032,0,.032-.032.064-.1l.032-.159v-.159c0-.128-.064-.191-.351-.255-.064-.032-.1,0-.128-.064a.242.242,0,0,0-.128-.064c-.032,0-.032,0-.032.032v.032l.064.159Z" transform="translate(-11.604 -49.141)"/><path class="c" d="M19.451,71.81l-.128.223-.064.064h0c-.064,0-.1-.128-.128-.255l-.032-.191c0-.1.064-.128.191-.159s.159-.032.191-.064c.1-.064.159-.1.159-.128h.032c.032,0,.032.032.032.064h0l-.064.159Z" transform="translate(-13.647 -49.073)"/><path class="c" d="M17.629,74.757l.159-.1a.112.112,0,0,0,.064-.032.147.147,0,0,1,.128.159,1.276,1.276,0,0,1-.223.51c-.128.255-.223.415-.351.415s-.351-.223-.542-.638a.931.931,0,0,1-.064-.287c0-.128.064-.191.159-.191a.191.191,0,0,1,.128.032l.1.064a.424.424,0,0,0,.255.1.21.21,0,0,0,.191-.032" transform="translate(-12.08 -51.319)"/><path class="f" d="M18.054,75.764l-.128-.032h-.032a.086.086,0,0,0-.1.1,1.237,1.237,0,0,0,.191.446.1.1,0,0,0,.064.032c.064,0,.128-.128.159-.319l.032-.159V75.8c0-.064-.032-.1-.064-.1h-.032" transform="translate(-12.76 -52.07)"/><path class="c" d="M72.968,72.04a.918.918,0,0,0,.638.383c.064,0,.159-.032.287-.032.064,0,.1-.032.128-.032a.069.069,0,0,1,.064.064.66.66,0,0,1-.064.191.453.453,0,0,0-.064.191l-.032.223-.1.191-.128.128-.032.032v.128a.564.564,0,0,1-.287.542c-.032,0-.032.032-.064.064l-.032.1a.957.957,0,0,1-.1.351,2.163,2.163,0,0,1-.191.287,2.089,2.089,0,0,0-.255.415c-.032.1-.064.128-.128.128s-.191-.128-.223-.287c-.032.032-.032.064-.064.064l-.128.1-.191.128a.874.874,0,0,0-.159.128l-.128.128c-.032.032-.032.032-.064.032s-.1-.1-.159-.255l-.1-.351a.982.982,0,0,1-.032-.319.638.638,0,0,1,.064-.351c-.191.032-.255.032-.383.064-.032,0-.064.032-.1.032a.07.07,0,0,1-.064-.064,1.38,1.38,0,0,0,.032-.159l.128-.351a.893.893,0,0,1,.7-.51.986.986,0,0,1,.255.064.348.348,0,0,0,.159.032.214.214,0,0,0,.223-.191c0-.064-.032-.128-.1-.128a2.149,2.149,0,0,1-.383-.128,1.011,1.011,0,0,1-.446-.351c-.128-.159-.191-.223-.255-.223a.07.07,0,0,0-.064.064v.191a2.028,2.028,0,0,1-.287.925l-.287.51a1.426,1.426,0,0,0-.191.638c0,.191.1.383.191.415l.159.032c.032,0,.032,0,.064.032s.032.032.032.064-.032.064-.064.1a2.448,2.448,0,0,1-.191.223.957.957,0,0,1-.51.383,1.062,1.062,0,0,1-.67.606l-.032.064a.8.8,0,0,1-.574.415h-.032a.794.794,0,0,1-.351.51c-.128.1-.223.159-.223.159a.4.4,0,0,0-.064.1c-.032.1-.1.159-.159.159s-.191-.1-.255-.287c-.032.032-.064.032-.1.064a1.457,1.457,0,0,1-.191.128.957.957,0,0,1-.351.1c-.255.064-.478.159-.51.255l-.1.159-.032.032c-.064,0-.1-.064-.128-.159a2.357,2.357,0,0,1-.1-.574,1.276,1.276,0,0,1,.478-.957v-.1a.957.957,0,0,1,1.052-.957h.1l.351.032h.032a.8.8,0,0,0,.542-.223.609.609,0,0,0,.319-.574,2.766,2.766,0,0,0-.1-.415,1.241,1.241,0,0,1-.064-.478,1.722,1.722,0,0,1,.733-1.244c.1-.064.191-.159.191-.223s0-.032-.032-.032-.064.032-.128.064-.128.1-.255.159l-.159.1L69.077,73q-.1.048-.1.1a.118.118,0,0,0,.032.1.112.112,0,0,0,.032.064c0,.032-.032.064-.064.128l-.128.223a1.03,1.03,0,0,1-.415.415c-.128.351-.287.51-.51.542a.851.851,0,0,1-.7.574.957.957,0,0,1-.319.478c-.064.064-.128.128-.128.159-.1.128-.1.159-.128.159a.414.414,0,0,1-.223-.159.44.44,0,0,1-.1-.128l-.1-.159c-.032-.064-.064-.064-.1-.064H66.08l-.223.032a.871.871,0,0,0-.415.223l-.128.191c0,.032-.032.032-.064.032-.1,0-.159-.191-.159-.542a.957.957,0,0,1,.159-.638l.287-.383c.032-.064.064-.1.064-.159a.242.242,0,0,0-.064-.128c-.064-.064-.128-.128-.159-.128l-.223-.032c-.032,0-.064,0-.064-.032s0-.032.032-.064a.861.861,0,0,1,.255-.223,1.094,1.094,0,0,1,.606-.223,1.3,1.3,0,0,1,.542.159l.287.191a.191.191,0,0,0,.128.032.446.446,0,0,0,.351-.255A.979.979,0,0,0,67.419,73a.654.654,0,0,0-.67-.67.934.934,0,0,0-.542.191c-.064.032-.1.064-.1.128l-.1.191-.064.064c-.064,0-.159-.159-.255-.351a1.075,1.075,0,0,1-.128-.383,1.6,1.6,0,0,1-.1-.51V71.37a1.151,1.151,0,0,1-.191-.638.893.893,0,0,1,.064-.351.676.676,0,0,1-.128-.446v-.128l.032-.128.032-.128a1.5,1.5,0,0,1-.223-.67,2.167,2.167,0,0,0-.128-.415A.1.1,0,0,1,64.9,68.4c0-.064.128-.128.319-.128h.159a.475.475,0,0,1-.032-.191,2.194,2.194,0,0,1,.064-.415.549.549,0,0,0,.064-.255c0-.128-.032-.255-.032-.319l-.1-.191a.118.118,0,0,1-.032-.1c0-.032,0-.032.064-.032a1.869,1.869,0,0,1,.893.51,1.122,1.122,0,0,1,.383.925l-.032.223c.287.255.415.446.415.67a.619.619,0,0,1-.191.415.874.874,0,0,0-.351.765c0,.542.159.829.446.829s.478-.287.51-.7l.032-.383a2.354,2.354,0,0,1,.064-.383.9.9,0,0,0,.032-.255c0-.128-.1-.319-.351-.638a1.234,1.234,0,0,1-.383-.765.513.513,0,0,1,.51-.542.271.271,0,0,1,.191.064.638.638,0,0,1,.128-.446.752.752,0,0,1,.191-.351.1.1,0,0,1,.064.032c.032.032.1.1.128.1a.4.4,0,0,1,.1.064l.1.1a.877.877,0,0,1,.319-.51c.128-.128.191-.191.223-.191s.032.032.064.064l.128.159.159.191a.5.5,0,0,1,.128.319l.1-.064.159-.1c.032-.032.064-.032.128-.1a.1.1,0,0,1,.064-.032c.032,0,.032.032.064.064l.064.223.128.255a.494.494,0,0,1,.064.255v.064H70.1a.472.472,0,0,1,.383.51,1.505,1.505,0,0,1-.67,1.084.883.883,0,0,0-.032.287c0,.8.223.989,1.467,1.18a4.784,4.784,0,0,1,.829.159c.032,0,.319.1.8.255a1.853,1.853,0,0,0,.606.128c.159,0,.223-.032.223-.128s-.191-.255-.829-.51l-.893-.351A1.772,1.772,0,0,1,70.64,68.5,1.594,1.594,0,0,1,72.3,66.842a3.294,3.294,0,0,1,1.212.255,5.848,5.848,0,0,0,.733.255c.128,0,.191-.1.223-.255s.064-.223.128-.223c.128,0,.255.128.351.319a1.049,1.049,0,0,1,.128.542.6.6,0,0,1-.51.638.957.957,0,0,1-.829.415c-.415,0-.606-.1-1.307-.51a.861.861,0,0,0-.542-.191.373.373,0,0,0-.415.351c0,.191.159.319.478.415a.9.9,0,0,1,.351.159.427.427,0,0,1,.159-.032,1.913,1.913,0,0,1,1.084.478,1.7,1.7,0,0,1,1.18,1.435,1.193,1.193,0,0,1-1.148,1.18c.032.064-.319.032-.606-.032" transform="translate(-44.842 -45.668)"/><path class="f" d="M73.743,75.868l.032-.128.032-.159c0-.032.032-.1.128-.159a.883.883,0,0,0,.159-.51.453.453,0,0,0-.064-.191.118.118,0,0,1-.032-.1,376.882,376.882,0,0,0,.064-.064h0c.032,0,.064.032.1.064a.239.239,0,0,0,.1.1c.032,0,.1-.064.128-.191a.14.14,0,0,1,.032-.1.606.606,0,0,0-.1-.287.118.118,0,0,1-.032-.1.07.07,0,0,1,.064-.064c.032,0,.064.032.128.1a.1.1,0,0,0,.064.032c.064,0,.1-.064.159-.223a.427.427,0,0,0,.032-.159c0-.032,0-.032-.032-.032H74.54a.836.836,0,0,1-.574-.287l-.287-.351c-.1-.128-.255-.351-.255-.351l-.223-.159c-.032-.032-.064-.064-.064-.1s.032-.064.1-.064a2.7,2.7,0,0,1,.542.191,3.106,3.106,0,0,0,1.02.223.887.887,0,0,0,.893-.861,1.276,1.276,0,0,0-.415-.829.485.485,0,0,0-.191-.128.07.07,0,0,0-.064.064.242.242,0,0,0,.032.128c0,.032.032.064.032.1a.07.07,0,0,1-.064.064q-.1,0-.191-.287c-.064-.223-.191-.351-.51-.51A1.565,1.565,0,0,0,74,70.415a.032.032,0,0,0-.032.032.191.191,0,0,0,.032.128l.1.191h0a.07.07,0,0,1-.064.064c-.064,0-.1-.032-.223-.255a1,1,0,0,0-.446-.351.348.348,0,0,0-.159-.032h0a.112.112,0,0,0-.064.032.14.14,0,0,1,.032.1v.064a.07.07,0,0,1-.064.064,1.276,1.276,0,0,1-.415-.319,1,1,0,0,1-.255-.606.8.8,0,0,1,.8-.733.6.6,0,0,1,.255.064l.351.191.415.287a1.76,1.76,0,0,0,.765.287.854.854,0,0,0,.319-.064c.1-.032.159-.064.159-.1h0l-.032-.032-.223-.032a1.515,1.515,0,0,1-.638-.287l-.478-.319-.415-.159a.07.07,0,0,1-.064-.064c0-.032.032-.032.064-.032a.5.5,0,0,1,.128.032l.383.128a2.7,2.7,0,0,1,.478.223,2.133,2.133,0,0,0,.893.319.4.4,0,0,0,.415-.383c0-.064-.032-.191-.032-.287a.242.242,0,0,0-.064-.128c-.032-.032-.032-.032-.064-.032s-.032.032-.032.1v.128c0,.191-.064.255-.287.255A2.806,2.806,0,0,1,74.6,68.6a2.87,2.87,0,0,0-1.084-.255,1.435,1.435,0,0,0-1.435,1.339q0,.909,1.244,1.435l.861.351c.733.287.989.51.989.8,0,.223-.223.383-.542.383a1.888,1.888,0,0,1-.67-.159,6.088,6.088,0,0,0-1.818-.351,2.188,2.188,0,0,0-1.722.67c-.064.064-.1.064-.128.064s-.064,0-.159-.064a.59.59,0,0,0-.223-.064.485.485,0,0,0-.255.128l-.1.128c-.032.032-.064.064-.1.064a.758.758,0,0,1-.287-.287.51.51,0,0,1-.1-.255c0-.064-.032-.159-.032-.287v-.191l.032-.191a.386.386,0,0,1,.032-.159c0-.032.032-.032.064-.032s.064.064.064.159v.1c0,.287.128.542.255.542s.191-.191.255-.542c0-.064.032-.128.064-.128s.064.064.1.191a1.49,1.49,0,0,0,.159.319.172.172,0,0,0,.128.1c.1,0,.128-.128.191-.415q.048-.191.1-.191c.032,0,.032,0,.032.032a.348.348,0,0,1,.064.128.44.44,0,0,0,.128.1.243.243,0,0,0,.128.032.118.118,0,0,0,.1-.032c.032-.032.064-.064.064-.1a.4.4,0,0,1-.064-.1.845.845,0,0,1-.191-.351.491.491,0,0,0-.1-.223c-.032-.032-.032-.064-.064-.064h-.1s-.1.032-.223.064H70.2c-.032,0-.032-.032-.032-.064s.032-.064.1-.128a1.486,1.486,0,0,0,.478-1.052,1.049,1.049,0,0,1,.191-.606L71,69.363c.032,0,.064.032.064.1a.347.347,0,0,1-.032.159c0,.032-.032.1-.032.128v.032l.032.064.128-.032.128-.128a.906.906,0,0,0,.128-.415.29.29,0,0,0-.1-.223c-.064-.064-.1-.1-.159-.1h-.128c-.064,0-.1-.032-.1-.064l.032-.064v-.128l-.064-.255-.064-.128-.032-.1-.064.064-.159.1c-.032.032-.1.064-.128.128-.159.191-.159.191-.223.191s-.064,0-.064-.032v-.032a.638.638,0,0,0,.032-.223.979.979,0,0,0-.287-.606.829.829,0,0,0-.319.638v.128c0,.032,0,.064-.032.064h0a.07.07,0,0,1-.064-.064l-.128-.159a1.152,1.152,0,0,0-.159-.128c-.032,0-.032-.032-.1-.064l-.032.1a.979.979,0,0,0-.128.478c0,.128-.032.191-.064.191a.1.1,0,0,1-.064-.032c-.159-.1-.159-.1-.223-.1a.3.3,0,0,0-.319.319.775.775,0,0,0,.128.351c.1.159.223.319.287.319s.032,0,.032-.064v-.191l-.032-.128v-.032c0-.032,0-.064.032-.064.1,0,.159.255.255.8a1.687,1.687,0,0,0,.383.989l.1.1a.032.032,0,0,1-.032.032c-.032,0-.064-.032-.128-.064a.118.118,0,0,0-.1-.032.274.274,0,0,0-.223.255l-.1.574-.064.829a2.289,2.289,0,0,0,.064.606c.032.223.064.383.064.478a1.317,1.317,0,0,1-1.02,1.276l-.67.191a.907.907,0,0,0-.67.893c.1-.1.128-.1.287-.128l.191-.032a.188.188,0,0,0,.159-.064c.032,0,.064-.064.128-.128l.159-.191c.064-.064.128-.128.159-.128s.032.032.032.064a.539.539,0,0,1-.064.159.344.344,0,0,0-.064.255.682.682,0,0,0,.159.415.243.243,0,0,0,.032-.128c.032-.032.064-.1.159-.223a1.748,1.748,0,0,0,.255-.446c0-.159.032-.223.064-.223s.032,0,.064.1c0,.032,0,.032.032.064s.032.032.064.032a.246.246,0,0,0,.1-.032.7.7,0,0,0,.159-.128l.1-.191a1.255,1.255,0,0,0,.064-.191v-.128c0-.032,0-.064.032-.064s.064.064.1.128.032.064.064.064h0c.032,0,.064-.032.1-.032a.615.615,0,0,0,.191-.383v-.191l-.032-.159h0a.07.07,0,0,1,.064-.064c.032,0,.1.064.159.223q.048.1.1.1c.064,0,.1-.032.191-.159l.1-.128a.159.159,0,0,0,0-.191l-.1-.128c0-.032-.032-.064-.032-.1a1.193,1.193,0,0,1,.159-.478,1.734,1.734,0,0,0,.128-.255c.032-.032.032-.064.064-.064s.032.032.032.064v.319c0,.032.032.064.1.064a.118.118,0,0,0,.1-.032l.255-.1a1.83,1.83,0,0,0,.223-.128,1.308,1.308,0,0,1,.733-.255.915.915,0,0,1,.478.159.156.156,0,0,0,.1.032c.032,0,.064-.032.1-.064a.1.1,0,0,0,.032-.064A.191.191,0,0,0,72.213,73a.539.539,0,0,1-.064-.159.032.032,0,0,1,.032-.032.07.07,0,0,1,.064.064c.032.064.1.191.223.415a1.276,1.276,0,0,0,.67.638l.446.1c.128.032.159.1.159.255a.9.9,0,0,1-.415.765l-.383.223a.721.721,0,0,0-.255.51,4.071,4.071,0,0,0,.064.542l.064-.064.159-.1L73.137,76l.1-.223.1-.191c.032-.1.1-.159.128-.159s.064.064.064.159v.064c.1-.064.128,0,.223.223" transform="translate(-46 -46.689)"/><path class="f" d="M70.1,90.653c0-.478.191-.7.893-1.052,1.4-.7,2.137-1.339,2.137-1.85A1.942,1.942,0,0,0,73,87.209a1.6,1.6,0,0,1-.1-.446,1.387,1.387,0,0,1,.415-.8l.191-.159a.571.571,0,0,0,.191-.319v-.1c0-.1.032-.128.159-.159h.1a.112.112,0,0,0,.064-.032c.032,0,.064.032.1.064l.064.1.064.1c.032.032.032.032.064.032a.1.1,0,0,0,.064-.032.242.242,0,0,1,.128-.032.086.086,0,0,1,.1.1,1.543,1.543,0,0,1-.383.829A1.991,1.991,0,0,0,73.7,87.5a1.087,1.087,0,0,0,.223.7.1.1,0,0,1,.032.064c0,.032-.032.064-.064.128a.245.245,0,0,1-.064.1c-.1.128-.128.159-.191.159s-.064-.032-.1-.1l-.032-.1a.07.07,0,0,0-.064-.064l-.032.032c-.032.032-.032.064-.032.128v.159a.453.453,0,0,1-.064.191c-.032.064-.1.1-.128.159s-.064.064-.1.064-.064-.032-.064-.1l-.064-.191a.07.07,0,0,0-.064-.064c-.032,0-.064.064-.064.159-.032.223-.064.383-.128.415l-.159.128a.243.243,0,0,1-.128.064c-.032,0-.064,0-.064-.032l-.064-.159a.032.032,0,0,0-.032-.032c-.032,0-.064.1-.1.223a.753.753,0,0,1-.319.67.692.692,0,0,0-.255.287.638.638,0,0,1-.128-.415c0-.1,0-.159.032-.191a.539.539,0,0,0,.064-.159.032.032,0,0,0-.032-.032.1.1,0,0,0-.064.032.44.44,0,0,1-.128.1.373.373,0,0,0-.255.351.485.485,0,0,1-.478.446c-.351.064-.383.064-.478.191Z" transform="translate(-48.383 -58.541)"/><path class="f" d="M66.91,69.2v.255a.287.287,0,0,1-.032.159.842.842,0,0,0-.032.223.9.9,0,0,0,.128.478.832.832,0,0,1,.1.351.112.112,0,0,1-.032.064c-.032,0-.032,0-.064-.032l-.1-.128c-.064-.1-.128-.128-.287-.128H66.4c.064.159.1.255.128.351.1.319.1.351.287.51s.191.191.191.255-.032.1-.064.1h-.1c-.064,0-.1.1-.1.223a.986.986,0,0,0,.064.255c.032.064.064.1.064.128l.1.1a.118.118,0,0,1,.032.1c0,.064-.032.1-.064.1a.118.118,0,0,1-.1-.032.112.112,0,0,1-.064-.032c-.032,0-.064.032-.064.1l.032.159.064.255c0,.064.064.128.128.191a.562.562,0,0,0,.159.128l.191.1c.032,0,.032.032.032.1a.07.07,0,0,1-.064.064.246.246,0,0,1-.1-.032h-.1c-.1,0-.1,0-.1.1a.287.287,0,0,0,.032.159l.032.159c.032.159.1.255.159.255a.1.1,0,0,0,.064-.032,1.186,1.186,0,0,1,.638-.223,1.553,1.553,0,0,1,.478.064.156.156,0,0,0,.1.032c.032,0,.032-.032.032-.128l.032-.191.032-.319.032-.223v-.128c-.032.032-.064.064-.1.064a.615.615,0,0,1-.478.223c-.478,0-.733-.542-.733-1.435a10.843,10.843,0,0,1,.159-1.531,1.1,1.1,0,0,0,.032-.287,1.11,1.11,0,0,0-.574-.893" transform="translate(-45.863 -47.643)"/><path class="f" d="M70.2,74.629l.1-.1.1-.1a.568.568,0,0,0,.128-.319.287.287,0,0,0-.032-.159c-.032-.064-.1-.159-.159-.159s-.064.1-.064.223l-.032.159-.032.159Z" transform="translate(-48.451 -50.776)"/><path class="f" d="M67.3,89.227c.1.032.128.064.223.191a.437.437,0,0,0,.415.191.287.287,0,0,0,.159-.032l.128-.032.1-.032c.064,0,.1-.032.1-.064s-.1-.1-.191-.159a.957.957,0,0,0-.255-.128.81.81,0,0,0-.223-.064.8.8,0,0,0-.446.128" transform="translate(-46.476 -61.197)"/><path class="f" d="M71.7,97.2a.682.682,0,0,1,.733-.606c.191,0,.319.032.319.1s-.1.128-.287.223a1.448,1.448,0,0,0-.287.159,1.464,1.464,0,0,1-.446.223Z" transform="translate(-49.473 -66.3)"/><path class="f" d="M84.7,89.642c.159-.032.191-.064.255-.064h.191c.032,0,.064-.032.128-.1s.1-.064.128-.1c.191-.128.223-.159.223-.191s-.1-.1-.255-.1c-.319,0-.51.159-.67.542" transform="translate(-58.328 -61.197)"/><path class="c" d="M74.864,71.2l.159.1a1.89,1.89,0,0,1,.191.128c.159.064.223.1.223.159a.242.242,0,0,1-.032.128,1.38,1.38,0,0,0-.032.159.15.15,0,0,1-.159.159c-.064,0-.128-.1-.255-.319A1.594,1.594,0,0,1,74.8,71.3v-.032a.07.07,0,0,1,.064-.064" transform="translate(-51.585 -49.005)"/><path class="c" d="M78.377,71.787l-.223.223a.3.3,0,0,0-.1.223.112.112,0,0,1-.064.032h0a.086.086,0,0,1-.1-.1v-.319h0c0-.064.032-.1.1-.128l.223-.064.223-.128a.245.245,0,0,1,.1-.032.07.07,0,0,1,.064.064.1.1,0,0,1-.032.064Z" transform="translate(-53.695 -49.209)"/><path class="c" d="M75.555,74.432l.159.128a.191.191,0,0,0,.128.032.985.985,0,0,0,.255-.064l.128-.064a.112.112,0,0,0,.064-.032.179.179,0,0,1,.159.191,1.02,1.02,0,0,1-.255.542l-.128.223c-.1.128-.159.159-.223.159-.128,0-.191-.064-.351-.415a1.368,1.368,0,0,1-.191-.542c0-.1.064-.191.128-.191a.242.242,0,0,0,.128.032" transform="translate(-51.925 -51.185)"/><path class="f" d="M76.5,75.823v.191a.15.15,0,0,0,.159.159c.1,0,.159-.128.191-.351a.5.5,0,0,0,.032-.128c0-.064-.032-.1-.128-.1h-.159q-.1,0-.1.191" transform="translate(-52.742 -52.002)"/><path class="c" d="M40.5,49.676h.989v2.041h1.18V49.676h2.966v2.041h1.18V49.676H47.8V44.383H46.655l-.032-.064A.657.657,0,0,0,46.081,44a.6.6,0,0,0-.542.383h-.829a.6.6,0,0,0-1.116,0H42.7A.638.638,0,0,0,42.126,44a.571.571,0,0,0-.542.383H40.5Z" transform="translate(-28.223 -30.479)"/><rect class="e" width="6.505" height="4.465" transform="translate(12.692 14.35)"/><path class="f" d="M43.219,49.8a.319.319,0,1,0,.319.319.319.319,0,0,0-.319-.319" transform="translate(-29.857 -34.429)"/><path class="g" d="M43.151,50.4a.351.351,0,1,1,.351-.351A.351.351,0,0,1,43.151,50.4Zm0-.638a.255.255,0,1,0,.255.255C43.438,49.891,43.31,49.764,43.151,49.764Z" transform="translate(-29.789 -34.361)"/><path class="f" d="M59.219,49.8a.319.319,0,1,0,.319.319.319.319,0,0,0-.319-.319" transform="translate(-40.755 -34.429)"/><path class="g" d="M59.151,50.4a.351.351,0,1,1,.351-.351A.351.351,0,0,1,59.151,50.4Zm0-.638a.255.255,0,1,0,.255.255C59.438,49.891,59.31,49.764,59.151,49.764Z" transform="translate(-40.687 -34.361)"/><path class="f" d="M43.219,57.4a.319.319,0,0,0,0,.638.293.293,0,0,0,.287-.319.277.277,0,0,0-.287-.319" transform="translate(-29.857 -39.605)"/><path class="g" d="M43.151,58a.351.351,0,1,1,.351-.351A.351.351,0,0,1,43.151,58Zm0-.638a.252.252,0,0,0-.255.255.261.261,0,0,0,.287.255.274.274,0,0,0,.255-.255A.281.281,0,0,0,43.151,57.364Z" transform="translate(-29.789 -39.538)"/><path class="f" d="M59.219,57.4a.319.319,0,1,0,.319.319.319.319,0,0,0-.319-.319" transform="translate(-40.755 -39.606)"/><path class="g" d="M59.151,58a.351.351,0,1,1,.351-.351A.351.351,0,0,1,59.151,58Zm0-.638a.255.255,0,1,0,.255.255C59.438,57.491,59.31,57.364,59.151,57.364Z" transform="translate(-40.687 -39.538)"/><path class="f" d="M47,52.99a2.009,2.009,0,0,0,1.594.8,1.794,1.794,0,0,0,1.5-.8,1.964,1.964,0,0,0-1.531-.7,1.786,1.786,0,0,0-1.563.7" transform="translate(-32.65 -36.12)"/><path class="c" d="M47.9,53.478a1.856,1.856,0,0,1,2.487,0,1.594,1.594,0,0,1-1.244.542,1.913,1.913,0,0,1-1.244-.542" transform="translate(-33.263 -36.609)"/><path class="f" d="M49.6,53.691a1.276,1.276,0,0,0,.7.223,1.177,1.177,0,0,0,.733-.223A1.572,1.572,0,0,0,50.3,53.5a2.261,2.261,0,0,0-.7.191" transform="translate(-34.421 -36.949)"/><rect class="c" width="6.697" height="0.223" transform="translate(12.596 14.573)"/><path class="g" d="M48.2,47.555H41.5V47.3h6.7Zm-6.665-.032H48.2v-.191H41.532Z" transform="translate(-28.904 -32.727)"/><path class="f" d="M44.7,45.58v.638a.261.261,0,0,0,.287.255c.191,0,.287-.1.287-.255V45.58c0-.255-.1-.383-.255-.383a.191.191,0,0,0-.128.032.112.112,0,0,0-.064.032c-.032.032-.032.064-.064.1a.242.242,0,0,0-.032.128" transform="translate(-31.083 -31.294)"/><path class="f" d="M51,46.193v.128a.261.261,0,0,0,.287.255c.191,0,.287-.1.287-.255v-.638c0-.255-.1-.383-.255-.383s-.287.159-.287.383" transform="translate(-35.374 -31.364)"/><path class="f" d="M57.1,45.58v.638a.261.261,0,0,0,.287.255c.191,0,.287-.1.287-.255V45.58c0-.255-.1-.383-.255-.383a.191.191,0,0,0-.128.032.112.112,0,0,0-.064.032c-.032.032-.032.064-.064.1a.242.242,0,0,0-.032.128" transform="translate(-39.529 -31.294)"/><rect class="f" width="0.606" height="0.797" transform="translate(13.489 19.676)"/><rect class="f" width="0.606" height="0.255" transform="translate(13.489 20.632)"/><rect class="f" width="0.606" height="0.797" transform="translate(17.635 19.676)"/><rect class="f" width="0.606" height="0.255" transform="translate(17.635 20.632)"/><path class="h" d="M133.8,3.632V4.11h-.319c-.446,0-1.212,0-1.212,1.435v5.836c0,3.572-1.563,5.294-4.751,5.294-3.6,0-5.294-1.435-5.294-4.528V5.513c0-1.435-.765-1.435-1.467-1.435H120.6V3.6h5.389v.478h-.159c-.67,0-1.5,0-1.5,1.435v6.314c0,2.711,1.148,4.05,3.476,4.05,2.264,0,3.476-1.435,3.476-4.114V5.513c0-1.435-.8-1.435-1.371-1.435h-.287V3.6c.191.032,4.05.032,4.178.032" transform="translate(-82.779 -2.962)"/><path class="h" d="M170.56,15.941v.478H166v-.478h.191c1.5,0,1.69-1.148,1.69-2.424V5.832a1.538,1.538,0,0,0-1.69-1.722h-.159V3.632H169.6l7.749,9.5V5.9c0-1.626-1.148-1.818-1.626-1.818h-.319V3.6H180v.478h-.191c-.8,0-1.658.191-1.658,2.424v9.949h-.67L168.647,5.832v7.685c0,1.276.191,2.424,1.722,2.424" transform="translate(-113.702 -2.962)"/><path class="h" d="M241.1,13.777,243.9,5.932c.51-1.339.191-1.754-.989-1.754h-.223V3.7h3.635v.478h-.1c-.383,0-.861.128-1.212.989L240.779,16.52h-.8L235.358,5.263A1.41,1.41,0,0,0,233.8,4.178h-.1V3.7h5.262v.478h-.351c-.893,0-1.084.574-.829,1.244" transform="translate(-159.812 -3.03)"/><path class="h" d="M317.776,3.7c2.838,0,4.241,1.052,4.241,3.189a3.5,3.5,0,0,1-2.519,3.189l-.1.032,3.125,4.752a1.98,1.98,0,0,0,1.786,1.116v.478h-3.253l-3.795-6h-1.4v3.986c0,1.435.638,1.563,1.531,1.563h.255v.478H312.1v-.478h.255c.606,0,1.339-.287,1.339-1.084V5.645c0-1.467-.861-1.467-1.339-1.467H312.1V3.7h5.676m-1.977.606V9.95h1.084c1.977,0,2.87-.893,2.87-2.966a2.578,2.578,0,0,0-2.711-2.774C316.66,4.242,316.15,4.242,315.8,4.306Z" transform="translate(-213.211 -3.03)"/><path class="h" d="M358.763,13.86c0-1.563-1.339-2.168-2.583-2.806-1.467-.765-3.125-1.531-3.125-3.89,0-2.3,1.722-3.763,4.209-3.763a12.756,12.756,0,0,1,2.679.319l.159,2.487-.478.064c-.223-1.307-.893-2.3-2.36-2.3a2.234,2.234,0,0,0-2.392,2.36c0,1.435,1.339,2.041,2.551,2.647,1.531.765,3.253,1.563,3.253,3.922,0,2.647-2.36,3.827-4.528,3.827A6.132,6.132,0,0,1,353.119,16l-.319-2.774.478-.1a3.146,3.146,0,0,0,3.061,2.9,2.186,2.186,0,0,0,2.424-2.168" transform="translate(-240.932 -2.826)"/><path class="h" d="M388.626,3.7v.478h-.191c-.733,0-1.4.128-1.4,1.116v9.567c0,.989.67,1.116,1.4,1.116h.191v.478H383.3v-.478h.191c.733,0,1.4-.128,1.4-1.116V5.294c0-.989-.67-1.116-1.4-1.116H383.3V3.7h5.326" transform="translate(-261.706 -3.03)"/><path class="h" d="M219.926,3.7v.478h-.191c-.733,0-1.4.128-1.4,1.116v9.567c0,.989.67,1.116,1.4,1.116h.191v.478H214.6v-.478h.191c.733,0,1.4-.128,1.4-1.116V5.294c0-.989-.67-1.116-1.4-1.116H214.6V3.7h5.326" transform="translate(-146.803 -3.03)"/><path class="h" d="M540.525,61.5l.032,3.38-.542.128c-.128-1.467-.446-2.679-2.838-2.679h-3.189v6.25h2.742c1.339,0,1.69-.765,1.85-2.041h.542v5.23h-.542c-.1-1.244-.383-2.232-1.85-2.232h-2.742v5.485c0,1.594,1.371,1.594,2.838,1.594,2.615,0,3.827-.159,4.56-2.806.1.032.542.128.542.128l-.734,3.54H529.3V76.9h.223c.925,0,1.754-.159,1.754-1.4V63.477c0-1.244-.829-1.4-1.754-1.4H529.3V61.5h11.225" transform="translate(-361.148 -42.398)"/><path class="h" d="M346.143,61.432c3.54,0,5.294,1.307,5.294,3.986a4.392,4.392,0,0,1-3.189,3.986l-.1.032,3.922,5.963a2.517,2.517,0,0,0,2.232,1.4v.606h-4.114l-4.751-7.526h-1.754v4.975c0,1.818.8,1.945,1.945,1.945h.319v.574H339V76.8h.319c.765,0,1.69-.351,1.69-1.339V63.824c0-1.85-1.084-1.85-1.69-1.85H339V61.4c.159.032,7.143.032,7.143.032m-2.455.765v7.079h1.371c2.487,0,3.6-1.116,3.6-3.7A3.248,3.248,0,0,0,345.25,62.1a12.094,12.094,0,0,0-1.563.1Z" transform="translate(-231.533 -42.33)"/><path class="h" d="M396.7,61.5v.574h-.223c-.925,0-1.754.159-1.754,1.4V75.5c0,1.244.829,1.4,1.754,1.4h.223v.574H390V76.9h.223c.925,0,1.754-.159,1.754-1.4V63.477c0-1.244-.829-1.4-1.754-1.4H390V61.5h6.7" transform="translate(-266.269 -42.398)"/><path class="h" d="M404.954,2.27H413.4c.415,0,.957-.1,1.052-.67h.415l-.319,3.316h-.447c-.032-.765-.128-1.881-1.371-1.881h-2.583v9.854c0,1.531.733,1.658,1.563,1.658h.255v.478h-5.8v-.478h.255c.957,0,1.563-.064,1.563-1.626V3.035h-2.615c-1.339,0-1.467.574-1.722,1.881H403.2l.287-3.285h.383c.159.542.638.638,1.084.638" transform="translate(-275.26 -1.6)"/><path class="h" d="M454.409,3.7v.478a1.93,1.93,0,0,0-1.5,1.02l-3.253,5.007v4.082c0,1.626.574,1.754,1.563,1.754h.255v.478h-5.8v-.478h.255c1.02,0,1.563-.255,1.563-1.594V10.524l-3.508-5.039c-.542-.765-.957-1.276-1.786-1.276h-.1V3.732h5.262V4.21H447.2c-1.021,0-1.084.542-.67,1.148l2.711,4.209,2.424-3.827c.542-.829.7-1.563-.67-1.563h-.223V3.7" transform="translate(-301.755 -3.03)"/><path class="h" d="M492.8,9.561A6.578,6.578,0,0,1,499.337,2.8c4.018,0,6.792,2.583,6.792,6.314,0,4.05-2.806,7.016-6.7,7.016A6.383,6.383,0,0,1,492.8,9.561m2.392-.638c0,3.157,1.4,6.537,4.464,6.537,2.806,0,4.146-1.945,4.146-5.931,0-2.934-1.563-6.059-4.464-6.059-3.859,0-4.146,4.177-4.146,5.453Z" transform="translate(-336.287 -2.417)"/><path class="h" d="M539.3,16.456v-.478h.191c.733,0,1.4-.128,1.4-1.116V5.294c0-.989-.67-1.116-1.4-1.116H539.3V3.7h8.929l.032,2.711a1.6,1.6,0,0,1-.415.1c-.1-1.084-.351-2.137-1.882-2.137h-2.9V9.376h2.551c1.052,0,1.212-.829,1.212-1.5h.415v4.082h-.415c0-.8-.191-1.818-1.5-1.818h-2.264v4.72c0,1.116.957,1.116,1.786,1.116h.159v.478" transform="translate(-367.959 -3.03)"/><path class="h" d="M123.8,68.684a8.44,8.44,0,0,1,2.615-6.218,8.69,8.69,0,0,1,5.868-2.168,12.507,12.507,0,0,1,5.421,1.148l.159,3.7-.51.064c-.606-2.137-1.594-4.114-5.007-4.114-3.476,0-5.644,2.774-5.644,7.207,0,3.954,1.754,7.685,6,7.685a6.3,6.3,0,0,0,5.357-2.551l.415.8a7.589,7.589,0,0,1-6.218,2.87c-5.134,0-8.451-3.029-8.451-8.419" transform="translate(-84.959 -41.578)"/><path class="h" d="M224.063,64.525l-.542,9.886c-.1,2.2.574,2.392,2.041,2.424h.128v.574H220.3v-.574h.191c1.818-.064,1.945-1.084,2.009-2.551l.638-10.109a1.823,1.823,0,0,0-1.945-2.168H221v-.574h4.528c.064.128,5.421,12.118,5.421,12.118s5.1-11.99,5.134-12.15h4.433v.574h-.1c-1.786,0-2.1.574-1.977,2.838l.606,10.619c.1,1.244.733,1.339,1.977,1.4v.574H234.4v-.574h.032c1.084-.064,1.85-.1,1.85-1.212l-.032-1.148-.478-10.236s-5.485,13.17-5.549,13.3h-.478c.064-.1-5.676-13.011-5.676-13.011" transform="translate(-150.686 -42.33)"/><path class="h" d="M418.9,77.577V77h.223c.925,0,1.754-.159,1.754-1.4V63.577c0-1.244-.829-1.4-1.754-1.4H418.9V61.6h7.143a9.284,9.284,0,0,1,6.442,2.1,7.639,7.639,0,0,1,2.36,5.836A8.472,8.472,0,0,1,432.39,75.5a8.227,8.227,0,0,1-6,2.074M423.62,62.333V74.9c0,1.69.733,1.977,2.424,1.977,4.05,0,5.9-3.476,5.9-6.888,0-5.294-2.2-7.717-6.7-7.717C424.831,62.27,424,62.3,423.62,62.333Z" transform="translate(-285.954 -42.466)"/><path class="h" d="M486.772,75.726V71.8c0-.861-.638-1.307-1.818-1.307h-.191v-.574h6.155V70.5h-.191a1.164,1.164,0,0,0-1.307,1.307v4.369a18.541,18.541,0,0,1-5.613.861c-5.294,0-8.706-3.412-8.706-8.738,0-5.644,4.5-8.2,8.738-8.2a17.3,17.3,0,0,1,5.1.8l.255,3.827h-.542c-.67-2.742-1.882-3.827-4.656-3.827-3.731,0-5.963,2.742-5.963,7.143,0,4.05,1.913,8.068,6.155,8.068a5.74,5.74,0,0,0,2.583-.383" transform="translate(-324.232 -41.445)"/><path class="h" d="M297.147,69.353V75c0,1.563.51,2.009,2.137,2.009a3.517,3.517,0,0,0,3.412-3.795c0-2.455-1.5-3.859-4.018-3.859m-1.531-7.111v6.442h1.212c2.2,0,3.412-1.084,3.412-3.125,0-2.264-1.052-3.316-3.189-3.316Zm3.253,6.7c2.009.159,3.093.606,3.986,1.531a3.68,3.68,0,0,1,1.052,2.679c0,2.519-2.3,4.528-5.294,4.528H292.3V77.1h.319c.765,0,1.69-.383,1.69-1.371V64.124c0-1.85-1.084-1.85-1.69-1.85H292.3V61.7h7.111c3.348,0,5.166,1.212,5.166,3.508.032,2.455-2.2,3.412-4.178,3.731" transform="translate(-199.725 -42.534)"/><path class="h" d="M176.775,61.5,171.7,75.308a2.155,2.155,0,0,1-2.041,1.594H169.6v.606h4.879V76.9h-.223c-1.18,0-1.977-.383-1.467-1.881l1.148-3.221h5.039l1.276,3.508c.351,1.116-.1,1.626-1.307,1.626h-.128v.606H185v-.606h-.064c-.829,0-1.4-.446-1.786-1.531l-5.2-13.9m-1.467,3.253L178.72,71h-4.465Z" transform="translate(-116.154 -42.398)"/><path class="h" d="M284.861,3.7l.032,2.711a2.5,2.5,0,0,1-.446.1c-.1-1.18-.351-2.137-2.264-2.137h-2.551V9.344H281.8c1.052,0,1.371-.606,1.467-1.626h.446V11.9h-.446c-.064-.989-.287-1.786-1.467-1.786h-2.168v4.4c0,1.276,1.084,1.276,2.264,1.276,2.073,0,3.061-.128,3.635-2.232.1.032.415.1.415.1l-.574,2.806H275.9v-.478h.191c.733,0,1.4-.128,1.4-1.116V5.294c0-.989-.67-1.116-1.4-1.116H275.9V3.7h8.961" transform="translate(-188.555 -3.03)"/></g></svg>