<svg xmlns="http://www.w3.org/2000/svg" width="45.37" height="45.462" viewBox="0 0 45.37 45.462"><defs><style>.a{fill:#191a1d;}.b{fill:#fff;}</style></defs><path class="a" d="M13.282,42.145a8.766,8.766,0,0,0-.244-1.721,11.4,11.4,0,0,0-3.674-5.75c-.067-.059-.133-.115-.2-.17L7.606,36.021a6.966,6.966,0,0,1,2.42,3.349,3.856,3.856,0,0,1,.141,1.824,2.494,2.494,0,0,1-.984,1.595,2.76,2.76,0,0,1-.392.237,5.46,5.46,0,0,0,1.917.6,2.421,2.421,0,0,0,1.491-.311,3.292,3.292,0,0,0,1.084-1.173ZM29.222,26.36a.923.923,0,0,1-.352-.322l-.292.289a.908.908,0,0,1,.27.274,14.483,14.483,0,0,1,2.461,7.278,12.655,12.655,0,0,1-2.29,7.493.911.911,0,0,1-1.521-1,10.88,10.88,0,0,0,1.991-6.435,12.714,12.714,0,0,0-2.179-6.353l-2.32,2.287c-.022-.07-.044-.137-.067-.207l-.178.174L14.98,42.855a5.172,5.172,0,0,1-1.839,2.02,4.212,4.212,0,0,1-2.572.57,10.542,10.542,0,0,1-5-2.335.707.707,0,0,1-.155-.122,18.711,18.711,0,0,1-1.706-1.51A14.93,14.93,0,0,1,.768,37.449a5.822,5.822,0,0,1-.5-4.377,4.4,4.4,0,0,1,1.817-2.25L15.772,20.406l7.4-7.915L31.879.5a.925.925,0,0,1,.592-.366,8.375,8.375,0,0,1,3.826.2,12.862,12.862,0,0,1,5.8,3.656,12.28,12.28,0,0,1,3.156,5.824,7.02,7.02,0,0,1-.081,3.227.91.91,0,0,1-.344.5v0l-13.1,9.476-.525.514c0,.07,0,.141-.007.211l-1.055,1.04a13.113,13.113,0,0,1,4.64,3.852,11.332,11.332,0,0,1,2.094,5.757.91.91,0,0,1-1.813.163,9.547,9.547,0,0,0-1.75-4.851,11.437,11.437,0,0,0-4.092-3.345ZM7.632,33.446A7.582,7.582,0,0,0,3.88,32.324a4.625,4.625,0,0,0-.907.1,2.578,2.578,0,0,0-1,1.251,4.091,4.091,0,0,0,.426,3A13.124,13.124,0,0,0,4.994,40.2a16.994,16.994,0,0,0,1.425,1.277A2.28,2.28,0,0,0,8.1,41.312a.722.722,0,0,0,.27-.459,2.021,2.021,0,0,0-.093-.958A5.2,5.2,0,0,0,5.73,36.975a.91.91,0,0,1-.4-1.225.883.883,0,0,1,.178-.237l2.12-2.068Zm16.447-5.51a23.693,23.693,0,0,0-6.653-6.645l-.355.381a1.057,1.057,0,0,1-.159.155L5.33,30.641a11.046,11.046,0,0,1,4.263,1.9l.033.026,0,0c.311.222.614.463.91.714a13.217,13.217,0,0,1,4.259,6.7l.011.044L23.291,28.72a.744.744,0,0,1,.122-.144l.666-.64Zm-.333-13.4c3.3,1.632,6.046,4.277,7.049,6.9l12.692-9.184a5.516,5.516,0,0,0-.026-2.1,10.444,10.444,0,0,0-2.7-4.925A10.977,10.977,0,0,0,35.82,2.09a6.739,6.739,0,0,0-2.683-.211L24.623,13.594l0,0a.784.784,0,0,1-.074.089l-.8.858Z" transform="translate(-0.033 0)"/><path class="a" d="M60.023,16.558,66.28,8.975l2.583-4.029,1.806-2,4.524.635L78.914,6l2.054,2.681,1.1,3.448V14.7l-13.2,9.8-1.94-3.407-3.85-2.638a9.148,9.148,0,0,0-1.253-.977C61.59,17.414,60.023,16.558,60.023,16.558Z" transform="translate(-37.825 -1.854)"/><path class="a" d="M31.84,62.557,28.592,66.27l-3.6,5.12-3.563,4.587-.983-3.648-1.85-2.7-1.44-1.533L14.548,66.27l-1.98-.379-1.616-.539a2.848,2.848,0,0,1,0-.851c.084-.116,8.317-6.2,8.317-6.2l5.088-4.136,7.483,7.978Z" transform="translate(-6.889 -34.125)"/><path class="b" d="M-298.221-425.908l-8.364-8.356-3.36,2.74-2.526,3.37,8.29,8.082,3.136-2.541Z" transform="translate(328.946 449.004)"/></svg>