<svg xmlns="http://www.w3.org/2000/svg" xmlns:xlink="http://www.w3.org/1999/xlink" width="264" height="58" viewBox="0 0 264 58"><defs><style>.a{fill:#fff;}.b{mix-blend-mode:luminosity;isolation:isolate;clip-path:url(#a);}.c{fill:#ed1c26;}.d{fill:#4c64a3;}.e{fill:#012169;stroke:#707070;stroke-width:0.5px;}</style><clipPath id="a"><rect class="a" width="264" height="58"/></clipPath></defs><g class="b"><path class="c" d="M135.916,23.438h-1.05V52.152h1.05Z"/><path class="d" d="M120.435,50.987a11.7,11.7,0,0,0,5.228-1.051,7.487,7.487,0,0,0,3.229-2.855,7.64,7.64,0,0,0,1.07-3.975,6.269,6.269,0,0,0-1.171-4.02,7.094,7.094,0,0,0-2.805-2.17,33.175,33.175,0,0,0-4.2-1.371,16.626,16.626,0,0,1-3.673-1.256,2.08,2.08,0,0,1-1.211-1.942,2.491,2.491,0,0,1,1.049-2.1,5.35,5.35,0,0,1,3.23-.8,11.463,11.463,0,0,1,6.216,1.987l1.595-4.455a11.565,11.565,0,0,0-3.593-1.668,15.3,15.3,0,0,0-4.2-.571A11.544,11.544,0,0,0,116,25.79a7.371,7.371,0,0,0-3.189,2.856,7.7,7.7,0,0,0-1.05,4,6.5,6.5,0,0,0,1.171,4.066,7,7,0,0,0,2.805,2.216,33.206,33.206,0,0,0,4.2,1.371,27.585,27.585,0,0,1,2.645.8,4.806,4.806,0,0,1,1.594.959,1.943,1.943,0,0,1,.626,1.508,2.319,2.319,0,0,1-1.05,1.987,5.683,5.683,0,0,1-3.27.754,11.63,11.63,0,0,1-3.976-.731,11.364,11.364,0,0,1-3.431-1.919l-1.756,4.432a11.712,11.712,0,0,0,4,2.124A17.6,17.6,0,0,0,120.435,50.987Zm-18.145-.434h5.187V25.174H102.29ZM88.808,46.121H82.753V39.839h6.055c2.765,0,4.138,1.051,4.138,3.152A2.675,2.675,0,0,1,91.9,45.345,5.125,5.125,0,0,1,88.808,46.121ZM87.9,29.605a4.727,4.727,0,0,1,2.906.754,2.6,2.6,0,0,1,.989,2.239,2.631,2.631,0,0,1-.989,2.239,4.767,4.767,0,0,1-2.906.754H82.732V29.605Zm6.156,7.744a5.787,5.787,0,0,0,2.2-2.284,6.743,6.743,0,0,0,.787-3.289,5.847,5.847,0,0,0-2.2-4.82,9.732,9.732,0,0,0-6.3-1.782H77.586V50.553H89.191c2.927,0,5.147-.594,6.681-1.8a6.111,6.111,0,0,0,2.3-5.14,6.93,6.93,0,0,0-1.09-3.975A6.215,6.215,0,0,0,94.055,37.349ZM62.387,45.984a6.5,6.5,0,0,1-3.593-1.028,7.151,7.151,0,0,1-2.523-2.878,10.181,10.181,0,0,1,0-8.406,7,7,0,0,1,2.523-2.878,6.792,6.792,0,0,1,7.185,0A7.15,7.15,0,0,1,68.5,33.672a10.18,10.18,0,0,1,0,8.406,7,7,0,0,1-2.523,2.878A6.5,6.5,0,0,1,62.387,45.984Zm0,5a11.808,11.808,0,0,0,10.657-6.419,13.936,13.936,0,0,0,1.595-6.716,13.936,13.936,0,0,0-1.595-6.716,12.172,12.172,0,0,0-4.38-4.706,11.755,11.755,0,0,0-6.277-1.713,11.875,11.875,0,0,0-6.3,1.713,11.73,11.73,0,0,0-4.38,4.706,14.168,14.168,0,0,0-1.595,6.716,13.936,13.936,0,0,0,1.595,6.716,12.024,12.024,0,0,0,4.38,4.706A11.875,11.875,0,0,0,62.387,50.987Zm-23.029,0a11.831,11.831,0,0,0,5.288-1.165,10.642,10.642,0,0,0,3.976-3.381l-3.33-3.472a6.922,6.922,0,0,1-9.345,1.987A6.907,6.907,0,0,1,33.4,42.078a10.18,10.18,0,0,1,0-8.406,6.907,6.907,0,0,1,2.543-2.878,6.961,6.961,0,0,1,9.345,1.942l3.33-3.472a10.885,10.885,0,0,0-3.956-3.335,12.414,12.414,0,0,0-11.5.525,11.615,11.615,0,0,0-4.36,4.683A14.289,14.289,0,0,0,27.208,37.9,14.055,14.055,0,0,0,28.8,44.659a11.763,11.763,0,0,0,4.36,4.683A11.89,11.89,0,0,0,39.358,50.987Z"/><path class="c" d="M13.079,22.638S20.91,13.706,12.09,0c0,0,3.512,7.835-.666,14.551C8.941,18.549,13.079,22.638,13.079,22.638Z"/><path class="e" d="M1.03,50.279s1.594,1.188,2.7.891c0,0-1.554,1.713-1.776,1.645A5.779,5.779,0,0,1,1.03,50.279Z"/><path class="e" d="M4.279,52.746a10.5,10.5,0,0,0,1.574,4.2,7.761,7.761,0,0,1-3.028-2.558Z"/><path class="c" d="M2.119,53.249a9.254,9.254,0,0,0,1.554-1.119,5.067,5.067,0,0,1-.949,1.782C2.725,53.934,2.341,53.82,2.119,53.249Z"/><path class="e" d="M15.965,56.538a9.653,9.653,0,0,0,.908-.617c.121-.114.242-.228.363-.366,0,0-3.9-.64-7.286-5.277-.424-.571,1.231,5.117,4.461,7.036A12.69,12.69,0,0,0,15.965,56.538Z"/><path class="c" d="M18.448,54.459a9.369,9.369,0,0,0,1.009-1.393,9.789,9.789,0,0,0-2.119-.16A10.02,10.02,0,0,1,12.9,51.9S15.36,54.459,18.448,54.459Z"/><path class="c" d="M17.9,39.382s-2.261-4.043,2.644-11.97a37.985,37.985,0,0,0-5.934,11.764A3.276,3.276,0,0,1,17.9,39.382Z"/><path class="e" d="M1.413,45.116A2.379,2.379,0,0,0,2.543,45c-1.07-1.074-1.272-3.2-1.211-4.889A8.165,8.165,0,0,0,.323,43.974C.323,44,.787,45.048,1.413,45.116Z"/><path class="c" d="M2.241,42.352c-.444,0-.868-3.038,1.251-7.127,0,0-1.534,4-1.312,6.488C2.22,42.146,2.241,42.352,2.241,42.352Z"/><path class="e" d="M6.035,31.753a17.677,17.677,0,0,0-3.371,11.4,4.017,4.017,0,0,0,.484,1.485c.283-.114.262-.777.262-.777-.383-6.99,3.27-11.993,6.62-16.767l-.04.046Z"/><path class="c" d="M15.319,4.18c7,16.265-3.694,19.668-8.84,30.154A21.125,21.125,0,0,0,4.642,45.413a4.642,4.642,0,0,1-2.5.617C.363,45.916.182,44.065.041,44.8c-.262,4.135,1.11,5.368,4.783,5.825,0,0,.626,4.934,2.341,6.739a10.008,10.008,0,0,0,5.732.411A10.627,10.627,0,0,1,9.89,53.477,9.913,9.913,0,0,1,9.083,49.5c6.56-2.513,10.031-2.33,11.928-1.439a10.514,10.514,0,0,0-.646-4.226c-1.917-1.919-5.147-1.759-6.963-1.508a17.194,17.194,0,0,0-4.945,1.53s-1.393-6.328,6.338-15.6C24,17.2,18.125,7.538,15.319,4.18Z"/><path class="e" d="M20.1,51.809A10.518,10.518,0,0,0,20.89,49c-2.866-1.279-8.376-.069-9.971.594a.851.851,0,0,0,.384.343A12.587,12.587,0,0,0,20.1,51.809Z"/><path class="e" d="M19.517,42.124a7.73,7.73,0,0,0-.545-.822,2.017,2.017,0,0,0-.222-.274A5.011,5.011,0,0,0,16.329,40a10.772,10.772,0,0,0-3.27.457s.908-4.569,5.47-11.1A15.2,15.2,0,0,0,20.486,16.4a17.506,17.506,0,0,1-4.743,12.45c-5.934,6.648-5.571,11.582-5.49,13.135C14.633,40.8,17.681,41.073,19.517,42.124Z"/><path class="d" d="M261.3,50.507a3.085,3.085,0,0,0,1.978-.571A1.843,1.843,0,0,0,264,48.429a1.713,1.713,0,0,0-.323-1.119,1.761,1.761,0,0,0-.787-.548,7.83,7.83,0,0,0-1.171-.3,4.143,4.143,0,0,1-1.049-.3.562.562,0,0,1-.343-.548.611.611,0,0,1,.322-.548,1.755,1.755,0,0,1,.929-.206,3.005,3.005,0,0,1,1.716.5l.544-1.211a3.384,3.384,0,0,0-1.009-.434,4.551,4.551,0,0,0-1.231-.16,2.907,2.907,0,0,0-1.917.571,1.9,1.9,0,0,0-.707,1.531,1.784,1.784,0,0,0,.343,1.142,1.873,1.873,0,0,0,.808.571,7.258,7.258,0,0,0,1.211.3,5.914,5.914,0,0,1,1.029.274.486.486,0,0,1,.323.5c0,.5-.424.754-1.251.754a3.867,3.867,0,0,1-1.11-.183,2.884,2.884,0,0,1-.969-.48l-.545,1.211a3.159,3.159,0,0,0,1.11.548A4.377,4.377,0,0,0,261.3,50.507Zm-5.247-.069h1.392V41.05h-1.392Zm-4.6-1.279a1.62,1.62,0,0,1-1.272-.571,2.31,2.31,0,0,1-.5-1.531,2.209,2.209,0,0,1,.5-1.531,1.565,1.565,0,0,1,1.272-.571,1.591,1.591,0,0,1,1.271.571,2.572,2.572,0,0,1,0,3.061A1.619,1.619,0,0,1,251.446,49.16Zm0,1.348a3.06,3.06,0,0,0,1.635-.434,2.992,2.992,0,0,0,1.13-1.233,4.131,4.131,0,0,0,0-3.564,2.993,2.993,0,0,0-1.13-1.234,3.3,3.3,0,0,0-3.27,0,2.993,2.993,0,0,0-1.13,1.234,4.131,4.131,0,0,0,0,3.564,2.992,2.992,0,0,0,1.13,1.233A3.055,3.055,0,0,0,251.446,50.507Zm-7.367-1.348a1.62,1.62,0,0,1-1.272-.571,2.309,2.309,0,0,1-.5-1.531,2.209,2.209,0,0,1,.5-1.531,1.565,1.565,0,0,1,1.272-.571,1.591,1.591,0,0,1,1.271.571,2.572,2.572,0,0,1,0,3.061A1.563,1.563,0,0,1,244.079,49.16Zm0,1.348a3.06,3.06,0,0,0,1.635-.434,2.992,2.992,0,0,0,1.13-1.233,4.131,4.131,0,0,0,0-3.564,2.993,2.993,0,0,0-1.13-1.234,3.3,3.3,0,0,0-3.27,0,2.993,2.993,0,0,0-1.13,1.234,4.131,4.131,0,0,0,0,3.564,2.992,2.992,0,0,0,1.13,1.233A3.055,3.055,0,0,0,244.079,50.507Zm-7.024-6.922a2.594,2.594,0,0,0-1.13.229,2.1,2.1,0,0,0-.848.64V41.027h-1.393v9.389h1.393V46.989a2.21,2.21,0,0,1,.444-1.508,1.544,1.544,0,0,1,1.211-.526,1.277,1.277,0,0,1,1.05.457,2.091,2.091,0,0,1,.363,1.325v3.678h1.393V46.555a3.139,3.139,0,0,0-.687-2.216A2.285,2.285,0,0,0,237.055,43.586Zm-7.226,6.922a2.842,2.842,0,0,0,1.534-.411,2.554,2.554,0,0,0,1.009-1.165l-1.069-.708a1.717,1.717,0,0,1-.646.708,1.591,1.591,0,0,1-.848.229,1.672,1.672,0,0,1-1.312-.571,2.576,2.576,0,0,1,0-3.061,1.632,1.632,0,0,1,1.292-.571,1.591,1.591,0,0,1,.848.229,1.862,1.862,0,0,1,.646.708l1.069-.708a2.554,2.554,0,0,0-1.009-1.165,2.914,2.914,0,0,0-1.554-.411,3.147,3.147,0,0,0-1.675.434,3.183,3.183,0,0,0-1.151,1.234,3.7,3.7,0,0,0-.4,1.782,3.943,3.943,0,0,0,.4,1.782,3.182,3.182,0,0,0,1.151,1.233A3.5,3.5,0,0,0,229.829,50.507Zm-7.387.046a3.937,3.937,0,0,0,1.736-.343,2.373,2.373,0,0,0,1.07-.959,2.475,2.475,0,0,0,.343-1.325,2.2,2.2,0,0,0-.4-1.371,2.412,2.412,0,0,0-.948-.754,10.715,10.715,0,0,0-1.434-.48c-.423-.114-.766-.228-1.009-.32a1.715,1.715,0,0,1-.605-.388.828.828,0,0,1-.242-.617,1.021,1.021,0,0,1,.423-.868,2,2,0,0,1,1.272-.32,3.861,3.861,0,0,1,1.09.183,4.274,4.274,0,0,1,1.07.525l.464-1.279a3.336,3.336,0,0,0-1.191-.571,4.926,4.926,0,0,0-1.413-.206,3.637,3.637,0,0,0-1.736.366,2.471,2.471,0,0,0-1.069.959,2.521,2.521,0,0,0-.343,1.325,2.273,2.273,0,0,0,.4,1.394,2.423,2.423,0,0,0,.949.754,10.183,10.183,0,0,0,1.453.48c.424.114.767.228,1.009.32a1.728,1.728,0,0,1,.606.388.832.832,0,0,1,.242.617,1.037,1.037,0,0,1-.424.845,2.25,2.25,0,0,1-1.312.32,3.784,3.784,0,0,1-1.393-.274,3.471,3.471,0,0,1-1.17-.708l-.505,1.279a3.616,3.616,0,0,0,1.332.777A6.177,6.177,0,0,0,222.442,50.553Zm-9.224-.114h1.393V41.05h-1.393Zm-4.7-1.074a1.335,1.335,0,0,1-.848-.251.823.823,0,0,1-.3-.685q0-.891,1.211-.891h1.433v.777a1.443,1.443,0,0,1-.585.777A1.505,1.505,0,0,1,208.516,49.365Zm.181-5.779a4.694,4.694,0,0,0-1.392.206,3.136,3.136,0,0,0-1.131.617l.545,1.142a2.835,2.835,0,0,1,.828-.5,2.93,2.93,0,0,1,.989-.183,1.5,1.5,0,0,1,1.11.388,1.527,1.527,0,0,1,.383,1.1v.091h-1.534a2.7,2.7,0,0,0-1.877.548,1.867,1.867,0,0,0-.6,1.462,2.084,2.084,0,0,0,.282,1.051,2.112,2.112,0,0,0,.767.731,2.426,2.426,0,0,0,1.171.251,2.563,2.563,0,0,0,1.15-.228,1.617,1.617,0,0,0,.727-.685v.822h1.312V46.441a2.929,2.929,0,0,0-.706-2.147A2.76,2.76,0,0,0,208.7,43.586Zm-6.58,0a2.877,2.877,0,0,0-1.19.251,2.118,2.118,0,0,0-.868.708v-.868h-1.332v6.762h1.392V47.012a2.215,2.215,0,0,1,.444-1.508,1.546,1.546,0,0,1,1.211-.525,1.274,1.274,0,0,1,1.05.457,2.091,2.091,0,0,1,.363,1.325v3.678h1.393V46.578a3.144,3.144,0,0,0-.686-2.216A2.165,2.165,0,0,0,202.117,43.586Zm-7.992,5.574a1.62,1.62,0,0,1-1.272-.571,2.31,2.31,0,0,1-.5-1.531,2.209,2.209,0,0,1,.5-1.531,1.565,1.565,0,0,1,1.272-.571,1.591,1.591,0,0,1,1.271.571,2.572,2.572,0,0,1,0,3.061A1.619,1.619,0,0,1,194.125,49.16Zm0,1.348a3.06,3.06,0,0,0,1.635-.434,2.992,2.992,0,0,0,1.13-1.233,4.131,4.131,0,0,0,0-3.564,2.993,2.993,0,0,0-1.13-1.234,3.3,3.3,0,0,0-3.27,0,2.987,2.987,0,0,0-1.13,1.234,4.131,4.131,0,0,0,0,3.564,2.986,2.986,0,0,0,1.13,1.233A3.055,3.055,0,0,0,194.125,50.507Zm-5.268-7.95a.83.83,0,0,0,.646-.274,1.059,1.059,0,0,0,.242-.708.911.911,0,0,0-.262-.663.814.814,0,0,0-.646-.251.857.857,0,0,0-.646.274,1.01,1.01,0,0,0-.263.685.924.924,0,0,0,.263.685A1.019,1.019,0,0,0,188.857,42.558Zm-.707,7.881h1.393V43.677H188.15Zm-1.534-1.508a1.126,1.126,0,0,1-.787.274.771.771,0,0,1-.6-.251A1.207,1.207,0,0,1,185,48.2V44.979H186.6V43.723H185V42.169h-1.393v1.553h-.989v1.256h.989v3.244a2.4,2.4,0,0,0,.545,1.69,1.965,1.965,0,0,0,1.514.571,2.71,2.71,0,0,0,.747-.114,1.371,1.371,0,0,0,.605-.343Zm-7.871.434a1.337,1.337,0,0,1-.848-.251.823.823,0,0,1-.3-.685q0-.891,1.211-.891h1.434v.777a1.445,1.445,0,0,1-.586.777A1.505,1.505,0,0,1,178.745,49.365Zm.182-5.779a4.7,4.7,0,0,0-1.393.206,3.131,3.131,0,0,0-1.13.617l.545,1.142a2.829,2.829,0,0,1,.827-.5,2.93,2.93,0,0,1,.989-.183,1.5,1.5,0,0,1,1.11.388,1.527,1.527,0,0,1,.384,1.1v.091h-1.534a2.7,2.7,0,0,0-1.877.548,1.864,1.864,0,0,0-.606,1.462,2.075,2.075,0,0,0,.283,1.051,2.1,2.1,0,0,0,.767.731,2.422,2.422,0,0,0,1.17.251,2.57,2.57,0,0,0,1.151-.228,1.615,1.615,0,0,0,.726-.685v.822h1.312V46.441a2.929,2.929,0,0,0-.706-2.147A2.756,2.756,0,0,0,178.927,43.586Zm-6.58,0a2.882,2.882,0,0,0-1.191.251,2.124,2.124,0,0,0-.868.708v-.868h-1.332v6.762h1.393V47.012a2.21,2.21,0,0,1,.444-1.508A1.543,1.543,0,0,1,172,44.979a1.273,1.273,0,0,1,1.049.457,2.091,2.091,0,0,1,.364,1.325v3.678h1.392V46.578a3.144,3.144,0,0,0-.686-2.216A2.163,2.163,0,0,0,172.347,43.586Zm-6.721,1.074v-.982h-1.332v6.762h1.392V47.172a2.349,2.349,0,0,1,.464-1.553,1.561,1.561,0,0,1,1.272-.548,1.784,1.784,0,0,1,.323.046V43.609A2.183,2.183,0,0,0,165.626,44.659Zm-5.753.206a1.538,1.538,0,0,1,1.131.457,1.981,1.981,0,0,1,.545,1.188h-3.391a1.928,1.928,0,0,1,.565-1.188A1.557,1.557,0,0,1,159.873,44.865Zm3.008,2.216a4.053,4.053,0,0,0-.384-1.827,2.993,2.993,0,0,0-1.069-1.234,2.786,2.786,0,0,0-1.555-.434,2.964,2.964,0,0,0-1.594.434,3.238,3.238,0,0,0-1.11,1.234,4.131,4.131,0,0,0,0,3.564,3.04,3.04,0,0,0,1.15,1.234,3.321,3.321,0,0,0,1.736.434,3.482,3.482,0,0,0,1.393-.274,2.5,2.5,0,0,0,1.009-.822l-.747-.982a2.081,2.081,0,0,1-1.615.731,1.856,1.856,0,0,1-1.937-1.622h4.682A1.729,1.729,0,0,0,162.881,47.081Zm-7.024,1.85a1.127,1.127,0,0,1-.787.274.772.772,0,0,1-.606-.251,1.207,1.207,0,0,1-.222-.754V44.979h1.6V43.723h-1.6V42.169H152.85v1.553h-.989v1.256h.989v3.244a2.4,2.4,0,0,0,.544,1.69,1.966,1.966,0,0,0,1.514.571,2.7,2.7,0,0,0,.747-.114,1.38,1.38,0,0,0,.606-.343Zm-7.448-5.345a2.885,2.885,0,0,0-1.191.251,2.124,2.124,0,0,0-.868.708v-.868h-1.332v6.762h1.393V47.012a2.21,2.21,0,0,1,.444-1.508,1.544,1.544,0,0,1,1.211-.525,1.277,1.277,0,0,1,1.05.457,2.091,2.091,0,0,1,.363,1.325v3.678h1.393V46.578a3.14,3.14,0,0,0-.687-2.216A2.11,2.11,0,0,0,148.409,43.586Zm-6.822,6.853h1.453V41.576h-1.453Z"/><path class="d" d="M237.439,27.778a2.6,2.6,0,0,0-1.131.228,2.094,2.094,0,0,0-.847.64V25.219h-1.393v9.389h1.393V31.182a2.21,2.21,0,0,1,.444-1.508,1.543,1.543,0,0,1,1.211-.525,1.273,1.273,0,0,1,1.049.457,2.091,2.091,0,0,1,.363,1.325v3.678h1.393V30.747a3.144,3.144,0,0,0-.686-2.216A2.229,2.229,0,0,0,237.439,27.778ZM230.011,34.7a3.085,3.085,0,0,0,1.978-.571,1.845,1.845,0,0,0,.727-1.508,1.712,1.712,0,0,0-.323-1.119,1.766,1.766,0,0,0-.787-.548,7.819,7.819,0,0,0-1.171-.3,4.14,4.14,0,0,1-1.05-.3.562.562,0,0,1-.343-.548.612.612,0,0,1,.323-.548,1.752,1.752,0,0,1,.929-.206,3,3,0,0,1,1.715.5l.545-1.211a3.381,3.381,0,0,0-1.009-.434,4.561,4.561,0,0,0-1.231-.16,2.91,2.91,0,0,0-1.918.571,1.9,1.9,0,0,0-.706,1.531A1.784,1.784,0,0,0,228.033,31a1.876,1.876,0,0,0,.807.571,7.319,7.319,0,0,0,1.211.3,5.906,5.906,0,0,1,1.03.274.487.487,0,0,1,.323.5c0,.5-.424.754-1.252.754a3.878,3.878,0,0,1-1.11-.183,2.9,2.9,0,0,1-.969-.48l-.545,1.211a3.164,3.164,0,0,0,1.111.548A4.37,4.37,0,0,0,230.011,34.7Zm-4.521-7.95a.831.831,0,0,0,.646-.274,1.059,1.059,0,0,0,.242-.708.91.91,0,0,0-.262-.662.813.813,0,0,0-.646-.251.859.859,0,0,0-.646.274,1.024,1.024,0,0,0,0,1.371A1.021,1.021,0,0,0,225.49,26.75Zm-.707,7.858h1.393V27.869h-1.393Zm-1.554-1.485a1.126,1.126,0,0,1-.787.274.771.771,0,0,1-.6-.251,1.2,1.2,0,0,1-.222-.754V29.171h1.594V27.915h-1.594V26.362h-1.393v1.553h-.989v1.256h.989v3.267a2.4,2.4,0,0,0,.545,1.69,1.965,1.965,0,0,0,1.514.571,2.71,2.71,0,0,0,.747-.114,1.371,1.371,0,0,0,.6-.343Zm-5.772-6.373a.831.831,0,0,0,.646-.274,1.059,1.059,0,0,0,.242-.708.91.91,0,0,0-.262-.662.813.813,0,0,0-.646-.251.857.857,0,0,0-.646.274,1.01,1.01,0,0,0-.263.685.924.924,0,0,0,.263.685A1.062,1.062,0,0,0,217.457,26.75Zm-.707,7.858h1.393V27.869H216.75Zm-3.31-5.757v-.982h-1.332v6.762H213.5V31.364a2.343,2.343,0,0,1,.464-1.553,1.561,1.561,0,0,1,1.272-.548,1.793,1.793,0,0,1,.323.046V27.8A2.185,2.185,0,0,0,213.44,28.851Zm-6.055,4.477h-2.341V30.77h2.341c1.131,0,1.7.434,1.7,1.279S208.516,33.329,207.385,33.329Zm-.282-6.282a1.94,1.94,0,0,1,1.17.32,1.085,1.085,0,0,1,.4.914,1.115,1.115,0,0,1-.4.914,1.9,1.9,0,0,1-1.17.32h-2.059V27.07H207.1Zm2.038,2.97a2,2,0,0,0,.747-.777,2.44,2.44,0,0,0,.262-1.165,2.066,2.066,0,0,0-.746-1.69,3.292,3.292,0,0,0-2.14-.617h-3.673v8.863h3.895a3.65,3.65,0,0,0,2.281-.617,2.128,2.128,0,0,0,.787-1.782,2.362,2.362,0,0,0-.383-1.393A2.006,2.006,0,0,0,209.141,30.017Zm-10.8-3.609a1.224,1.224,0,0,1,.767.274l.384-1.188a1.936,1.936,0,0,0-1.272-.365,1.989,1.989,0,0,0-1.574.617,2.5,2.5,0,0,0-.565,1.713v.434h-.989v1.256h.989v5.437h1.392V29.149h1.6V27.892h-1.635v-.411C197.455,26.773,197.758,26.407,198.343,26.407Zm-7,6.944a1.619,1.619,0,0,1-1.271-.571,2.31,2.31,0,0,1-.5-1.531,2.209,2.209,0,0,1,.5-1.53,1.564,1.564,0,0,1,1.271-.571,1.591,1.591,0,0,1,1.272.571,2.572,2.572,0,0,1,0,3.061A1.619,1.619,0,0,1,191.339,33.352Zm0,1.348a3.056,3.056,0,0,0,1.635-.434,3,3,0,0,0,1.131-1.234,4.14,4.14,0,0,0,0-3.564,3,3,0,0,0-1.131-1.234,3.295,3.295,0,0,0-3.269,0,3,3,0,0,0-1.131,1.234,4.14,4.14,0,0,0,0,3.564,3,3,0,0,0,1.131,1.234A3.055,3.055,0,0,0,191.339,34.7Zm-9.344-.091h1.392V25.219h-1.392Zm-2.523-7.858a.827.827,0,0,0,.645-.274,1.055,1.055,0,0,0,.243-.708.907.907,0,0,0-.263-.662.811.811,0,0,0-.646-.251.857.857,0,0,0-.645.274,1.01,1.01,0,0,0-.263.685.924.924,0,0,0,.263.685A1.017,1.017,0,0,0,179.472,26.75Zm-.707,7.858h1.393V27.869h-1.393Zm-3.815.091a2.842,2.842,0,0,0,1.534-.411,2.556,2.556,0,0,0,1.01-1.165l-1.07-.708a1.718,1.718,0,0,1-.646.708,1.588,1.588,0,0,1-.848.228,1.674,1.674,0,0,1-1.312-.571,2.576,2.576,0,0,1,0-3.061,1.631,1.631,0,0,1,1.292-.571,1.591,1.591,0,0,1,.848.228,1.862,1.862,0,0,1,.646.708l1.069-.708a2.554,2.554,0,0,0-1.009-1.165,2.915,2.915,0,0,0-1.554-.411,3.148,3.148,0,0,0-1.675.434,3.183,3.183,0,0,0-1.151,1.234,3.7,3.7,0,0,0-.4,1.782,3.942,3.942,0,0,0,.4,1.782,3.183,3.183,0,0,0,1.151,1.234A3.451,3.451,0,0,0,174.95,34.7Zm-7.084-6.922a2.885,2.885,0,0,0-1.191.251,2.126,2.126,0,0,0-.868.708v-.868h-1.332v6.762h1.393V31.2a2.21,2.21,0,0,1,.444-1.508,1.545,1.545,0,0,1,1.211-.525,1.277,1.277,0,0,1,1.05.457,2.091,2.091,0,0,1,.363,1.325v3.678h1.392V30.77a3.144,3.144,0,0,0-.686-2.216A2.163,2.163,0,0,0,167.866,27.778Zm-6.64.091V31.3a2.215,2.215,0,0,1-.444,1.508,1.5,1.5,0,0,1-1.191.525,1.263,1.263,0,0,1-1.03-.457A2.147,2.147,0,0,1,158.2,31.5V27.869h-1.392V31.73a3.207,3.207,0,0,0,.686,2.239,2.431,2.431,0,0,0,1.877.754,2.562,2.562,0,0,0,1.09-.251,2.2,2.2,0,0,0,.847-.708v.868h1.333V27.869Zm-8.962,5.483a1.619,1.619,0,0,1-1.271-.571,2.31,2.31,0,0,1-.5-1.531,2.209,2.209,0,0,1,.5-1.53,1.562,1.562,0,0,1,1.271-.571,1.591,1.591,0,0,1,1.272.571,2.576,2.576,0,0,1,0,3.061A1.591,1.591,0,0,1,152.264,33.352Zm0,1.348a3.056,3.056,0,0,0,1.635-.434,2.987,2.987,0,0,0,1.13-1.234,4.131,4.131,0,0,0,0-3.564,2.987,2.987,0,0,0-1.13-1.234,3.3,3.3,0,0,0-3.27,0,3,3,0,0,0-1.13,1.234,4.131,4.131,0,0,0,0,3.564,3,3,0,0,0,1.13,1.234A3.11,3.11,0,0,0,152.264,34.7Zm-7.064.046a4.019,4.019,0,0,0,1.756-.388,3.665,3.665,0,0,0,1.352-1.1l-.948-1.005a2.586,2.586,0,0,1-2.1,1.051,2.727,2.727,0,0,1-1.433-.388,2.87,2.87,0,0,1-.989-1.1,3.465,3.465,0,0,1-.364-1.6,3.4,3.4,0,0,1,.364-1.6,2.623,2.623,0,0,1,2.422-1.485,2.657,2.657,0,0,1,2.1,1.028l.948-1.005a3.6,3.6,0,0,0-1.332-1.1,4.019,4.019,0,0,0-1.756-.388,4.034,4.034,0,0,0-3.633,2.216,5.253,5.253,0,0,0,0,4.66,4.18,4.18,0,0,0,1.494,1.622A4.136,4.136,0,0,0,145.2,34.745Z"/></g></svg>