<svg xmlns="http://www.w3.org/2000/svg" width="128.653" height="97" viewBox="0 0 128.653 97"><defs><style>.a{fill:#91919b;opacity:0.096;}</style></defs><path class="a" d="M84.137-717C57.589-709.853,29-692.495,29-661.863,29-635.656,51.123-620,68.14-620h.34c9.189,0,19.4-6.467,19.4-16,0-8.168-3.4-11.912-4.765-12.253-14.635-2.723-24.165-11.912-24.165-24.846s10.891-23.484,29.611-32.333Zm69.091,0c-26.888,7.147-55.137,24.505-55.137,55.137,0,26.207,21.782,41.863,38.8,41.863h.34c9.53,0,19.4-6.467,19.4-16,0-8.168-3.063-11.912-4.425-12.253-14.975-2.723-24.505-11.912-24.505-24.846s10.891-23.484,29.951-32.333Z" transform="translate(-29 717)"/></svg>