<svg xmlns="http://www.w3.org/2000/svg" width="42.466" height="46.404" viewBox="0 0 42.466 46.404"><defs><style>.a{fill:#191a1d;}</style></defs><path class="a" d="M137.929,185.842a1.366,1.366,0,0,0,1.67-.969l1.447-5.443,4.76-.459,1.819,5.982a1.365,1.365,0,1,0,2.613-.794L148.58,178.7l.339-.033a1.365,1.365,0,1,0-.262-2.718l-.887.086-3.219-10.586a1.367,1.367,0,0,0-2.626.046L138.9,176.895l-2.45.236a1.365,1.365,0,1,0,.262,2.718l1.439-.139-1.186,4.462A1.366,1.366,0,0,0,137.929,185.842Zm5.4-15.009L145,176.307l-3.2.309Z" transform="translate(-124.877 -149.523)"/><path class="a" d="M290.78,110.514a1.365,1.365,0,0,0,1.365-1.365v-2.933c1.6.092,1.527.09,1.593.09a1.365,1.365,0,0,0,.078-2.728l-1.67-.1V101.8a1.365,1.365,0,1,0-2.731,0v1.522l-1.513-.088a1.365,1.365,0,1,0-.158,2.726l1.67.1v3.091A1.365,1.365,0,0,0,290.78,110.514Z" transform="translate(-262.362 -91.297)"/><path class="a" d="M57.777,6.43A1.365,1.365,0,0,0,55.789,8.3c6.243,6.636,7.453,18.76,2.7,27.026-4.108,7.14-11.717,9.831-21.425,7.577-9.934-2.307-13.8-12.706-12.4-21.32,1.589-9.762,10.383-20.5,29.934-18.647A1.365,1.365,0,0,0,54.853.219C35.611-1.608,24.066,8.24,21.965,21.145,20.2,31.988,25.656,43.059,36.444,45.564c10.163,2.36,19.388-.146,24.41-8.875C66.142,27.5,64.883,13.983,57.777,6.43Z" transform="translate(-21.638 0)"/></svg>