<svg xmlns="http://www.w3.org/2000/svg" width="82.237" height="49.342" viewBox="0 0 82.237 49.342"><defs><style>.a{fill:#191a1d;}</style></defs><path class="a" d="M79.968,15.962,44.125,4.95a10.265,10.265,0,0,0-6.012,0L2.269,15.962a3.025,3.025,0,0,0,0,5.858l6.249,1.92a10.126,10.126,0,0,0-2.3,6.026,3.965,3.965,0,0,0-.328,6.813L2.612,51.341a2.056,2.056,0,0,0,2.006,2.5h7.21a2.056,2.056,0,0,0,2.007-2.5l-3.28-14.762a3.955,3.955,0,0,0-.231-6.749,6.062,6.062,0,0,1,2.659-4.718l25.13,7.721a10.276,10.276,0,0,0,6.012,0L79.968,21.821a3.026,3.026,0,0,0,0-5.859Zm-34.636,20.8a14.384,14.384,0,0,1-8.428,0L18.269,31.04,16.447,45.619c0,4.542,11.045,8.224,24.671,8.224s24.671-3.681,24.671-8.224l-1.822-14.58L45.332,36.764Z" transform="translate(0 -4.5)"/></svg>