<svg xmlns="http://www.w3.org/2000/svg" width="40.383" height="56.174" viewBox="0 0 40.383 56.174"><defs><style>.a{fill:#191a1d;}</style></defs><path class="a" d="M101.14,39.368l2.569-4.168,4.636-1.581.514-4.869,3.488-3.434-1.658-4.609,1.658-4.609-3.488-3.434L108.344,7.8l-4.636-1.581L101.14,2.047l-4.859.587L92.154,0,88.026,2.634l-4.859-.587L80.6,6.216,75.963,7.8l-.514,4.869L71.962,16.1l1.658,4.609-1.658,4.609L75.45,28.75l.514,4.869L80.6,35.2l2.569,4.168,4.859-.587,4.127,2.634,4.127-2.634ZM77.953,20.708a14.2,14.2,0,1,1,14.2,14.2A14.216,14.216,0,0,1,77.953,20.708Z" transform="translate(-71.962 0)"/><path class="a" d="M167.5,89.333A10.907,10.907,0,1,0,178.4,100.24,10.919,10.919,0,0,0,167.5,89.333Z" transform="translate(-147.305 -79.532)"/><path class="a" d="M94.86,347.147l-5.78.7-3.054-4.955-1.038-.354-4.478,14,8.061-.443,6.307,5.04,3.711-11.6Z" transform="translate(-79.573 -304.954)"/><path class="a" d="M279.265,342.889l-3.054,4.955-5.78-.7-3.73,2.381,3.711,11.6,6.307-5.04,8.061.443-4.478-14Z" transform="translate(-245.335 -304.954)"/></svg>