<svg xmlns="http://www.w3.org/2000/svg" width="169.561" height="36.22" viewBox="0 0 169.561 36.22"><defs><style>.a{fill:#6c7ba0;opacity:0.5;}</style></defs><path class="a" d="M180.528,35.466l-1.021,2.892h-.085a20.531,20.531,0,0,0-.992-2.835l-5.472-13.75H167.6V43.687h3.544V30.164c0-.851,0-1.814-.028-3.005-.028-.6-.085-1.049-.113-1.389h.085a13.248,13.248,0,0,0,.51,1.871l6.577,15.99h2.495L187.19,27.5a17.167,17.167,0,0,0,.425-1.729h.085c-.085,1.616-.142,3.062-.17,3.941V43.6H191.3V21.716h-5.16Zm14.345-7.57h3.686V43.6h-3.686Zm1.871-6.634a2.208,2.208,0,0,0-1.559.624,2.09,2.09,0,0,0,0,3.033,2.185,2.185,0,0,0,1.559.6,2.261,2.261,0,0,0,1.559-.6,1.994,1.994,0,0,0,.652-1.5,2.1,2.1,0,0,0-.652-1.531,2.068,2.068,0,0,0-1.559-.624m14.884,6.492a10.281,10.281,0,0,0-2.07-.227,8.894,8.894,0,0,0-4.479,1.106,7.4,7.4,0,0,0-2.948,3.033A9.642,9.642,0,0,0,201.11,36.2a8.414,8.414,0,0,0,.992,4.054,6.8,6.8,0,0,0,2.778,2.807,8.179,8.179,0,0,0,4.054.992,8.91,8.91,0,0,0,4.451-1.049l.028-.028v-3.4l-.142.113a6.336,6.336,0,0,1-1.786.936,5.464,5.464,0,0,1-1.758.34A4.348,4.348,0,0,1,206.27,39.6a5.229,5.229,0,0,1-1.276-3.714,5.359,5.359,0,0,1,1.3-3.827,4.55,4.55,0,0,1,3.459-1.418,6.033,6.033,0,0,1,3.515,1.191l.142.113v-3.6l-.028-.028a8.549,8.549,0,0,0-1.758-.567m12.162-.113a3.889,3.889,0,0,0-2.495.879,5.289,5.289,0,0,0-1.418,2.126h-.028V27.9h-3.686V43.6h3.686V35.579a5.409,5.409,0,0,1,.907-3.317,2.841,2.841,0,0,1,2.381-1.276,9.092,9.092,0,0,1,1.106.142,2.909,2.909,0,0,1,.879.369l.142.113V27.925l-.085-.028a2.8,2.8,0,0,0-1.389-.255m10.036-.085a8.127,8.127,0,0,0-6.1,2.268A8.444,8.444,0,0,0,225.548,36a8.082,8.082,0,0,0,2.155,5.868,8.853,8.853,0,0,0,11.737-.142,8.416,8.416,0,0,0,2.183-6.1,8.2,8.2,0,0,0-2.07-5.925,7.461,7.461,0,0,0-5.727-2.155m2.948,12.077a3.716,3.716,0,0,1-3.09,1.3,3.872,3.872,0,0,1-3.175-1.361,5.6,5.6,0,0,1-1.134-3.771,5.952,5.952,0,0,1,1.134-3.856,3.9,3.9,0,0,1,3.147-1.361,3.77,3.77,0,0,1,3.062,1.3,5.815,5.815,0,0,1,1.134,3.827,6.559,6.559,0,0,1-1.077,3.912m13.069-5.216a8.83,8.83,0,0,1-2.24-1.162,1.61,1.61,0,0,1-.425-1.191,1.317,1.317,0,0,1,.6-1.134,2.731,2.731,0,0,1,1.616-.425,7.339,7.339,0,0,1,1.9.284,4.889,4.889,0,0,1,1.644.765l.142.113V28.208l-.085-.028a10.23,10.23,0,0,0-1.673-.482,11.364,11.364,0,0,0-1.814-.17,6.568,6.568,0,0,0-4.338,1.361,4.191,4.191,0,0,0-1.673,3.459,4.5,4.5,0,0,0,.369,1.928A4.3,4.3,0,0,0,245,35.749a9.879,9.879,0,0,0,2.268,1.276c.85.369,1.5.652,1.9.879a3.847,3.847,0,0,1,.851.68,1.612,1.612,0,0,1,.227.879c0,1.049-.794,1.559-2.41,1.559a6.363,6.363,0,0,1-2.041-.369,7.887,7.887,0,0,1-2.07-1.049l-.142-.113v3.6l.085.028a11,11,0,0,0,1.984.624,12.657,12.657,0,0,0,2.126.255,6.9,6.9,0,0,0,4.564-1.361,4.341,4.341,0,0,0,1.729-3.572,3.975,3.975,0,0,0-.907-2.693,11.5,11.5,0,0,0-3.317-1.956m13.948-6.861a8.127,8.127,0,0,0-6.1,2.268A8.564,8.564,0,0,0,255.514,36a8.082,8.082,0,0,0,2.155,5.868,8.852,8.852,0,0,0,11.737-.142,8.416,8.416,0,0,0,2.183-6.1,8.2,8.2,0,0,0-2.07-5.925,7.461,7.461,0,0,0-5.727-2.155m2.92,12.077a3.716,3.716,0,0,1-3.09,1.3,3.835,3.835,0,0,1-3.175-1.361,5.6,5.6,0,0,1-1.134-3.771,5.953,5.953,0,0,1,1.134-3.856,3.9,3.9,0,0,1,3.147-1.361,3.808,3.808,0,0,1,3.062,1.3,5.815,5.815,0,0,1,1.134,3.827,6.185,6.185,0,0,1-1.077,3.912m24.58-8.7V27.9h-3.714V23.247l-.113.028-3.515,1.049-.085.028V27.9h-5.557V25.912a3.109,3.109,0,0,1,.624-2.07,2.2,2.2,0,0,1,1.729-.68,4.137,4.137,0,0,1,1.644.369l.142.085v-3.2l-.085-.028a7.089,7.089,0,0,0-5.018.4,4.917,4.917,0,0,0-2.013,2.013,5.8,5.8,0,0,0-.737,2.92V27.9h-2.58V30.9h2.58V43.6h3.714V30.93h5.557v8.08c0,3.317,1.559,4.99,4.678,4.99a9.716,9.716,0,0,0,1.559-.17,5.1,5.1,0,0,0,1.162-.369l.028-.028V40.4l-.142.113a2.4,2.4,0,0,1-.766.34,2.6,2.6,0,0,1-.737.113,1.964,1.964,0,0,1-1.616-.6,3.07,3.07,0,0,1-.51-2.013V30.93Z" transform="translate(-121.731 -14.56)"/><path class="a" d="M0,0H17.379V17.379H0Z"/><path class="a" d="M67.7,0H85.079V17.379H67.7Z" transform="translate(-48.507)"/><path class="a" d="M0,67.7H17.379V85.079H0Z" transform="translate(0 -48.858)"/><path class="a" d="M67.7,67.7H85.079V85.079H67.7Z" transform="translate(-48.507 -48.858)"/></svg>