<?xml version="1.0" encoding="utf-8"?>
<!-- Generator: Adobe Illustrator 24.2.3, SVG Export Plug-In . SVG Version: 6.00 Build 0)  -->
<svg version="1.1" id="Capa_1" xmlns="http://www.w3.org/2000/svg" xmlns:xlink="http://www.w3.org/1999/xlink" x="0px" y="0px"
	 width="489.9px" height="469px" viewBox="0 0 489.9 469" style="enable-background:new 0 0 489.9 469;" xml:space="preserve">
<path style="fill:#001945;" d="M483.9,194.1c7.4-6.5,8.1-17.7,1.6-25.1c-3.1-3.5-7.4-5.6-12-6l-142.2-10.6
	c-6.6-0.5-12.4-4.6-15-10.7l-56.5-131c-3.9-9-14.4-13.1-23.4-9.2c-4.2,1.8-7.6,5.3-9.4,9.5l-54.1,132c-2.5,6.1-8.2,10.4-14.8,11
	l-142,13.2c-9.8,0.9-16.9,9.6-16,19.3c0.4,4.6,2.7,8.9,6.2,11.9l108.8,92.2c5,4.3,7.3,11,5.9,17.4L89.7,447.3
	c-2.2,9.6,3.9,19.1,13.4,21.2c4.5,1,9.3,0.2,13.3-2.2l121.3-75c5.6-3.5,12.7-3.5,18.4-0.2l122.7,72.8c8.4,5,19.3,2.2,24.3-6.2
	c2.4-4,3.1-8.8,2-13.3l-33.8-138.6c-1.6-6.4,0.5-13.2,5.5-17.6L483.9,194.1z"/>
</svg>
