<svg xmlns="http://www.w3.org/2000/svg" width="58.864" height="90.609" viewBox="0 0 58.864 90.609"><defs><style>.a{fill:#191a1d;}</style></defs><g transform="translate(0)"><path class="a" d="M178.986,342.973h26.756v13.378H178.986Z" transform="translate(-162.932 -281.795)"/><path class="a" d="M118.418,57.973A29.465,29.465,0,0,0,88.986,87.4v40.134a10.715,10.715,0,0,0,10.7,10.7h37.459a10.715,10.715,0,0,0,10.7-10.7V87.4A29.465,29.465,0,0,0,118.418,57.973ZM102.364,82.054h32.107V87.4H129.12v5.351h-5.351V87.4h-21.4Zm34.783,45.485H99.688V103.458h37.459Z" transform="translate(-88.986 -47.632)"/><path class="a" d="M327.86,5.207,312.674,0l-2.221,6.479A34.81,34.81,0,0,1,324.57,14.8Z" transform="translate(-270.949)"/><path class="a" d="M117.339,6.479,115.118,0,99.932,5.207l3.29,9.6A34.812,34.812,0,0,1,117.339,6.479Z" transform="translate(-97.98)"/></g></svg>